<svg version="1.1" viewBox="0.0 0.0 960.0 540.0" fill="none" stroke="none" stroke-linecap="square" stroke-miterlimit="10" xmlns:xlink="http://www.w3.org/1999/xlink" xmlns="http://www.w3.org/2000/svg"><clipPath id="g12fd46784b7_0_233.0"><path d="m0 0l960.0 0l0 540.0l-960.0 0l0 -540.0z" clip-rule="nonzero"/></clipPath><g clip-path="url(#g12fd46784b7_0_233.0)"><path fill="#000000" d="m0 0l960.0 0l0 540.0l-960.0 0z" fill-rule="evenodd"/><path fill="#ffffff" d="m244.30971 75.92388l133.6378 0l0 75.90551l-133.6378 0z" fill-rule="evenodd"/><path stroke="#595959" stroke-width="1.0" stroke-linejoin="round" stroke-linecap="butt" d="m244.30971 75.92388l133.6378 0l0 75.90551l-133.6378 0z" fill-rule="evenodd"/><path fill="#000000" d="m311.9743 115.51038l-4.0 0l0 6.90625l-2.265625 0l0 -17.0625l5.65625 0q2.875 0 4.421875 1.3125q1.5625 1.3125 1.5625 3.8125q0 1.59375 -0.859375 2.78125q-0.859375 1.1875 -2.40625 1.765625l4.015625 7.25l0 0.140625l-2.421875 0l-3.703125 -6.90625zm-4.0 -1.84375l3.453125 0q1.671875 0 2.65625 -0.859375q1.0 -0.875 1.0 -2.328125q0 -1.578125 -0.953125 -2.421875q-0.9375 -0.84375 -2.71875 -0.859375l-3.4375 0l0 6.46875z" fill-rule="nonzero"/><path fill="#ffffff" d="m403.57742 74.09449l133.63779 0l0 75.90551l-133.63779 0z" fill-rule="evenodd"/><path stroke="#595959" stroke-width="1.0" stroke-linejoin="round" stroke-linecap="butt" d="m403.57742 74.09449l133.63779 0l0 75.90551l-133.63779 0z" fill-rule="evenodd"/><path fill="#000000" d="m437.30063 113.89974l0 6.6875l-2.25 0l0 -17.0625l6.296875 0q2.796875 0 4.375 1.4375q1.59375 1.421875 1.59375 3.78125q0 2.484375 -1.5625 3.828125q-1.546875 1.328125 -4.4375 1.328125l-4.015625 0zm0 -1.828125l4.046875 0q1.796875 0 2.75 -0.84375q0.96875 -0.859375 0.96875 -2.46875q0 -1.515625 -0.96875 -2.421875q-0.953125 -0.921875 -2.625 -0.96875l-4.171875 0l0 6.703125zm16.878906 5.34375l2.953125 -9.515625l2.3125 0l-5.09375 14.640625q-1.1875 3.171875 -3.765625 3.171875l-0.40625 -0.03125l-0.8125 -0.15625l0 -1.765625l0.59375 0.046875q1.09375 0 1.703125 -0.453125q0.625 -0.4375 1.015625 -1.609375l0.484375 -1.296875l-4.515625 -12.546875l2.359375 0l3.171875 9.515625zm10.136719 -12.578125l0 3.0625l2.375 0l0 1.6875l-2.375 0l0 7.859375q0 0.765625 0.3125 1.140625q0.328125 0.375 1.09375 0.375q0.375 0 1.03125 -0.140625l0 1.765625q-0.859375 0.234375 -1.671875 0.234375q-1.453125 0 -2.1875 -0.875q-0.734375 -0.890625 -0.734375 -2.5l0 -7.859375l-2.3125 0l0 -1.6875l2.3125 0l0 -3.0625l2.15625 0zm7.0742188 4.609375q1.4375 -1.78125 3.75 -1.78125q4.015625 0 4.046875 4.546875l0 8.375l-2.15625 0l0 -8.390625q-0.015625 -1.375 -0.640625 -2.03125q-0.609375 -0.65625 -1.90625 -0.65625q-1.0625 0 -1.859375 0.5625q-0.796875 0.5625 -1.234375 1.484375l0 9.03125l-2.171875 0l0 -18.0l2.171875 0l0 6.859375zm10.46875 4.6875q0 -1.875 0.734375 -3.359375q0.734375 -1.484375 2.03125 -2.296875q1.3125 -0.8125 3.0 -0.8125q2.578125 0 4.171875 1.796875q1.609375 1.796875 1.609375 4.765625l0 0.15625q0 1.859375 -0.71875 3.328125q-0.703125 1.46875 -2.015625 2.296875q-1.3125 0.8125 -3.03125 0.8125q-2.578125 0 -4.1875 -1.796875q-1.59375 -1.796875 -1.59375 -4.75l0 -0.140625zm2.1875 0.25q0 2.109375 0.96875 3.390625q0.984375 1.28125 2.625 1.28125q1.65625 0 2.625 -1.296875q0.96875 -1.296875 0.96875 -3.625q0 -2.09375 -0.984375 -3.390625q-0.984375 -1.296875 -2.625 -1.296875q-1.609375 0 -2.59375 1.28125q-0.984375 1.28125 -0.984375 3.65625zm14.125 -6.484375l0.078125 1.59375q1.453125 -1.828125 3.796875 -1.828125q4.015625 0 4.046875 4.546875l0 8.375l-2.15625 0l0 -8.390625q-0.015625 -1.375 -0.640625 -2.03125q-0.609375 -0.65625 -1.90625 -0.65625q-1.0625 0 -1.859375 0.5625q-0.796875 0.5625 -1.234375 1.484375l0 9.03125l-2.171875 0l0 -12.6875l2.046875 0z" fill-rule="nonzero"/><path fill="#ffffff" d="m557.6273 74.09449l133.63776 0l0 75.90551l-133.63776 0z" fill-rule="evenodd"/><path stroke="#595959" stroke-width="1.0" stroke-linejoin="round" stroke-linecap="butt" d="m557.6273 74.09449l133.63776 0l0 75.90551l-133.63776 0z" fill-rule="evenodd"/><path fill="#000000" d="m617.5614 115.16537q-0.3125 2.71875 -2.0 4.1875q-1.671875 1.46875 -4.46875 1.46875q-3.015625 0 -4.84375 -2.171875q-1.828125 -2.171875 -1.828125 -5.796875l0 -1.640625q0 -2.375 0.84375 -4.171875q0.859375 -1.8125 2.421875 -2.78125q1.5625 -0.96875 3.609375 -0.96875q2.71875 0 4.359375 1.515625q1.640625 1.515625 1.90625 4.203125l-2.265625 0q-0.28125 -2.046875 -1.265625 -2.953125q-0.984375 -0.921875 -2.734375 -0.921875q-2.15625 0 -3.390625 1.59375q-1.21875 1.59375 -1.21875 4.546875l0 1.640625q0 2.78125 1.15625 4.421875q1.171875 1.640625 3.25 1.640625q1.875 0 2.875 -0.84375q1.0 -0.859375 1.328125 -2.96875l2.265625 0zm8.949219 -3.734375l4.75 0l0 2.046875l-4.75 0l0 5.390625l-2.1875 0l0 -5.390625l-4.75 0l0 -2.046875l4.75 0l0 -4.984375l2.1875 0l0 4.984375zm13.605469 0l4.75 0l0 2.046875l-4.75 0l0 5.390625l-2.1875 0l0 -5.390625l-4.75 0l0 -2.046875l4.75 0l0 -4.984375l2.1875 0l0 4.984375z" fill-rule="nonzero"/><path fill="#ffffff" d="m94.67191 187.15749l133.63779 0l0 75.9055l-133.63779 0z" fill-rule="evenodd"/><path stroke="#595959" stroke-width="1.0" stroke-linejoin="round" stroke-linecap="butt" d="m94.67191 187.15749l133.63779 0l0 75.9055l-133.63779 0z" fill-rule="evenodd"/><path fill="#000000" d="m124.02988 226.96274l0 6.6875l-2.25 0l0 -17.0625l6.296875 0q2.796875 0 4.375 1.4375q1.59375 1.421875 1.59375 3.78125q0 2.484375 -1.5625 3.828125q-1.546875 1.328125 -4.4375 1.328125l-4.015625 0zm0 -1.828125l4.046875 0q1.796875 0 2.75 -0.84375q0.96875 -0.859375 0.96875 -2.46875q0 -1.515625 -0.96875 -2.421875q-0.953125 -0.921875 -2.625 -0.96875l-4.171875 0l0 6.703125zm20.246094 8.515625q-0.1875 -0.375 -0.296875 -1.34375q-1.515625 1.578125 -3.609375 1.578125q-1.875 0 -3.078125 -1.0625q-1.203125 -1.0625 -1.203125 -2.6875q0 -1.984375 1.5 -3.078125q1.515625 -1.09375 4.234375 -1.09375l2.109375 0l0 -1.0q0 -1.140625 -0.6875 -1.8125q-0.671875 -0.671875 -1.984375 -0.671875q-1.171875 0 -1.953125 0.59375q-0.78125 0.578125 -0.78125 1.40625l-2.1875 0q0 -0.9375 0.671875 -1.828125q0.6875 -0.890625 1.828125 -1.40625q1.15625 -0.515625 2.546875 -0.515625q2.1875 0 3.421875 1.109375q1.25 1.09375 1.296875 3.015625l0 5.828125q0 1.75 0.453125 2.78125l0 0.1875l-2.28125 0zm-3.59375 -1.65625q1.015625 0 1.921875 -0.515625q0.921875 -0.53125 1.328125 -1.375l0 -2.609375l-1.6875 0q-3.984375 0 -3.984375 2.328125q0 1.03125 0.671875 1.609375q0.6875 0.5625 1.75 0.5625zm14.9453125 -9.078125q-0.484375 -0.078125 -1.0625 -0.078125q-2.125 0 -2.890625 1.8125l0 9.0l-2.171875 0l0 -12.6875l2.109375 0l0.03125 1.46875q1.078125 -1.703125 3.03125 -1.703125q0.625 0 0.953125 0.171875l0 2.015625zm1.2421875 4.28125q0 -2.984375 1.375 -4.71875q1.375 -1.75 3.6875 -1.75q2.25 0 3.546875 1.515625l0.09375 -1.28125l1.984375 0l0 17.5625l-2.15625 0l0 -6.046875q-1.3125 1.40625 -3.5 1.40625q-2.296875 0 -3.671875 -1.78125q-1.359375 -1.796875 -1.359375 -4.75l0 -0.15625zm2.171875 0.25q0 2.1875 0.921875 3.4375q0.921875 1.234375 2.484375 1.234375q1.921875 0 2.953125 -1.71875l0 -6.203125q-1.03125 -1.6875 -2.9375 -1.6875q-1.5625 0 -2.5 1.25q-0.921875 1.25 -0.921875 3.6875zm19.828125 4.953125q-1.265625 1.484375 -3.71875 1.484375q-2.015625 0 -3.078125 -1.171875q-1.0625 -1.1875 -1.078125 -3.5l0 -8.25l2.171875 0l0 8.203125q0 2.875 2.34375 2.875q2.484375 0 3.296875 -1.84375l0 -9.234375l2.171875 0l0 12.6875l-2.0625 0l-0.046875 -1.25zm10.667969 1.484375q-2.578125 0 -4.203125 -1.6875q-1.609375 -1.703125 -1.609375 -4.53125l0 -0.40625q0 -1.890625 0.71875 -3.359375q0.71875 -1.484375 2.015625 -2.328125q1.296875 -0.84375 2.8125 -0.84375q2.46875 0 3.828125 1.640625q1.375 1.625 1.375 4.65625l0 0.90625l-8.578125 0q0.046875 1.875 1.09375 3.03125q1.046875 1.15625 2.65625 1.15625q1.15625 0 1.953125 -0.46875q0.796875 -0.46875 1.390625 -1.25l1.328125 1.03125q-1.59375 2.453125 -4.78125 2.453125zm-0.265625 -11.375q-1.3125 0 -2.203125 0.96875q-0.890625 0.953125 -1.109375 2.671875l6.359375 0l0 -0.171875q-0.09375 -1.640625 -0.890625 -2.546875q-0.796875 -0.921875 -2.15625 -0.921875zm10.652344 -4.609375l0 3.0625l2.375 0l0 1.6875l-2.375 0l0 7.859375q0 0.765625 0.3125 1.140625q0.328125 0.375 1.09375 0.375q0.375 0 1.03125 -0.140625l0 1.765625q-0.859375 0.234375 -1.671875 0.234375q-1.453125 0 -2.1875 -0.875q-0.734375 -0.890625 -0.734375 -2.5l0 -7.859375l-2.3125 0l0 -1.6875l2.3125 0l0 -3.0625l2.15625 0z" fill-rule="nonzero"/><path fill="#ffffff" d="m94.6706 287.72177l133.63779 0l0 75.90552l-133.63779 0z" fill-rule="evenodd"/><path stroke="#595959" stroke-width="1.0" stroke-linejoin="round" stroke-linecap="butt" d="m94.6706 287.72177l133.63779 0l0 75.90552l-133.63779 0z" fill-rule="evenodd"/><path fill="#000000" d="m153.4563 328.79266q-0.3125 2.71875 -2.0 4.1875q-1.671875 1.46875 -4.46875 1.46875q-3.015625 0 -4.84375 -2.171875q-1.828125 -2.171875 -1.828125 -5.796875l0 -1.640625q0 -2.375 0.84375 -4.171875q0.859375 -1.8125 2.421875 -2.78125q1.5625 -0.96875 3.609375 -0.96875q2.71875 0 4.359375 1.515625q1.640625 1.515625 1.90625 4.203125l-2.265625 0q-0.28125 -2.046875 -1.265625 -2.953125q-0.984375 -0.921875 -2.734375 -0.921875q-2.15625 0 -3.390625 1.59375q-1.21875 1.59375 -1.21875 4.546875l0 1.640625q0 2.78125 1.15625 4.421875q1.171875 1.640625 3.25 1.640625q1.875 0 2.875 -0.84375q1.0 -0.859375 1.328125 -2.96875l2.265625 0zm8.105469 -2.1875q-2.90625 -0.828125 -4.21875 -2.03125q-1.3125 -1.21875 -1.3125 -3.0q0 -2.015625 1.609375 -3.328125q1.609375 -1.328125 4.1875 -1.328125q1.75 0 3.125 0.6875q1.390625 0.671875 2.140625 1.875q0.75 1.1875 0.75 2.609375l-2.25 0q0 -1.546875 -0.984375 -2.4375q-0.984375 -0.890625 -2.78125 -0.890625q-1.671875 0 -2.609375 0.734375q-0.921875 0.734375 -0.921875 2.03125q0 1.046875 0.875 1.765625q0.890625 0.71875 3.015625 1.328125q2.140625 0.59375 3.328125 1.3125q1.203125 0.71875 1.78125 1.6875q0.59375 0.953125 0.59375 2.25q0 2.078125 -1.625 3.328125q-1.609375 1.25 -4.328125 1.25q-1.75 0 -3.28125 -0.671875q-1.515625 -0.671875 -2.34375 -1.84375q-0.828125 -1.171875 -0.828125 -2.671875l2.265625 0q0 1.546875 1.140625 2.453125q1.140625 0.890625 3.046875 0.890625q1.78125 0 2.734375 -0.71875q0.953125 -0.734375 0.953125 -1.984375q0 -1.25 -0.890625 -1.9375q-0.875 -0.6875 -3.171875 -1.359375zm14.847656 4.625l4.875 -14.078125l2.46875 0l-6.328125 17.0625l-2.0 0l-6.3125 -17.0625l2.453125 0l4.84375 14.078125z" fill-rule="nonzero"/><path fill="#000000" fill-opacity="0.0" d="m228.30971 225.11023c121.03938 0 242.07875 -37.55905 242.07875 -75.1181" fill-rule="evenodd"/><path stroke="#ffffff" stroke-width="1.0" stroke-linejoin="round" stroke-linecap="butt" d="m232.09967 225.09648l1.8832855 -0.013626099c1.8907928 -0.018188477 3.7811127 -0.045410156 5.6705017 -0.08149719c3.7787933 -0.07221985 7.5538635 -0.17996216 11.321594 -0.32209778c7.5354156 -0.28427124 15.041275 -0.7060547 22.488022 -1.2562408c14.893524 -1.1003723 29.550629 -2.7142334 43.734924 -4.7682495c28.368591 -4.108017 54.845978 -9.976624 77.54083 -17.018936c22.694885 -7.042328 41.6073 -15.258377 54.845978 -24.06128c6.6193542 -4.4014435 11.820251 -8.9496155 15.3663025 -13.571136c1.7730408 -2.3107758 3.1323853 -4.6398773 4.0484924 -6.978134c0.2290039 -0.58457947 0.43029785 -1.1697083 0.6034546 -1.7552795c0.08657837 -0.29278564 0.16610718 -0.5856781 0.23852539 -0.8786621c0.036193848 -0.14649963 0.07064819 -0.29301453 0.10333252 -0.43954468l0.040283203 -0.19119263" fill-rule="evenodd"/><path fill="#ffffff" stroke="#ffffff" stroke-width="1.0" stroke-linecap="butt" d="m228.80971 225.10843c-0.0032958984 -0.9085083 0.7305145 -1.6476746 1.6390228 -1.6509705c0.9085083 -0.0032958984 1.6476593 0.7305298 1.6509552 1.6390228c0.0032958984 0.9085083 -0.7305145 1.6476593 -1.6390228 1.6509552c-0.90849304 0.0032958984 -1.6476593 -0.7305145 -1.6509552 -1.6390076z" fill-rule="nonzero"/><path fill="#ffffff" stroke="#ffffff" stroke-width="1.0" stroke-linecap="butt" d="m470.33524 150.48929c0.90338135 0.09666443 1.557312 0.9073334 1.4606323 1.8106842c-0.09664917 0.90335083 -0.9073181 1.557312 -1.810669 1.4606323c-0.90335083 -0.09666443 -1.557312 -0.9073334 -1.4606323 -1.8106842c0.09664917 -0.90335083 0.9073181 -1.5572968 1.810669 -1.4606323z" fill-rule="nonzero"/><path fill="#000000" fill-opacity="0.0" d="m311.1286 151.82939c0 23.73491 78.33072 47.698166 156.66144 47.46982c78.33069 -0.22834778 156.66138 -24.6483 156.66138 -49.296585" fill-rule="evenodd"/><path stroke="#ffffff" stroke-width="1.0" stroke-linejoin="round" stroke-linecap="butt" d="m311.76562 155.56548l0.052978516 0.15597534c0.065093994 0.1850586 0.13470459 0.3700409 0.20880127 0.55496216c0.592865 1.479248 1.4725647 2.9534302 2.6199646 4.41658c2.2948608 2.9263 5.660614 5.808487 9.944336 8.598831c8.567413 5.580719 20.80658 10.794128 35.49359 15.2586975c29.374023 8.929138 68.53937 14.862869 107.70474 14.748688c39.165344 -0.11416626 78.33069 -6.276245 107.70471 -15.490814c14.687012 -4.6072845 26.926208 -9.977692 35.49359 -15.736786c4.2836914 -2.8795624 7.649475 -5.8562775 9.944336 -8.883377c1.1473999 -1.5135498 2.0271606 -3.039688 2.619934 -4.572586c0.07409668 -0.19160461 0.1437378 -0.38331604 0.20880127 -0.5751343c0.032592773 -0.09590149 0.06402588 -0.1918335 0.09429932 -0.28778076l0.0020751953 -0.006881714" fill-rule="evenodd"/><path fill="#ffffff" stroke="#ffffff" stroke-width="1.0" stroke-linecap="butt" d="m311.21265 152.32228c0.89559937 -0.1526947 1.7453918 0.44952393 1.8981018 1.345108c0.15267944 0.8955841 -0.44952393 1.7453918 -1.3451233 1.8980865c-0.89556885 0.15270996 -1.7453918 -0.44952393 -1.8980713 -1.345108c-0.15270996 -0.8955841 0.44952393 -1.7453766 1.3450928 -1.8980865z" fill-rule="nonzero"/><path fill="#ffffff" stroke="#ffffff" stroke-width="1.0" stroke-linecap="butt" d="m624.3731 150.49646c0.89733887 0.14228821 1.5093384 0.9850464 1.3670654 1.8823547c-0.14233398 0.8972931 -0.9850464 1.5093384 -1.8823853 1.3670349c-0.89727783 -0.14230347 -1.5093384 -0.98506165 -1.3670044 -1.8823547c0.14227295 -0.8972931 0.9850464 -1.5093384 1.8823242 -1.3670349z" fill-rule="nonzero"/><path fill="#000000" fill-opacity="0.0" d="m470.39633 150.0c0 87.842514 -121.03937 175.68503 -242.07875 175.68503" fill-rule="evenodd"/><path stroke="#ffffff" stroke-width="1.0" stroke-linejoin="round" stroke-linecap="butt" d="m470.3204 153.78923l-0.012237549 0.3280487c-0.058654785 1.3722076 -0.14639282 2.7440796 -0.26275635 4.11528c-0.23269653 2.7424011 -0.57995605 5.4821167 -1.0379333 8.216461c-0.9161072 5.4687195 -2.2754517 10.91597 -4.0484924 16.320358c-3.546051 10.808746 -8.746948 21.445923 -15.3663025 31.739975c-13.238678 20.588089 -32.151093 39.803635 -54.845978 56.274124c-22.694855 16.470459 -49.17224 30.195862 -77.54083 39.80362c-14.184296 4.803894 -28.8414 8.578369 -43.734924 11.151886c-7.446747 1.2867737 -14.952606 2.273285 -22.488022 2.9381104c-3.7677155 0.33239746 -7.542801 0.5843811 -11.321594 0.7532654c-1.889389 0.08444214 -3.7797089 0.1481018 -5.6705017 0.19067383c-0.47268677 0.010650635 -0.94540405 0.019958496 -1.4181366 0.027954102l-0.46522522 0.0065612793" fill-rule="evenodd"/><path fill="#ffffff" stroke="#ffffff" stroke-width="1.0" stroke-linecap="butt" d="m470.38632 150.4999c0.9083252 0.018203735 1.6299133 0.76930237 1.6116943 1.6776276c-0.018188477 0.9083252 -0.7692871 1.6299133 -1.6776123 1.6117249c-0.9083252 -0.018203735 -1.6299133 -0.76930237 -1.6117249 -1.6776276c0.018218994 -0.9083252 0.7693176 -1.6299133 1.6776428 -1.6117249z" fill-rule="nonzero"/><path fill="#ffffff" stroke="#ffffff" stroke-width="1.0" stroke-linecap="butt" d="m228.81757 325.68115c-0.0070648193 -0.9084778 0.7236786 -1.6506958 1.6321564 -1.6577454c0.9084778 -0.007080078 1.6506805 0.72366333 1.6577454 1.6321411c0.0070648193 0.9084778 -0.72366333 1.6506958 -1.6321564 1.6577454c-0.9084778 0.007080078 -1.6506653 -0.72366333 -1.6577454 -1.6321411z" fill-rule="nonzero"/><path fill="#000000" fill-opacity="0.0" d="m624.44617 150.0c0 12.5 -38.51178 24.992126 -77.02362 25.0c-38.51178 0.007873535 -77.02359 -12.468506 -77.02359 -24.937012" fill-rule="evenodd"/><path stroke="#ffffff" stroke-width="1.0" stroke-linejoin="round" stroke-linecap="butt" d="m623.3854 153.63852l-0.09057617 0.15675354c-0.0579834 0.09664917 -0.11810303 0.19320679 -0.18035889 0.28967285c-0.12445068 0.19296265 -0.25726318 0.38557434 -0.3982544 0.5778198c-1.1282959 1.5378723 -2.783142 3.0512848 -4.889221 4.515808c-4.212219 2.9290771 -10.229675 5.6627197 -17.450623 8.005966c-14.441956 4.6865234 -33.697876 7.8115234 -52.953796 7.81546c-19.25586 0.0039367676 -38.51178 -3.1131897 -52.953705 -7.789856c-7.220978 -2.3383484 -13.238434 -5.066559 -17.450684 -7.9894867c-2.106079 -1.4614563 -3.7608948 -2.9716034 -4.8891907 -4.506012c-0.14102173 -0.19178772 -0.2738037 -0.38397217 -0.3982849 -0.5764923c-0.06222534 -0.09625244 -0.12234497 -0.19259644 -0.18032837 -0.28901672l-0.08627319 -0.14889526" fill-rule="evenodd"/><path fill="#ffffff" stroke="#ffffff" stroke-width="1.0" stroke-linecap="butt" d="m624.3063 150.48001c0.8721924 0.25428772 1.3731079 1.1674805 1.1187744 2.039688c-0.25427246 0.8721924 -1.1674805 1.3731079 -2.0396729 1.1188202c-0.8721924 -0.25428772 -1.3731079 -1.1674805 -1.1188354 -2.0396729c0.2543335 -0.87220764 1.1674805 -1.3731232 2.039734 -1.1188354z" fill-rule="nonzero"/><path fill="#ffffff" stroke="#ffffff" stroke-width="1.0" stroke-linecap="butt" d="m470.53946 150.54285c0.8719177 -0.25534058 1.7857056 0.24449158 2.0410156 1.1163788c0.25534058 0.87190247 -0.24450684 1.7856903 -1.116394 2.0410156c-0.8718872 0.25532532 -1.785675 -0.24449158 -2.0410156 -1.116394c-0.25531006 -0.8718872 0.24450684 -1.785675 1.116394 -2.0410004z" fill-rule="nonzero"/><path fill="#000000" fill-opacity="0.0" d="m311.1286 151.82939c0 12.5 39.81891 25.228348 79.63782 25.0c39.81888 -0.22834778 79.63779 -13.413391 79.63779 -26.826767" fill-rule="evenodd"/><path stroke="#ffffff" stroke-width="1.0" stroke-linejoin="round" stroke-linecap="butt" d="m312.21695 155.45976l0.102142334 0.17147827c0.05996704 0.096969604 0.12213135 0.19384766 0.1864624 0.29066467c0.12866211 0.19361877 0.2659912 0.38694763 0.4118042 0.5799408c1.1665344 1.5438843 2.877533 3.0655823 5.0551147 4.5393524c4.355194 2.947525 10.576904 5.703308 18.042938 8.061325c14.932098 4.716049 34.841553 7.841049 54.751007 7.7268677c19.909424 -0.11416626 39.81888 -3.467514 54.750977 -8.468994c7.466034 -2.5007324 13.687744 -5.413513 18.042938 -8.539429c2.1776123 -1.5629578 3.8885803 -3.1792145 5.0551147 -4.823883c0.2916565 -0.4111786 0.5492859 -0.8241272 0.77163696 -1.2384491l0.047454834 -0.09214783" fill-rule="evenodd"/><path fill="#ffffff" stroke="#ffffff" stroke-width="1.0" stroke-linecap="butt" d="m311.2722 152.30833c0.87023926 -0.26087952 1.7872009 0.23309326 2.0480957 1.1033478c0.26089478 0.87023926 -0.23309326 1.7872009 -1.1033325 2.0480957c-0.87023926 0.26087952 -1.7872009 -0.23309326 -2.0480957 -1.1033478c-0.26089478 -0.87023926 0.23309326 -1.7872009 1.1033325 -2.0480957z" fill-rule="nonzero"/><path fill="#ffffff" stroke="#ffffff" stroke-width="1.0" stroke-linecap="butt" d="m470.27628 150.48598c0.8782654 0.23243713 1.401825 1.132843 1.1694031 2.0111237c-0.2324524 0.8782654 -1.1328735 1.401825 -2.011139 1.1693878c-0.8782654 -0.23243713 -1.401825 -1.132843 -1.1693726 -2.0111237c0.23242188 -0.8782654 1.132843 -1.401825 2.0111084 -1.1693878z" fill-rule="nonzero"/><path fill="#000000" fill-opacity="0.0" d="m228.30971 225.11023c41.417313 0 82.83464 -36.64566 82.83464 -73.291336" fill-rule="evenodd"/><path stroke="#ffffff" stroke-width="1.0" stroke-linejoin="round" stroke-linecap="butt" d="m232.09834 225.00842l0.0929718 -0.004425049c1.293045 -0.07044983 2.584793 -0.17558289 3.8740387 -0.31427002c2.578476 -0.2773285 5.1468353 -0.68888855 7.6949615 -1.2256927c5.0962677 -1.0735931 10.111649 -2.6482086 14.9652405 -4.6522675c9.707184 -4.008133 18.767212 -9.734009 26.53299 -16.605072c7.765747 -6.871063 14.237183 -14.887299 18.767212 -23.476135c2.2650146 -4.2944183 4.044647 -8.731979 5.2580566 -13.241104c0.60668945 -2.2545624 1.0718384 -4.5270386 1.3852844 -6.808441c0.07836914 -0.570343 0.14724731 -1.1412659 0.20651245 -1.7126007c0.02960205 -0.2856598 0.056854248 -0.5714264 0.081604004 -0.85728455l0.039489746 -0.5051117" fill-rule="evenodd"/><path fill="#ffffff" stroke="#ffffff" stroke-width="1.0" stroke-linecap="butt" d="m228.80952 225.0968c-0.024398804 -0.9081726 0.6920471 -1.6641846 1.6002197 -1.6885834c0.90818787 -0.024414062 1.6641998 0.69203186 1.6885986 1.6002197c0.024398804 0.9081726 -0.69203186 1.6641846 -1.6002197 1.6885834c-0.90818787 0.024414062 -1.6641846 -0.69203186 -1.6885986 -1.6002197z" fill-rule="nonzero"/><path fill="#ffffff" stroke="#ffffff" stroke-width="1.0" stroke-linecap="butt" d="m311.12488 152.31851c0.9078064 0.03540039 1.6150513 0.8000183 1.5796814 1.70784c-0.03540039 0.90782166 -0.8000183 1.6150665 -1.7078552 1.5796661c-0.9078064 -0.03538513 -1.6150513 -0.8000183 -1.5796509 -1.7078247c0.035369873 -0.90782166 0.8000183 -1.6150665 1.7078247 -1.5796814z" fill-rule="nonzero"/><path fill="#000000" fill-opacity="0.0" d="m228.30971 225.11023c198.063 0 396.12598 -37.55905 396.12598 -75.1181" fill-rule="evenodd"/><path stroke="#ffffff" stroke-width="1.0" stroke-linejoin="round" stroke-linecap="butt" d="m232.09972 225.10464l0.85198975 -0.0012817383c1.547287 -0.004547119 3.0944672 -0.011398315 4.641449 -0.020507812c3.093979 -0.018188477 6.18721 -0.045410156 9.278915 -0.08149719c6.1834106 -0.07221985 12.360809 -0.17996216 18.526093 -0.32209778c12.330597 -0.28427124 24.612793 -0.7060547 36.79831 -1.2562408c24.371063 -1.1003723 48.355255 -2.7142334 71.565735 -4.7682495c46.42102 -4.108017 89.747314 -9.976624 126.884125 -17.018936c37.13681 -7.042328 68.08414 -15.258377 89.747284 -24.06128c10.831543 -4.4014435 19.342102 -8.9496155 25.144714 -13.571136c2.9013062 -2.3107758 5.1256714 -4.6398773 6.624695 -6.978134c0.37475586 -0.58457947 0.7041626 -1.1697083 0.9874878 -1.7552795c0.1416626 -0.29278564 0.27178955 -0.5856781 0.39031982 -0.8786621c0.059265137 -0.14649963 0.115600586 -0.29301453 0.16906738 -0.43954468c0.026733398 -0.07325745 0.052734375 -0.14653015 0.07800293 -0.21981812l0.0017700195 -0.0053100586" fill-rule="evenodd"/><path fill="#ffffff" stroke="#ffffff" stroke-width="1.0" stroke-linecap="butt" d="m228.80971 225.1095c-0.0013427734 -0.9085083 0.7340698 -1.6460876 1.6425629 -1.6474304c0.9085083 -0.0013427734 1.6460876 0.73405457 1.6474304 1.6425629c0.0013427734 0.9085083 -0.73405457 1.6460876 -1.6425629 1.6474304c-0.9085083 0.0013427734 -1.6460876 -0.73405457 -1.6474304 -1.6425629z" fill-rule="nonzero"/><path fill="#ffffff" stroke="#ffffff" stroke-width="1.0" stroke-linecap="butt" d="m624.35046 150.4848c0.89520264 0.15486145 1.4953613 1.0061188 1.3405151 1.9013367c-0.15484619 0.89520264 -1.0061035 1.4953766 -1.9013062 1.3405151c-0.89520264 -0.15486145 -1.4954224 -1.0061035 -1.3405151 -1.9013214c0.15484619 -0.8952179 1.0061035 -1.4953918 1.9013062 -1.3405304z" fill-rule="nonzero"/><path fill="#000000" fill-opacity="0.0" d="m228.3084 325.67453c41.417313 0 82.83464 -86.92912 82.83464 -173.85826" fill-rule="evenodd"/><path stroke="#ffffff" stroke-width="1.0" stroke-linejoin="round" stroke-linecap="butt" d="m232.09079 325.43454l0.09921265 -0.012023926c1.293045 -0.16711426 2.584793 -0.4164734 3.8740387 -0.7454529c2.578476 -0.65789795 5.1468353 -1.6341553 7.6949615 -2.9075317c5.0962677 -2.546753 10.111649 -6.282013 14.9652405 -11.03595c9.707184 -9.507874 18.767212 -23.090546 26.53299 -39.38974c7.765747 -16.299225 14.237183 -35.314972 18.767212 -55.68898c2.2650146 -10.187012 4.044647 -20.713593 5.2580566 -31.409943c0.60668945 -5.3481903 1.0718384 -10.738815 1.3852844 -16.15065c0.15673828 -2.7059326 0.2755432 -5.41716 0.3551941 -8.1310425c0.039794922 -1.3569336 0.06982422 -2.7145538 0.08987427 -4.0724792l0.0031738281 -0.28457642" fill-rule="evenodd"/><path fill="#ffffff" stroke="#ffffff" stroke-width="1.0" stroke-linecap="butt" d="m228.80739 325.64288c-0.057525635 -0.90667725 0.6308594 -1.688324 1.5375366 -1.7458801c0.9066925 -0.057525635 1.6883392 0.6308594 1.7458649 1.5375366c0.057525635 0.90670776 -0.6308441 1.6883545 -1.5375366 1.7458801c-0.90667725 0.057525635 -1.688324 -0.6308594 -1.7458649 -1.5375366z" fill-rule="nonzero"/><path fill="#ffffff" stroke="#ffffff" stroke-width="1.0" stroke-linecap="butt" d="m311.13947 152.31625c0.9085083 0.0064849854 1.6397095 0.74819946 1.6332397 1.6566925c-0.0064697266 0.9084778 -0.74819946 1.6397095 -1.6566772 1.6332245c-0.9084778 -0.0064697266 -1.6397095 -0.74819946 -1.6332397 -1.6566772c0.0064697266 -0.90849304 0.74819946 -1.6397095 1.6566772 -1.6332397z" fill-rule="nonzero"/><path fill="#000000" fill-opacity="0.0" d="m228.3084 325.67453c198.063 0 396.12598 -87.842514 396.12598 -175.68503" fill-rule="evenodd"/><path stroke="#ffffff" stroke-width="1.0" stroke-linejoin="round" stroke-linecap="butt" d="m232.09839 325.6629l0.852005 -0.0043945312c1.547287 -0.010681152 3.0944672 -0.02670288 4.641449 -0.047973633c3.093979 -0.04257202 6.18721 -0.10623169 9.278915 -0.19067383c6.1834106 -0.16888428 12.360809 -0.42086792 18.526093 -0.7532654c12.330597 -0.66482544 24.612793 -1.6513367 36.79831 -2.9381104c24.371063 -2.5735168 48.355255 -6.347992 71.565735 -11.151886c46.42102 -9.607758 89.747314 -23.33316 126.884125 -39.80362c37.13678 -16.47049 68.08417 -35.686035 89.747314 -56.274124c10.831543 -10.294052 19.342102 -20.931229 25.144714 -31.739975c2.901245 -5.4043884 5.1256104 -10.851639 6.624634 -16.320358c0.7495117 -2.7343445 1.317688 -5.4740753 1.6984863 -8.216461c0.19036865 -1.3712006 0.33392334 -2.7430725 0.4298706 -4.11528l0.02166748 -0.3292694" fill-rule="evenodd"/><path fill="#ffffff" stroke="#ffffff" stroke-width="1.0" stroke-linecap="butt" d="m228.8084 325.673c-0.0027923584 -0.9085083 0.7314453 -1.6472473 1.6399536 -1.6500244c0.90849304 -0.0028076172 1.6472473 0.7314148 1.6500244 1.6399231c0.0027923584 0.9085083 -0.73143005 1.6472473 -1.6399384 1.6500549c-0.9085083 0.0027770996 -1.6472473 -0.7314453 -1.6500397 -1.6399536z" fill-rule="nonzero"/><path fill="#ffffff" stroke="#ffffff" stroke-width="1.0" stroke-linecap="butt" d="m624.4182 150.48924c0.90802 0.029418945 1.6203003 0.7893677 1.5908813 1.697403c-0.029418945 0.90802 -0.7893677 1.620285 -1.6974487 1.5908661c-0.90802 -0.029418945 -1.6202393 -0.7893677 -1.5908813 -1.697403c0.029418945 -0.90802 0.7893677 -1.620285 1.6974487 -1.5908661z" fill-rule="nonzero"/><path fill="#000000" fill-opacity="0.0" d="m473.9475 297.44357l359.27557 0l0 116.346466l-359.27557 0z" fill-rule="evenodd"/><path fill="#ffffff" d="m503.86664 329.27795q1.046875 0 1.6875 -0.578125q0.65625 -0.578125 0.6875 -1.53125l3.53125 0q-0.015625 1.4375 -0.78125 2.640625q-0.765625 1.1875 -2.109375 1.84375q-1.328125 0.65625 -2.953125 0.65625q-3.015625 0 -4.765625 -1.921875q-1.734375 -1.921875 -1.734375 -5.3125l0 -0.234375q0 -3.265625 1.734375 -5.203125q1.734375 -1.9375 4.75 -1.9375q2.640625 0 4.234375 1.5q1.59375 1.5 1.625 4.0l-3.53125 0q-0.03125 -1.09375 -0.6875 -1.765625q-0.640625 -0.6875 -1.703125 -0.6875q-1.3125 0 -1.984375 0.953125q-0.671875 0.953125 -0.671875 3.109375l0 0.390625q0 2.171875 0.65625 3.125q0.671875 0.953125 2.015625 0.953125zm7.463318 -4.40625q0 -2.09375 0.796875 -3.734375q0.8125 -1.640625 2.328125 -2.53125q1.515625 -0.90625 3.53125 -0.90625q2.84375 0 4.640625 1.75q1.8125 1.734375 2.015625 4.734375l0.03125 0.96875q0 3.234375 -1.8125 5.203125q-1.8125 1.953125 -4.859375 1.953125q-3.046875 0 -4.859375 -1.953125q-1.8125 -1.953125 -1.8125 -5.3125l0 -0.171875zm3.765625 0.28125q0 2.0 0.75 3.0625q0.75 1.0625 2.15625 1.0625q1.375 0 2.140625 -1.046875q0.765625 -1.0625 0.765625 -3.359375q0 -1.96875 -0.765625 -3.046875q-0.765625 -1.078125 -2.15625 -1.078125q-1.390625 0 -2.140625 1.078125q-0.75 1.0625 -0.75 3.328125zm24.572266 -0.015625q0 3.25 -1.484375 5.21875q-1.46875 1.953125 -3.984375 1.953125q-2.140625 0 -3.453125 -1.484375l0 6.640625l-3.765625 0l0 -19.5l3.5 0l0.125 1.375q1.375 -1.640625 3.5625 -1.640625q2.609375 0 4.046875 1.9375q1.453125 1.921875 1.453125 5.296875l0 0.203125zm-3.765625 -0.28125q0 -1.96875 -0.703125 -3.03125q-0.6875 -1.0625 -2.015625 -1.0625q-1.765625 0 -2.4375 1.34375l0 5.765625q0.6875 1.40625 2.46875 1.40625q2.6875 0 2.6875 -4.421875zm11.207642 1.859375l2.609375 -8.75l4.03125 0l-5.671875 16.265625l-0.3125 0.734375q-1.25 2.765625 -4.15625 2.765625q-0.828125 0 -1.671875 -0.25l0 -2.84375l0.578125 0.015625q1.0625 0 1.59375 -0.328125q0.53125 -0.328125 0.828125 -1.078125l0.4375 -1.171875l-4.9375 -14.109375l4.0625 0l2.609375 8.75zm22.9245 5.328125q-0.265625 -0.5 -0.375 -1.265625q-1.375 1.53125 -3.5625 1.53125q-2.0625 0 -3.421875 -1.203125q-1.359375 -1.203125 -1.359375 -3.015625q0 -2.25 1.65625 -3.4375q1.65625 -1.203125 4.796875 -1.21875l1.734375 0l0 -0.796875q0 -0.984375 -0.515625 -1.5625q-0.5 -0.59375 -1.578125 -0.59375q-0.9375 0 -1.484375 0.46875q-0.546875 0.453125 -0.546875 1.234375l-3.75 0q0 -1.21875 0.75 -2.25q0.75 -1.046875 2.125 -1.640625q1.390625 -0.59375 3.109375 -0.59375q2.59375 0 4.125 1.3125q1.53125 1.296875 1.53125 3.671875l0 6.109375q0.015625 2.0 0.5625 3.03125l0 0.21875l-3.796875 0zm-3.109375 -2.609375q0.828125 0 1.53125 -0.375q0.703125 -0.375 1.046875 -1.0l0 -2.421875l-1.40625 0q-2.828125 0 -3.015625 1.953125l-0.015625 0.21875q0 0.703125 0.5 1.171875q0.5 0.453125 1.359375 0.453125zm12.69751 -11.46875l0.125 1.625q1.5 -1.890625 4.046875 -1.890625q2.234375 0 3.328125 1.3125q1.09375 1.3125 1.109375 3.9375l0 9.09375l-3.75 0l0 -9.0q0 -1.203125 -0.53125 -1.734375q-0.515625 -0.546875 -1.71875 -0.546875q-1.59375 0 -2.390625 1.34375l0 9.9375l-3.765625 0l0 -14.078125l3.546875 0zm10.882202 6.9375q0 -3.296875 1.46875 -5.25q1.484375 -1.953125 4.046875 -1.953125q2.0625 0 3.40625 1.53125l0 -7.1875l3.765625 0l0 20.0l-3.390625 0l-0.1875 -1.5q-1.40625 1.765625 -3.609375 1.765625q-2.5 0 -4.0 -1.953125q-1.5 -1.96875 -1.5 -5.453125zm3.765625 0.265625q0 1.984375 0.6875 3.046875q0.6875 1.046875 2.0 1.046875q1.75 0 2.46875 -1.46875l0 -5.5625q-0.703125 -1.46875 -2.4375 -1.46875q-2.71875 0 -2.71875 4.40625zm24.330078 4.109375q1.046875 0 1.6875 -0.578125q0.65625 -0.578125 0.6875 -1.53125l3.53125 0q-0.015625 1.4375 -0.78125 2.640625q-0.765625 1.1875 -2.109375 1.84375q-1.328125 0.65625 -2.953125 0.65625q-3.015625 0 -4.765625 -1.921875q-1.734375 -1.921875 -1.734375 -5.3125l0 -0.234375q0 -3.265625 1.734375 -5.203125q1.734375 -1.9375 4.75 -1.9375q2.640625 0 4.234375 1.5q1.59375 1.5 1.625 4.0l-3.53125 0q-0.03125 -1.09375 -0.6875 -1.765625q-0.640625 -0.6875 -1.703125 -0.6875q-1.3125 0 -1.984375 0.953125q-0.671875 0.953125 -0.671875 3.109375l0 0.390625q0 2.171875 0.65625 3.125q0.671875 0.953125 2.015625 0.953125zm7.463318 -4.40625q0 -2.09375 0.796875 -3.734375q0.8125 -1.640625 2.328125 -2.53125q1.515625 -0.90625 3.53125 -0.90625q2.84375 0 4.640625 1.75q1.8125 1.734375 2.015625 4.734375l0.03125 0.96875q0 3.234375 -1.8125 5.203125q-1.8125 1.953125 -4.859375 1.953125q-3.046875 0 -4.859375 -1.953125q-1.8125 -1.953125 -1.8125 -5.3125l0 -0.171875zm3.765625 0.28125q0 2.0 0.75 3.0625q0.75 1.0625 2.15625 1.0625q1.375 0 2.140625 -1.046875q0.765625 -1.0625 0.765625 -3.359375q0 -1.96875 -0.765625 -3.046875q-0.765625 -1.078125 -2.15625 -1.078125q-1.390625 0 -2.140625 1.078125q-0.75 1.0625 -0.75 3.328125zm15.353455 -7.1875l0.125 1.625q1.5 -1.890625 4.046875 -1.890625q2.234375 0 3.328125 1.3125q1.09375 1.3125 1.109375 3.9375l0 9.09375l-3.75 0l0 -9.0q0 -1.203125 -0.53125 -1.734375q-0.515625 -0.546875 -1.71875 -0.546875q-1.59375 0 -2.390625 1.34375l0 9.9375l-3.765625 0l0 -14.078125l3.546875 0zm16.741577 9.484375l2.609375 -9.484375l3.9375 0l-4.75 14.078125l-3.59375 0l-4.75 -14.078125l3.921875 0l2.625 9.484375zm14.505188 4.859375q-3.09375 0 -5.046875 -1.90625q-1.9375 -1.90625 -1.9375 -5.0625l0 -0.359375q0 -2.125 0.8125 -3.796875q0.828125 -1.671875 2.328125 -2.578125q1.5 -0.90625 3.4375 -0.90625q2.890625 0 4.546875 1.828125q1.65625 1.8125 1.65625 5.15625l0 1.546875l-8.96875 0q0.1875 1.375 1.09375 2.21875q0.921875 0.828125 2.328125 0.828125q2.171875 0 3.40625 -1.578125l1.84375 2.0625q-0.84375 1.203125 -2.296875 1.875q-1.4375 0.671875 -3.203125 0.671875zm-0.421875 -11.5625q-1.125 0 -1.828125 0.765625q-0.6875 0.75 -0.875 2.15625l5.21875 0l0 -0.3125q-0.015625 -1.25 -0.671875 -1.921875q-0.65625 -0.6875 -1.84375 -0.6875zm16.267761 0.734375q-0.765625 -0.09375 -1.359375 -0.09375q-2.125 0 -2.796875 1.4375l0 9.21875l-3.765625 0l0 -14.078125l3.5625 0l0.109375 1.671875q1.125 -1.9375 3.125 -1.9375q0.625 0 1.171875 0.171875l-0.046875 3.609375zm6.9675903 -6.984375l0 3.46875l2.40625 0l0 2.75l-2.40625 0l0 7.03125q0 0.78125 0.296875 1.125q0.296875 0.328125 1.140625 0.328125q0.625 0 1.109375 -0.078125l0 2.84375q-1.109375 0.34375 -2.28125 0.34375q-3.953125 0 -4.03125 -4.0l0 -7.59375l-2.0625 0l0 -2.75l2.0625 0l0 -3.46875l3.765625 0z" fill-rule="nonzero"/><path fill="#ffffff" d="m713.1692 319.66858q1.59375 -1.96875 4.15625 -1.96875q4.46875 0 4.515625 5.03125l0 9.3125l-2.421875 0l0 -9.3125q0 -1.53125 -0.6875 -2.25q-0.6875 -0.734375 -2.125 -0.734375q-1.171875 0 -2.0625 0.625q-0.890625 0.625 -1.375 1.640625l0 10.03125l-2.40625 0l0 -20.0l2.40625 0l0 7.625zm20.963013 12.375q-0.203125 -0.421875 -0.34375 -1.484375q-1.671875 1.75 -4.0 1.75q-2.078125 0 -3.421875 -1.171875q-1.328125 -1.1875 -1.328125 -3.0q0 -2.203125 1.671875 -3.40625q1.671875 -1.21875 4.703125 -1.21875l2.34375 0l0 -1.109375q0 -1.265625 -0.765625 -2.015625q-0.75 -0.75 -2.21875 -0.75q-1.28125 0 -2.15625 0.65625q-0.875 0.640625 -0.875 1.578125l-2.421875 0q0 -1.0625 0.75 -2.046875q0.75 -0.984375 2.03125 -1.546875q1.28125 -0.578125 2.8125 -0.578125q2.4375 0 3.8125 1.21875q1.390625 1.21875 1.4375 3.34375l0 6.484375q0 1.9375 0.5 3.09375l0 0.203125l-2.53125 0zm-4.0 -1.828125q1.140625 0 2.15625 -0.578125q1.015625 -0.59375 1.46875 -1.53125l0 -2.890625l-1.890625 0q-4.421875 0 -4.421875 2.578125q0 1.140625 0.75 1.78125q0.765625 0.640625 1.9375 0.640625zm21.702698 -5.0625q0 3.21875 -1.46875 5.1875q-1.46875 1.96875 -3.984375 1.96875q-2.5625 0 -4.03125 -1.625l0 6.78125l-2.40625 0l0 -19.5l2.1875 0l0.125 1.5625q1.46875 -1.828125 4.078125 -1.828125q2.546875 0 4.015625 1.921875q1.484375 1.90625 1.484375 5.3125l0 0.21875zm-2.40625 -0.265625q0 -2.390625 -1.015625 -3.765625q-1.015625 -1.375 -2.78125 -1.375q-2.1875 0 -3.28125 1.9375l0 6.734375q1.078125 1.921875 3.296875 1.921875q1.734375 0 2.75 -1.375q1.03125 -1.375 1.03125 -4.078125zm17.361328 0.265625q0 3.21875 -1.46875 5.1875q-1.46875 1.96875 -3.984375 1.96875q-2.5625 0 -4.03125 -1.625l0 6.78125l-2.40625 0l0 -19.5l2.1875 0l0.125 1.5625q1.46875 -1.828125 4.078125 -1.828125q2.546875 0 4.015625 1.921875q1.484375 1.90625 1.484375 5.3125l0 0.21875zm-2.40625 -0.265625q0 -2.390625 -1.015625 -3.765625q-1.015625 -1.375 -2.78125 -1.375q-2.1875 0 -3.28125 1.9375l0 6.734375q1.078125 1.921875 3.296875 1.921875q1.734375 0 2.75 -1.375q1.03125 -1.375 1.03125 -4.078125zm11.314453 7.421875q-2.875 0 -4.671875 -1.875q-1.796875 -1.890625 -1.796875 -5.046875l0 -0.4375q0 -2.09375 0.796875 -3.734375q0.8125 -1.65625 2.25 -2.578125q1.4375 -0.9375 3.109375 -0.9375q2.75 0 4.265625 1.8125q1.53125 1.8125 1.53125 5.171875l0 1.0l-9.53125 0q0.046875 2.09375 1.203125 3.375q1.171875 1.28125 2.96875 1.28125q1.28125 0 2.15625 -0.515625q0.890625 -0.53125 1.546875 -1.390625l1.484375 1.15625q-1.78125 2.71875 -5.3125 2.71875zm-0.3125 -12.625q-1.453125 0 -2.4375 1.0625q-0.984375 1.046875 -1.21875 2.96875l7.046875 0l0 -0.1875q-0.109375 -1.828125 -1.0 -2.828125q-0.875 -1.015625 -2.390625 -1.015625zm10.856506 -1.71875l0.078125 1.765625q1.625 -2.03125 4.21875 -2.03125q4.46875 0 4.515625 5.03125l0 9.3125l-2.421875 0l0 -9.3125q0 -1.53125 -0.6875 -2.25q-0.6875 -0.734375 -2.125 -0.734375q-1.171875 0 -2.0625 0.625q-0.890625 0.625 -1.375 1.640625l0 10.03125l-2.40625 0l0 -14.078125l2.265625 0zm20.629639 10.34375q0 -0.984375 -0.734375 -1.515625q-0.734375 -0.546875 -2.5625 -0.9375q-1.828125 -0.390625 -2.90625 -0.9375q-1.0625 -0.546875 -1.578125 -1.296875q-0.515625 -0.75 -0.515625 -1.796875q0 -1.734375 1.453125 -2.921875q1.46875 -1.203125 3.75 -1.203125q2.390625 0 3.875 1.234375q1.5 1.234375 1.5 3.171875l-2.421875 0q0 -1.0 -0.84375 -1.703125q-0.828125 -0.71875 -2.109375 -0.71875q-1.3125 0 -2.0625 0.578125q-0.734375 0.5625 -0.734375 1.484375q0 0.875 0.6875 1.328125q0.6875 0.4375 2.484375 0.84375q1.8125 0.390625 2.921875 0.953125q1.125 0.5625 1.671875 1.359375q0.546875 0.78125 0.546875 1.90625q0 1.890625 -1.515625 3.03125q-1.515625 1.140625 -3.921875 1.140625q-1.6875 0 -3.0 -0.59375q-1.296875 -0.609375 -2.03125 -1.671875q-0.734375 -1.078125 -0.734375 -2.328125l2.40625 0q0.0625 1.203125 0.96875 1.921875q0.90625 0.703125 2.390625 0.703125q1.375 0 2.1875 -0.546875q0.828125 -0.5625 0.828125 -1.484375z" fill-rule="nonzero"/><path fill="#ffffff" d="m496.33456 364.04358q-0.203125 -0.421875 -0.34375 -1.484375q-1.671875 1.75 -4.0 1.75q-2.078125 0 -3.421875 -1.171875q-1.328125 -1.1875 -1.328125 -3.0q0 -2.203125 1.671875 -3.40625q1.671875 -1.21875 4.703125 -1.21875l2.34375 0l0 -1.109375q0 -1.265625 -0.765625 -2.015625q-0.75 -0.75 -2.21875 -0.75q-1.28125 0 -2.15625 0.65625q-0.875 0.640625 -0.875 1.578125l-2.421875 0q0 -1.0625 0.75 -2.046875q0.75 -0.984375 2.03125 -1.546875q1.28125 -0.578125 2.8125 -0.578125q2.4375 0 3.8125 1.21875q1.390625 1.21875 1.4375 3.34375l0 6.484375q0 1.9375 0.5 3.09375l0 0.203125l-2.53125 0zm-4.0 -1.828125q1.140625 0 2.15625 -0.578125q1.015625 -0.59375 1.46875 -1.53125l0 -2.890625l-1.890625 0q-4.421875 0 -4.421875 2.578125q0 1.140625 0.75 1.78125q0.765625 0.640625 1.9375 0.640625zm13.077667 -15.671875l0 3.421875l2.625 0l0 1.859375l-2.625 0l0 8.734375q0 0.84375 0.34375 1.265625q0.359375 0.421875 1.203125 0.421875q0.40625 0 1.140625 -0.15625l0 1.953125q-0.953125 0.265625 -1.84375 0.265625q-1.609375 0 -2.4375 -0.96875q-0.8125 -0.984375 -0.8125 -2.78125l0 -8.734375l-2.578125 0l0 -1.859375l2.578125 0l0 -3.421875l2.40625 0zm17.884644 17.765625q-2.875 0 -4.671875 -1.875q-1.796875 -1.890625 -1.796875 -5.046875l0 -0.4375q0 -2.09375 0.796875 -3.734375q0.8125 -1.65625 2.25 -2.578125q1.4375 -0.9375 3.109375 -0.9375q2.75 0 4.265625 1.8125q1.53125 1.8125 1.53125 5.171875l0 1.0l-9.53125 0q0.046875 2.09375 1.203125 3.375q1.171875 1.28125 2.96875 1.28125q1.28125 0 2.15625 -0.515625q0.890625 -0.53125 1.546875 -1.390625l1.484375 1.15625q-1.78125 2.71875 -5.3125 2.71875zm-0.3125 -12.625q-1.453125 0 -2.4375 1.0625q-0.984375 1.046875 -1.21875 2.96875l7.046875 0l0 -0.1875q-0.109375 -1.828125 -1.0 -2.828125q-0.875 -1.015625 -2.390625 -1.015625zm17.27832 12.359375q-0.203125 -0.421875 -0.34375 -1.484375q-1.671875 1.75 -4.0 1.75q-2.078125 0 -3.421875 -1.171875q-1.328125 -1.1875 -1.328125 -3.0q0 -2.203125 1.671875 -3.40625q1.671875 -1.21875 4.703125 -1.21875l2.34375 0l0 -1.109375q0 -1.265625 -0.765625 -2.015625q-0.75 -0.75 -2.21875 -0.75q-1.28125 0 -2.15625 0.65625q-0.875 0.640625 -0.875 1.578125l-2.421875 0q0 -1.0625 0.75 -2.046875q0.75 -0.984375 2.03125 -1.546875q1.28125 -0.578125 2.8125 -0.578125q2.4375 0 3.8125 1.21875q1.390625 1.21875 1.4375 3.34375l0 6.484375q0 1.9375 0.5 3.09375l0 0.203125l-2.53125 0zm-4.0 -1.828125q1.140625 0 2.15625 -0.578125q1.015625 -0.59375 1.46875 -1.53125l0 -2.890625l-1.890625 0q-4.421875 0 -4.421875 2.578125q0 1.140625 0.75 1.78125q0.765625 0.640625 1.9375 0.640625zm15.452698 0.125q1.296875 0 2.25 -0.78125q0.96875 -0.78125 1.078125 -1.953125l2.265625 0q-0.0625 1.203125 -0.828125 2.296875q-0.765625 1.09375 -2.046875 1.75q-1.28125 0.65625 -2.71875 0.65625q-2.875 0 -4.578125 -1.921875q-1.6875 -1.921875 -1.6875 -5.25l0 -0.40625q0 -2.0625 0.75 -3.65625q0.75 -1.609375 2.15625 -2.484375q1.421875 -0.890625 3.34375 -0.890625q2.375 0 3.9375 1.421875q1.578125 1.421875 1.671875 3.6875l-2.265625 0q-0.109375 -1.375 -1.046875 -2.25q-0.921875 -0.875 -2.296875 -0.875q-1.828125 0 -2.84375 1.328125q-1.0 1.3125 -1.0 3.8125l0 0.453125q0 2.4375 1.0 3.75q1.0 1.3125 2.859375 1.3125zm10.718506 -10.671875q1.59375 -1.96875 4.15625 -1.96875q4.46875 0 4.515625 5.03125l0 9.3125l-2.421875 0l0 -9.3125q0 -1.53125 -0.6875 -2.25q-0.6875 -0.734375 -2.125 -0.734375q-1.171875 0 -2.0625 0.625q-0.890625 0.625 -1.375 1.640625l0 10.03125l-2.40625 0l0 -20.0l2.40625 0l0 7.625zm21.483887 12.375l-2.40625 0l0 -14.078125l2.40625 0l0 14.078125zm-2.609375 -17.8125q0 -0.59375 0.359375 -1.0q0.359375 -0.40625 1.0625 -0.40625q0.703125 0 1.0625 0.40625q0.375 0.40625 0.375 1.0q0 0.578125 -0.375 0.96875q-0.359375 0.390625 -1.0625 0.390625q-0.703125 0 -1.0625 -0.390625q-0.359375 -0.390625 -0.359375 -0.96875zm8.734436 3.734375l0.078125 1.765625q1.625 -2.03125 4.21875 -2.03125q4.46875 0 4.515625 5.03125l0 9.3125l-2.421875 0l0 -9.3125q0 -1.53125 -0.6875 -2.25q-0.6875 -0.734375 -2.125 -0.734375q-1.171875 0 -2.0625 0.625q-0.890625 0.625 -1.375 1.640625l0 10.03125l-2.40625 0l0 -14.078125l2.265625 0zm15.707764 -3.421875l0 3.421875l2.625 0l0 1.859375l-2.625 0l0 8.734375q0 0.84375 0.34375 1.265625q0.359375 0.421875 1.203125 0.421875q0.40625 0 1.140625 -0.15625l0 1.953125q-0.953125 0.265625 -1.84375 0.265625q-1.609375 0 -2.4375 -0.96875q-0.8125 -0.984375 -0.8125 -2.78125l0 -8.734375l-2.578125 0l0 -1.859375l2.578125 0l0 -3.421875l2.40625 0zm11.285706 17.765625q-2.875 0 -4.671875 -1.875q-1.796875 -1.890625 -1.796875 -5.046875l0 -0.4375q0 -2.09375 0.796875 -3.734375q0.8125 -1.65625 2.25 -2.578125q1.4375 -0.9375 3.109375 -0.9375q2.75 0 4.265625 1.8125q1.53125 1.8125 1.53125 5.171875l0 1.0l-9.53125 0q0.046875 2.09375 1.203125 3.375q1.171875 1.28125 2.96875 1.28125q1.28125 0 2.15625 -0.515625q0.890625 -0.53125 1.546875 -1.390625l1.484375 1.15625q-1.78125 2.71875 -5.3125 2.71875zm-0.3125 -12.625q-1.453125 0 -2.4375 1.0625q-0.984375 1.046875 -1.21875 2.96875l7.046875 0l0 -0.1875q-0.109375 -1.828125 -1.0 -2.828125q-0.875 -1.015625 -2.390625 -1.015625zm15.387695 0.4375q-0.546875 -0.09375 -1.1875 -0.09375q-2.359375 0 -3.203125 2.015625l0 10.0l-2.40625 0l0 -14.078125l2.34375 0l0.03125 1.625q1.1875 -1.890625 3.359375 -1.890625q0.703125 0 1.0625 0.1875l0 2.234375zm10.389709 11.921875q-0.203125 -0.421875 -0.34375 -1.484375q-1.671875 1.75 -4.0 1.75q-2.078125 0 -3.421875 -1.171875q-1.328125 -1.1875 -1.328125 -3.0q0 -2.203125 1.671875 -3.40625q1.671875 -1.21875 4.703125 -1.21875l2.34375 0l0 -1.109375q0 -1.265625 -0.765625 -2.015625q-0.75 -0.75 -2.21875 -0.75q-1.28125 0 -2.15625 0.65625q-0.875 0.640625 -0.875 1.578125l-2.421875 0q0 -1.0625 0.75 -2.046875q0.75 -0.984375 2.03125 -1.546875q1.28125 -0.578125 2.8125 -0.578125q2.4375 0 3.8125 1.21875q1.390625 1.21875 1.4375 3.34375l0 6.484375q0 1.9375 0.5 3.09375l0 0.203125l-2.53125 0zm-4.0 -1.828125q1.140625 0 2.15625 -0.578125q1.015625 -0.59375 1.46875 -1.53125l0 -2.890625l-1.890625 0q-4.421875 0 -4.421875 2.578125q0 1.140625 0.75 1.78125q0.765625 0.640625 1.9375 0.640625zm15.452637 0.125q1.296875 0 2.25 -0.78125q0.96875 -0.78125 1.078125 -1.953125l2.265625 0q-0.0625 1.203125 -0.828125 2.296875q-0.765625 1.09375 -2.046875 1.75q-1.28125 0.65625 -2.71875 0.65625q-2.875 0 -4.578125 -1.921875q-1.6875 -1.921875 -1.6875 -5.25l0 -0.40625q0 -2.0625 0.75 -3.65625q0.75 -1.609375 2.15625 -2.484375q1.421875 -0.890625 3.34375 -0.890625q2.375 0 3.9375 1.421875q1.578125 1.421875 1.671875 3.6875l-2.265625 0q-0.109375 -1.375 -1.046875 -2.25q-0.921875 -0.875 -2.296875 -0.875q-1.828125 0 -2.84375 1.328125q-1.0 1.3125 -1.0 3.8125l0 0.453125q0 2.4375 1.0 3.75q1.0 1.3125 2.859375 1.3125zm11.577881 -15.796875l0 3.421875l2.625 0l0 1.859375l-2.625 0l0 8.734375q0 0.84375 0.34375 1.265625q0.359375 0.421875 1.203125 0.421875q0.40625 0 1.140625 -0.15625l0 1.953125q-0.953125 0.265625 -1.84375 0.265625q-1.609375 0 -2.4375 -0.96875q-0.8125 -0.984375 -0.8125 -2.78125l0 -8.734375l-2.578125 0l0 -1.859375l2.578125 0l0 -3.421875l2.40625 0zm8.051331 17.5l-2.40625 0l0 -14.078125l2.40625 0l0 14.078125zm-2.609375 -17.8125q0 -0.59375 0.359375 -1.0q0.359375 -0.40625 1.0625 -0.40625q0.703125 0 1.0625 0.40625q0.375 0.40625 0.375 1.0q0 0.578125 -0.375 0.96875q-0.359375 0.390625 -1.0625 0.390625q-0.703125 0 -1.0625 -0.390625q-0.359375 -0.390625 -0.359375 -0.96875zm5.828186 10.640625q0 -2.0625 0.8125 -3.71875q0.8125 -1.65625 2.265625 -2.546875q1.453125 -0.90625 3.3125 -0.90625q2.875 0 4.640625 2.0q1.78125 1.984375 1.78125 5.296875l0 0.15625q0 2.0625 -0.78125 3.703125q-0.78125 1.625 -2.25 2.546875q-1.46875 0.90625 -3.375 0.90625q-2.859375 0 -4.640625 -1.984375q-1.765625 -2.0 -1.765625 -5.28125l0 -0.171875zm2.421875 0.28125q0 2.34375 1.078125 3.765625q1.09375 1.421875 2.90625 1.421875q1.84375 0 2.921875 -1.4375q1.078125 -1.4375 1.078125 -4.03125q0 -2.3125 -1.109375 -3.75q-1.09375 -1.4375 -2.90625 -1.4375q-1.78125 0 -2.875 1.421875q-1.09375 1.40625 -1.09375 4.046875zm15.686768 -7.1875l0.078125 1.765625q1.625 -2.03125 4.21875 -2.03125q4.46875 0 4.515625 5.03125l0 9.3125l-2.421875 0l0 -9.3125q0 -1.53125 -0.6875 -2.25q-0.6875 -0.734375 -2.125 -0.734375q-1.171875 0 -2.0625 0.625q-0.890625 0.625 -1.375 1.640625l0 10.03125l-2.40625 0l0 -14.078125l2.265625 0zm12.364014 17.859375l-1.375 -0.9375q1.21875 -1.71875 1.28125 -3.515625l0 -2.171875l2.359375 0l0 1.875q0 1.3125 -0.65625 2.625q-0.640625 1.328125 -1.609375 2.125zm14.51886 -3.78125l-2.40625 0l0 -14.078125l2.40625 0l0 14.078125zm-2.609375 -17.8125q0 -0.59375 0.359375 -1.0q0.359375 -0.40625 1.0625 -0.40625q0.703125 0 1.0625 0.40625q0.375 0.40625 0.375 1.0q0 0.578125 -0.375 0.96875q-0.359375 0.390625 -1.0625 0.390625q-0.703125 0 -1.0625 -0.390625q-0.359375 -0.390625 -0.359375 -0.96875zm8.734436 3.734375l0.078125 1.765625q1.625 -2.03125 4.21875 -2.03125q4.46875 0 4.515625 5.03125l0 9.3125l-2.421875 0l0 -9.3125q0 -1.53125 -0.6875 -2.25q-0.6875 -0.734375 -2.125 -0.734375q-1.171875 0 -2.0625 0.625q-0.890625 0.625 -1.375 1.640625l0 10.03125l-2.40625 0l0 -14.078125l2.265625 0zm18.082764 12.375q1.296875 0 2.25 -0.78125q0.96875 -0.78125 1.078125 -1.953125l2.265625 0q-0.0625 1.203125 -0.828125 2.296875q-0.765625 1.09375 -2.046875 1.75q-1.28125 0.65625 -2.71875 0.65625q-2.875 0 -4.578125 -1.921875q-1.6875 -1.921875 -1.6875 -5.25l0 -0.40625q0 -2.0625 0.75 -3.65625q0.75 -1.609375 2.15625 -2.484375q1.421875 -0.890625 3.34375 -0.890625q2.375 0 3.9375 1.421875q1.578125 1.421875 1.671875 3.6875l-2.265625 0q-0.109375 -1.375 -1.046875 -2.25q-0.921875 -0.875 -2.296875 -0.875q-1.828125 0 -2.84375 1.328125q-1.0 1.3125 -1.0 3.8125l0 0.453125q0 2.4375 1.0 3.75q1.0 1.3125 2.859375 1.3125zm16.999817 0.3125q-1.40625 1.65625 -4.125 1.65625q-2.25 0 -3.4375 -1.3125q-1.171875 -1.3125 -1.1875 -3.875l0 -9.15625l2.40625 0l0 9.09375q0 3.203125 2.609375 3.203125q2.765625 0 3.671875 -2.0625l0 -10.234375l2.40625 0l0 14.078125l-2.296875 0l-0.046875 -1.390625zm12.804138 -10.53125q-0.546875 -0.09375 -1.1875 -0.09375q-2.359375 0 -3.203125 2.015625l0 10.0l-2.40625 0l0 -14.078125l2.34375 0l0.03125 1.625q1.1875 -1.890625 3.359375 -1.890625q0.703125 0 1.0625 0.1875l0 2.234375zm9.019897 0q-0.546875 -0.09375 -1.1875 -0.09375q-2.359375 0 -3.203125 2.015625l0 10.0l-2.40625 0l0 -14.078125l2.34375 0l0.03125 1.625q1.1875 -1.890625 3.359375 -1.890625q0.703125 0 1.0625 0.1875l0 2.234375zm4.8323975 11.921875l-2.40625 0l0 -14.078125l2.40625 0l0 14.078125zm-2.609375 -17.8125q0 -0.59375 0.359375 -1.0q0.359375 -0.40625 1.0625 -0.40625q0.703125 0 1.0625 0.40625q0.375 0.40625 0.375 1.0q0 0.578125 -0.375 0.96875q-0.359375 0.390625 -1.0625 0.390625q-0.703125 0 -1.0625 -0.390625q-0.359375 -0.390625 -0.359375 -0.96875zm8.734436 3.734375l0.078125 1.765625q1.625 -2.03125 4.21875 -2.03125q4.46875 0 4.515625 5.03125l0 9.3125l-2.421875 0l0 -9.3125q0 -1.53125 -0.6875 -2.25q-0.6875 -0.734375 -2.125 -0.734375q-1.171875 0 -2.0625 0.625q-0.890625 0.625 -1.375 1.640625l0 10.03125l-2.40625 0l0 -14.078125l2.265625 0zm11.864014 6.921875q0 -3.296875 1.515625 -5.234375q1.53125 -1.953125 4.046875 -1.953125q2.578125 0 4.015625 1.828125l0.125 -1.5625l2.1875 0l0 13.734375q0 2.734375 -1.625 4.3125q-1.609375 1.578125 -4.34375 1.578125q-1.515625 0 -2.984375 -0.65625q-1.453125 -0.640625 -2.21875 -1.78125l1.25 -1.4375q1.546875 1.90625 3.78125 1.90625q1.765625 0 2.734375 -1.0q0.984375 -0.984375 0.984375 -2.765625l0 -1.21875q-1.4375 1.671875 -3.9375 1.671875q-2.46875 0 -4.0 -1.984375q-1.53125 -2.0 -1.53125 -5.4375zm2.421875 0.265625q0 2.390625 0.96875 3.75q0.984375 1.359375 2.734375 1.359375q2.28125 0 3.34375 -2.078125l0 -6.421875q-1.09375 -2.015625 -3.3125 -2.015625q-1.75 0 -2.75 1.375q-0.984375 1.359375 -0.984375 4.03125z" fill-rule="nonzero"/><path fill="#ffffff" d="m555.83057 392.3092q0 -0.984375 -0.734375 -1.515625q-0.734375 -0.546875 -2.5625 -0.9375q-1.828125 -0.390625 -2.90625 -0.9375q-1.0625 -0.546875 -1.578125 -1.296875q-0.515625 -0.75 -0.515625 -1.796875q0 -1.734375 1.453125 -2.921875q1.46875 -1.203125 3.75 -1.203125q2.390625 0 3.875 1.234375q1.5 1.234375 1.5 3.171875l-2.421875 0q0 -1.0 -0.84375 -1.703125q-0.828125 -0.71875 -2.109375 -0.71875q-1.3125 0 -2.0625 0.578125q-0.734375 0.5625 -0.734375 1.484375q0 0.875 0.6875 1.328125q0.6875 0.4375 2.484375 0.84375q1.8125 0.390625 2.921875 0.953125q1.125 0.5625 1.671875 1.359375q0.546875 0.78125 0.546875 1.90625q0 1.890625 -1.515625 3.03125q-1.515625 1.140625 -3.921875 1.140625q-1.6875 0 -3.0 -0.59375q-1.296875 -0.609375 -2.03125 -1.671875q-0.734375 -1.078125 -0.734375 -2.328125l2.40625 0q0.0625 1.203125 0.96875 1.921875q0.90625 0.703125 2.390625 0.703125q1.375 0 2.1875 -0.546875q0.828125 -0.5625 0.828125 -1.484375zm11.400879 4.0q-2.875 0 -4.671875 -1.875q-1.796875 -1.890625 -1.796875 -5.046875l0 -0.4375q0 -2.09375 0.796875 -3.734375q0.8125 -1.65625 2.25 -2.578125q1.4375 -0.9375 3.109375 -0.9375q2.75 0 4.265625 1.8125q1.53125 1.8125 1.53125 5.171875l0 1.0l-9.53125 0q0.046875 2.09375 1.203125 3.375q1.171875 1.28125 2.96875 1.28125q1.28125 0 2.15625 -0.515625q0.890625 -0.53125 1.546875 -1.390625l1.484375 1.15625q-1.78125 2.71875 -5.3125 2.71875zm-0.3125 -12.625q-1.453125 0 -2.4375 1.0625q-0.984375 1.046875 -1.21875 2.96875l7.046875 0l0 -0.1875q-0.109375 -1.828125 -1.0 -2.828125q-0.875 -1.015625 -2.390625 -1.015625zm15.387695 0.4375q-0.546875 -0.09375 -1.1875 -0.09375q-2.359375 0 -3.203125 2.015625l0 10.0l-2.40625 0l0 -14.078125l2.34375 0l0.03125 1.625q1.1875 -1.890625 3.359375 -1.890625q0.703125 0 1.0625 0.1875l0 2.234375zm4.8323975 11.921875l-2.40625 0l0 -14.078125l2.40625 0l0 14.078125zm-2.609375 -17.8125q0 -0.59375 0.359375 -1.0q0.359375 -0.40625 1.0625 -0.40625q0.703125 0 1.0625 0.40625q0.375 0.40625 0.375 1.0q0 0.578125 -0.375 0.96875q-0.359375 0.390625 -1.0625 0.390625q-0.703125 0 -1.0625 -0.390625q-0.359375 -0.390625 -0.359375 -0.96875zm15.156311 17.8125q-0.203125 -0.421875 -0.34375 -1.484375q-1.671875 1.75 -4.0 1.75q-2.078125 0 -3.421875 -1.171875q-1.328125 -1.1875 -1.328125 -3.0q0 -2.203125 1.671875 -3.40625q1.671875 -1.21875 4.703125 -1.21875l2.34375 0l0 -1.109375q0 -1.265625 -0.765625 -2.015625q-0.75 -0.75 -2.21875 -0.75q-1.28125 0 -2.15625 0.65625q-0.875 0.640625 -0.875 1.578125l-2.421875 0q0 -1.0625 0.75 -2.046875q0.75 -0.984375 2.03125 -1.546875q1.28125 -0.578125 2.8125 -0.578125q2.4375 0 3.8125 1.21875q1.390625 1.21875 1.4375 3.34375l0 6.484375q0 1.9375 0.5 3.09375l0 0.203125l-2.53125 0zm-4.0 -1.828125q1.140625 0 2.15625 -0.578125q1.015625 -0.59375 1.46875 -1.53125l0 -2.890625l-1.890625 0q-4.421875 0 -4.421875 2.578125q0 1.140625 0.75 1.78125q0.765625 0.640625 1.9375 0.640625zm12.421448 1.828125l-2.40625 0l0 -20.0l2.40625 0l0 20.0zm6.468811 0l-2.40625 0l0 -14.078125l2.40625 0l0 14.078125zm-2.609375 -17.8125q0 -0.59375 0.359375 -1.0q0.359375 -0.40625 1.0625 -0.40625q0.703125 0 1.0625 0.40625q0.375 0.40625 0.375 1.0q0 0.578125 -0.375 0.96875q-0.359375 0.390625 -1.0625 0.390625q-0.703125 0 -1.0625 -0.390625q-0.359375 -0.390625 -0.359375 -0.96875zm8.734436 15.84375l8.234375 0l0 1.96875l-11.1875 0l0 -1.765625l7.78125 -10.328125l-7.65625 0l0 -1.984375l10.671875 0l0 1.703125l-7.84375 10.40625zm19.632874 1.96875q-0.203125 -0.421875 -0.34375 -1.484375q-1.671875 1.75 -4.0 1.75q-2.078125 0 -3.421875 -1.171875q-1.328125 -1.1875 -1.328125 -3.0q0 -2.203125 1.671875 -3.40625q1.671875 -1.21875 4.703125 -1.21875l2.34375 0l0 -1.109375q0 -1.265625 -0.765625 -2.015625q-0.75 -0.75 -2.21875 -0.75q-1.28125 0 -2.15625 0.65625q-0.875 0.640625 -0.875 1.578125l-2.421875 0q0 -1.0625 0.75 -2.046875q0.75 -0.984375 2.03125 -1.546875q1.28125 -0.578125 2.8125 -0.578125q2.4375 0 3.8125 1.21875q1.390625 1.21875 1.4375 3.34375l0 6.484375q0 1.9375 0.5 3.09375l0 0.203125l-2.53125 0zm-4.0 -1.828125q1.140625 0 2.15625 -0.578125q1.015625 -0.59375 1.46875 -1.53125l0 -2.890625l-1.890625 0q-4.421875 0 -4.421875 2.578125q0 1.140625 0.75 1.78125q0.765625 0.640625 1.9375 0.640625zm13.077698 -15.671875l0 3.421875l2.625 0l0 1.859375l-2.625 0l0 8.734375q0 0.84375 0.34375 1.265625q0.359375 0.421875 1.203125 0.421875q0.40625 0 1.140625 -0.15625l0 1.953125q-0.953125 0.265625 -1.84375 0.265625q-1.609375 0 -2.4375 -0.96875q-0.8125 -0.984375 -0.8125 -2.78125l0 -8.734375l-2.578125 0l0 -1.859375l2.578125 0l0 -3.421875l2.40625 0zm8.05127 17.5l-2.40625 0l0 -14.078125l2.40625 0l0 14.078125zm-2.609375 -17.8125q0 -0.59375 0.359375 -1.0q0.359375 -0.40625 1.0625 -0.40625q0.703125 0 1.0625 0.40625q0.375 0.40625 0.375 1.0q0 0.578125 -0.375 0.96875q-0.359375 0.390625 -1.0625 0.390625q-0.703125 0 -1.0625 -0.390625q-0.359375 -0.390625 -0.359375 -0.96875zm5.828186 10.640625q0 -2.0625 0.8125 -3.71875q0.8125 -1.65625 2.265625 -2.546875q1.453125 -0.90625 3.3125 -0.90625q2.875 0 4.640625 2.0q1.78125 1.984375 1.78125 5.296875l0 0.15625q0 2.0625 -0.78125 3.703125q-0.78125 1.625 -2.25 2.546875q-1.46875 0.90625 -3.375 0.90625q-2.859375 0 -4.640625 -1.984375q-1.765625 -2.0 -1.765625 -5.28125l0 -0.171875zm2.421875 0.28125q0 2.34375 1.078125 3.765625q1.09375 1.421875 2.90625 1.421875q1.84375 0 2.921875 -1.4375q1.078125 -1.4375 1.078125 -4.03125q0 -2.3125 -1.109375 -3.75q-1.09375 -1.4375 -2.90625 -1.4375q-1.78125 0 -2.875 1.421875q-1.09375 1.40625 -1.09375 4.046875zm15.686768 -7.1875l0.078125 1.765625q1.625 -2.03125 4.21875 -2.03125q4.46875 0 4.515625 5.03125l0 9.3125l-2.421875 0l0 -9.3125q0 -1.53125 -0.6875 -2.25q-0.6875 -0.734375 -2.125 -0.734375q-1.171875 0 -2.0625 0.625q-0.890625 0.625 -1.375 1.640625l0 10.03125l-2.40625 0l0 -14.078125l2.265625 0zm24.681763 12.375q1.296875 0 2.25 -0.78125q0.96875 -0.78125 1.078125 -1.953125l2.265625 0q-0.0625 1.203125 -0.828125 2.296875q-0.765625 1.09375 -2.046875 1.75q-1.28125 0.65625 -2.71875 0.65625q-2.875 0 -4.578125 -1.921875q-1.6875 -1.921875 -1.6875 -5.25l0 -0.40625q0 -2.0625 0.75 -3.65625q0.75 -1.609375 2.15625 -2.484375q1.421875 -0.890625 3.34375 -0.890625q2.375 0 3.9375 1.421875q1.578125 1.421875 1.671875 3.6875l-2.265625 0q-0.109375 -1.375 -1.046875 -2.25q-0.921875 -0.875 -2.296875 -0.875q-1.828125 0 -2.84375 1.328125q-1.0 1.3125 -1.0 3.8125l0 0.453125q0 2.4375 1.0 3.75q1.0 1.3125 2.859375 1.3125zm7.671631 -5.46875q0 -2.0625 0.8125 -3.71875q0.8125 -1.65625 2.265625 -2.546875q1.453125 -0.90625 3.3125 -0.90625q2.875 0 4.640625 2.0q1.78125 1.984375 1.78125 5.296875l0 0.15625q0 2.0625 -0.78125 3.703125q-0.78125 1.625 -2.25 2.546875q-1.46875 0.90625 -3.375 0.90625q-2.859375 0 -4.640625 -1.984375q-1.765625 -2.0 -1.765625 -5.28125l0 -0.171875zm2.421875 0.28125q0 2.34375 1.078125 3.765625q1.09375 1.421875 2.90625 1.421875q1.84375 0 2.921875 -1.4375q1.078125 -1.4375 1.078125 -4.03125q0 -2.3125 -1.109375 -3.75q-1.09375 -1.4375 -2.90625 -1.4375q-1.78125 0 -2.875 1.421875q-1.09375 1.40625 -1.09375 4.046875zm21.608643 3.15625q0 -0.984375 -0.734375 -1.515625q-0.734375 -0.546875 -2.5625 -0.9375q-1.828125 -0.390625 -2.90625 -0.9375q-1.0625 -0.546875 -1.578125 -1.296875q-0.515625 -0.75 -0.515625 -1.796875q0 -1.734375 1.453125 -2.921875q1.46875 -1.203125 3.75 -1.203125q2.390625 0 3.875 1.234375q1.5 1.234375 1.5 3.171875l-2.421875 0q0 -1.0 -0.84375 -1.703125q-0.828125 -0.71875 -2.109375 -0.71875q-1.3125 0 -2.0625 0.578125q-0.734375 0.5625 -0.734375 1.484375q0 0.875 0.6875 1.328125q0.6875 0.4375 2.484375 0.84375q1.8125 0.390625 2.921875 0.953125q1.125 0.5625 1.671875 1.359375q0.546875 0.78125 0.546875 1.90625q0 1.890625 -1.515625 3.03125q-1.515625 1.140625 -3.921875 1.140625q-1.6875 0 -3.0 -0.59375q-1.296875 -0.609375 -2.03125 -1.671875q-0.734375 -1.078125 -0.734375 -2.328125l2.40625 0q0.0625 1.203125 0.96875 1.921875q0.90625 0.703125 2.390625 0.703125q1.375 0 2.1875 -0.546875q0.828125 -0.5625 0.828125 -1.484375zm8.822754 -13.765625l0 3.421875l2.625 0l0 1.859375l-2.625 0l0 8.734375q0 0.84375 0.34375 1.265625q0.359375 0.421875 1.203125 0.421875q0.40625 0 1.140625 -0.15625l0 1.953125q-0.953125 0.265625 -1.84375 0.265625q-1.609375 0 -2.4375 -0.96875q-0.8125 -0.984375 -0.8125 -2.78125l0 -8.734375l-2.578125 0l0 -1.859375l2.578125 0l0 -3.421875l2.40625 0zm13.629456 13.765625q0 -0.984375 -0.734375 -1.515625q-0.734375 -0.546875 -2.5625 -0.9375q-1.828125 -0.390625 -2.90625 -0.9375q-1.0625 -0.546875 -1.578125 -1.296875q-0.515625 -0.75 -0.515625 -1.796875q0 -1.734375 1.453125 -2.921875q1.46875 -1.203125 3.75 -1.203125q2.390625 0 3.875 1.234375q1.5 1.234375 1.5 3.171875l-2.421875 0q0 -1.0 -0.84375 -1.703125q-0.828125 -0.71875 -2.109375 -0.71875q-1.3125 0 -2.0625 0.578125q-0.734375 0.5625 -0.734375 1.484375q0 0.875 0.6875 1.328125q0.6875 0.4375 2.484375 0.84375q1.8125 0.390625 2.921875 0.953125q1.125 0.5625 1.671875 1.359375q0.546875 0.78125 0.546875 1.90625q0 1.890625 -1.515625 3.03125q-1.515625 1.140625 -3.921875 1.140625q-1.6875 0 -3.0 -0.59375q-1.296875 -0.609375 -2.03125 -1.671875q-0.734375 -1.078125 -0.734375 -2.328125l2.40625 0q0.0625 1.203125 0.96875 1.921875q0.90625 0.703125 2.390625 0.703125q1.375 0 2.1875 -0.546875q0.828125 -0.5625 0.828125 -1.484375z" fill-rule="nonzero"/></g></svg>