<?xml version="1.0" encoding="utf-8" standalone="no"?>
<!DOCTYPE svg PUBLIC "-//W3C//DTD SVG 1.1//EN"
  "http://www.w3.org/Graphics/SVG/1.1/DTD/svg11.dtd">
<svg xmlns:xlink="http://www.w3.org/1999/xlink" width="551.067187pt" height="285.977344pt" viewBox="0 0 551.067187 285.977344" xmlns="http://www.w3.org/2000/svg" version="1.1">
 <metadata>
  <rdf:RDF xmlns:dc="http://purl.org/dc/elements/1.1/" xmlns:cc="http://creativecommons.org/ns#" xmlns:rdf="http://www.w3.org/1999/02/22-rdf-syntax-ns#">
   <cc:Work>
    <dc:type rdf:resource="http://purl.org/dc/dcmitype/StillImage"/>
    <dc:date>2025-02-25T03:33:23.688252</dc:date>
    <dc:format>image/svg+xml</dc:format>
    <dc:creator>
     <cc:Agent>
      <dc:title>Matplotlib v3.9.2, https://matplotlib.org/</dc:title>
     </cc:Agent>
    </dc:creator>
   </cc:Work>
  </rdf:RDF>
 </metadata>
 <defs>
  <style type="text/css">*{stroke-linejoin: round; stroke-linecap: butt}</style>
 </defs>
 <g id="figure_1">
  <g id="patch_1">
   <path d="M 0 285.977344 
L 551.067187 285.977344 
L 551.067187 0 
L 0 0 
z
" style="fill: #ffffff"/>
  </g>
  <g id="axes_1">
   <g id="patch_2">
    <path d="M 35.304688 262.099219 
L 537.504688 262.099219 
L 537.504688 10.999219 
L 35.304688 10.999219 
z
" style="fill: #ffffff"/>
   </g>
   <g id="patch_3">
    <path d="M 417.859053 89.198036 
L 226.125622 109.649378 
" clip-path="url(#padc47c055c)" style="fill: none; stroke: #2ca02c; stroke-width: 2; stroke-linejoin: miter"/>
   </g>
   <g id="matplotlib.axis_1">
    <g id="xtick_1">
     <g id="line2d_1">
      <defs>
       <path id="mf0c72e593f" d="M 0 0 
L 0 3.5 
" style="stroke: #000000; stroke-width: 0.8"/>
      </defs>
      <g>
       <use xlink:href="#mf0c72e593f" x="35.304688" y="262.099219" style="stroke: #000000; stroke-width: 0.8"/>
      </g>
     </g>
     <g id="text_1">
      <!-- −150 -->
      <g transform="translate(21.571094 276.697656) scale(0.1 -0.1)">
       <defs>
        <path id="DejaVuSans-2212" d="M 678 2272 
L 4684 2272 
L 4684 1741 
L 678 1741 
L 678 2272 
z
" transform="scale(0.015625)"/>
        <path id="DejaVuSans-31" d="M 794 531 
L 1825 531 
L 1825 4091 
L 703 3866 
L 703 4441 
L 1819 4666 
L 2450 4666 
L 2450 531 
L 3481 531 
L 3481 0 
L 794 0 
L 794 531 
z
" transform="scale(0.015625)"/>
        <path id="DejaVuSans-35" d="M 691 4666 
L 3169 4666 
L 3169 4134 
L 1269 4134 
L 1269 2991 
Q 1406 3038 1543 3061 
Q 1681 3084 1819 3084 
Q 2600 3084 3056 2656 
Q 3513 2228 3513 1497 
Q 3513 744 3044 326 
Q 2575 -91 1722 -91 
Q 1428 -91 1123 -41 
Q 819 9 494 109 
L 494 744 
Q 775 591 1075 516 
Q 1375 441 1709 441 
Q 2250 441 2565 725 
Q 2881 1009 2881 1497 
Q 2881 1984 2565 2268 
Q 2250 2553 1709 2553 
Q 1456 2553 1204 2497 
Q 953 2441 691 2322 
L 691 4666 
z
" transform="scale(0.015625)"/>
        <path id="DejaVuSans-30" d="M 2034 4250 
Q 1547 4250 1301 3770 
Q 1056 3291 1056 2328 
Q 1056 1369 1301 889 
Q 1547 409 2034 409 
Q 2525 409 2770 889 
Q 3016 1369 3016 2328 
Q 3016 3291 2770 3770 
Q 2525 4250 2034 4250 
z
M 2034 4750 
Q 2819 4750 3233 4129 
Q 3647 3509 3647 2328 
Q 3647 1150 3233 529 
Q 2819 -91 2034 -91 
Q 1250 -91 836 529 
Q 422 1150 422 2328 
Q 422 3509 836 4129 
Q 1250 4750 2034 4750 
z
" transform="scale(0.015625)"/>
       </defs>
       <use xlink:href="#DejaVuSans-2212"/>
       <use xlink:href="#DejaVuSans-31" x="83.789062"/>
       <use xlink:href="#DejaVuSans-35" x="147.412109"/>
       <use xlink:href="#DejaVuSans-30" x="211.035156"/>
      </g>
     </g>
    </g>
    <g id="xtick_2">
     <g id="line2d_2">
      <g>
       <use xlink:href="#mf0c72e593f" x="98.079688" y="262.099219" style="stroke: #000000; stroke-width: 0.8"/>
      </g>
     </g>
     <g id="text_2">
      <!-- −125 -->
      <g transform="translate(84.346094 276.697656) scale(0.1 -0.1)">
       <defs>
        <path id="DejaVuSans-32" d="M 1228 531 
L 3431 531 
L 3431 0 
L 469 0 
L 469 531 
Q 828 903 1448 1529 
Q 2069 2156 2228 2338 
Q 2531 2678 2651 2914 
Q 2772 3150 2772 3378 
Q 2772 3750 2511 3984 
Q 2250 4219 1831 4219 
Q 1534 4219 1204 4116 
Q 875 4013 500 3803 
L 500 4441 
Q 881 4594 1212 4672 
Q 1544 4750 1819 4750 
Q 2544 4750 2975 4387 
Q 3406 4025 3406 3419 
Q 3406 3131 3298 2873 
Q 3191 2616 2906 2266 
Q 2828 2175 2409 1742 
Q 1991 1309 1228 531 
z
" transform="scale(0.015625)"/>
       </defs>
       <use xlink:href="#DejaVuSans-2212"/>
       <use xlink:href="#DejaVuSans-31" x="83.789062"/>
       <use xlink:href="#DejaVuSans-32" x="147.412109"/>
       <use xlink:href="#DejaVuSans-35" x="211.035156"/>
      </g>
     </g>
    </g>
    <g id="xtick_3">
     <g id="line2d_3">
      <g>
       <use xlink:href="#mf0c72e593f" x="160.854688" y="262.099219" style="stroke: #000000; stroke-width: 0.8"/>
      </g>
     </g>
     <g id="text_3">
      <!-- −100 -->
      <g transform="translate(147.121094 276.697656) scale(0.1 -0.1)">
       <use xlink:href="#DejaVuSans-2212"/>
       <use xlink:href="#DejaVuSans-31" x="83.789062"/>
       <use xlink:href="#DejaVuSans-30" x="147.412109"/>
       <use xlink:href="#DejaVuSans-30" x="211.035156"/>
      </g>
     </g>
    </g>
    <g id="xtick_4">
     <g id="line2d_4">
      <g>
       <use xlink:href="#mf0c72e593f" x="223.629688" y="262.099219" style="stroke: #000000; stroke-width: 0.8"/>
      </g>
     </g>
     <g id="text_4">
      <!-- −75 -->
      <g transform="translate(213.077344 276.697656) scale(0.1 -0.1)">
       <defs>
        <path id="DejaVuSans-37" d="M 525 4666 
L 3525 4666 
L 3525 4397 
L 1831 0 
L 1172 0 
L 2766 4134 
L 525 4134 
L 525 4666 
z
" transform="scale(0.015625)"/>
       </defs>
       <use xlink:href="#DejaVuSans-2212"/>
       <use xlink:href="#DejaVuSans-37" x="83.789062"/>
       <use xlink:href="#DejaVuSans-35" x="147.412109"/>
      </g>
     </g>
    </g>
    <g id="xtick_5">
     <g id="line2d_5">
      <g>
       <use xlink:href="#mf0c72e593f" x="286.404688" y="262.099219" style="stroke: #000000; stroke-width: 0.8"/>
      </g>
     </g>
     <g id="text_5">
      <!-- −50 -->
      <g transform="translate(275.852344 276.697656) scale(0.1 -0.1)">
       <use xlink:href="#DejaVuSans-2212"/>
       <use xlink:href="#DejaVuSans-35" x="83.789062"/>
       <use xlink:href="#DejaVuSans-30" x="147.412109"/>
      </g>
     </g>
    </g>
    <g id="xtick_6">
     <g id="line2d_6">
      <g>
       <use xlink:href="#mf0c72e593f" x="349.179688" y="262.099219" style="stroke: #000000; stroke-width: 0.8"/>
      </g>
     </g>
     <g id="text_6">
      <!-- −25 -->
      <g transform="translate(338.627344 276.697656) scale(0.1 -0.1)">
       <use xlink:href="#DejaVuSans-2212"/>
       <use xlink:href="#DejaVuSans-32" x="83.789062"/>
       <use xlink:href="#DejaVuSans-35" x="147.412109"/>
      </g>
     </g>
    </g>
    <g id="xtick_7">
     <g id="line2d_7">
      <g>
       <use xlink:href="#mf0c72e593f" x="411.954688" y="262.099219" style="stroke: #000000; stroke-width: 0.8"/>
      </g>
     </g>
     <g id="text_7">
      <!-- 0 -->
      <g transform="translate(408.773438 276.697656) scale(0.1 -0.1)">
       <use xlink:href="#DejaVuSans-30"/>
      </g>
     </g>
    </g>
    <g id="xtick_8">
     <g id="line2d_8">
      <g>
       <use xlink:href="#mf0c72e593f" x="474.729688" y="262.099219" style="stroke: #000000; stroke-width: 0.8"/>
      </g>
     </g>
     <g id="text_8">
      <!-- 25 -->
      <g transform="translate(468.367188 276.697656) scale(0.1 -0.1)">
       <use xlink:href="#DejaVuSans-32"/>
       <use xlink:href="#DejaVuSans-35" x="63.623047"/>
      </g>
     </g>
    </g>
    <g id="xtick_9">
     <g id="line2d_9">
      <g>
       <use xlink:href="#mf0c72e593f" x="537.504688" y="262.099219" style="stroke: #000000; stroke-width: 0.8"/>
      </g>
     </g>
     <g id="text_9">
      <!-- 50 -->
      <g transform="translate(531.142188 276.697656) scale(0.1 -0.1)">
       <use xlink:href="#DejaVuSans-35"/>
       <use xlink:href="#DejaVuSans-30" x="63.623047"/>
      </g>
     </g>
    </g>
   </g>
   <g id="matplotlib.axis_2">
    <g id="ytick_1">
     <g id="line2d_10">
      <defs>
       <path id="m9a3387de8a" d="M 0 0 
L -3.5 0 
" style="stroke: #000000; stroke-width: 0.8"/>
      </defs>
      <g>
       <use xlink:href="#m9a3387de8a" x="35.304688" y="262.099219" style="stroke: #000000; stroke-width: 0.8"/>
      </g>
     </g>
     <g id="text_10">
      <!-- −20 -->
      <g transform="translate(7.2 265.898438) scale(0.1 -0.1)">
       <use xlink:href="#DejaVuSans-2212"/>
       <use xlink:href="#DejaVuSans-32" x="83.789062"/>
       <use xlink:href="#DejaVuSans-30" x="147.412109"/>
      </g>
     </g>
    </g>
    <g id="ytick_2">
     <g id="line2d_11">
      <g>
       <use xlink:href="#m9a3387de8a" x="35.304688" y="211.879219" style="stroke: #000000; stroke-width: 0.8"/>
      </g>
     </g>
     <g id="text_11">
      <!-- 0 -->
      <g transform="translate(21.942187 215.678437) scale(0.1 -0.1)">
       <use xlink:href="#DejaVuSans-30"/>
      </g>
     </g>
    </g>
    <g id="ytick_3">
     <g id="line2d_12">
      <g>
       <use xlink:href="#m9a3387de8a" x="35.304688" y="161.659219" style="stroke: #000000; stroke-width: 0.8"/>
      </g>
     </g>
     <g id="text_12">
      <!-- 20 -->
      <g transform="translate(15.579687 165.458437) scale(0.1 -0.1)">
       <use xlink:href="#DejaVuSans-32"/>
       <use xlink:href="#DejaVuSans-30" x="63.623047"/>
      </g>
     </g>
    </g>
    <g id="ytick_4">
     <g id="line2d_13">
      <g>
       <use xlink:href="#m9a3387de8a" x="35.304688" y="111.439219" style="stroke: #000000; stroke-width: 0.8"/>
      </g>
     </g>
     <g id="text_13">
      <!-- 40 -->
      <g transform="translate(15.579687 115.238438) scale(0.1 -0.1)">
       <defs>
        <path id="DejaVuSans-34" d="M 2419 4116 
L 825 1625 
L 2419 1625 
L 2419 4116 
z
M 2253 4666 
L 3047 4666 
L 3047 1625 
L 3713 1625 
L 3713 1100 
L 3047 1100 
L 3047 0 
L 2419 0 
L 2419 1100 
L 313 1100 
L 313 1709 
L 2253 4666 
z
" transform="scale(0.015625)"/>
       </defs>
       <use xlink:href="#DejaVuSans-34"/>
       <use xlink:href="#DejaVuSans-30" x="63.623047"/>
      </g>
     </g>
    </g>
    <g id="ytick_5">
     <g id="line2d_14">
      <g>
       <use xlink:href="#m9a3387de8a" x="35.304688" y="61.219219" style="stroke: #000000; stroke-width: 0.8"/>
      </g>
     </g>
     <g id="text_14">
      <!-- 60 -->
      <g transform="translate(15.579687 65.018438) scale(0.1 -0.1)">
       <defs>
        <path id="DejaVuSans-36" d="M 2113 2584 
Q 1688 2584 1439 2293 
Q 1191 2003 1191 1497 
Q 1191 994 1439 701 
Q 1688 409 2113 409 
Q 2538 409 2786 701 
Q 3034 994 3034 1497 
Q 3034 2003 2786 2293 
Q 2538 2584 2113 2584 
z
M 3366 4563 
L 3366 3988 
Q 3128 4100 2886 4159 
Q 2644 4219 2406 4219 
Q 1781 4219 1451 3797 
Q 1122 3375 1075 2522 
Q 1259 2794 1537 2939 
Q 1816 3084 2150 3084 
Q 2853 3084 3261 2657 
Q 3669 2231 3669 1497 
Q 3669 778 3244 343 
Q 2819 -91 2113 -91 
Q 1303 -91 875 529 
Q 447 1150 447 2328 
Q 447 3434 972 4092 
Q 1497 4750 2381 4750 
Q 2619 4750 2861 4703 
Q 3103 4656 3366 4563 
z
" transform="scale(0.015625)"/>
       </defs>
       <use xlink:href="#DejaVuSans-36"/>
       <use xlink:href="#DejaVuSans-30" x="63.623047"/>
      </g>
     </g>
    </g>
    <g id="ytick_6">
     <g id="line2d_15">
      <g>
       <use xlink:href="#m9a3387de8a" x="35.304688" y="10.999219" style="stroke: #000000; stroke-width: 0.8"/>
      </g>
     </g>
     <g id="text_15">
      <!-- 80 -->
      <g transform="translate(15.579687 14.798438) scale(0.1 -0.1)">
       <defs>
        <path id="DejaVuSans-38" d="M 2034 2216 
Q 1584 2216 1326 1975 
Q 1069 1734 1069 1313 
Q 1069 891 1326 650 
Q 1584 409 2034 409 
Q 2484 409 2743 651 
Q 3003 894 3003 1313 
Q 3003 1734 2745 1975 
Q 2488 2216 2034 2216 
z
M 1403 2484 
Q 997 2584 770 2862 
Q 544 3141 544 3541 
Q 544 4100 942 4425 
Q 1341 4750 2034 4750 
Q 2731 4750 3128 4425 
Q 3525 4100 3525 3541 
Q 3525 3141 3298 2862 
Q 3072 2584 2669 2484 
Q 3125 2378 3379 2068 
Q 3634 1759 3634 1313 
Q 3634 634 3220 271 
Q 2806 -91 2034 -91 
Q 1263 -91 848 271 
Q 434 634 434 1313 
Q 434 1759 690 2068 
Q 947 2378 1403 2484 
z
M 1172 3481 
Q 1172 3119 1398 2916 
Q 1625 2713 2034 2713 
Q 2441 2713 2670 2916 
Q 2900 3119 2900 3481 
Q 2900 3844 2670 4047 
Q 2441 4250 2034 4250 
Q 1625 4250 1398 4047 
Q 1172 3844 1172 3481 
z
" transform="scale(0.015625)"/>
       </defs>
       <use xlink:href="#DejaVuSans-38"/>
       <use xlink:href="#DejaVuSans-30" x="63.623047"/>
      </g>
     </g>
    </g>
   </g>
   <g id="LineCollection_1">
    <path clip-path="url(#padc47c055c)" style="fill: none; stroke: #000000; stroke-width: 0.8"/>
    <path clip-path="url(#padc47c055c)" style="fill: none; stroke: #000000; stroke-width: 0.8"/>
    <path clip-path="url(#padc47c055c)" style="fill: none; stroke: #000000; stroke-width: 0.8"/>
    <path clip-path="url(#padc47c055c)" style="fill: none; stroke: #000000; stroke-width: 0.8"/>
    <path clip-path="url(#padc47c055c)" style="fill: none; stroke: #000000; stroke-width: 0.8"/>
    <path clip-path="url(#padc47c055c)" style="fill: none; stroke: #000000; stroke-width: 0.8"/>
    <path clip-path="url(#padc47c055c)" style="fill: none; stroke: #000000; stroke-width: 0.8"/>
    <path d="M 0 0 
" clip-path="url(#padc47c055c)" style="fill: none; stroke: #000000; stroke-width: 0.8"/>
    <path clip-path="url(#padc47c055c)" style="fill: none; stroke: #000000; stroke-width: 0.8"/>
    <path clip-path="url(#padc47c055c)" style="fill: none; stroke: #000000; stroke-width: 0.8"/>
    <path clip-path="url(#padc47c055c)" style="fill: none; stroke: #000000; stroke-width: 0.8"/>
    <path clip-path="url(#padc47c055c)" style="fill: none; stroke: #000000; stroke-width: 0.8"/>
    <path clip-path="url(#padc47c055c)" style="fill: none; stroke: #000000; stroke-width: 0.8"/>
    <path clip-path="url(#padc47c055c)" style="fill: none; stroke: #000000; stroke-width: 0.8"/>
    <path clip-path="url(#padc47c055c)" style="fill: none; stroke: #000000; stroke-width: 0.8"/>
    <path clip-path="url(#padc47c055c)" style="fill: none; stroke: #000000; stroke-width: 0.8"/>
    <path clip-path="url(#padc47c055c)" style="fill: none; stroke: #000000; stroke-width: 0.8"/>
    <path clip-path="url(#padc47c055c)" style="fill: none; stroke: #000000; stroke-width: 0.8"/>
    <path clip-path="url(#padc47c055c)" style="fill: none; stroke: #000000; stroke-width: 0.8"/>
    <path clip-path="url(#padc47c055c)" style="fill: none; stroke: #000000; stroke-width: 0.8"/>
    <path d="M 537.646586 245.917736 
L 538.050657 248.938537 
L 538.701272 250.112991 
L 538.451614 251.317159 
L 538.007577 252.05588 
L 537.154668 250.584407 
L 536.682603 251.32754 
L 537.161545 253.187772 
L 536.938618 254.252449 
L 536.245702 254.832474 
L 536.087526 256.959363 
L 535.098628 259.886478 
L 533.860074 263.346905 
L 532.308799 268.104278 
L 531.347021 271.595718 
L 530.212144 274.507651 
L 528.169989 275.102339 
L 525.977961 276.164421 
L 524.531791 275.523279 
L 522.538426 274.624954 
L 521.84551 273.299979 
L 521.679807 271.073825 
L 520.795626 269.072025 
L 520.565951 267.265383 
L 521.015698 265.455108 
L 522.171725 265.020284 
L 522.178473 264.184503 
L 523.378619 262.28093 
L 523.604789 260.681644 
L 523.022299 259.492788 
L 522.546601 257.909332 
L 522.345992 255.59559 
L 523.223296 254.190813 
L 523.559893 252.598145 
L 524.811423 252.505627 
L 526.212047 251.990871 
L 527.141774 251.536582 
L 528.24473 251.502845 
L 529.675848 250.071987 
L 531.742269 248.525513 
L 532.495782 247.262304 
L 532.153866 246.189193 
L 533.220489 246.491013 
L 534.604634 244.746137 
L 534.650958 243.236255 
L 535.482457 242.113057 
L 536.358463 243.190969 
L 537.025038 244.259279 
L 537.646586 245.917736 
" clip-path="url(#padc47c055c)" style="fill: none; stroke: #000000; stroke-width: 0.8"/>
    <path d="M 0 0 
" clip-path="url(#padc47c055c)" style="fill: none; stroke: #000000; stroke-width: 0.8"/>
    <path clip-path="url(#padc47c055c)" style="fill: none; stroke: #000000; stroke-width: 0.8"/>
    <path clip-path="url(#padc47c055c)" style="fill: none; stroke: #000000; stroke-width: 0.8"/>
    <path clip-path="url(#padc47c055c)" style="fill: none; stroke: #000000; stroke-width: 0.8"/>
    <path clip-path="url(#padc47c055c)" style="fill: none; stroke: #000000; stroke-width: 0.8"/>
    <path clip-path="url(#padc47c055c)" style="fill: none; stroke: #000000; stroke-width: 0.8"/>
    <path clip-path="url(#padc47c055c)" style="fill: none; stroke: #000000; stroke-width: 0.8"/>
    <path clip-path="url(#padc47c055c)" style="fill: none; stroke: #000000; stroke-width: 0.8"/>
    <path clip-path="url(#padc47c055c)" style="fill: none; stroke: #000000; stroke-width: 0.8"/>
    <path clip-path="url(#padc47c055c)" style="fill: none; stroke: #000000; stroke-width: 0.8"/>
    <path clip-path="url(#padc47c055c)" style="fill: none; stroke: #000000; stroke-width: 0.8"/>
    <path clip-path="url(#padc47c055c)" style="fill: none; stroke: #000000; stroke-width: 0.8"/>
    <path clip-path="url(#padc47c055c)" style="fill: none; stroke: #000000; stroke-width: 0.8"/>
    <path clip-path="url(#padc47c055c)" style="fill: none; stroke: #000000; stroke-width: 0.8"/>
    <path clip-path="url(#padc47c055c)" style="fill: none; stroke: #000000; stroke-width: 0.8"/>
    <path clip-path="url(#padc47c055c)" style="fill: none; stroke: #000000; stroke-width: 0.8"/>
    <path clip-path="url(#padc47c055c)" style="fill: none; stroke: #000000; stroke-width: 0.8"/>
    <path clip-path="url(#padc47c055c)" style="fill: none; stroke: #000000; stroke-width: 0.8"/>
    <path clip-path="url(#padc47c055c)" style="fill: none; stroke: #000000; stroke-width: 0.8"/>
    <path clip-path="url(#padc47c055c)" style="fill: none; stroke: #000000; stroke-width: 0.8"/>
    <path clip-path="url(#padc47c055c)" style="fill: none; stroke: #000000; stroke-width: 0.8"/>
    <path clip-path="url(#padc47c055c)" style="fill: none; stroke: #000000; stroke-width: 0.8"/>
    <path clip-path="url(#padc47c055c)" style="fill: none; stroke: #000000; stroke-width: 0.8"/>
    <path clip-path="url(#padc47c055c)" style="fill: none; stroke: #000000; stroke-width: 0.8"/>
    <path d="M 258.946903 186.493009 
L 256.850218 186.769219 
L 256.398237 186.543229 
L 257.126428 185.852704 
L 257.076208 184.860859 
L 258.520033 184.534429 
L 259.047343 184.622314 
L 258.946903 186.493009 
" clip-path="url(#padc47c055c)" style="fill: none; stroke: #000000; stroke-width: 0.8"/>
    <path clip-path="url(#padc47c055c)" style="fill: none; stroke: #000000; stroke-width: 0.8"/>
    <path clip-path="url(#padc47c055c)" style="fill: none; stroke: #000000; stroke-width: 0.8"/>
    <path clip-path="url(#padc47c055c)" style="fill: none; stroke: #000000; stroke-width: 0.8"/>
    <path clip-path="url(#padc47c055c)" style="fill: none; stroke: #000000; stroke-width: 0.8"/>
    <path clip-path="url(#padc47c055c)" style="fill: none; stroke: #000000; stroke-width: 0.8"/>
    <path clip-path="url(#padc47c055c)" style="fill: none; stroke: #000000; stroke-width: 0.8"/>
    <path d="M 247.255677 166.108623 
L 246.612459 166.74172 
L 244.722252 166.726862 
L 243.255256 166.815423 
L 243.108952 165.740949 
L 243.464882 165.373989 
L 245.519495 165.388652 
L 246.802946 165.609827 
L 247.255677 166.108623 
" clip-path="url(#padc47c055c)" style="fill: none; stroke: #000000; stroke-width: 0.8"/>
    <path d="M 218.852356 167.012074 
L 218.089564 167.431716 
L 216.684204 167.028748 
L 215.248674 166.113813 
L 215.549976 165.539887 
L 216.605505 165.364906 
L 217.17742 165.449509 
L 218.867278 165.674642 
L 220.201271 166.2777 
L 220.617345 166.965295 
L 218.852356 167.012074 
" clip-path="url(#padc47c055c)" style="fill: none; stroke: #000000; stroke-width: 0.8"/>
    <path d="M 229.707129 161.981881 
L 231.884948 162.37622 
L 232.198966 161.948208 
L 234.159048 161.959822 
L 235.646417 162.606154 
L 236.308191 162.543091 
L 236.764101 163.433825 
L 238.13793 163.383738 
L 238.057025 164.132061 
L 239.174254 164.222763 
L 240.408332 165.143991 
L 239.475815 166.166106 
L 238.281508 165.619949 
L 237.128855 165.725248 
L 236.30287 165.60574 
L 235.850139 166.063726 
L 234.886156 166.218464 
L 234.504079 165.609308 
L 233.673813 165.96978 
L 232.66876 167.689224 
L 232.022298 167.289954 
L 231.895134 166.568231 
L 230.2274 166.141452 
L 229.042371 166.315589 
L 227.5103 166.134056 
L 226.335458 166.603396 
L 224.990565 165.821076 
L 225.211805 165.011636 
L 227.522887 165.3603 
L 229.4177 165.561816 
L 230.3218 165.002812 
L 229.174855 163.915038 
L 229.1938 162.955921 
L 227.609566 162.564306 
L 228.175123 161.870936 
L 229.707129 161.981881 
" clip-path="url(#padc47c055c)" style="fill: none; stroke: #000000; stroke-width: 0.8"/>
    <path clip-path="url(#padc47c055c)" style="fill: none; stroke: #000000; stroke-width: 0.8"/>
    <path d="M 21.388449 163.9606 
L 21.021693 164.380666 
L 20.397759 164.02109 
L 20.469549 163.319291 
L 20.054204 162.405136 
L 20.179227 162.125712 
L 20.615137 161.716244 
L 20.441903 161.22243 
L 20.587516 160.988254 
L 20.778427 161.034733 
L 21.739914 161.458966 
L 22.185918 161.676746 
L 22.593353 162.013019 
L 23.233281 162.892848 
L 23.172866 163.032033 
L 22.191819 163.568282 
L 21.388449 163.9606 
" clip-path="url(#padc47c055c)" style="fill: none; stroke: #000000; stroke-width: 0.8"/>
    <path d="M 20.039666 160.04221 
L 19.198004 160.221897 
L 18.765408 159.693106 
L 18.476794 159.488961 
L 18.454496 159.332124 
L 18.700499 159.116856 
L 19.593084 159.355502 
L 20.249585 159.740714 
L 20.039666 160.04221 
" clip-path="url(#padc47c055c)" style="fill: none; stroke: #000000; stroke-width: 0.8"/>
    <path d="M 18.334747 158.704174 
L 18.25668 158.975638 
L 16.911085 158.902718 
L 17.09926 158.596853 
L 18.334747 158.704174 
" clip-path="url(#padc47c055c)" style="fill: none; stroke: #000000; stroke-width: 0.8"/>
    <path d="M 16.088431 158.33925 
L 15.952335 158.48426 
L 15.772623 158.451944 
L 14.898619 158.363682 
L 14.579396 157.794313 
L 14.481843 157.694048 
L 15.15341 157.347932 
L 15.363305 157.509239 
L 16.088431 158.33925 
" clip-path="url(#padc47c055c)" style="fill: none; stroke: #000000; stroke-width: 0.8"/>
    <path d="M 11.839091 156.682417 
L 11.541287 156.931031 
L 10.695607 156.473175 
L 10.825526 156.290199 
L 11.208629 156.044171 
L 11.78744 156.097504 
L 11.839091 156.682417 
" clip-path="url(#padc47c055c)" style="fill: none; stroke: #000000; stroke-width: 0.8"/>
    <path d="M 211.879404 154.715542 
L 212.878876 155.634824 
L 215.22428 155.351169 
L 216.113522 155.941186 
L 218.240021 157.496354 
L 219.803363 158.628895 
L 220.629996 158.594379 
L 222.127551 159.106475 
L 221.944655 159.813405 
L 223.795675 159.916823 
L 225.693667 160.944518 
L 225.395804 161.532718 
L 223.726123 161.851473 
L 222.036006 161.976171 
L 220.305987 161.77751 
L 216.710675 162.022106 
L 218.39398 160.621287 
L 217.370632 159.969051 
L 215.751947 159.801207 
L 214.88431 159.076371 
L 214.289103 157.646356 
L 212.870053 157.74413 
L 210.528607 157.070807 
L 209.775158 156.544113 
L 206.502299 156.154965 
L 205.625838 155.665187 
L 206.567438 155.0378 
L 204.104408 154.909273 
L 202.300101 156.21407 
L 201.25969 156.249105 
L 200.899737 156.861765 
L 199.657095 157.136336 
L 198.582686 156.898292 
L 199.908114 156.12259 
L 200.452261 155.216609 
L 201.587527 154.658253 
L 202.869876 154.168801 
L 204.770982 153.928486 
L 205.37936 153.652617 
L 207.548096 153.83175 
L 209.520959 153.860103 
L 211.879404 154.715542 
" clip-path="url(#padc47c055c)" style="fill: none; stroke: #000000; stroke-width: 0.8"/>
    <path d="M 217.265156 152.218487 
L 216.649108 152.343409 
L 216.011188 150.896696 
L 215.070994 150.169787 
L 215.617413 148.576155 
L 216.372898 148.677349 
L 217.251748 150.761479 
L 217.265156 152.218487 
" clip-path="url(#padc47c055c)" style="fill: none; stroke: #000000; stroke-width: 0.8"/>
    <path clip-path="url(#padc47c055c)" style="fill: none; stroke: #000000; stroke-width: 0.8"/>
    <path d="M 216.548668 145.136839 
L 213.811678 145.538599 
L 213.635908 144.609529 
L 214.816078 144.408649 
L 216.473337 144.483979 
L 216.548668 145.136839 
" clip-path="url(#padc47c055c)" style="fill: none; stroke: #000000; stroke-width: 0.8"/>
    <path d="M 218.607687 145.111729 
L 218.174414 146.896598 
L 217.712742 146.574763 
L 217.753947 145.262389 
L 216.628969 144.270142 
L 216.623998 143.981779 
L 218.607687 145.111729 
" clip-path="url(#padc47c055c)" style="fill: none; stroke: #000000; stroke-width: 0.8"/>
    <path clip-path="url(#padc47c055c)" style="fill: none; stroke: #000000; stroke-width: 0.8"/>
    <path d="M 498.776213 122.307842 
L 497.079608 123.377126 
L 497.262439 123.847309 
L 497.340943 124.049215 
L 494.767033 125.069255 
L 493.537821 124.743364 
L 492.951179 123.735002 
L 494.144188 123.642614 
L 494.321699 123.628859 
L 494.684506 123.023207 
L 496.493095 123.057074 
L 498.776213 122.307842 
" clip-path="url(#padc47c055c)" style="fill: none; stroke: #000000; stroke-width: 0.8"/>
    <path d="M 471.465338 122.223953 
L 472.838063 123.070115 
L 474.792501 122.927055 
L 476.661168 123.105279 
L 476.600441 123.542245 
L 477.968885 123.240943 
L 477.654996 123.981675 
L 474.039118 124.19513 
L 474.064291 123.780807 
L 471.000798 123.29116 
L 471.465338 122.223953 
" clip-path="url(#padc47c055c)" style="fill: none; stroke: #000000; stroke-width: 0.8"/>
    <path d="M 450.926352 115.880788 
L 450.022058 117.85722 
L 450.397841 118.635194 
L 449.870758 119.926431 
L 447.950447 118.980678 
L 446.673613 118.709741 
L 443.168938 117.433101 
L 443.520327 116.143876 
L 446.458731 116.37342 
L 449.020184 116.099952 
L 450.926352 115.880788 
" clip-path="url(#padc47c055c)" style="fill: none; stroke: #000000; stroke-width: 0.8"/>
    <path d="M 435.081027 108.40093 
L 436.587535 110.183697 
L 436.234849 113.504827 
L 435.093095 113.34639 
L 434.068903 114.184702 
L 433.118155 113.518711 
L 433.017591 110.48928 
L 432.444443 109.053751 
L 433.825474 109.179358 
L 435.081027 108.40093 
" clip-path="url(#padc47c055c)" style="fill: none; stroke: #000000; stroke-width: 0.8"/>
    <path clip-path="url(#padc47c055c)" style="fill: none; stroke: #000000; stroke-width: 0.8"/>
    <path d="M 435.959888 106.034311 
L 435.130595 107.974022 
L 433.990528 107.462769 
L 433.409206 105.773105 
L 433.915916 104.840005 
L 435.53298 103.881147 
L 435.959888 106.034311 
" clip-path="url(#padc47c055c)" style="fill: none; stroke: #000000; stroke-width: 0.8"/>
    <path clip-path="url(#padc47c055c)" style="fill: none; stroke: #000000; stroke-width: 0.8"/>
    <path d="M 252.093128 94.992144 
L 253.914105 95.328969 
L 256.242355 95.260494 
L 255.007369 96.289376 
L 254.077245 96.453119 
L 250.892117 95.387275 
L 250.264844 94.546542 
L 251.213374 93.771798 
L 252.093128 94.992144 
" clip-path="url(#padc47c055c)" style="fill: none; stroke: #000000; stroke-width: 0.8"/>
    <path d="M 256.759056 88.576413 
L 255.536513 88.621335 
L 252.282056 87.834086 
L 249.947177 86.648015 
L 250.815732 86.43674 
L 254.117521 87.066423 
L 256.685534 88.11567 
L 256.759056 88.576413 
" clip-path="url(#padc47c055c)" style="fill: none; stroke: #000000; stroke-width: 0.8"/>
    <path d="M 101.821074 90.070581 
L 100.558319 90.420024 
L 96.43495 89.279632 
L 95.681696 88.388249 
L 93.434326 87.509388 
L 92.982374 86.793764 
L 90.397694 86.341877 
L 89.430337 84.975444 
L 89.646711 84.394121 
L 92.28284 84.941707 
L 93.82354 85.322551 
L 96.183866 85.588428 
L 97.037619 86.454767 
L 98.278639 87.646803 
L 100.785268 88.683322 
L 101.821074 90.070581 
" clip-path="url(#padc47c055c)" style="fill: none; stroke: #000000; stroke-width: 0.8"/>
    <path d="M 271.002124 84.604137 
L 269.340228 86.800512 
L 270.979351 85.952274 
L 272.66577 86.490386 
L 271.784638 87.365939 
L 274.012544 88.054248 
L 275.171037 87.442367 
L 277.675072 88.214631 
L 276.898007 90.053583 
L 278.655405 89.624144 
L 278.975522 90.956579 
L 279.755312 92.517457 
L 278.698031 94.727261 
L 277.562311 94.820688 
L 275.91138 94.346677 
L 276.456435 92.292324 
L 275.756837 91.973245 
L 272.843346 94.150999 
L 271.345013 94.063801 
L 273.118436 92.884027 
L 270.708932 92.273898 
L 268.011037 92.4239 
L 263.137723 92.347212 
L 262.752338 91.60369 
L 264.316459 90.719639 
L 263.224078 90.037493 
L 265.332865 88.524886 
L 267.927018 84.525633 
L 269.483937 83.096461 
L 271.662664 82.23103 
L 272.827775 82.341066 
L 272.342539 83.022044 
L 271.002124 84.604137 
" clip-path="url(#padc47c055c)" style="fill: none; stroke: #000000; stroke-width: 0.8"/>
    <path d="M 78.719858 76.184755 
L 78.719856 76.184755 
L 78.719858 76.184755 
L 78.719858 76.184755 
L 81.130464 75.983888 
L 80.378442 78.834834 
L 82.564112 80.854152 
L 81.562758 80.849286 
L 80.049632 79.700914 
L 79.121657 78.545081 
L 77.854559 77.763021 
L 77.38989 76.659156 
L 77.539697 75.85841 
L 78.719858 76.184755 
" clip-path="url(#padc47c055c)" style="fill: none; stroke: #000000; stroke-width: 0.8"/>
    <path clip-path="url(#padc47c055c)" style="fill: none; stroke: #000000; stroke-width: 0.8"/>
    <path d="M 394.907869 80.654063 
L 390.456468 82.137603 
L 386.902225 81.758057 
L 388.938152 79.136136 
L 387.626802 76.583117 
L 391.043111 74.616612 
L 392.940974 73.443715 
L 395.045998 73.340167 
L 397.737535 74.89261 
L 396.391799 76.617763 
L 396.805861 78.411624 
L 394.907869 80.654063 
" clip-path="url(#padc47c055c)" style="fill: none; stroke: #000000; stroke-width: 0.8"/>
    <path d="M 443.819293 72.242531 
L 442.312655 74.276382 
L 439.685025 72.858046 
L 439.334415 71.815752 
L 443.018028 70.983475 
L 443.819293 72.242531 
" clip-path="url(#padc47c055c)" style="fill: none; stroke: #000000; stroke-width: 0.8"/>
    <path d="M 27.755833 68.461339 
L 25.247906 69.418445 
L 23.964 68.770426 
L 23.575825 67.594156 
L 25.856348 66.7018 
L 27.197348 66.319139 
L 28.864498 66.488735 
L 29.928267 67.26807 
L 27.755833 68.461339 
" clip-path="url(#padc47c055c)" style="fill: none; stroke: #000000; stroke-width: 0.8"/>
    <path d="M 404.40912 64.646733 
L 401.725304 67.363573 
L 404.283578 67.019581 
L 407.034934 67.032687 
L 406.380297 69.078605 
L 404.122871 71.329024 
L 406.719229 71.489213 
L 409.154945 74.715878 
L 410.87374 75.11917 
L 412.419176 77.980108 
L 413.134799 78.97199 
L 416.177011 79.450284 
L 415.871817 81.056123 
L 414.592648 81.792443 
L 415.595299 83.091466 
L 413.336575 84.406449 
L 409.977231 84.383222 
L 405.702304 85.073672 
L 404.531484 84.579353 
L 402.871275 85.755818 
L 400.54845 85.470866 
L 398.784434 86.429659 
L 397.449728 85.928268 
L 401.132303 83.290906 
L 403.379998 82.748511 
L 399.438941 82.328025 
L 398.728508 81.328812 
L 401.352375 80.550515 
L 399.977184 79.197966 
L 400.45431 77.553264 
L 404.190476 77.780668 
L 404.559771 76.322884 
L 402.839744 74.740921 
L 399.790979 74.29909 
L 399.192463 73.61954 
L 400.104997 72.497444 
L 399.279207 71.805631 
L 397.927243 72.992931 
L 397.780096 70.572656 
L 396.512086 69.292059 
L 397.423971 66.69609 
L 399.374581 64.659255 
L 401.379625 64.858047 
L 404.40912 64.646733 
" clip-path="url(#padc47c055c)" style="fill: none; stroke: #000000; stroke-width: 0.8"/>
    <path clip-path="url(#padc47c055c)" style="fill: none; stroke: #000000; stroke-width: 0.8"/>
    <path d="M 212.918213 55.798786 
L 211.934655 57.118555 
L 210.824692 56.90507 
L 210.165329 56.155812 
L 210.282731 55.982365 
L 211.251989 55.228977 
L 212.279917 55.283943 
L 212.918213 55.798786 
" clip-path="url(#padc47c055c)" style="fill: none; stroke: #000000; stroke-width: 0.8"/>
    <path d="M 206.308182 54.4124 
L 203.369508 55.797417 
L 201.596617 55.739438 
L 201.046582 55.060238 
L 202.912732 53.901939 
L 206.361566 53.925818 
L 206.308182 54.4124 
" clip-path="url(#padc47c055c)" style="fill: none; stroke: #000000; stroke-width: 0.8"/>
    <path clip-path="url(#padc47c055c)" style="fill: none; stroke: #000000; stroke-width: 0.8"/>
    <path d="M 198.114643 47.013777 
L 198.580545 48.118031 
L 199.865553 47.730698 
L 201.325413 48.388968 
L 204.075082 49.250053 
L 206.951591 50.032373 
L 207.173999 51.22642 
L 209.022293 51.030872 
L 210.814921 51.86328 
L 208.586237 52.65358 
L 204.678723 52.049744 
L 203.268497 50.919409 
L 200.778541 52.255672 
L 197.205418 53.554695 
L 196.343231 52.086077 
L 192.940288 52.32717 
L 195.122908 51.085241 
L 195.443998 49.108874 
L 196.300346 46.809146 
L 198.114643 47.013777 
" clip-path="url(#padc47c055c)" style="fill: none; stroke: #000000; stroke-width: 0.8"/>
    <path d="M 375.523353 45.008473 
L 374.943458 46.633452 
L 377.78065 48.346148 
L 374.516095 50.261009 
L 367.272854 51.98188 
L 365.108854 52.439801 
L 361.8031 52.070051 
L 354.796865 51.275209 
L 357.268914 50.165506 
L 351.803572 48.937592 
L 356.249652 48.450864 
L 356.141628 47.71357 
L 350.871639 47.129522 
L 352.568245 45.494033 
L 356.373897 45.122532 
L 360.287639 46.825885 
L 364.102958 45.458674 
L 367.262343 46.168653 
L 371.357294 44.830443 
L 375.523353 45.008473 
" clip-path="url(#padc47c055c)" style="fill: none; stroke: #000000; stroke-width: 0.8"/>
    <path d="M 221.455463 43.268431 
L 218.640657 43.394308 
L 218.014087 42.165525 
L 219.080609 40.758185 
L 221.381815 40.410034 
L 223.342178 41.105205 
L 223.370226 42.180767 
L 223.087387 42.526707 
L 221.455463 43.268431 
" clip-path="url(#padc47c055c)" style="fill: none; stroke: #000000; stroke-width: 0.8"/>
    <path clip-path="url(#padc47c055c)" style="fill: none; stroke: #000000; stroke-width: 0.8"/>
    <path d="M 171.78336 38.349808 
L 170.22192 39.23029 
L 166.837393 38.469483 
L 164.792435 38.74401 
L 161.363413 37.615743 
L 163.573093 36.837333 
L 165.328634 35.748789 
L 167.992453 36.460683 
L 169.499053 36.912663 
L 170.252353 37.389753 
L 171.78336 38.349808 
" clip-path="url(#padc47c055c)" style="fill: none; stroke: #000000; stroke-width: 0.8"/>
    <path clip-path="url(#padc47c055c)" style="fill: none; stroke: #000000; stroke-width: 0.8"/>
    <path clip-path="url(#padc47c055c)" style="fill: none; stroke: #000000; stroke-width: 0.8"/>
    <path d="M 184.590871 37.370543 
L 184.579837 39.938249 
L 187.935602 37.970553 
L 190.937491 39.586672 
L 190.189433 41.448925 
L 192.618592 43.143207 
L 195.240092 41.32831 
L 197.071847 39.161377 
L 197.209167 36.405316 
L 200.777656 36.597656 
L 204.489596 36.967164 
L 207.859614 38.213162 
L 208.010728 39.45962 
L 206.142344 40.798493 
L 207.912642 42.142423 
L 207.59325 43.363747 
L 202.676692 45.119485 
L 199.184066 45.507078 
L 196.587701 44.751356 
L 195.838876 46.011914 
L 193.418912 48.129191 
L 192.68618 49.227447 
L 189.7741 50.926326 
L 186.179557 51.093072 
L 184.196995 52.153779 
L 184.031168 53.785837 
L 181.109893 54.100325 
L 178.037505 56.135149 
L 175.314241 58.962629 
L 174.340584 60.942279 
L 174.201885 63.858497 
L 177.891755 64.277354 
L 179.022809 66.628658 
L 180.196928 68.533518 
L 183.71055 68.037264 
L 188.376529 69.124639 
L 190.886762 70.078831 
L 192.683574 71.265518 
L 195.829834 71.956564 
L 198.490108 73.014206 
L 202.636538 73.159343 
L 205.367619 73.401799 
L 204.957343 75.576395 
L 205.738813 78.100422 
L 207.55754 80.910737 
L 211.293388 83.294685 
L 213.226601 82.47766 
L 214.585245 79.895854 
L 213.273805 75.929964 
L 211.502587 74.608562 
L 215.522425 73.431531 
L 218.367683 71.671195 
L 219.759278 69.921587 
L 219.554064 68.243245 
L 217.848901 66.110335 
L 214.798735 64.220648 
L 217.762309 61.589033 
L 216.667425 59.316198 
L 215.828484 55.394447 
L 217.576712 54.814973 
L 221.881459 55.497897 
L 224.462805 55.742498 
L 226.542687 55.082564 
L 228.881423 55.933306 
L 231.973736 57.389116 
L 232.735281 58.363998 
L 237.213211 58.553733 
L 237.138113 60.663501 
L 237.972763 63.8375 
L 240.266289 64.229691 
L 242.086089 65.708643 
L 245.722012 64.314596 
L 248.124045 61.543822 
L 249.785529 60.376293 
L 251.741117 62.618629 
L 255.01121 65.821595 
L 257.788115 68.833753 
L 256.778443 70.410791 
L 260.118269 71.826906 
L 262.375472 73.26172 
L 266.379217 73.911079 
L 267.991045 74.712012 
L 268.986158 76.836952 
L 270.941746 77.170291 
L 271.950652 78.116974 
L 272.13395 80.938783 
L 268.509061 82.764408 
L 264.371214 83.656837 
L 261.211621 85.719247 
L 256.966799 86.12707 
L 251.595981 85.598325 
L 247.827488 85.580241 
L 245.226832 85.754496 
L 243.124268 87.555906 
L 239.923294 88.668262 
L 236.301165 91.991843 
L 233.411308 94.309889 
L 235.54391 93.897162 
L 239.574476 90.597643 
L 244.841538 88.50596 
L 248.598536 88.255381 
L 250.821255 89.48682 
L 248.449721 91.173131 
L 249.245596 93.879537 
L 250.065227 95.774281 
L 253.326584 97.028402 
L 257.476233 96.664718 
L 259.993669 93.842448 
L 260.168232 95.663322 
L 261.789868 96.572916 
L 258.683762 98.218001 
L 253.122137 99.712125 
L 250.63152 100.728541 
L 247.825496 102.537 
L 245.918797 102.352629 
L 245.822704 100.227383 
L 250.182317 98.15072 
L 246.163399 98.233173 
L 243.372701 98.538926 
L 243.806578 99.362081 
L 241.125154 100.578347 
L 238.545034 101.445181 
L 235.893188 102.188489 
L 234.138523 104.244462 
L 234.113082 105.575825 
L 234.941755 106.906576 
L 235.983765 106.969412 
L 235.720159 106.052921 
L 236.473734 106.610785 
L 236.272505 107.328498 
L 234.577611 107.735249 
L 233.371613 107.686512 
L 231.514264 108.124374 
L 228.962038 108.374033 
L 226.868822 109.101248 
L 230.557007 108.628137 
L 231.300774 109.103701 
L 227.785619 109.85697 
L 226.185899 109.862028 
L 226.260536 109.554283 
L 225.496079 110.250233 
L 226.235095 110.365331 
L 225.692711 112.169193 
L 223.865707 114.102099 
L 223.678884 113.456877 
L 223.127457 113.3263 
L 222.303688 112.69855 
L 222.826149 114.05045 
L 223.420029 114.499347 
L 223.48731 115.446489 
L 222.682085 116.422291 
L 221.268882 118.427535 
L 221.040372 118.32761 
L 221.816784 116.619229 
L 220.534157 115.659519 
L 220.239899 113.573354 
L 219.755906 114.659043 
L 220.291854 116.25202 
L 218.708072 115.876381 
L 220.361433 116.666893 
L 220.469021 119.056358 
L 221.189493 119.230154 
L 221.450187 120.098828 
L 221.80299 122.61136 
L 220.206948 124.475146 
L 217.609357 125.219373 
L 215.958907 126.692348 
L 214.704787 126.853424 
L 213.433501 127.775585 
L 213.074721 128.618204 
L 210.3182 130.248423 
L 208.902697 131.443539 
L 207.719229 132.932147 
L 207.332249 134.715931 
L 207.775935 136.460022 
L 208.613957 138.607951 
L 209.729837 140.385758 
L 209.743784 141.470527 
L 210.932769 144.38322 
L 210.744567 147.052997 
L 210.118043 148.586202 
L 209.367226 148.903143 
L 208.131496 148.59877 
L 207.735015 147.496989 
L 206.780822 146.919354 
L 204.282236 142.838979 
L 203.905065 141.856741 
L 204.420476 140.189893 
L 203.717476 138.808874 
L 201.759895 136.708149 
L 200.779649 136.323008 
L 198.246426 137.462491 
L 197.79707 137.337431 
L 196.578659 136.165764 
L 195.004226 135.544604 
L 192.166171 135.860012 
L 189.937628 135.582766 
L 188.0225 135.755489 
L 186.956735 136.106453 
L 187.436896 136.814664 
L 187.395976 137.833072 
L 187.929318 138.329325 
L 187.450689 138.659139 
L 186.518873 138.289018 
L 185.576482 138.765195 
L 183.754535 138.686879 
L 181.880021 137.35996 
L 179.689486 137.673376 
L 177.863249 137.09191 
L 176.301384 137.268158 
L 174.188091 137.854681 
L 171.902383 139.716322 
L 169.407168 140.799099 
L 168.036111 141.997893 
L 167.45863 143.12772 
L 167.433495 144.860316 
L 167.559015 146.0657 
L 168.031666 146.929929 
L 167.061688 149.123989 
L 166.622754 150.931529 
L 166.439149 154.295264 
L 166.197153 155.521644 
L 166.632562 156.891629 
L 167.410966 158.116018 
L 167.91243 160.063483 
L 169.579125 161.933093 
L 170.165189 163.365454 
L 171.147581 164.601797 
L 173.813985 165.268321 
L 174.851704 166.318914 
L 177.054193 165.616833 
L 178.968861 165.363189 
L 182.429456 164.481335 
L 184.026724 163.456797 
L 184.625048 161.991945 
L 184.831029 159.882637 
L 185.265059 159.148525 
L 186.965777 158.491043 
L 189.620994 157.908504 
L 191.84448 157.995862 
L 193.367417 157.783445 
L 193.969726 158.315868 
L 193.884667 159.525083 
L 192.535219 161.017675 
L 191.938428 162.546896 
L 192.401117 162.983839 
L 191.39543 166.028641 
L 190.759251 165.383726 
L 190.233418 165.425412 
L 190.242614 165.794154 
L 190.718484 165.805648 
L 190.676797 166.488572 
L 190.270354 167.574414 
L 190.489821 167.963079 
L 190.226828 168.861485 
L 190.385298 169.101643 
L 190.094259 170.37017 
L 189.60107 171.036541 
L 189.147576 171.116389 
L 188.649943 171.986135 
L 189.468501 172.440243 
L 189.68521 172.065983 
L 190.682621 172.484841 
L 191.233282 172.043454 
L 191.951914 172.007285 
L 192.184715 172.212193 
L 192.574454 172.087593 
L 193.740757 172.31411 
L 194.901542 172.248362 
L 195.709372 171.970656 
L 196.003936 171.689425 
L 198.061749 171.930962 
L 198.560608 171.713487 
L 200.106074 172.117325 
L 202.511172 173.534054 
L 203.172026 174.224487 
L 202.956084 174.465564 
L 202.828112 175.026033 
L 203.084362 175.944976 
L 202.505961 176.800316 
L 202.236531 177.810754 
L 202.155151 178.917133 
L 202.290019 179.564347 
L 202.353162 180.694787 
L 201.969554 180.941381 
L 201.734761 182.015576 
L 201.907331 182.678575 
L 201.393759 183.320885 
L 201.510542 183.999364 
L 201.89553 184.411631 
L 202.531556 185.776099 
L 204.68117 187.858279 
L 205.582948 188.759137 
L 205.531453 189.290947 
L 206.533309 189.404052 
L 206.770554 189.199604 
L 207.460834 189.816779 
L 208.69595 189.635474 
L 209.764167 189.001287 
L 211.289097 188.495071 
L 212.146123 187.744254 
L 213.532507 187.891843 
L 213.439018 188.138437 
L 214.838889 188.224416 
L 215.956302 188.658293 
L 216.775933 189.413554 
L 217.720623 190.107666 
L 219.017963 190.187514 
L 220.901979 188.434228 
L 221.935713 188.167097 
L 221.960694 187.336431 
L 222.423384 185.21471 
L 223.863408 184.04948 
L 225.445963 184.001816 
L 225.645507 183.478589 
L 227.610444 183.687941 
L 230.564517 181.858485 
L 231.780169 180.649116 
L 232.669839 180.802835 
L 233.328701 181.463229 
L 232.84103 182.308914 
L 232.769764 182.902027 
L 231.295717 183.195366 
L 232.114887 184.334848 
L 232.084236 185.648127 
L 230.976631 187.106389 
L 231.926992 189.098607 
L 233.009309 188.935385 
L 233.573303 187.120489 
L 232.794592 186.237103 
L 232.667847 184.335768 
L 235.794949 183.315368 
L 235.446897 182.131593 
L 236.327372 181.339702 
L 237.228536 183.10387 
L 238.989486 183.144637 
L 240.620931 184.545273 
L 240.719323 185.376398 
L 242.97392 185.398468 
L 245.656724 185.140379 
L 247.094449 186.264689 
L 249.014941 186.575193 
L 250.423547 185.790658 
L 250.452207 185.158464 
L 253.562604 185.007197 
L 256.571696 184.9721 
L 254.4394 185.713875 
L 255.297192 186.899029 
L 257.305502 187.087845 
L 259.209289 188.322808 
L 259.609295 190.33403 
L 260.917823 190.277324 
L 263.550358 191.792905 
L 265.1041 193.429101 
L 265.174446 194.721843 
L 266.120516 194.781614 
L 268.457566 196.880806 
L 271.466046 197.383497 
L 271.735936 196.930922 
L 273.766314 196.749616 
L 277.318865 197.700896 
L 279.167784 198.294929 
L 281.826373 200.414199 
L 282.242012 201.442722 
L 283.097506 201.324252 
L 283.718665 202.712781 
L 285.127118 207.104579 
L 286.469976 207.518839 
L 286.537563 209.251895 
L 284.648796 211.319056 
L 285.429958 212.076004 
L 289.868654 212.47034 
L 289.95923 214.987317 
L 291.866388 213.339626 
L 295.025982 214.242017 
L 299.196473 215.775529 
L 300.422088 217.246972 
L 300.01028 218.637033 
L 302.930329 217.863227 
L 307.817001 219.191219 
L 311.568482 219.093286 
L 315.280421 221.171482 
L 318.487218 223.984556 
L 320.421504 224.708859 
L 322.568666 224.809551 
L 323.478566 225.601595 
L 324.747707 230.317996 
L 323.747843 234.469176 
L 322.470427 236.108591 
L 318.930904 239.602443 
L 317.331184 242.441111 
L 315.472302 244.617853 
L 314.844552 244.667049 
L 314.143237 246.514436 
L 314.321171 251.219036 
L 313.354565 256.744953 
L 312.560529 257.735621 
L 312.115311 261.092612 
L 309.569367 264.370368 
L 309.14254 266.963821 
L 307.110169 268.051809 
L 306.522113 269.557122 
L 303.794098 269.551145 
L 299.843994 270.516065 
L 298.075535 271.633019 
L 295.263227 272.366671 
L 292.308082 274.365938 
L 290.182529 276.856401 
L 289.817159 278.731375 
L 290.23479 280.117912 
L 289.765663 282.654506 
L 289.195845 283.879814 
L 287.441027 285.261906 
L 286.359434 286.977344 
M 232.698796 286.977344 
L 232.443782 284.350167 
L 233.912006 281.284215 
L 234.364274 276.426662 
L 235.955718 265.597822 
L 235.771807 261.487561 
L 235.249346 257.950797 
L 232.731603 256.50924 
L 232.513668 255.478724 
L 227.5355 252.957609 
L 223.032589 250.211356 
L 221.095545 248.663591 
L 220.055528 246.589227 
L 220.467795 245.865536 
L 218.341016 242.570462 
L 215.865419 237.937587 
L 213.492966 232.937963 
L 212.465975 231.793423 
L 211.676077 229.944043 
L 209.725086 228.305395 
L 207.935938 227.288673 
L 208.748825 226.168041 
L 207.531946 223.773058 
L 208.313568 222.014561 
L 210.315135 220.428634 
L 211.651709 218.552128 
L 211.108558 217.455404 
L 210.148848 218.621707 
L 208.644762 217.521153 
L 209.154349 216.813401 
L 208.730434 214.534282 
L 209.609989 214.155885 
L 210.072065 212.591568 
L 211.022426 210.974069 
L 210.847251 209.949531 
L 212.222753 209.411131 
L 213.949065 208.411728 
L 213.608523 207.632404 
L 214.545397 207.443589 
L 214.434131 206.186096 
L 215.022953 205.276043 
L 216.268644 205.107764 
L 218.287069 202.212696 
L 217.361536 201.614985 
L 217.835261 200.157643 
L 217.268814 197.860593 
L 217.807214 197.201731 
L 217.410733 195.077864 
L 216.39401 193.740064 
L 215.557062 193.01576 
L 215.019275 191.660335 
L 215.639668 190.989519 
L 215.003183 190.817716 
L 214.534669 189.988123 
L 213.283613 189.290027 
L 212.185051 189.449724 
L 211.676077 190.323608 
L 210.661654 190.95427 
L 210.113905 191.041628 
L 209.867617 191.564548 
L 211.065645 192.927483 
L 210.380116 193.248408 
L 210.017352 193.620521 
L 208.848903 193.748493 
L 208.41426 192.248544 
L 208.087358 192.675372 
L 207.259298 192.52763 
L 206.752469 191.517804 
L 205.72272 191.350598 
L 205.071215 191.0568 
L 203.993649 191.060785 
L 203.9161 191.605622 
L 203.627819 191.225999 
L 202.265038 190.669054 
L 201.755144 190.141689 
L 202.044344 189.70582 
L 201.953155 189.150868 
L 201.256898 188.549785 
L 199.404607 187.734752 
L 199.239393 187.000027 
L 198.580991 186.551437 
L 198.74222 187.281258 
L 198.241215 187.881268 
L 197.667259 187.184858 
L 196.860656 186.936731 
L 196.517355 186.430516 
L 196.531761 185.666212 
L 196.864181 184.875241 
L 196.15505 184.521058 
L 196.730539 184.035993 
L 194.688206 182.232131 
L 194.135706 181.385374 
L 193.077144 180.596395 
L 191.819039 179.462429 
L 192.097817 179.073764 
L 192.512384 179.451855 
L 192.702732 179.274687 
L 192.268855 178.489233 
L 191.506236 178.270685 
L 191.227458 178.861806 
L 189.773181 178.824718 
L 188.869411 178.584101 
L 187.831079 178.084475 
L 186.435807 177.928764 
L 185.724683 177.389444 
L 184.436539 176.951429 
L 182.870076 176.906218 
L 181.721858 176.408125 
L 180.370877 175.372093 
L 177.529297 172.668752 
L 176.234103 171.853106 
L 174.184107 171.198229 
L 172.781478 171.381068 
L 170.764586 172.325758 
L 169.499124 172.573272 
L 167.725761 171.911345 
L 165.844043 171.433789 
L 163.497031 170.281739 
L 161.614547 169.929702 
L 158.771741 168.762633 
L 156.671169 167.562306 
L 156.037289 166.89195 
L 154.632208 166.741756 
L 152.063735 165.94726 
L 151.017894 164.801187 
L 148.319764 163.376029 
L 147.061812 161.792554 
L 146.463182 160.569239 
L 147.30105 160.324177 
L 147.042655 159.607997 
L 147.619983 158.956645 
L 147.632243 158.088278 
L 146.785333 156.960443 
L 146.558509 155.961499 
L 145.716656 154.694504 
L 143.503898 152.198064 
L 140.979105 150.236958 
L 139.757475 148.671568 
L 137.602343 147.64611 
L 137.140573 147.03292 
L 137.523415 145.481169 
L 136.243393 144.895566 
L 134.761069 143.675162 
L 134.135159 141.922949 
L 132.784485 141.718654 
L 131.326376 140.395873 
L 130.149651 139.174397 
L 130.040224 138.390016 
L 128.69001 136.496191 
L 127.80034 134.573247 
L 127.838348 133.608633 
L 126.022379 132.612754 
L 125.184204 132.722181 
L 123.751076 132.030216 
L 123.348617 133.050156 
L 123.764257 134.254927 
L 124.008552 136.14063 
L 124.869562 137.175743 
L 126.733195 138.905274 
L 127.146995 139.496395 
L 127.528917 139.675708 
L 127.860111 140.538404 
L 128.306402 140.503308 
L 128.810318 142.122952 
L 129.572936 142.761737 
L 130.107811 143.650641 
L 131.685616 144.92867 
L 132.519039 147.264341 
L 133.961822 149.540854 
L 134.099909 150.865168 
L 135.31081 150.948081 
L 137.228391 153.210495 
L 137.167393 153.659851 
L 136.110824 154.582472 
L 135.666065 154.570364 
L 135.003985 153.043748 
L 133.360433 151.61246 
L 131.549828 150.398647 
L 130.265668 149.760781 
L 130.348582 147.923356 
L 129.967579 146.562873 
L 127.045078 144.663991 
L 126.713425 144.987368 
L 126.080157 144.333104 
L 124.531319 143.725431 
L 123.051294 142.267476 
L 123.234439 142.077741 
L 124.268633 142.220272 
L 125.200296 141.282172 
L 125.293937 140.149739 
L 123.360878 138.358445 
L 121.88729 137.663414 
L 118.86701 132.442023 
L 117.847069 130.183135 
L 117.424687 128.899895 
L 115.797533 127.456193 
L 114.625712 127.155804 
L 114.351225 126.435179 
L 112.942312 126.309047 
L 112.043907 125.630108 
L 109.711147 125.382595 
L 109.07083 124.977224 
L 108.765691 123.600189 
L 106.329328 121.077235 
L 104.237952 117.586448 
L 104.326995 117.004829 
L 103.219237 116.175697 
L 101.27591 114.071447 
L 100.929391 112.024056 
L 99.591284 110.652539 
L 100.141791 108.571431 
L 100.054127 106.417985 
L 99.252887 104.493508 
L 100.2339 102.127185 
L 100.844485 97.569714 
L 100.390837 94.201995 
L 99.597108 92.053606 
L 98.865141 90.887916 
L 99.169208 90.397793 
L 102.80038 91.250527 
L 104.138027 93.620835 
L 104.75888 92.957989 
L 104.357188 90.898951 
L 103.50338 88.839912 
L 103.166516 88.833475 
L 98.305132 86.367687 
L 96.511385 85.282918 
L 91.963876 84.24336 
L 90.565079 82.020641 
L 90.922633 80.479312 
L 87.710012 79.410175 
L 87.269391 77.385774 
L 84.231792 75.562755 
L 84.178611 74.269706 
L 82.798205 73.325016 
L 80.584988 72.52393 
L 79.874938 70.333854 
L 76.637795 68.303016 
L 75.284822 65.932095 
L 72.873747 65.769946 
L 68.881803 65.708183 
L 65.938918 64.985412 
L 60.746647 62.379545 
L 53.950364 61.007108 
L 50.474138 61.220905 
L 45.535817 60.067475 
L 42.55048 58.997726 
L 39.76346 59.529075 
L 40.281476 61.273779 
L 38.893407 61.434395 
L 35.988224 61.958235 
L 33.777459 62.805452 
L 30.995037 63.338795 
L 30.635797 61.859229 
L 31.764858 59.396506 
L 34.433562 58.62362 
L 33.745121 57.993877 
L 30.544301 59.392981 
L 28.830556 61.064274 
L 25.212717 62.850664 
L 27.049836 64.069995 
L 24.676923 65.873396 
L 21.977567 66.924449 
L 19.464575 67.690285 
L 18.842342 68.802181 
L 14.92243 70.098908 
L 14.1287 71.278085 
L 11.190873 72.351206 
L 9.467319 72.157946 
L 4.575589 73.713222 
L 2.487432 74.552929 
L -1 75.133258 
M -1 74.329138 
L 0.531537 73.67506 
L 2.98813 72.900181 
L 5.664343 71.526671 
L 8.779491 71.242835 
L 10.017673 70.213393 
L 13.498191 68.710226 
L 14.058814 68.207535 
L 15.912791 67.320624 
L 16.345902 65.416837 
L 17.623011 63.9339 
L 14.72779 64.694679 
L 13.917968 64.262795 
L 12.558559 65.17576 
L 10.918838 63.902176 
L 10.241891 64.803187 
L 9.302565 63.551672 
L 6.792332 64.556593 
L 5.251003 64.5546 
L 5.034601 63.060016 
L 5.488861 62.138928 
L 3.871976 61.24512 
L 0.60694 61.7262 
L -1 60.832306 
M -1 53.294784 
L 0.770161 53.135098 
L 2.492949 53.536791 
L 4.518577 52.325583 
L 6.341749 52.541525 
L 8.254885 51.762508 
L 7.788364 50.615516 
L 6.382976 50.163554 
L 8.241858 49.194802 
L 6.69961 49.223462 
L 4.035197 49.770291 
L 3.26982 50.324783 
L 1.28971 49.771364 
L -1 49.952671 
M -1 44.705072 
L 1.023193 44.705072 
L 0.681731 45.959193 
L 5.981743 45.86172 
L 3.943088 44.306444 
L 0.854454 43.349647 
L -1 42.064216 
M -1 38.83359 
L -0.931016 38.83233 
L 2.238385 37.688402 
L 2.83625 36.465547 
L 5.401504 35.27227 
L 7.847368 34.985062 
L 12.607295 33.870101 
L 14.916146 34.038379 
L 18.780272 32.699506 
L 22.579416 33.226872 
L 24.396458 34.360377 
L 25.511726 33.874239 
L 29.755322 34.024893 
L 29.604668 34.602374 
L 33.446572 35.029201 
L 36.007841 34.778162 
L 41.297738 35.571585 
L 46.127091 35.807604 
L 48.06061 36.134047 
L 51.401663 35.726224 
L 55.210615 36.481026 
L 62.623154 37.43721 
L 66.57571 38.645047 
L 69.194145 38.876162 
L 71.398627 37.828941 
L 74.439597 37.04456 
L 78.169468 37.351385 
L 81.930757 36.248531 
L 86.040252 35.622774 
L 87.765185 36.663404 
L 89.638933 36.076881 
L 90.199708 34.894179 
L 91.935063 35.16177 
L 96.180652 37.413149 
L 99.524003 35.711204 
L 99.863472 37.616524 
L 102.948275 37.204716 
L 103.896643 36.471983 
L 106.937767 36.61666 
L 110.778291 37.671237 
L 116.654559 38.591866 
L 120.110249 39.018233 
L 122.569754 38.856545 
L 125.95709 40.129516 
L 122.424311 41.375514 
L 126.963237 41.913914 
L 133.741129 41.618123 
L 135.880015 41.178729 
L 138.556535 42.684195 
L 141.287922 41.413676 
L 138.725274 40.348524 
L 140.34691 39.489199 
L 143.403207 39.373335 
L 145.411976 39.122143 
L 147.438983 39.721846 
L 149.962244 41.085701 
L 152.766582 40.885391 
L 157.202979 42.017824 
L 161.100822 41.619043 
L 164.763872 41.679427 
L 164.474059 40.116949 
L 166.706586 39.678168 
L 170.597686 40.529829 
L 170.58282 42.905195 
L 172.180855 40.903475 
L 174.200659 40.970756 
L 175.336157 38.446729 
L 172.64615 36.898351 
L 169.715219 35.883468 
L 169.916602 33.108862 
L 172.885388 31.286916 
L 176.197167 31.689681 
L 178.737746 32.797899 
L 182.148991 35.628904 
L 179.920908 36.862335 
L 184.590871 37.370543 
L 184.590871 37.370543 
" clip-path="url(#padc47c055c)" style="fill: none; stroke: #000000; stroke-width: 0.8"/>
    <path d="M 125.280924 28.271258 
L 124.027508 29.448113 
L 129.615286 28.688209 
L 133.107158 29.956264 
L 135.944689 28.673821 
L 138.239266 29.496877 
L 140.293741 31.963834 
L 141.555167 30.922798 
L 139.771352 28.351409 
L 141.980882 27.983673 
L 144.476464 28.385358 
L 147.28911 29.398345 
L 148.865064 31.844536 
L 149.643675 33.615871 
L 153.860623 34.859343 
L 158.391949 36.048151 
L 158.11948 37.152615 
L 153.996745 37.354625 
L 155.598436 38.319853 
L 154.752355 39.240888 
L 150.208048 38.846209 
L 145.889127 38.168239 
L 142.96999 38.320857 
L 138.255688 39.172639 
L 130.806053 39.61342 
L 127.425242 39.786478 
L 126.064883 38.601537 
L 122.637267 37.917139 
L 120.40765 38.197843 
L 117.313947 36.209659 
L 118.98444 35.942112 
L 122.860445 35.513358 
L 126.400227 35.626178 
L 129.67786 35.189239 
L 124.821837 34.602619 
L 119.456232 34.802369 
L 115.895735 34.751873 
L 114.570981 33.826218 
L 120.394668 32.821868 
L 116.521275 32.856972 
L 112.136291 32.195599 
L 114.243823 30.314207 
L 115.992107 29.314603 
L 122.714883 27.786283 
L 125.280924 28.271258 
" clip-path="url(#padc47c055c)" style="fill: none; stroke: #000000; stroke-width: 0.8"/>
    <path d="M 149.555188 27.521599 
L 147.345508 29.178859 
L 143.428348 27.421159 
L 144.282088 27.069619 
L 147.646828 26.969179 
L 149.555188 27.521599 
" clip-path="url(#padc47c055c)" style="fill: none; stroke: #000000; stroke-width: 0.8"/>
    <path d="M 220.264948 28.318377 
L 220.487413 29.012165 
L 217.818134 28.938945 
L 215.113204 28.885937 
L 212.364709 29.223548 
L 211.637571 29.071131 
L 208.874804 27.739596 
L 208.980802 26.835634 
L 210.188159 26.668562 
L 215.934884 26.939218 
L 220.264948 28.318377 
" clip-path="url(#padc47c055c)" style="fill: none; stroke: #000000; stroke-width: 0.8"/>
    <path d="M 194.597057 28.180869 
L 196.575241 29.746029 
L 198.896055 27.72178 
L 205.260241 26.690581 
L 209.567867 29.287978 
L 209.194095 30.931771 
L 214.161614 30.202912 
L 216.537057 29.204931 
L 222.108411 30.475342 
L 225.566632 31.671919 
L 225.891745 32.767479 
L 230.554459 32.199781 
L 233.171449 33.799067 
L 239.232905 34.790884 
L 241.420197 35.803008 
L 243.795445 38.152953 
L 239.185024 39.3228 
L 245.099074 40.962571 
L 249.085416 41.514049 
L 252.694677 43.821823 
L 256.644362 43.988434 
L 255.86295 45.750828 
L 251.455474 48.667562 
L 248.365899 47.594451 
L 244.417706 45.178848 
L 241.168982 45.493514 
L 240.851915 46.932158 
L 243.492586 48.391888 
L 246.901433 49.547072 
L 247.935747 50.214166 
L 249.569808 52.69958 
L 248.705026 54.50434 
L 245.53805 53.824076 
L 239.240107 51.813841 
L 242.789419 53.977581 
L 245.404333 55.493951 
L 245.812946 56.370736 
L 239.00362 55.368214 
L 233.614837 53.910431 
L 230.571652 52.687253 
L 231.448242 51.978766 
L 227.701761 50.688177 
L 224.045462 49.47006 
L 224.085428 50.198205 
L 216.824928 50.598838 
L 214.7007 49.736651 
L 216.354615 47.887837 
L 221.072801 47.8432 
L 226.241642 47.522305 
L 225.402746 46.625861 
L 226.279012 45.373357 
L 229.527607 42.92765 
L 228.837351 41.816908 
L 227.869215 40.956862 
L 224.023143 39.73855 
L 218.936375 38.884538 
L 220.54455 38.24917 
L 217.886102 36.687904 
L 215.673248 36.544909 
L 213.693052 35.690183 
L 212.349133 36.431109 
L 207.79665 36.754081 
L 198.65853 36.193001 
L 193.347019 35.456356 
L 189.274906 35.077847 
L 187.186491 34.195742 
L 189.81224 33.050355 
L 186.24554 33.03939 
L 185.44953 30.496947 
L 187.379443 28.251134 
L 189.961593 27.22558 
L 196.445222 26.557837 
L 194.597057 28.180869 
" clip-path="url(#padc47c055c)" style="fill: none; stroke: #000000; stroke-width: 0.8"/>
    <path d="M 159.959717 26.457211 
L 162.95421 26.985776 
L 167.433508 26.667859 
L 168.086367 27.396049 
L 165.742123 28.600023 
L 169.542748 29.681059 
L 169.090768 31.940959 
L 164.973581 32.913092 
L 162.554986 32.703323 
L 160.817474 31.744423 
L 154.577187 29.806609 
L 154.627408 29.003089 
L 159.753966 29.314754 
L 156.987747 27.672259 
L 159.959717 26.457211 
" clip-path="url(#padc47c055c)" style="fill: none; stroke: #000000; stroke-width: 0.8"/>
    <path clip-path="url(#padc47c055c)" style="fill: none; stroke: #000000; stroke-width: 0.8"/>
    <path d="M 177.938789 29.148746 
L 175.245111 31.025458 
L 172.38054 30.931836 
L 170.813954 28.726184 
L 170.852817 27.477832 
L 172.16475 26.41069 
L 174.656003 25.726468 
L 179.888037 25.814056 
L 184.684598 26.424963 
L 180.932731 28.66098 
L 177.938789 29.148746 
" clip-path="url(#padc47c055c)" style="fill: none; stroke: #000000; stroke-width: 0.8"/>
    <path d="M 109.479627 32.593819 
L 102.870198 33.845201 
L 101.544867 32.744479 
L 95.747069 31.416963 
L 96.591393 30.598779 
L 98.563582 28.519571 
L 100.741348 26.868739 
L 98.286217 25.330123 
L 106.773071 24.937956 
L 110.35903 25.459189 
L 116.772475 25.59875 
L 119.211209 26.326187 
L 121.907044 27.383017 
L 118.75039 28.016467 
L 112.593267 29.781499 
L 109.479627 31.539199 
L 109.479627 32.593819 
" clip-path="url(#padc47c055c)" style="fill: none; stroke: #000000; stroke-width: 0.8"/>
    <path clip-path="url(#padc47c055c)" style="fill: none; stroke: #000000; stroke-width: 0.8"/>
    <path d="M 176.893057 23.604446 
L 175.52669 24.577837 
L 171.881291 24.390723 
L 168.837327 23.735957 
L 170.174045 22.605492 
L 173.784279 21.929056 
L 175.976566 22.809733 
L 176.893057 23.604446 
" clip-path="url(#padc47c055c)" style="fill: none; stroke: #000000; stroke-width: 0.8"/>
    <path clip-path="url(#padc47c055c)" style="fill: none; stroke: #000000; stroke-width: 0.8"/>
    <path d="M 164.621188 19.235299 
L 166.540634 20.398997 
L 166.618901 21.687441 
L 165.474928 23.554219 
L 161.334941 23.811747 
L 158.635817 23.410188 
L 158.687895 21.945295 
L 154.57194 22.138517 
L 154.412667 20.198016 
L 157.113975 20.276435 
L 160.896144 19.420259 
L 164.427866 19.565269 
L 164.621188 19.235299 
" clip-path="url(#padc47c055c)" style="fill: none; stroke: #000000; stroke-width: 0.8"/>
    <path d="M 140.235837 20.5368 
L 141.220099 21.431118 
L 143.456144 21.011028 
L 146.087496 21.120055 
L 146.529483 22.350169 
L 145.001564 23.540986 
L 136.497987 23.930869 
L 130.162559 25.018232 
L 126.343981 25.075207 
L 126.023728 24.256571 
L 131.239426 23.146181 
L 119.894728 23.445166 
L 116.383873 22.996275 
L 119.809831 20.543454 
L 122.173059 19.840776 
L 129.239791 20.688314 
L 133.700181 22.175203 
L 138.087199 22.365988 
L 134.496068 19.963941 
L 136.796545 19.049058 
L 139.389178 19.339957 
L 140.235837 20.5368 
" clip-path="url(#padc47c055c)" style="fill: none; stroke: #000000; stroke-width: 0.8"/>
    <path d="M 552.067187 34.406042 
L 546.738576 34.194185 
L 546.072261 33.079291 
L 541.527045 32.406099 
L 541.160085 31.049852 
L 543.727636 30.511091 
L 543.641995 29.141868 
L 548.622425 27.000447 
L 546.314003 26.693436 
L 552.067187 24.58439 
M 552.067187 24.055729 
L 551.646471 23.349793 
L 552.067187 23.250482 
M 552.067187 29.569262 
L 551.11264 30.154966 
L 551.623633 32.240785 
L 552.067187 32.430958 
" clip-path="url(#padc47c055c)" style="fill: none; stroke: #000000; stroke-width: 0.8"/>
    <path d="M 174.202948 18.286446 
L 176.990572 19.09394 
L 181.934474 19.08836 
L 184.101913 19.914279 
L 183.529868 20.857372 
L 186.411048 21.425459 
L 188.005922 22.022093 
L 191.392776 22.132518 
L 195.056536 22.342859 
L 199.047939 21.798517 
L 204.160788 21.584804 
L 208.240947 21.761406 
L 210.930277 22.708391 
L 211.491682 23.747246 
L 209.925225 24.414729 
L 206.181144 24.954204 
L 202.966936 24.648945 
L 195.763985 25.035628 
L 190.609158 25.080136 
L 186.55547 24.770659 
L 179.881938 23.961609 
L 179.013523 22.582914 
L 178.708134 21.337871 
L 176.187295 20.241598 
L 170.992957 19.934911 
L 168.082905 19.157262 
L 169.027684 18.126972 
L 174.202948 18.286446 
" clip-path="url(#padc47c055c)" style="fill: none; stroke: #000000; stroke-width: 0.8"/>
    <path d="M 120.180037 16.911904 
L 119.83546 18.841168 
L 117.901394 19.712309 
L 115.555213 19.834996 
L 110.887501 20.9096 
L 106.8682 21.294272 
L 103.465972 20.75058 
L 103.46597 20.75058 
L 107.728116 18.87244 
L 112.884697 17.246034 
L 116.736089 17.28094 
L 120.180037 16.911904 
" clip-path="url(#padc47c055c)" style="fill: none; stroke: #000000; stroke-width: 0.8"/>
    <path d="M 552.067187 144.126575 
L 551.876883 144.170803 
L 549.344273 145.386149 
L 546.275869 144.553031 
L 543.741267 142.62365 
L 541.323602 141.908389 
L 539.646792 139.525974 
L 537.793734 136.177872 
L 536.442294 136.585081 
L 534.846252 135.753037 
L 533.909225 136.732823 
L 532.418625 136.609756 
L 532.942925 137.718127 
L 532.7184 138.291164 
L 534.510768 142.350389 
L 535.746191 142.923885 
L 536.176083 143.805739 
L 537.887682 144.861389 
L 538.039716 145.897422 
L 537.789137 146.733604 
L 538.10715 147.577297 
L 538.829307 148.28091 
L 539.163719 149.104525 
L 539.538898 149.719708 
L 539.372612 147.892704 
L 540.049558 146.575441 
L 540.735087 146.305245 
L 541.494946 147.092691 
L 541.539085 148.5626 
L 540.994248 150.03956 
L 541.470884 150.99881 
L 541.917788 150.876662 
L 542.010664 151.565256 
L 543.975754 151.169541 
L 547.569071 151.30916 
L 549.2891 149.61166 
L 552.067187 147.118836 
M 552.067187 166.976354 
L 551.720712 166.971798 
L 550.73786 167.604453 
L 550.749967 168.619029 
L 549.535081 169.316052 
L 548.149617 169.07896 
L 546.470202 169.926177 
L 545.310642 170.068249 
L 543.494213 170.742743 
L 543.008075 171.857704 
L 542.949223 172.713964 
L 540.448798 173.774058 
L 536.436777 174.945725 
L 534.188463 176.716943 
L 533.083004 176.855489 
L 532.329275 176.706828 
L 530.861817 177.748991 
L 529.261331 178.232524 
L 526.519369 178.505325 
L 525.970394 179.168631 
L 525.311992 179.35193 
L 524.923787 179.990254 
L 523.680854 179.935081 
L 522.878388 180.276083 
L 521.140735 180.147958 
L 520.48739 178.681573 
L 520.559269 177.308524 
L 520.148841 176.567821 
L 519.657185 174.710626 
L 518.93564 173.678578 
L 519.438331 173.556123 
L 519.180702 172.409131 
L 519.485075 171.924985 
L 519.373962 170.829641 
L 519.048133 169.757899 
L 518.290725 169.001564 
L 518.096852 168.000321 
L 516.800279 167.10023 
L 515.461865 164.9946 
L 514.753195 162.948589 
L 513.016614 161.220591 
L 511.896748 160.80817 
L 510.234038 158.415333 
L 509.943152 156.670169 
L 510.050127 155.181562 
L 508.610409 152.397454 
L 507.432765 151.417668 
L 506.076267 150.898272 
L 505.25066 149.459474 
L 505.387673 148.892108 
L 504.69019 147.589864 
L 503.956998 147.029395 
L 502.976139 145.161624 
L 500.166896 141.411829 
L 498.916454 141.424396 
L 499.307112 140.045829 
L 499.418531 139.166887 
L 499.729494 138.164572 
L 499.645661 137.8015 
L 498.940056 138.810406 
L 498.400123 140.707143 
L 497.716587 142.014904 
L 497.131596 142.453379 
L 495.161448 140.522312 
L 493.369541 136.923171 
L 493.111452 137.150608 
L 494.152082 139.800155 
L 495.693718 142.324795 
L 497.591527 146.235971 
L 498.518593 147.600898 
L 499.325196 149.01916 
L 501.578567 151.799283 
L 501.079402 152.236685 
L 501.160782 153.868896 
L 504.084969 156.122727 
L 504.525896 156.636912 
L 505.335565 159.100708 
L 504.785058 159.556195 
L 505.149662 162.141066 
L 506.071669 165.139277 
L 508.402437 166.68551 
L 509.860392 169.592225 
L 510.551898 171.897245 
L 511.92832 173.120101 
L 515.355963 175.492095 
L 518.897479 179.234993 
L 520.131829 179.990254 
L 520.725862 180.767739 
L 520.647087 181.810208 
L 519.214266 182.410831 
L 521.109623 183.560889 
L 521.601739 184.598914 
L 522.734784 185.65012 
L 523.981242 185.658549 
L 526.348025 185.016239 
L 529.081558 184.718916 
L 531.29171 183.93852 
L 532.537248 183.773306 
L 533.434121 183.315368 
L 535.666342 183.177281 
L 536.82345 182.804555 
L 538.154813 182.551523 
L 539.343033 181.692199 
L 540.295232 181.685149 
L 540.351938 182.37926 
L 540.119904 183.840127 
L 540.129406 185.159843 
L 539.599589 186.066831 
L 538.89199 188.781207 
L 537.682775 191.586005 
L 536.130412 194.792648 
L 533.975433 198.47271 
L 531.832102 201.284098 
L 528.879102 204.709596 
L 526.36611 206.741968 
L 522.610185 209.235343 
L 520.269456 211.14526 
L 517.521364 214.187303 
L 516.94235 215.511157 
L 516.374831 216.105803 
L 514.616641 217.108425 
L 513.9964 218.156259 
L 513.055388 218.340323 
L 512.699214 220.109548 
L 511.892763 221.122439 
L 511.40264 222.793272 
L 510.391589 223.622404 
L 509.232029 226.716403 
L 509.380691 228.139415 
L 510.98884 229.054526 
L 511.06409 229.707257 
L 510.372585 231.223758 
L 510.516648 231.986836 
L 510.352048 233.186243 
L 511.229304 234.760216 
L 512.268402 237.236273 
L 513.18995 237.785401 
L 513.59624 238.91109 
L 513.49279 241.412895 
L 513.80314 243.615997 
L 513.90046 247.5402 
L 514.342 248.770106 
L 513.593175 250.564466 
L 512.618906 252.308097 
L 511.020412 253.865364 
L 505.893889 256.038427 
L 503.05706 258.733492 
L 502.09076 259.192197 
L 500.338087 260.976288 
L 499.303587 261.556834 
L 499.091169 263.347209 
L 500.281841 265.248697 
L 500.777481 266.721519 
L 500.808746 267.472796 
L 501.252585 267.347276 
L 501.180246 269.81 
L 500.773496 270.976303 
L 501.365077 271.406195 
L 500.991431 272.451117 
L 499.941911 273.344158 
L 497.870766 274.192908 
L 494.851098 275.551858 
L 493.749777 276.480456 
L 493.964646 277.538099 
L 494.606956 277.707297 
L 494.391014 279.028852 
L 493.763877 280.856622 
L 493.467473 282.943094 
L 492.817654 284.076446 
L 490.613479 285.707584 
L 489.553515 286.977344 
M 454.84695 286.977344 
L 454.799698 286.897796 
L 452.997215 283.635366 
L 451.13113 281.738322 
L 450.148279 279.904422 
L 449.593787 277.459783 
L 448.975079 275.640749 
L 448.133379 271.77417 
L 448.077133 268.770135 
L 447.755748 267.400457 
L 446.779027 266.365344 
L 445.48276 264.290826 
L 444.163044 261.278362 
L 443.615142 259.701937 
L 441.571736 257.250708 
L 441.41955 255.324239 
L 441.182918 253.745362 
L 441.530969 251.537509 
L 442.397344 249.23862 
L 442.527921 248.160901 
L 443.342494 245.897568 
L 443.941125 244.868431 
L 445.383448 243.225492 
L 446.188979 242.108079 
L 446.452585 240.247971 
L 446.321548 238.824958 
L 445.570271 237.927319 
L 444.285039 234.89723 
L 444.4196 234.375535 
L 445.191567 233.379963 
L 443.915377 229.273227 
L 442.657885 227.684388 
L 442.89651 227.196564 
L 442.544473 226.4177 
L 441.873504 224.529393 
L 439.81094 221.870038 
L 437.231127 219.335589 
L 435.571329 217.263524 
L 434.046706 214.669764 
L 434.127014 213.835267 
L 434.675529 213.032495 
L 435.791409 209.342931 
L 435.321363 208.964227 
L 436.18406 206.14441 
L 436.550656 204.161695 
L 435.569337 202.501897 
L 434.423417 202.075989 
L 433.913064 200.950606 
L 433.270294 200.590447 
L 433.298954 199.896489 
L 430.692013 200.800412 
L 429.739354 200.668303 
L 428.773667 201.230764 
L 426.765358 201.176051 
L 425.420967 199.605143 
L 424.594287 197.787794 
L 422.816479 196.133514 
L 418.713575 196.163093 
L 416.638444 196.455971 
L 414.616648 196.991766 
L 410.68003 198.461676 
L 409.283991 199.322993 
L 407.021271 200.051128 
L 404.783073 199.338012 
L 403.640525 199.363606 
L 401.888618 198.872564 
L 400.278783 198.901683 
L 397.30448 199.340004 
L 393.074677 200.985703 
L 391.931669 200.941564 
L 389.34358 199.744762 
L 387.062162 197.833466 
L 384.922816 196.459956 
L 383.231907 194.839852 
L 382.55542 194.653489 
L 380.747727 193.642131 
L 379.439812 192.296668 
L 379.000265 191.379718 
L 378.692673 189.523594 
L 377.591199 188.037593 
L 376.614937 187.054741 
L 375.971861 186.729831 
L 375.345031 186.230666 
L 375.060122 185.121222 
L 374.692759 184.567802 
L 373.962479 184.156455 
L 372.62192 183.106935 
L 371.564738 182.940649 
L 370.988483 182.233051 
L 371.003042 181.850975 
L 370.237512 181.318093 
L 370.077663 180.780766 
L 369.665702 178.855829 
L 369.986627 177.741941 
L 368.951054 175.787425 
L 367.698313 174.893004 
L 368.802699 174.416368 
L 370.019271 172.65358 
L 370.616063 171.364056 
L 370.398434 170.011083 
L 371.099442 168.772595 
L 371.411325 166.408724 
L 371.133619 163.927456 
L 370.830472 162.679006 
L 371.081205 161.426878 
L 370.431998 160.233294 
L 369.108451 159.148525 
L 369.334968 156.924273 
L 370.299429 156.239664 
L 371.121052 154.931443 
L 370.959057 154.081314 
L 371.822366 152.309483 
L 373.219938 150.713441 
L 374.065469 150.308683 
L 374.730155 148.844291 
L 374.789619 147.506491 
L 375.696148 145.954128 
L 377.368666 145.03917 
L 378.960417 142.474989 
L 380.268945 141.474972 
L 382.60385 141.197879 
L 384.582581 139.481375 
L 385.841299 138.812398 
L 387.937426 136.715658 
L 387.309983 133.592081 
L 388.263868 131.431585 
L 388.600579 130.109264 
L 390.215932 128.412837 
L 392.735055 127.265845 
L 394.597461 126.227819 
L 396.275191 123.627929 
L 397.064476 122.085681 
L 398.913089 122.097635 
L 400.426678 123.16386 
L 402.814457 122.990064 
L 405.415267 123.544556 
L 406.506014 123.57107 
L 408.919847 122.199093 
L 411.634835 121.762764 
L 413.219996 120.726578 
L 415.638121 119.962274 
L 419.893671 119.51491 
L 424.046844 119.310922 
L 425.313532 119.684108 
L 427.678323 118.694206 
L 430.361586 118.674589 
L 431.3826 119.259273 
L 433.100023 119.106627 
L 435.834475 118.093124 
L 437.592206 118.394431 
L 437.518488 119.664951 
L 439.648332 118.740951 
L 439.827033 119.223104 
L 438.571533 120.45347 
L 438.554521 121.615022 
L 439.423808 122.238787 
L 439.093381 124.41231 
L 437.440633 125.67486 
L 437.917729 127.042852 
L 439.216294 127.086071 
L 439.848182 128.279808 
L 440.803294 128.671998 
L 443.752309 129.536227 
L 444.806886 129.320285 
L 446.904546 129.739143 
L 450.236709 130.861614 
L 451.412361 133.093375 
L 453.666652 133.580433 
L 457.205715 134.632098 
L 459.880856 135.880089 
L 461.105244 135.228737 
L 462.308483 134.073622 
L 461.723492 132.150218 
L 462.511398 130.928895 
L 464.320317 129.75217 
L 466.049389 129.409635 
L 469.446227 129.923973 
L 470.302487 131.046291 
L 471.237215 131.056866 
L 472.036615 131.485226 
L 474.531523 131.779637 
L 475.143794 132.608769 
L 478.484387 132.567543 
L 483.393894 133.973237 
L 484.556519 134.364354 
L 486.489885 133.568939 
L 487.523465 132.849233 
L 489.737755 132.642333 
L 491.523533 132.959273 
L 492.207529 134.204658 
L 492.790067 133.384568 
L 494.802362 133.977681 
L 496.759942 134.119753 
L 497.995365 133.487098 
L 498.726106 132.659958 
L 498.554302 132.517733 
L 499.218681 131.344227 
L 499.727961 129.449329 
L 500.156321 128.788016 
L 501.050742 126.742464 
L 502.346856 124.885881 
L 502.112369 122.96447 
L 502.727092 121.931502 
L 501.803552 120.792479 
L 502.754679 119.849322 
L 501.223466 120.063272 
L 499.122741 119.485791 
L 497.396275 120.930566 
L 493.585483 121.213329 
L 491.552652 119.865414 
L 488.845786 119.780968 
L 488.266773 120.822518 
L 486.531571 121.120914 
L 484.103025 119.783573 
L 481.361983 119.828785 
L 479.874448 117.331272 
L 478.039935 115.938605 
L 479.261258 113.985622 
L 477.669813 112.785908 
L 480.454994 110.384335 
L 484.322032 110.28395 
L 485.376609 108.375566 
L 490.161977 108.707985 
L 493.180725 107.079299 
L 496.106598 106.369249 
L 500.260844 106.316068 
L 504.643446 108.085753 
L 508.245806 109.056957 
L 511.171065 108.669824 
L 513.332481 108.893889 
L 516.296975 107.583062 
L 516.671694 106.509941 
L 516.044404 104.797421 
L 514.593039 103.871889 
L 513.201904 103.582995 
L 512.281889 102.813633 
L 509.080456 100.691912 
L 506.215427 99.74477 
L 504.046808 98.269802 
L 505.874425 97.86857 
L 507.957985 95.768304 
L 506.553363 94.774418 
L 510.254575 93.750033 
L 510.188214 93.200598 
L 507.934383 93.605356 
L 505.929138 93.806279 
L 504.258766 94.618707 
L 501.908075 94.751429 
L 499.744973 95.686924 
L 499.892102 97.248789 
L 501.120475 97.85447 
L 503.681744 97.703816 
L 503.191161 98.59977 
L 500.442609 99.034566 
L 497.033663 100.487464 
L 495.637471 99.976804 
L 496.190891 98.796554 
L 493.447396 98.061829 
L 493.890929 97.580289 
L 496.294341 96.745639 
L 495.567738 96.17061 
L 491.664071 95.53581 
L 491.491348 94.599702 
L 489.165179 94.90898 
L 488.233056 96.291685 
L 486.288502 98.147808 
L 486.346894 98.795022 
L 485.129556 99.335414 
L 484.366631 99.100468 
L 483.66409 102.129637 
L 482.360927 103.169808 
L 481.443823 104.96616 
L 482.254411 106.398368 
L 482.552654 107.364055 
L 484.744875 108.175103 
L 484.287856 108.790439 
L 481.306196 108.928525 
L 480.235067 109.704937 
L 478.13986 111.057297 
L 477.349348 109.888235 
L 477.383525 109.369912 
L 475.853844 109.298646 
L 474.543631 109.061095 
L 471.502813 109.713979 
L 473.243379 111.125037 
L 471.967802 111.534393 
L 470.569158 111.536845 
L 469.24086 110.243796 
L 468.769281 110.79507 
L 469.33021 112.294712 
L 470.586783 113.472816 
L 469.6401 114.023323 
L 471.038744 115.180431 
L 472.281677 115.908566 
L 472.319379 117.327287 
L 469.996734 116.661835 
L 470.737437 117.94247 
L 469.142927 118.206076 
L 470.095127 120.422358 
L 468.427359 120.45347 
L 466.368321 119.361191 
L 465.426696 117.352421 
L 464.987302 115.682049 
L 462.721363 113.095798 
L 462.551552 112.380537 
L 462.124725 112.204749 
L 462.074456 111.652402 
L 460.683475 110.80917 
L 460.464927 109.612981 
L 460.677344 107.900002 
L 461.019879 107.120066 
L 460.597496 106.72435 
L 460.071664 106.530018 
L 459.367591 105.710387 
L 458.282821 105.211681 
L 455.922016 104.282624 
L 454.466206 103.3787 
L 452.169615 102.632328 
L 450.057856 100.784327 
L 450.564531 100.597044 
L 449.419531 99.540781 
L 449.372787 98.693104 
L 447.758354 98.296929 
L 446.988839 99.381085 
L 446.247677 98.539998 
L 446.393273 97.627952 
L 446.95221 97.399903 
L 444.953556 97.034379 
L 442.911989 97.925275 
L 443.050688 99.171733 
L 442.74325 99.887301 
L 443.566406 101.165483 
L 445.920775 102.430485 
L 447.183785 104.506076 
L 449.978008 106.530018 
L 451.945704 106.514385 
L 452.557361 107.069337 
L 451.852675 107.569575 
L 455.945617 109.236883 
L 458.098604 110.546024 
L 458.358685 111.01515 
L 457.889711 111.914016 
L 456.496125 110.741889 
L 454.314479 110.328549 
L 453.25745 111.952791 
L 455.072346 112.883841 
L 454.774563 114.194054 
L 453.72535 114.342716 
L 452.384485 116.496622 
L 451.337417 116.690035 
L 451.347533 115.922053 
L 451.859725 114.57567 
L 452.405175 114.039416 
L 450.658479 111.317991 
L 449.615856 111.004575 
L 448.874694 109.920879 
L 447.26118 109.46432 
L 446.174879 108.455414 
L 444.316763 108.292653 
L 442.354585 107.159147 
L 440.057535 105.524483 
L 438.350533 104.078176 
L 437.567071 101.595835 
L 436.317702 101.304029 
L 434.274756 100.47551 
L 433.119181 100.814366 
L 431.668275 101.979596 
L 430.624733 102.163814 
L 428.349752 103.582535 
L 423.397025 102.902524 
L 419.740106 103.717097 
L 419.452744 105.229306 
L 419.586846 106.688181 
L 417.207496 108.360546 
L 413.989817 108.891283 
L 413.765906 109.736048 
L 412.222585 111.127643 
L 411.254906 113.171508 
L 412.234232 114.606781 
L 410.781794 115.7268 
L 410.238643 117.359471 
L 408.343133 117.859556 
L 406.565018 119.790623 
L 400.984388 119.780968 
L 399.411795 120.667879 
L 398.452852 121.616554 
L 397.224172 121.408122 
L 396.294348 120.559985 
L 395.582459 119.115669 
L 393.238511 118.726391 
L 392.229299 119.378203 
L 390.905445 119.025246 
L 389.609791 119.30142 
L 389.993246 117.336329 
L 389.75738 115.792549 
L 388.633836 115.560974 
L 388.033673 114.609387 
L 388.233523 112.965681 
L 389.234459 112.054095 
L 389.4127 111.039212 
L 389.93654 109.529148 
L 389.88106 108.465376 
L 389.37883 107.563445 
L 389.26833 106.716841 
L 389.394922 104.928458 
L 388.369158 103.839244 
L 391.921401 102.0268 
L 394.994096 102.480294 
L 398.365647 102.464202 
L 401.037416 102.893022 
L 403.122202 102.761525 
L 407.180508 102.844285 
L 408.47892 101.338206 
L 408.957089 96.335823 
L 406.365935 93.700224 
L 404.514103 92.430164 
L 400.676337 91.464018 
L 400.423459 89.633489 
L 403.678993 89.087119 
L 407.895616 89.732954 
L 407.099893 86.890454 
L 409.470355 87.967714 
L 415.316123 86.00952 
L 416.070465 83.952014 
L 420.278965 82.949698 
L 421.572627 82.260185 
L 423.771744 78.56541 
L 427.207204 77.514358 
L 429.293829 77.585164 
L 429.784106 77.053814 
L 431.882685 76.91726 
L 432.348286 77.470679 
L 434.053296 76.232804 
L 433.479187 75.291639 
L 433.364242 73.8674 
L 432.344762 72.474274 
L 432.268898 69.907027 
L 432.687296 69.229008 
L 433.407461 68.475739 
L 435.619606 68.320028 
L 436.50146 67.627602 
L 438.521264 66.918931 
L 438.435898 68.210141 
L 437.692744 69.028239 
L 437.994052 69.731239 
L 439.355454 70.111475 
L 438.741804 71.058618 
L 437.994052 70.785816 
L 436.186052 72.593816 
L 436.868516 73.816672 
L 436.913267 74.786956 
L 439.450321 75.371947 
L 439.423808 76.263303 
L 441.976954 75.791877 
L 443.388625 75.103743 
L 446.223615 76.095637 
L 447.409229 76.895191 
L 449.124813 76.15786 
L 456.205852 74.146639 
L 458.711794 74.571014 
L 458.901069 75.183591 
L 461.322719 75.215316 
L 461.894683 74.11047 
L 465.359875 73.295897 
L 464.826073 71.185057 
L 464.912971 69.29491 
L 466.146861 67.717872 
L 468.513644 66.860233 
L 470.507394 68.736433 
L 472.521834 68.687697 
L 473.2961 65.278291 
L 472.37256 65.594618 
L 470.779123 64.702802 
L 470.561188 63.259866 
L 473.736108 62.560391 
L 476.899992 62.195787 
L 479.624329 62.610506 
L 482.215177 62.536176 
L 485.069171 61.148719 
L 482.438782 59.954983 
L 477.881771 60.154833 
L 473.465911 61.075308 
L 469.380479 61.604666 
L 467.927121 60.235141 
L 465.49505 59.410606 
L 466.053986 56.937155 
L 464.834656 54.671829 
L 466.031764 53.209429 
L 468.308277 51.632544 
L 474.053048 48.909587 
L 475.729245 48.384214 
L 475.468244 47.322127 
L 471.976385 46.1359 
L 467.656925 46.846564 
L 465.221788 48.598624 
L 465.613979 50.136427 
L 461.619582 52.155312 
L 456.770765 54.315195 
L 454.942229 57.851193 
L 456.729539 59.620418 
L 459.130652 61.013545 
L 456.824559 63.84593 
L 454.213021 64.433526 
L 453.254844 68.649075 
L 451.829073 71.001299 
L 448.782739 70.758689 
L 447.361565 72.749987 
L 444.454237 72.865544 
L 443.656369 70.492018 
L 441.554571 67.642622 
L 439.644194 64.091604 
L 437.960335 62.550276 
L 433.002091 65.454539 
L 429.654448 66.043055 
L 426.181746 64.764566 
L 425.2838 62.064597 
L 424.489917 56.26971 
L 426.801987 54.654204 
L 433.432596 52.54597 
L 438.389767 49.954662 
L 442.986319 46.455293 
L 449.02029 41.606476 
L 460.125917 36.567464 
L 465.636048 35.468135 
L 469.767152 35.601777 
L 473.591431 33.521589 
L 478.170052 33.632549 
L 482.678327 33.132464 
L 490.532711 34.96943 
L 487.298481 35.641471 
L 490.049485 37.218816 
L 492.639873 36.345545 
L 496.765 37.863118 
L 503.64159 38.460829 
L 513.129106 41.300724 
L 515.056035 42.494 
L 515.222321 44.165293 
L 512.434688 45.484549 
L 508.334083 46.154445 
L 497.124546 44.245601 
L 495.28099 44.564993 
L 499.374852 46.404104 
L 499.698842 50.134435 
L 502.93154 50.900272 
L 504.894025 51.552083 
L 505.218475 50.334745 
L 503.650633 49.215952 
L 505.303841 48.304366 
L 511.373981 49.867304 
L 513.488805 49.255493 
L 511.798815 47.416535 
L 517.650408 44.957183 
L 519.968148 45.10186 
L 522.312862 45.979729 
L 523.775262 44.254183 
L 521.681587 42.757146 
L 522.910573 41.255512 
L 521.064871 39.697631 
L 528.088744 40.503162 
L 529.522944 41.909929 
L 526.34404 42.219666 
L 526.361052 43.616931 
L 528.337331 44.476562 
L 532.217242 43.932185 
L 532.830893 42.330166 
L 538.076498 41.134437 
L 546.839404 38.978079 
L 548.733075 39.101606 
L 546.257785 40.62577 
L 549.372473 40.887383 
L 551.171277 40.029591 
L 552.067187 40.016405 
L 552.067187 40.016405 
" clip-path="url(#padc47c055c)" style="fill: none; stroke: #000000; stroke-width: 0.8"/>
    <path d="M 535.270627 108.219395 
L 536.547737 110.000727 
L 537.717871 110.117664 
L 538.491217 110.79507 
L 536.423137 110.997066 
L 535.986348 112.947137 
L 535.554463 113.826385 
L 534.633375 114.413522 
L 534.700656 115.656914 
L 535.495152 117.508593 
L 537.876035 118.03136 
L 539.619666 119.291305 
L 543.18984 119.724262 
L 547.111592 119.059883 
L 547.352056 118.472747 
L 546.884462 116.696932 
L 547.249679 114.070527 
L 545.291485 113.220245 
L 545.9364 111.501289 
L 544.269552 111.35462 
L 544.824964 109.238262 
L 547.192819 109.854518 
L 549.398987 109.050979 
L 547.569531 107.543828 
L 546.849825 106.107635 
L 544.828489 106.748412 
L 544.572392 108.587983 
L 543.788471 106.961289 
L 543.647319 106.348712 
L 544.264494 105.302564 
L 543.786019 104.42776 
L 540.875779 103.57196 
L 539.742733 101.317057 
L 538.356196 100.681797 
L 538.272363 99.863699 
L 540.71501 100.102323 
L 540.81141 98.266277 
L 542.947231 97.858454 
L 545.140371 98.233633 
L 545.592333 95.783937 
L 545.144969 94.231114 
L 542.632436 94.352648 
L 540.497994 93.739918 
L 537.590359 94.843691 
L 535.248098 95.370137 
L 534.103558 96.859664 
L 531.668881 97.273464 
L 529.173513 99.865231 
L 531.455391 102.24826 
L 531.208337 103.939629 
L 533.950298 106.897074 
L 535.270627 108.219395 
" clip-path="url(#padc47c055c)" style="fill: none; stroke: #000000; stroke-width: 0.8"/>
    <path d="M 176.32244 17.226506 
L 175.178415 17.298457 
L 170.472686 17.138334 
L 169.803127 16.436465 
L 174.859596 16.473187 
L 176.62212 16.939413 
L 176.32244 17.226506 
" clip-path="url(#padc47c055c)" style="fill: none; stroke: #000000; stroke-width: 0.8"/>
    <path d="M 135.275286 16.782014 
L 130.594146 17.504645 
L 126.870113 16.693648 
L 128.90325 15.893032 
L 132.56967 15.637146 
L 136.110159 16.030447 
L 135.275286 16.782014 
" clip-path="url(#padc47c055c)" style="fill: none; stroke: #000000; stroke-width: 0.8"/>
    <path d="M 474.036953 16.388201 
L 468.427881 17.415 
L 463.997699 16.832171 
L 465.73054 16.184333 
L 464.213368 15.381843 
L 469.417064 14.878864 
L 470.414132 15.821494 
L 474.036953 16.388201 
" clip-path="url(#padc47c055c)" style="fill: none; stroke: #000000; stroke-width: 0.8"/>
    <path d="M 136.590529 14.509666 
L 133.531707 14.999443 
L 129.361496 14.996978 
L 129.402176 14.638776 
L 131.978162 13.886885 
L 133.324936 14.001268 
L 136.590529 14.509666 
" clip-path="url(#padc47c055c)" style="fill: none; stroke: #000000; stroke-width: 0.8"/>
    <path d="M 171.324817 15.878239 
L 167.609672 16.396369 
L 165.564597 15.813165 
L 164.488436 14.870916 
L 164.289775 13.831802 
L 167.540899 13.932106 
L 169.004392 14.098263 
L 172.005341 14.970831 
L 171.324817 15.878239 
" clip-path="url(#padc47c055c)" style="fill: none; stroke: #000000; stroke-width: 0.8"/>
    <path d="M 160.703546 15.205761 
L 161.680959 16.253374 
L 157.580494 15.973548 
L 153.447718 15.159372 
L 147.857418 15.066204 
L 150.282299 14.320217 
L 147.246121 13.715278 
L 147.063549 12.752916 
L 151.992659 13.095027 
L 158.782716 14.011259 
L 160.703546 15.205761 
" clip-path="url(#padc47c055c)" style="fill: none; stroke: #000000; stroke-width: 0.8"/>
    <path clip-path="url(#padc47c055c)" style="fill: none; stroke: #000000; stroke-width: 0.8"/>
    <path d="M 457.785033 11.748124 
L 466.051245 13.620427 
L 459.732414 14.60853 
L 458.337176 16.4564 
L 456.134251 16.930301 
L 454.938488 19.01079 
L 451.912607 19.108619 
L 446.512551 17.57716 
L 448.789953 16.685002 
L 445.026064 15.95862 
L 440.133908 13.838406 
L 438.180902 11.872067 
L 445.026491 10.972954 
L 446.401891 11.851979 
L 449.978309 11.817026 
L 450.931811 10.958842 
L 454.618712 10.871509 
L 457.785033 11.748124 
" clip-path="url(#padc47c055c)" style="fill: none; stroke: #000000; stroke-width: 0.8"/>
    <path d="M 475.853675 9.976387 
L 480.774934 10.857584 
L 477.051485 12.209938 
L 469.769121 12.505789 
L 462.363486 12.086926 
L 461.916724 11.395048 
L 458.313431 11.351059 
L 455.565774 10.19847 
L 463.319684 9.49725 
L 466.965537 10.101086 
L 469.504931 9.349129 
L 475.853675 9.976387 
" clip-path="url(#padc47c055c)" style="fill: none; stroke: #000000; stroke-width: 0.8"/>
    <path d="M 540.357652 9.624998 
L 536.986629 9.95608 
L 534.728554 10.146567 
L 534.378333 10.558618 
L 531.443432 10.973654 
L 528.723283 10.378382 
L 530.153623 9.594505 
L 524.565399 9.518206 
L 529.467325 9.060934 
L 533.282384 9.03057 
L 533.795453 9.707136 
L 535.237731 9.10596 
L 537.604544 8.691898 
L 541.328772 9.242208 
L 540.357652 9.624998 
" clip-path="url(#padc47c055c)" style="fill: none; stroke: #000000; stroke-width: 0.8"/>
    <path clip-path="url(#padc47c055c)" style="fill: none; stroke: #000000; stroke-width: 0.8"/>
    <path d="M 193.447467 11.852959 
L 196.474855 12.664263 
L 193.026724 13.411536 
L 188.386924 15.299984 
L 183.94494 15.480525 
L 178.741319 15.159117 
L 176.043325 14.135483 
L 176.082044 13.224643 
L 178.06699 12.555788 
L 173.474974 12.574921 
L 170.7075 11.739914 
L 169.116581 10.603058 
L 170.857407 9.486768 
L 172.597505 8.721014 
L 175.17133 8.545294 
L 174.074048 7.969798 
L 179.913579 7.841912 
L 183.120001 9.182636 
L 187.345738 9.720311 
L 191.463778 10.195699 
L 193.447467 11.852959 
" clip-path="url(#padc47c055c)" style="fill: none; stroke: #000000; stroke-width: 0.8"/>
    <path d="M 239.951187 3.199245 
L 246.662212 3.395886 
L 252.054208 3.717319 
L 256.649338 4.398804 
L 256.539155 5.069116 
L 250.412013 6.158638 
L 244.33685 6.667066 
L 242.066579 7.229178 
L 247.533629 7.216221 
L 241.608448 8.739319 
L 237.516271 9.450359 
L 233.221707 11.501419 
L 228.042017 11.917868 
L 226.442008 12.430081 
L 218.839377 12.69894 
L 222.300766 13.013894 
L 220.565112 13.462334 
L 222.641735 14.70091 
L 220.256059 15.561806 
L 216.376639 16.272545 
L 215.185973 17.255149 
L 211.678558 18.005712 
L 212.029746 18.574002 
L 216.320443 18.476864 
L 216.375132 19.089774 
L 209.665389 20.595959 
L 203.103794 19.903149 
L 195.727857 20.292405 
L 191.991087 19.988599 
L 187.24359 19.857047 
L 186.92866 18.65242 
L 191.570771 18.084432 
L 190.333827 16.272319 
L 191.865538 16.095991 
L 198.579098 17.179468 
L 195.154948 15.569239 
L 191.082306 15.087604 
L 193.116066 14.116198 
L 197.568822 13.518003 
L 198.281268 12.642844 
L 194.734757 11.66152 
L 193.668963 10.367828 
L 200.532405 10.476027 
L 202.515453 10.748119 
L 206.433782 9.83306 
L 200.779587 9.542839 
L 191.993724 9.702865 
L 187.55508 8.850581 
L 185.462487 7.835359 
L 182.529991 7.099385 
L 181.97968 6.242657 
L 185.713588 5.763784 
L 188.645758 5.682151 
L 193.572415 5.275118 
L 197.264187 4.33936 
L 200.377815 4.470619 
L 203.089707 5.173699 
L 204.998068 3.817759 
L 208.312588 3.415999 
L 212.815714 3.138383 
L 220.490937 3.034179 
L 221.824831 3.305414 
L 229.074716 2.880553 
L 234.512952 3.039899 
L 239.951187 3.199245 
" clip-path="url(#padc47c055c)" style="fill: none; stroke: #000000; stroke-width: 0.8"/>
    <path d="M 343.905432 2.161352 
L 359.611913 4.1525 
L 354.975527 5.119336 
L 331.853788 5.475019 
L 333.118176 5.923132 
L 342.006614 5.646319 
L 349.570198 6.512137 
L 354.444551 5.743269 
L 356.532523 6.643914 
L 353.775797 8.104764 
L 360.168753 7.170898 
L 372.360788 6.197057 
L 379.888766 6.683186 
L 381.299018 7.756162 
L 371.062224 9.542738 
L 369.644338 10.120369 
L 361.618579 10.554571 
L 367.433779 10.674998 
L 364.496788 12.505819 
L 362.475458 14.134755 
L 362.554454 16.928719 
L 365.569361 18.568252 
L 361.646727 18.671981 
L 357.517614 19.466436 
L 362.151338 20.79694 
L 362.741699 22.930537 
L 360.056888 23.162879 
L 363.309562 25.322942 
L 357.731601 25.503207 
L 360.643558 26.524405 
L 359.820452 27.410211 
L 356.280268 27.798939 
L 352.780637 27.806271 
L 355.926468 29.507097 
L 355.960543 30.624969 
L 350.991776 29.585942 
L 349.699565 30.258087 
L 353.089415 30.885937 
L 356.379202 32.42061 
L 357.331498 34.442693 
L 352.855716 34.926538 
L 347.815185 32.516128 
L 348.674098 34.220294 
L 345.757797 35.540578 
L 355.836298 35.784145 
L 349.106191 37.970372 
L 342.281041 39.949894 
L 334.933002 40.817268 
L 332.163519 40.82794 
L 329.566141 41.795454 
L 326.073566 44.446392 
L 320.672706 46.206201 
L 318.937756 46.309704 
L 311.986203 47.512975 
L 309.834854 49.066054 
L 309.800152 50.82614 
L 308.529862 52.474762 
L 304.435224 54.483888 
L 305.446454 56.445984 
L 303.031525 60.973844 
L 299.493275 61.126914 
L 295.786687 59.076633 
L 290.766445 59.063701 
L 288.330424 57.686719 
L 286.654808 55.234602 
L 282.303597 52.112048 
L 281.030796 50.476106 
L 280.68817 48.220525 
L 277.210259 45.903198 
L 278.114345 44.052767 
L 276.438252 43.167665 
L 278.920903 40.23331 
L 282.700059 39.299243 
L 283.691778 38.249068 
L 284.217054 36.287249 
L 279.98175 37.550131 
L 277.725943 37.908036 
L 274.644771 37.088433 
L 274.477412 35.382736 
L 275.45964 34.046897 
L 277.788656 34.010638 
L 282.914046 34.678501 
L 276.350091 32.224225 
L 273.849688 32.577404 
L 271.753806 31.95492 
L 274.557312 29.615145 
L 273.030248 28.680149 
L 268.015053 24.281756 
L 264.818148 23.306609 
L 264.847351 22.255354 
L 258.109208 20.786143 
L 252.778254 20.603292 
L 239.940189 20.889018 
L 237.026249 20.089666 
L 232.662834 18.510699 
L 239.256369 17.720864 
L 244.310359 17.588208 
L 233.56589 16.935348 
L 227.905921 15.910258 
L 228.251484 14.934684 
L 246.95512 12.519981 
L 247.926375 11.606529 
L 241.148985 10.704904 
L 243.337798 9.703995 
L 252.030981 7.950965 
L 255.684009 7.681937 
L 254.637625 6.553694 
L 260.585355 5.892774 
L 268.306806 5.498271 
L 276.023159 5.475973 
L 278.763011 6.257622 
L 285.423866 4.875317 
L 291.416995 5.814481 
L 294.942489 6.012511 
L 300.157434 6.829201 
L 294.18703 5.475546 
L 294.530811 4.400411 
L 302.961117 2.900842 
L 311.77199 3.013787 
L 314.974494 2.087554 
L 323.849046 1.846297 
L 343.905432 2.161352 
L 343.905432 2.161352 
" clip-path="url(#padc47c055c)" style="fill: none; stroke: #000000; stroke-width: 0.8"/>
   </g>
   <g id="line2d_16">
    <defs>
     <path id="m1318dbdea4" d="M 0 3 
C 0.795609 3 1.55874 2.683901 2.12132 2.12132 
C 2.683901 1.55874 3 0.795609 3 0 
C 3 -0.795609 2.683901 -1.55874 2.12132 -2.12132 
C 1.55874 -2.683901 0.795609 -3 0 -3 
C -0.795609 -3 -1.55874 -2.683901 -2.12132 -2.12132 
C -2.683901 -1.55874 -3 -0.795609 -3 0 
C -3 0.795609 -2.683901 1.55874 -2.12132 2.12132 
C -1.55874 2.683901 -0.795609 3 0 3 
z
" style="stroke: #2ca02c"/>
    </defs>
    <g clip-path="url(#padc47c055c)">
     <use xlink:href="#m1318dbdea4" x="417.859053" y="89.198036" style="fill: #2ca02c; stroke: #2ca02c"/>
     <use xlink:href="#m1318dbdea4" x="226.125622" y="109.649378" style="fill: #2ca02c; stroke: #2ca02c"/>
    </g>
   </g>
   <g id="patch_4">
    <path d="M 35.304688 262.099219 
L 35.304688 10.999219 
" style="fill: none; stroke: #000000; stroke-width: 0.8; stroke-linejoin: miter; stroke-linecap: square"/>
   </g>
   <g id="patch_5">
    <path d="M 537.504688 262.099219 
L 537.504688 10.999219 
" style="fill: none; stroke: #000000; stroke-width: 0.8; stroke-linejoin: miter; stroke-linecap: square"/>
   </g>
   <g id="patch_6">
    <path d="M 35.304688 262.099219 
L 537.504688 262.099219 
" style="fill: none; stroke: #000000; stroke-width: 0.8; stroke-linejoin: miter; stroke-linecap: square"/>
   </g>
   <g id="patch_7">
    <path d="M 35.304688 10.999219 
L 537.504688 10.999219 
" style="fill: none; stroke: #000000; stroke-width: 0.8; stroke-linejoin: miter; stroke-linecap: square"/>
   </g>
  </g>
 </g>
 <defs>
  <clipPath id="padc47c055c">
   <rect x="35.304688" y="10.999219" width="502.2" height="251.1"/>
  </clipPath>
 </defs>
</svg>
