<?xml version="1.0" encoding="utf-8" standalone="no"?>
<!DOCTYPE svg PUBLIC "-//W3C//DTD SVG 1.1//EN"
  "http://www.w3.org/Graphics/SVG/1.1/DTD/svg11.dtd">
<svg xmlns:xlink="http://www.w3.org/1999/xlink" width="280.512pt" height="280.512pt" viewBox="0 0 280.512 280.512" xmlns="http://www.w3.org/2000/svg" version="1.1">
 <metadata>
  <rdf:RDF xmlns:dc="http://purl.org/dc/elements/1.1/" xmlns:cc="http://creativecommons.org/ns#" xmlns:rdf="http://www.w3.org/1999/02/22-rdf-syntax-ns#">
   <cc:Work>
    <dc:type rdf:resource="http://purl.org/dc/dcmitype/StillImage"/>
    <dc:date>2025-02-25T03:33:44.261635</dc:date>
    <dc:format>image/svg+xml</dc:format>
    <dc:creator>
     <cc:Agent>
      <dc:title>Matplotlib v3.9.2, https://matplotlib.org/</dc:title>
     </cc:Agent>
    </dc:creator>
   </cc:Work>
  </rdf:RDF>
 </metadata>
 <defs>
  <style type="text/css">*{stroke-linejoin: round; stroke-linecap: butt}</style>
 </defs>
 <g id="figure_1">
  <g id="patch_1">
   <path d="M 0 280.512 
L 280.512 280.512 
L 280.512 0 
L 0 0 
z
" style="fill: #ffffff"/>
  </g>
  <g id="axes_1">
   <g id="patch_2">
    <path d="M 89.727077 201.146561 
L 89.923606 199.891136 
L 89.5355 199.700291 
L 88.437685 199.561914 
L 88.408409 200.25341 
L 87.821627 200.538291 
L 88.143301 200.807743 
L 89.727077 201.146561 
" clip-path="url(#p85bf9ca9dd)" style="fill: none; stroke: #000000; stroke-linejoin: miter"/>
   </g>
   <g id="patch_3">
    <path d="M 83.221766 183.659183 
L 82.974045 183.169256 
L 82.119164 182.645525 
L 80.715041 182.042946 
L 80.421908 182.205345 
L 80.374937 183.026724 
L 81.391883 183.389255 
L 82.693642 183.938738 
L 83.221766 183.659183 
" clip-path="url(#p85bf9ca9dd)" style="fill: none; stroke: #000000; stroke-linejoin: miter"/>
   </g>
   <g id="patch_4">
    <path d="M 64.612769 175.051338 
L 65.69098 175.667269 
L 65.553909 175.029223 
L 64.851819 174.112472 
L 63.880493 173.32553 
L 63.555888 173.051429 
L 62.900963 172.776789 
L 62.621078 173.066343 
L 63.310742 174.25309 
L 64.082586 175.063402 
L 64.612769 175.051338 
" clip-path="url(#p85bf9ca9dd)" style="fill: none; stroke: #000000; stroke-linejoin: miter"/>
   </g>
   <g id="patch_5">
    <path d="M 72.188141 175.281766 
L 71.240742 174.687492 
L 70.76569 174.995312 
L 71.697632 175.812806 
L 71.525485 176.4967 
L 72.079513 177.662352 
L 71.41239 177.7598 
L 70.24219 176.971389 
L 68.850224 175.922265 
L 68.577631 176.421825 
L 69.292549 177.448298 
L 70.1089 177.519683 
L 71.053316 178.172023 
L 71.838778 178.446671 
L 72.847976 179.30683 
L 72.821123 179.865048 
L 73.182248 180.363279 
L 74.095416 179.459241 
L 74.692934 179.467726 
L 74.851806 180.028472 
L 75.509304 180.224355 
L 75.876204 180.037477 
L 76.404934 180.382962 
L 77.186675 180.66521 
L 77.9064 181.426445 
L 78.67914 180.969677 
L 77.987827 179.92715 
L 77.258328 179.518775 
L 77.425649 179.000462 
L 76.510559 178.610954 
L 76.350871 177.821725 
L 75.907628 177.659683 
L 75.044382 176.718554 
L 73.7826 176.078245 
L 73.509796 176.285627 
L 72.188141 175.281766 
" clip-path="url(#p85bf9ca9dd)" style="fill: none; stroke: #000000; stroke-linejoin: miter"/>
   </g>
   <g id="patch_6">
    <path d="M 62.983161 163.695778 
L 61.872479 162.185532 
L 60.803842 161.402939 
L 59.681999 160.426061 
L 59.292513 160.381127 
L 58.232625 159.792431 
L 57.445729 159.619849 
L 56.723513 159.549769 
L 56.225925 159.96198 
L 55.362354 159.956291 
L 55.857017 160.567932 
L 56.564153 160.886932 
L 56.895322 160.604473 
L 57.446868 161.003174 
L 58.705372 160.809496 
L 59.991582 161.876282 
L 59.339287 161.949195 
L 59.698916 162.642264 
L 61.403053 164.195779 
L 61.705766 164.860747 
L 62.878136 166.234054 
L 63.707844 166.69907 
L 63.753368 167.943091 
L 64.109208 168.784357 
L 65.022009 169.503972 
L 65.498473 170.345765 
L 64.235559 170.722827 
L 66.419715 171.867604 
L 67.428351 172.630886 
L 68.482458 173.13997 
L 69.568077 173.493223 
L 69.85815 173.172584 
L 68.881221 171.773057 
L 67.77711 171.046641 
L 68.023154 170.602783 
L 67.224217 169.70139 
L 66.724937 169.429703 
L 66.029994 168.049994 
L 65.118443 166.154688 
L 64.73489 165.402747 
L 63.339609 164.730813 
L 62.983161 163.695778 
" clip-path="url(#p85bf9ca9dd)" style="fill: none; stroke: #000000; stroke-linejoin: miter"/>
   </g>
   <g id="patch_7">
    <path d="M 66.599118 163.88842 
L 66.923681 162.82704 
L 66.914054 160.997284 
L 66.512634 160.651672 
L 65.824434 161.609196 
L 66.185476 162.477448 
L 66.217715 163.756038 
L 66.599118 163.88842 
" clip-path="url(#p85bf9ca9dd)" style="fill: none; stroke: #000000; stroke-linejoin: miter"/>
   </g>
   <g id="patch_8">
    <path d="M 67.882507 158.479344 
L 68.005578 157.975518 
L 67.1062 157.330574 
L 66.405869 157.052136 
L 66.26322 157.791339 
L 67.882507 158.479344 
" clip-path="url(#p85bf9ca9dd)" style="fill: none; stroke: #000000; stroke-linejoin: miter"/>
   </g>
   <g id="patch_9">
    <path d="M 69.046753 159.18477 
L 68.217489 157.661425 
L 68.146761 157.87409 
L 68.527315 158.996379 
L 68.180323 159.941797 
L 68.363608 160.339551 
L 69.046753 159.18477 
" clip-path="url(#p85bf9ca9dd)" style="fill: none; stroke: #000000; stroke-linejoin: miter"/>
   </g>
   <g id="patch_10">
    <path d="M 232.829083 113.409001 
L 232.637245 114.895213 
L 232.180287 115.690589 
L 232.363743 116.22438 
L 232.325421 116.312886 
L 232.063906 116.906667 
L 232.664414 117.26239 
L 233.120146 116.904988 
L 233.290335 115.111838 
L 233.180243 115.025283 
L 232.923168 114.823405 
L 232.829083 113.409001 
" clip-path="url(#p85bf9ca9dd)" style="fill: none; stroke: #000000; stroke-linejoin: miter"/>
   </g>
   <g id="patch_11">
    <path d="M 224.911944 125.241842 
L 225.198789 126.139827 
L 226.458142 125.178686 
L 226.623648 125.461001 
L 227.730939 123.782801 
L 227.51529 123.168744 
L 227.20075 123.947845 
L 227.034056 123.638029 
L 226.341409 124.312717 
L 225.741754 125.227456 
L 224.911944 125.241842 
" clip-path="url(#p85bf9ca9dd)" style="fill: none; stroke: #000000; stroke-linejoin: miter"/>
   </g>
   <g id="patch_12">
    <path d="M 214.459201 128.934557 
L 213.754368 129.777281 
L 212.775526 130.885446 
L 211.409441 131.756298 
L 211.751517 132.798056 
L 213.780512 132.460505 
L 214.437285 132.190077 
L 215.626561 132.151981 
L 215.342986 131.052917 
L 214.876759 130.64595 
L 214.459201 128.934557 
" clip-path="url(#p85bf9ca9dd)" style="fill: none; stroke: #000000; stroke-linejoin: miter"/>
   </g>
   <g id="patch_13">
    <path d="M 204.64332 128.993722 
L 204.381197 129.953917 
L 203.704648 130.29377 
L 204.514512 131.16218 
L 205.697797 133.342147 
L 206.387934 133.521914 
L 206.548699 132.579487 
L 207.131993 132.322255 
L 206.014153 129.803876 
L 204.64332 128.993722 
" clip-path="url(#p85bf9ca9dd)" style="fill: none; stroke: #000000; stroke-linejoin: miter"/>
   </g>
   <g id="patch_14">
    <path d="M 204.093015 127.00646 
L 203.03645 125.58579 
L 202.716778 126.774831 
L 202.863325 127.607016 
L 203.787822 128.6547 
L 204.497894 128.668801 
L 204.093015 127.00646 
" clip-path="url(#p85bf9ca9dd)" style="fill: none; stroke: #000000; stroke-linejoin: miter"/>
   </g>
   <g id="patch_15">
    <path d="M 142.93817 19.325741 
L 143.226683 19.333076 
L 143.515151 19.342274 
L 143.627842 19.343597 
L 143.740498 19.346199 
L 143.539929 19.340586 
L 143.339351 19.335305 
L 143.138764 19.330356 
L 142.93817 19.325741 
" clip-path="url(#p85bf9ca9dd)" style="fill: none; stroke: #000000; stroke-linejoin: miter"/>
   </g>
   <g id="patch_16">
    <path d="M 101.411034 129.749306 
L 101.315149 128.61808 
L 100.609683 129.046222 
L 100.684044 129.830912 
L 102.025695 131.281253 
L 102.555017 131.324061 
L 103.476124 130.730578 
L 102.251621 130.35859 
L 101.411034 129.749306 
" clip-path="url(#p85bf9ca9dd)" style="fill: none; stroke: #000000; stroke-linejoin: miter"/>
   </g>
   <g id="patch_17">
    <path d="M 105.56778 125.507767 
L 105.659898 125.130135 
L 104.704712 123.859546 
L 103.307204 122.778676 
L 102.829106 122.785944 
L 103.589853 124.139356 
L 104.951359 125.333875 
L 105.56778 125.507767 
" clip-path="url(#p85bf9ca9dd)" style="fill: none; stroke: #000000; stroke-linejoin: miter"/>
   </g>
   <g id="patch_18">
    <path d="M 60.186823 78.22941 
L 61.042523 77.257271 
L 61.668957 75.873806 
L 62.425594 74.932462 
L 62.982585 74.275167 
L 63.1635 73.282706 
L 63.427381 72.561006 
L 63.832278 71.37366 
L 63.459886 71.500426 
L 62.55532 72.361178 
L 62.222823 73.514199 
L 61.759441 73.957495 
L 61.186482 75.16208 
L 60.621002 75.803886 
L 59.941684 77.877523 
L 60.186823 78.22941 
" clip-path="url(#p85bf9ca9dd)" style="fill: none; stroke: #000000; stroke-linejoin: miter"/>
   </g>
   <g id="patch_19">
    <path d="M 113.660186 124.46304 
L 114.680662 123.355922 
L 115.070763 122.865957 
L 114.523011 122.631924 
L 113.25467 123.048078 
L 112.148879 123.987821 
L 109.881777 126.832744 
L 108.433443 127.726712 
L 108.825196 128.443928 
L 107.799577 128.909475 
L 107.814675 129.56812 
L 110.350079 130.373834 
L 111.811535 130.637695 
L 112.968839 131.462721 
L 111.768339 132.18139 
L 112.559601 132.458451 
L 114.567782 131.061637 
L 114.881524 131.410025 
L 114.189191 133.022085 
L 115.004328 133.617817 
L 115.646865 133.679817 
L 116.624093 131.99045 
L 116.487433 130.619214 
L 116.564509 129.490482 
L 115.551271 129.633519 
L 116.316478 128.223331 
L 115.168136 127.292727 
L 114.44243 127.646365 
L 113.441999 126.800395 
L 114.082722 126.204763 
L 113.345466 125.54978 
L 112.323627 126.015209 
L 113.660186 124.46304 
" clip-path="url(#p85bf9ca9dd)" style="fill: none; stroke: #000000; stroke-linejoin: miter"/>
   </g>
   <g id="patch_20">
    <path d="M 69.737705 64.768937 
L 70.030403 64.267481 
L 69.499696 64.447226 
L 68.728974 64.93265 
L 68.128526 65.612423 
L 67.30519 66.296244 
L 66.46264 67.201018 
L 66.409383 67.564587 
L 67.863481 66.145589 
L 69.741034 65.541698 
L 69.737705 64.768937 
" clip-path="url(#p85bf9ca9dd)" style="fill: none; stroke: #000000; stroke-linejoin: miter"/>
   </g>
   <g id="patch_21">
    <path d="M 140.956887 19.861783 
L 141.480946 20.090641 
L 141.421483 20.344526 
L 141.828111 20.633604 
L 142.122754 20.852939 
L 142.678204 20.81797 
L 142.20985 20.658235 
L 143.396691 20.547006 
L 143.611247 20.180344 
L 142.905668 19.934418 
L 143.041591 19.68744 
L 143.405733 19.584529 
L 143.311469 19.457684 
L 143.529281 19.388234 
L 143.308565 19.345467 
L 142.813079 19.34751 
L 142.317436 19.356956 
L 141.232297 19.315702 
L 141.179111 19.348085 
L 141.860547 19.39106 
L 142.541801 19.447719 
L 142.086443 19.519879 
L 141.630772 19.61276 
L 139.588934 19.558556 
L 140.272913 19.693838 
L 140.956887 19.861783 
" clip-path="url(#p85bf9ca9dd)" style="fill: none; stroke: #000000; stroke-linejoin: miter"/>
   </g>
   <g id="patch_22">
    <path d="M 176.193212 117.963776 
L 176.29873 115.89804 
L 175.517948 114.591879 
L 175.505203 113.039057 
L 173.845436 112.305807 
L 172.992443 112.727247 
L 172.558626 113.934292 
L 171.667419 115.996177 
L 173.022492 117.786124 
L 172.856614 120.17022 
L 174.623665 119.885682 
L 176.193212 117.963776 
" clip-path="url(#p85bf9ca9dd)" style="fill: none; stroke: #000000; stroke-linejoin: miter"/>
   </g>
   <g id="patch_23">
    <path d="M 191.439062 101.290268 
L 190.53312 100.657564 
L 189.787792 102.11187 
L 190.428785 102.726519 
L 192.004565 103.021661 
L 191.439062 101.290268 
" clip-path="url(#p85bf9ca9dd)" style="fill: none; stroke: #000000; stroke-linejoin: miter"/>
   </g>
   <g id="patch_24">
    <path d="M 81.833139 47.02805 
L 82.144178 47.531564 
L 82.85305 47.156846 
L 83.299346 46.675101 
L 83.336272 46.333422 
L 83.266682 45.770192 
L 82.452661 45.97736 
L 81.770642 46.401219 
L 81.833139 47.02805 
" clip-path="url(#p85bf9ca9dd)" style="fill: none; stroke: #000000; stroke-linejoin: miter"/>
   </g>
   <g id="patch_25">
    <path d="M 174.381592 104.220424 
L 173.339551 104.875099 
L 172.514264 105.048032 
L 172.506992 106.880502 
L 173.062159 108.984624 
L 174.019823 109.747726 
L 174.92675 111.559521 
L 175.062786 110.429055 
L 175.645743 110.810185 
L 175.669524 111.818363 
L 176.157522 112.229601 
L 177.578012 112.017383 
L 178.870355 112.889898 
L 179.251031 114.060021 
L 177.583116 114.585511 
L 177.949886 115.92873 
L 179.019673 116.705128 
L 178.127038 117.794263 
L 178.781671 118.429978 
L 180.682679 117.990401 
L 179.869164 118.84587 
L 179.061878 121.588309 
L 179.847006 121.720779 
L 180.344044 120.636166 
L 181.50213 120.392501 
L 181.840817 119.155993 
L 182.539683 119.292396 
L 184.17304 117.867218 
L 185.632245 117.15034 
L 186.073143 115.667772 
L 185.139195 114.92754 
L 185.373332 114.101171 
L 184.84696 112.851397 
L 183.418992 113.151996 
L 182.733923 112.567459 
L 180.978005 110.764518 
L 180.133195 110.804824 
L 177.914647 108.871635 
L 176.830861 109.224215 
L 176.847476 107.147523 
L 176.291146 105.523386 
L 175.25284 105.992231 
L 174.409268 106.680773 
L 174.381592 104.220424 
" clip-path="url(#p85bf9ca9dd)" style="fill: none; stroke: #000000; stroke-linejoin: miter"/>
   </g>
   <g id="patch_26">
    <path d="M 93.631278 38.655138 
L 94.234786 38.630983 
L 94.897148 38.19374 
L 95.340337 37.627326 
L 94.544901 37.937333 
L 93.832862 38.292556 
L 93.631278 38.655138 
" clip-path="url(#p85bf9ca9dd)" style="fill: none; stroke: #000000; stroke-linejoin: miter"/>
   </g>
   <g id="patch_27">
    <path d="M 101.414003 93.2379 
L 101.497006 92.778141 
L 101.236623 92.546379 
L 100.573541 92.851603 
L 100.450248 92.942046 
L 100.248215 93.56126 
L 100.456656 93.918568 
L 101.414003 93.2379 
" clip-path="url(#p85bf9ca9dd)" style="fill: none; stroke: #000000; stroke-linejoin: miter"/>
   </g>
   <g id="patch_28">
    <path d="M 100.315221 91.062919 
L 100.591462 90.762701 
L 99.69947 90.070212 
L 98.574842 90.421167 
L 98.342329 90.960169 
L 98.779719 91.358744 
L 100.315221 91.062919 
" clip-path="url(#p85bf9ca9dd)" style="fill: none; stroke: #000000; stroke-linejoin: miter"/>
   </g>
   <g id="patch_29">
    <path d="M 103.070971 36.201066 
L 102.615653 36.064219 
L 102.338348 36.149958 
L 101.821981 36.57961 
L 101.324633 36.713545 
L 100.524463 37.028509 
L 100.317654 37.448531 
L 100.414647 37.513978 
L 101.243261 37.064751 
L 102.13095 36.750526 
L 102.40629 36.430965 
L 103.070971 36.201066 
" clip-path="url(#p85bf9ca9dd)" style="fill: none; stroke: #000000; stroke-linejoin: miter"/>
   </g>
   <g id="patch_30">
    <path d="M 102.436952 84.924705 
L 102.150489 84.465762 
L 100.607907 85.668165 
L 99.377755 86.786088 
L 98.139664 87.085618 
L 99.086025 87.634414 
L 98.451909 88.703837 
L 100.073551 88.621817 
L 101.44061 88.274353 
L 101.172526 89.250291 
L 101.864162 90.374808 
L 102.8755 90.280363 
L 102.845033 89.418491 
L 102.261546 89.201626 
L 102.852497 88.406492 
L 102.56749 87.388653 
L 102.389555 86.35034 
L 102.42347 85.67989 
L 101.903584 85.673886 
L 102.436952 84.924705 
" clip-path="url(#p85bf9ca9dd)" style="fill: none; stroke: #000000; stroke-linejoin: miter"/>
   </g>
   <g id="patch_31">
    <path d="M 157.822205 93.259726 
L 156.46545 93.471279 
L 155.486362 94.794604 
L 154.297696 94.482733 
L 153.333435 95.779019 
L 151.714127 94.708808 
L 150.526573 95.196777 
L 150.214885 96.544359 
L 152.10576 96.714799 
L 152.275268 97.27812 
L 150.815802 97.901652 
L 152.942288 98.544898 
L 152.259157 99.557834 
L 154.926759 99.718863 
L 156.191981 99.757264 
L 156.859167 99.231909 
L 158.940256 97.291989 
L 159.49401 95.547403 
L 158.090227 94.522979 
L 157.822205 93.259726 
" clip-path="url(#p85bf9ca9dd)" style="fill: none; stroke: #000000; stroke-linejoin: miter"/>
   </g>
   <g id="patch_32">
    <path d="M 110.037899 86.476481 
L 110.812718 86.232409 
L 111.053473 86.047605 
L 111.576709 85.344455 
L 111.450859 84.620117 
L 110.728564 84.514015 
L 109.752457 85.254698 
L 109.275835 86.136201 
L 110.037899 86.476481 
" clip-path="url(#p85bf9ca9dd)" style="fill: none; stroke: #000000; stroke-linejoin: miter"/>
   </g>
   <g id="patch_33">
    <path d="M 108.838318 35.845796 
L 109.573891 36.156209 
L 112.42909 35.702334 
L 114.840408 35.326413 
L 110.310534 33.241026 
L 110.383876 33.645677 
L 111.235003 33.706149 
L 110.681237 34.252055 
L 110.399052 33.996981 
L 109.61448 34.038561 
L 108.982459 34.528892 
L 108.092981 34.855153 
L 107.409153 34.767648 
L 106.13799 35.202913 
L 105.178271 35.402243 
L 104.506089 35.799887 
L 104.509402 36.044697 
L 105.774583 36.393756 
L 104.882311 37.133952 
L 104.876863 37.711851 
L 107.325071 37.232376 
L 109.16976 36.226807 
L 108.093217 36.002892 
L 108.838318 35.845796 
" clip-path="url(#p85bf9ca9dd)" style="fill: none; stroke: #000000; stroke-linejoin: miter"/>
   </g>
   <g id="patch_34">
    <path d="M 102.967056 75.324726 
L 103.395066 74.579387 
L 103.613993 74.21444 
L 103.713791 73.729573 
L 103.848477 72.921652 
L 102.852355 73.104723 
L 102.014176 73.050299 
L 101.68299 74.215293 
L 102.160863 74.469676 
L 102.132945 75.467743 
L 102.967056 75.324726 
" clip-path="url(#p85bf9ca9dd)" style="fill: none; stroke: #000000; stroke-linejoin: miter"/>
   </g>
   <g id="patch_35">
    <path d="M 117.008765 36.47995 
L 117.808209 36.929531 
L 118.032615 36.299665 
L 117.571239 36.136877 
L 117.008765 36.47995 
" clip-path="url(#p85bf9ca9dd)" style="fill: none; stroke: #000000; stroke-linejoin: miter"/>
   </g>
   <g id="patch_36">
    <path d="M 116.353977 36.897393 
L 116.086106 37.35196 
L 116.209266 37.462585 
L 117.329739 37.228049 
L 117.788012 36.992902 
L 117.808209 36.929531 
L 117.008765 36.47995 
L 116.353977 36.897393 
" clip-path="url(#p85bf9ca9dd)" style="fill: none; stroke: #000000; stroke-linejoin: miter"/>
   </g>
   <g id="patch_37">
    <path d="M 95.855662 252.772361 
L 95.636959 252.684792 
L 98.945101 253.928538 
L 99.583705 254.138076 
L 98.858706 253.786024 
L 98.197201 253.486295 
L 101.320064 254.533698 
L 104.759406 255.463515 
L 105.653434 255.435785 
L 105.513672 255.275342 
L 104.324764 254.833737 
L 104.232429 254.61041 
L 101.806121 253.650983 
L 101.678193 253.438679 
L 102.911396 253.980894 
L 103.994549 254.273212 
L 106.51495 255.046731 
L 107.801067 255.432766 
L 109.447782 255.632982 
L 109.941616 255.514459 
L 110.857125 255.490862 
L 111.321861 255.187832 
L 112.34627 255.185514 
L 113.644526 255.058004 
L 115.147171 254.401619 
L 116.272621 254.276293 
L 116.573259 254.036488 
L 116.695379 253.431053 
L 116.273755 253.00698 
L 116.388691 252.525389 
L 117.776134 252.041797 
L 119.858143 251.747738 
L 121.941904 251.787769 
L 123.227382 251.591116 
L 126.206122 251.584853 
L 128.303595 251.760445 
L 128.705921 251.30713 
L 130.247972 251.054959 
L 130.510923 250.193775 
L 132.439058 249.138194 
L 132.7309 247.903669 
L 133.348076 247.551322 
L 134.048996 245.367846 
L 133.850245 243.354777 
L 134.404198 242.557278 
L 134.917335 242.552439 
L 136.425832 241.607661 
L 137.729916 240.311397 
L 140.652275 238.650524 
L 141.713713 237.836645 
L 142.553425 235.724867 
L 141.499888 233.250649 
L 140.738552 232.827313 
L 138.940539 232.768422 
L 137.319761 232.354753 
L 134.626704 230.737228 
L 131.510654 229.439012 
L 128.372562 229.304986 
L 124.290084 228.216219 
L 121.866489 228.411873 
L 122.201027 227.654132 
L 121.177227 226.692828 
L 115.113253 224.472156 
L 113.552052 225.198064 
L 113.471719 223.703035 
L 109.845606 222.84683 
L 109.210581 222.276983 
L 110.752709 221.31045 
L 110.706294 220.242632 
L 109.6161 219.790092 
L 108.038496 215.857549 
L 107.345809 215.796605 
L 107.028807 215.072805 
L 104.93812 213.26216 
L 100.68435 211.267527 
L 99.079742 210.984282 
L 98.854353 211.224021 
L 96.516363 210.270006 
L 94.776162 208.38615 
L 94.048394 208.134472 
L 94.045898 207.265872 
L 92.92552 205.823286 
L 90.995899 204.187202 
L 90.003761 203.906466 
L 89.813762 202.453726 
L 88.462423 201.140152 
L 86.981576 200.495274 
L 86.426892 199.463409 
L 88.05538 199.509701 
L 83.548462 198.005223 
L 83.481379 198.428293 
L 82.403453 198.565966 
L 81.041964 197.805069 
L 80.099378 196.62073 
L 78.177179 195.993393 
L 76.597195 195.284331 
L 76.598153 194.689014 
L 75.589464 193.221369 
L 74.381871 192.630787 
L 73.936061 191.131201 
L 73.259896 191.386725 
L 73.383238 192.309104 
L 71.173869 191.96158 
L 71.088324 193.288142 
L 71.539088 194.144416 
L 71.011932 195.166846 
L 70.269236 194.906541 
L 69.794256 193.250192 
L 70.662736 192.650167 
L 70.803265 191.773368 
L 70.365666 190.720836 
L 71.379059 191.022047 
L 71.485393 190.641684 
L 71.89758 190.227168 
L 71.52481 189.553331 
L 70.948161 189.147243 
L 70.014979 189.559436 
L 67.885873 189.771312 
L 66.630006 188.927337 
L 66.447877 189.208792 
L 65.425047 188.665114 
L 64.388795 188.917067 
L 63.892449 190.16178 
L 63.801943 190.704245 
L 63.121979 190.492579 
L 61.784743 190.93128 
L 60.980836 190.377754 
L 59.372509 188.007886 
L 58.530794 187.39393 
L 58.610684 187.268593 
L 57.790813 186.614152 
L 57.206862 186.761463 
L 56.254853 186.470276 
L 55.567799 186.44453 
L 54.83019 186.048585 
L 54.487671 185.35591 
L 54.331326 185.389796 
L 53.765927 184.893057 
L 53.846609 184.567102 
L 52.433644 181.306129 
L 52.091467 179.192729 
L 52.454881 178.987526 
L 52.443845 178.47239 
L 52.713801 177.856872 
L 52.958633 177.856332 
L 53.297268 175.870924 
L 53.594917 175.303849 
L 54.043204 174.970165 
L 54.044325 174.238784 
L 54.360602 173.839096 
L 54.109552 173.09076 
L 53.675362 172.442772 
L 53.045234 171.105196 
L 52.841642 170.896763 
L 52.29303 170.167511 
L 51.991713 170.100115 
L 51.636282 169.855908 
L 50.959899 169.041576 
L 50.757649 169.103286 
L 50.292499 168.936387 
L 49.68778 168.467783 
L 49.138399 167.796091 
L 48.920288 167.706006 
L 48.840626 167.463726 
L 48.475725 167.165774 
L 48.122841 167.214911 
L 47.707429 166.48238 
L 47.533184 166.635425 
L 47.217007 165.958351 
L 47.620556 165.600034 
L 47.856756 165.751723 
L 48.223906 165.525263 
L 48.610843 164.799229 
L 48.58023 164.565732 
L 48.887049 164.07515 
L 48.857917 163.713435 
L 49.278265 163.157869 
L 49.440609 162.711938 
L 49.211212 162.492223 
L 49.284386 162.237359 
L 49.54916 162.442859 
L 49.725728 163.164273 
L 50.870974 161.527392 
L 50.740264 161.025333 
L 51.376933 160.236617 
L 52.385061 159.792497 
L 52.711418 158.993577 
L 52.542722 158.367072 
L 51.750322 157.856674 
L 50.707149 156.827279 
L 49.320234 156.053004 
L 48.376992 155.739992 
L 48.00011 156.043515 
L 47.404595 157.381278 
L 46.794225 158.099437 
L 45.839684 158.055531 
L 44.111686 157.032384 
L 43.230872 156.296123 
L 42.146026 155.710564 
L 41.955003 154.515009 
L 41.033411 152.78471 
L 40.941318 151.491267 
L 41.065285 150.261503 
L 40.90484 148.218896 
L 41.232877 146.692881 
L 41.279175 145.509701 
L 41.503458 144.397899 
L 41.942764 143.707957 
L 43.008298 141.580988 
L 43.724987 140.597908 
L 44.776857 139.601175 
L 44.881728 138.813522 
L 45.233444 137.959474 
L 45.824545 136.82799 
L 46.416937 136.348356 
L 47.324346 136.182305 
L 48.615871 136.590288 
L 50.12744 136.363194 
L 51.143528 136.896397 
L 51.814722 137.456324 
L 52.337608 138.639153 
L 53.335733 139.363295 
L 53.663684 141.068272 
L 54.410907 141.891352 
L 54.974343 141.957588 
L 55.25586 142.602072 
L 55.573667 142.572292 
L 55.505812 142.007291 
L 55.864918 141.318957 
L 55.898055 140.630475 
L 56.477344 140.825986 
L 57.372695 141.487327 
L 58.272142 142.580504 
L 59.668618 143.488539 
L 60.196961 144.546489 
L 60.396413 145.853316 
L 60.570753 146.117588 
L 62.14663 146.285047 
L 62.502925 146.934391 
L 62.829136 149.183162 
L 62.773392 150.440957 
L 62.028557 151.439647 
L 61.939747 152.287774 
L 62.119395 156.16906 
L 62.47311 156.947512 
L 62.401164 157.889035 
L 62.988036 158.576769 
L 63.473809 158.632069 
L 64.201925 157.761484 
L 64.998869 155.901142 
L 65.156901 153.353464 
L 65.453227 152.56196 
L 65.380301 150.864223 
L 65.58402 149.001136 
L 65.888435 147.575679 
L 66.636528 146.422523 
L 67.699719 145.764263 
L 68.792017 145.39188 
L 70.710054 145.149132 
L 71.160473 144.651209 
L 72.104266 144.398978 
L 72.800771 144.69618 
L 74.119902 144.144025 
L 75.708265 144.420779 
L 77.128613 143.525071 
L 77.89036 140.802633 
L 77.577804 140.452037 
L 78.315536 138.632384 
L 77.75511 137.538832 
L 78.419907 138.301208 
L 78.693358 136.949459 
L 79.307029 136.283855 
L 78.741647 137.931329 
L 79.06881 139.035376 
L 78.109014 140.081297 
L 78.193119 140.225635 
L 80.308141 138.649786 
L 80.588129 137.917319 
L 80.437916 137.406014 
L 80.633863 136.238105 
L 80.833678 136.949692 
L 81.067821 137.208038 
L 80.946706 137.748113 
L 82.517958 136.81329 
L 83.396339 135.601548 
L 83.064074 135.308293 
L 83.683017 134.99521 
L 83.54141 135.207314 
L 84.349276 135.644603 
L 86.388648 136.015659 
L 86.163529 135.455901 
L 84.141302 134.820314 
L 85.438625 134.837064 
L 86.816772 135.323213 
L 87.910338 135.468879 
L 88.516587 135.813628 
L 89.524072 135.925447 
L 89.853861 135.421396 
L 89.641278 134.804753 
L 89.487047 135.576691 
L 88.968368 135.267964 
L 88.972093 134.036857 
L 89.419441 133.021168 
L 90.976647 131.871201 
L 92.554252 131.927442 
L 94.138035 131.84808 
L 95.881738 131.494807 
L 95.914594 130.758445 
L 97.428702 131.114966 
L 99.524314 131.872378 
L 96.657204 132.60596 
L 96.08037 134.293682 
L 97.033552 134.846542 
L 99.031269 133.999394 
L 100.631994 133.686903 
L 103.990612 133.52895 
L 106.063398 132.744797 
L 105.428529 131.740704 
L 105.801386 130.252411 
L 103.74977 132.07175 
L 101.476031 131.596251 
L 100.149802 129.97477 
L 100.292975 128.322794 
L 100.715328 126.044654 
L 102.386147 125.171598 
L 101.687552 123.791103 
L 99.819468 123.259438 
L 96.640056 123.790515 
L 93.604045 125.428736 
L 92.453946 125.250392 
L 94.624138 124.143719 
L 97.462053 122.382321 
L 99.326013 122.182203 
L 100.898879 121.203329 
L 102.165112 121.561274 
L 103.933413 122.261976 
L 106.355376 123.601954 
L 108.538005 123.960018 
L 110.617901 122.788458 
L 112.855735 122.651086 
L 115.044553 121.648788 
L 115.598974 119.355921 
L 115.344843 118.474198 
L 114.514697 117.965018 
L 114.585321 116.147177 
L 114.064494 115.30708 
L 112.464335 114.265652 
L 111.890955 112.831487 
L 110.895775 111.258479 
L 111.797501 110.181538 
L 111.406778 104.585336 
L 111.455831 102.62714 
L 110.433643 103.259879 
L 108.541851 104.965105 
L 106.657713 105.421306 
L 106.546057 104.028229 
L 105.864012 103.358072 
L 106.842671 100.910931 
L 107.727915 99.400606 
L 106.310702 98.536087 
L 106.480826 97.719388 
L 106.134503 96.183748 
L 105.795033 95.201237 
L 104.853183 95.299585 
L 104.186683 94.680789 
L 103.248609 93.450086 
L 102.453985 93.516315 
L 100.759556 96.30506 
L 99.994958 98.063497 
L 97.776258 99.258901 
L 97.865524 101.190877 
L 97.447365 103.031566 
L 96.747353 104.252883 
L 95.454212 105.18293 
L 93.63109 105.781261 
L 91.660335 105.663826 
L 91.664025 107.004652 
L 90.319429 110.11101 
L 88.637728 111.601876 
L 87.533399 111.685732 
L 87.260917 109.051036 
L 87.967604 106.645372 
L 88.94104 104.726298 
L 90.161149 103.355311 
L 89.389573 102.517114 
L 88.145003 101.375397 
L 87.885269 100.003706 
L 87.32145 98.747323 
L 87.455143 97.527697 
L 87.285678 96.278684 
L 86.65819 94.391854 
L 85.467841 93.758844 
L 86.304938 92.312812 
L 87.447496 90.637631 
L 86.856342 89.436752 
L 88.69507 87.819412 
L 90.14167 86.948585 
L 92.491757 86.012734 
L 94.415585 85.56854 
L 95.242923 86.039049 
L 96.281907 85.140925 
L 97.360501 84.95585 
L 98.250191 85.606531 
L 99.915881 85.198218 
L 100.732082 84.696244 
L 102.51867 83.909591 
L 103.425378 83.305427 
L 103.55133 84.220217 
L 104.55932 84.606298 
L 106.665485 84.369658 
L 107.413852 83.673021 
L 107.772891 82.573574 
L 108.926178 82.057017 
L 109.590581 81.283022 
L 109.606817 80.036818 
L 108.528054 78.600768 
L 106.847665 80.146687 
L 105.183998 81.081578 
L 103.558526 81.659634 
L 104.115632 80.269198 
L 105.409203 79.3615 
L 105.87045 77.965899 
L 104.024255 78.447131 
L 105.671356 77.07969 
L 105.229721 76.018821 
L 106.396493 75.759803 
L 107.743892 73.771982 
L 108.126961 72.826418 
L 107.951395 72.111375 
L 106.29821 72.485988 
L 104.353129 73.761369 
L 104.08168 74.768559 
L 103.449033 76.017425 
L 101.58084 77.082328 
L 101.30187 76.664549 
L 99.69859 77.355656 
L 101.306639 76.176885 
L 101.306975 75.020798 
L 100.682998 74.800119 
L 99.642027 75.598958 
L 99.161791 74.837746 
L 98.353128 74.228751 
L 98.601971 72.818912 
L 98.126431 72.329681 
L 98.840079 71.243654 
L 99.06844 70.590062 
L 98.68063 70.283097 
L 98.30145 69.703279 
L 97.510894 69.696169 
L 96.960563 70.649357 
L 95.755765 70.559899 
L 96.637528 69.408173 
L 96.127283 69.111622 
L 95.393386 67.739835 
L 95.518403 66.564199 
L 96.687218 66.917933 
L 97.462556 65.788081 
L 97.20712 65.321605 
L 97.375707 64.466601 
L 97.878054 62.982156 
L 98.605176 61.920288 
L 98.661408 61.265461 
L 98.070118 61.243536 
L 97.711968 60.698326 
L 99.212138 60.208701 
L 97.856785 59.888185 
L 99.650867 58.581239 
L 99.879547 58.188804 
L 98.951271 58.287312 
L 98.516225 58.010125 
L 99.367968 57.485249 
L 98.973414 56.756693 
L 98.230317 56.149764 
L 98.619207 55.345079 
L 98.152771 54.81623 
L 97.460898 54.477894 
L 97.792294 53.906588 
L 98.974319 52.985428 
L 100.2551 51.447134 
L 101.145582 50.678193 
L 101.142465 50.049468 
L 101.570579 49.67535 
L 102.234755 48.767297 
L 103.393603 47.810167 
L 103.509667 47.340748 
L 104.281406 46.675039 
L 104.673273 46.731233 
L 105.31487 46.007586 
L 105.121253 45.782779 
L 106.151009 45.560117 
L 107.027791 44.980545 
L 106.670542 44.215072 
L 107.127286 43.855963 
L 107.13925 42.954226 
L 107.355961 42.523133 
L 107.03633 41.954149 
L 106.374828 41.699441 
L 106.250042 41.02611 
L 107.058166 40.282077 
L 106.557045 39.865245 
L 105.388237 40.338394 
L 100.559537 41.550017 
L 101.583839 40.524902 
L 102.275034 40.706314 
L 102.702083 40.324519 
L 103.387169 38.409849 
L 101.814066 38.836325 
L 100.986383 38.938631 
L 99.784714 39.604471 
L 99.153054 40.335003 
L 98.383849 40.700395 
L 98.554527 40.89167 
L 98.325685 41.470078 
L 98.024567 41.789434 
L 97.811914 41.352419 
L 97.236041 41.623604 
L 96.427649 41.672371 
L 96.362416 41.22912 
L 96.89647 40.849536 
L 96.627063 40.35864 
L 97.265011 40.014443 
L 97.635107 39.577811 
L 97.099978 39.313363 
L 96.802713 38.79968 
L 96.233275 38.513482 
L 95.126545 38.885972 
L 94.318561 38.834717 
L 92.300639 39.672939 
L 91.743643 40.449618 
L 90.815224 40.834213 
L 90.391125 40.726095 
L 89.466694 40.791364 
L 89.071075 41.176178 
L 89.037047 41.787966 
L 88.063098 42.054667 
L 88.434672 42.203398 
L 87.276281 42.662982 
L 87.502119 42.982221 
L 87.050332 43.208646 
L 86.85031 43.931928 
L 86.234208 43.665324 
L 85.183149 43.648765 
L 85.100379 43.197431 
L 84.940294 43.073405 
L 84.947378 42.211604 
L 84.682256 41.930154 
L 85.369601 41.101909 
L 85.359474 40.445921 
L 85.85306 39.138135 
L 85.507863 39.261347 
L 84.597638 40.391553 
L 84.214843 41.567095 
L 83.973918 42.170602 
L 83.403718 42.660165 
L 83.26766 43.406594 
L 83.764079 43.547455 
L 83.59596 44.544446 
L 84.128013 44.63868 
L 84.032685 45.276219 
L 84.105037 45.941236 
L 84.759038 46.454308 
L 85.907188 45.875977 
L 86.349873 46.718612 
L 87.127472 47.057805 
L 87.496481 47.794176 
L 86.958476 48.017924 
L 86.906551 47.376229 
L 85.493582 47.25568 
L 84.463234 47.471336 
L 84.29993 48.186115 
L 84.470934 48.71286 
L 84.218907 49.820338 
L 85.479885 49.504978 
L 85.416176 50.200325 
L 84.248315 51.127982 
L 82.777931 52.647756 
L 82.489204 53.597757 
L 80.765167 55.774419 
L 78.429598 57.819338 
L 77.666273 58.87007 
L 77.038672 60.894398 
L 75.286526 61.911282 
L 73.685646 63.494057 
L 72.132877 64.342709 
L 71.476606 65.317609 
L 70.770727 66.068434 
L 69.88594 66.483176 
L 68.543305 68.118262 
L 67.17045 68.942058 
L 66.381382 70.462631 
L 65.367389 70.872051 
L 63.88607 72.186048 
L 63.180845 74.282218 
L 62.489633 75.381419 
L 61.007096 78.376109 
L 59.736881 79.57312 
L 58.47082 80.61223 
L 58.041598 80.648444 
L 59.471162 79.106539 
L 59.934905 77.322108 
L 59.623807 77.401464 
L 58.90551 78.169086 
L 57.591278 79.383278 
L 55.557404 81.006446 
L 52.85611 82.744723 
L 51.478088 83.375262 
L 50.400424 84.593423 
L 49.201125 85.617688 
L 48.050499 86.333442 
L 47.334498 87.581963 
L 46.251476 88.712462 
L 44.515796 91.796035 
L 42.849825 94.531657 
L 41.750643 96.993384 
L 41.110059 97.856907 
L 40.958976 98.379872 
L 41.009034 99.644242 
L 40.761606 100.442302 
L 40.822772 101.195915 
L 40.512302 101.717242 
L 40.482668 102.451923 
L 39.985613 104.035735 
L 39.452678 104.948971 
L 38.568465 106.706648 
L 36.73479 111.171292 
L 36.651237 112.31708 
L 36.215177 114.335737 
L 35.758505 114.946974 
L 35.259153 115.015403 
L 35.166501 114.40058 
L 35.067941 114.416405 
L 34.725745 116.028416 
L 34.733075 117.184792 
L 34.590469 117.897454 
L 34.762918 117.878191 
L 34.564447 120.516262 
L 34.149458 121.527348 
L 33.497638 122.586161 
L 33.458979 125.32223 
L 33.323722 127.053564 
L 32.976524 128.334519 
L 33.067066 128.575402 
L 33.586058 128.56238 
L 33.742613 128.31813 
L 34.073315 125.934985 
L 33.854306 125.254377 
L 34.273471 124.378645 
L 34.782811 122.255992 
L 35.466505 120.424724 
L 35.654626 118.853465 
L 35.895432 118.052341 
L 36.008241 117.28507 
L 36.549461 116.074598 
L 36.462778 115.868565 
L 36.758083 114.896584 
L 36.928084 114.342229 
L 37.648997 111.370209 
L 38.862956 109.277114 
L 39.358899 108.897805 
L 39.261033 109.999907 
L 39.430868 110.351443 
L 39.283143 111.821518 
L 38.869822 112.360811 
L 38.215449 113.921646 
L 37.675747 115.707698 
L 37.382736 116.224796 
L 36.869908 119.065319 
L 37.050552 119.870842 
L 36.517488 121.241921 
L 36.371637 122.733393 
L 36.43022 123.740383 
L 35.797202 124.491157 
L 35.682001 125.101847 
L 35.807194 126.833741 
L 35.562839 128.425074 
L 35.53444 130.937474 
L 35.158348 134.864898 
L 34.923106 135.610776 
L 34.825841 136.759285 
L 34.574724 137.301296 
L 34.232967 137.413257 
L 34.104471 137.999441 
L 33.808273 137.717898 
L 33.638369 138.801729 
L 33.56991 140.459427 
L 33.987506 142.770451 
L 34.017891 144.044189 
L 34.622803 145.883916 
L 35.037646 146.705507 
L 35.08708 147.4623 
L 35.513495 149.313787 
L 36.242179 151.519837 
L 36.843105 152.703755 
L 37.470985 154.636482 
L 38.652917 157.207765 
L 39.206673 157.67387 
L 40.214777 158.047547 
L 40.832436 158.612282 
L 41.568973 160.03826 
L 41.969774 161.201193 
L 43.165896 165.675489 
L 43.610809 166.548917 
L 44.334789 167.317243 
L 44.873479 168.21027 
L 45.127388 168.898845 
L 45.778028 169.649646 
L 46.618792 171.034597 
L 47.340199 171.723501 
L 47.57045 171.457403 
L 47.922815 171.948132 
L 48.025978 172.666344 
L 47.902802 172.698066 
L 47.748104 172.25932 
L 47.549145 172.390959 
L 49.478181 177.6224 
L 49.113283 177.685467 
L 49.447087 178.234188 
L 49.176566 178.605582 
L 49.08108 179.099976 
L 49.207396 179.584212 
L 49.612421 180.105144 
L 49.847131 180.814516 
L 50.182693 180.643791 
L 50.17539 180.094959 
L 50.483494 180.678651 
L 50.494705 181.231903 
L 51.429385 182.574173 
L 51.756709 183.268604 
L 51.753867 183.669544 
L 51.551194 183.827496 
L 51.787277 184.391078 
L 52.50447 185.340193 
L 52.634705 185.709935 
L 52.726427 185.390044 
L 53.340675 185.847605 
L 53.688719 186.315037 
L 54.268663 186.858579 
L 54.479148 187.725965 
L 54.950717 188.168326 
L 55.176635 188.028361 
L 55.315167 189.178726 
L 56.015879 189.580065 
L 56.259647 189.48918 
L 56.693077 189.562813 
L 56.089422 188.186656 
L 56.279361 187.947856 
L 56.612058 188.115656 
L 57.271847 188.11775 
L 57.654419 187.751876 
L 58.330486 188.089556 
L 59.028306 189.047355 
L 59.244238 189.776732 
L 59.620573 190.140943 
L 59.185509 190.333326 
L 59.411626 191.428068 
L 59.875942 192.227714 
L 60.417058 193.490479 
L 60.535592 195.007864 
L 60.162174 195.217506 
L 60.4024 196.895469 
L 60.043185 197.626206 
L 60.601702 198.362575 
L 59.24443 199.366557 
L 58.466838 198.973755 
L 58.081271 199.296826 
L 58.124548 200.11073 
L 57.545265 199.847739 
L 57.742227 200.45944 
L 56.675509 200.36256 
L 55.83875 200.121532 
L 55.938417 200.809534 
L 55.366707 201.381538 
L 55.100047 202.115793 
L 54.580418 201.970968 
L 54.867956 203.482776 
L 54.580952 203.68063 
L 55.504857 204.944454 
L 56.051968 204.667204 
L 56.407152 205.5247 
L 55.660953 206.049546 
L 54.532004 206.116133 
L 54.152689 206.777646 
L 54.998929 208.620786 
L 54.58943 208.897696 
L 55.712127 210.199271 
L 56.992348 211.888629 
L 57.609301 213.199377 
L 58.324022 214.219357 
L 60.23418 217.748885 
L 62.264575 221.016438 
L 63.986864 223.407489 
L 63.824272 223.59588 
L 64.747733 224.952444 
L 66.171534 226.372368 
L 69.413249 229.200137 
L 72.994233 231.975505 
L 73.288504 232.483573 
L 75.151873 233.89882 
L 76.847134 237.142091 
L 77.902054 240.465126 
L 78.674915 241.859936 
L 78.494561 242.3273 
L 79.420059 243.293143 
L 79.494618 243.628949 
L 80.800057 244.760041 
L 81.758442 246.087859 
L 81.221565 245.79914 
L 88.307204 249.492643 
L 93.104267 251.647363 
L 95.855662 252.772361 
L 95.855662 252.772361 
" clip-path="url(#p85bf9ca9dd)" style="fill: none; stroke: #000000; stroke-linejoin: miter"/>
   </g>
   <g id="patch_38">
    <path d="M 105.860836 63.102638 
L 106.123311 62.535419 
L 104.643967 61.793751 
L 103.790931 61.739335 
L 102.23252 61.829392 
L 101.858906 62.822746 
L 102.048846 63.539446 
L 101.023128 62.712956 
L 100.344142 63.220939 
L 100.454333 63.930117 
L 100.881208 64.910503 
L 100.721274 66.036227 
L 100.17869 65.539143 
L 100.066987 64.808316 
L 99.542241 64.168638 
L 99.259837 63.911814 
L 97.856952 65.132343 
L 98.191487 65.50653 
L 97.86499 66.434853 
L 97.045302 67.114729 
L 97.414235 67.767447 
L 98.349179 69.153547 
L 99.419931 69.782411 
L 99.821653 70.30289 
L 99.783447 71.435855 
L 100.025349 72.502283 
L 100.789906 72.266289 
L 101.297508 71.542728 
L 101.934159 72.23518 
L 102.758403 71.800842 
L 103.096038 70.463889 
L 103.567939 69.193981 
L 104.807617 68.358871 
L 106.495209 67.156783 
L 107.024011 66.322648 
L 107.134014 65.77432 
L 106.687166 65.54115 
L 104.86034 66.745588 
L 103.967366 66.897666 
L 105.696074 65.677892 
L 106.169412 65.015868 
L 104.989078 64.953395 
L 105.763962 63.957556 
L 104.872513 63.226994 
L 105.860836 63.102638 
" clip-path="url(#p85bf9ca9dd)" style="fill: none; stroke: #000000; stroke-linejoin: miter"/>
   </g>
   <g id="patch_39">
    <path d="M 108.103351 66.817038 
L 108.356675 66.312144 
L 108.008992 65.820034 
L 107.674647 65.8092 
L 106.665231 67.083855 
L 108.103351 66.817038 
" clip-path="url(#p85bf9ca9dd)" style="fill: none; stroke: #000000; stroke-linejoin: miter"/>
   </g>
   <g id="patch_40">
    <path d="M 117.416856 76.940084 
L 117.369671 75.632558 
L 116.534459 74.819528 
L 116.237608 74.773748 
L 115.704175 75.277071 
L 115.436068 76.380615 
L 115.481983 76.558044 
L 116.165944 76.68779 
L 116.635036 77.035516 
L 117.09657 77.385319 
L 117.416856 76.940084 
" clip-path="url(#p85bf9ca9dd)" style="fill: none; stroke: #000000; stroke-linejoin: miter"/>
   </g>
   <g id="patch_41">
    <path d="M 113.121417 73.712888 
L 114.410797 73.089303 
L 113.032179 72.596213 
L 111.997834 72.770358 
L 110.255713 73.640533 
L 108.731734 75.07208 
L 109.300944 75.62353 
L 108.141081 75.82533 
L 107.929511 76.624471 
L 108.401904 77.470164 
L 108.927455 78.704249 
L 110.396394 80.400536 
L 111.516317 80.859303 
L 112.199166 80.595419 
L 112.159211 81.391536 
L 112.561954 81.782479 
L 112.349326 83.125401 
L 111.656947 83.305058 
L 112.414885 84.553882 
L 112.76409 85.870212 
L 112.601809 86.569451 
L 112.260496 87.402666 
L 110.256858 88.573116 
L 109.425815 89.278013 
L 109.228688 90.005308 
L 107.670699 89.413978 
L 106.400617 88.675702 
L 105.016276 89.595766 
L 105.146856 90.524551 
L 107.357694 91.467149 
L 107.694327 90.9713 
L 108.163303 92.374661 
L 108.687391 93.846843 
L 108.107248 94.201578 
L 108.507672 95.531516 
L 109.621887 97.38952 
L 111.507441 99.105958 
L 111.698768 98.408041 
L 111.414422 96.940655 
L 111.14834 94.888788 
L 112.375571 97.211347 
L 113.178211 98.133888 
L 114.122436 96.925133 
L 114.50886 94.910626 
L 114.434725 94.2989 
L 113.834761 93.036835 
L 113.636892 91.663146 
L 114.318195 90.696326 
L 115.379644 90.87965 
L 115.621857 93.076593 
L 116.183751 94.219532 
L 118.567008 92.594755 
L 119.401505 91.397994 
L 118.296718 90.86387 
L 118.1191 88.833971 
L 117.241742 88.006975 
L 116.361085 86.199882 
L 118.028014 85.921713 
L 118.407676 84.066595 
L 118.316383 83.152758 
L 117.366364 81.83311 
L 117.539491 80.507383 
L 116.273269 80.335529 
L 116.747363 79.60802 
L 116.653596 78.465262 
L 116.255223 77.045329 
L 115.273101 77.354911 
L 113.949239 77.160097 
L 114.945524 76.252693 
L 115.709671 74.2495 
L 114.07541 74.027226 
L 112.466537 74.819653 
L 113.121417 73.712888 
" clip-path="url(#p85bf9ca9dd)" style="fill: none; stroke: #000000; stroke-linejoin: miter"/>
   </g>
   <g id="patch_42">
    <path d="M 109.86965 67.991405 
L 108.683852 68.035725 
L 107.770365 69.146406 
L 107.471477 68.199303 
L 106.874355 68.513963 
L 106.134141 70.354631 
L 105.651515 71.065602 
L 105.798147 71.568125 
L 107.001982 71.807531 
L 108.637336 70.843697 
L 108.948008 69.77502 
L 110.07093 69.597569 
L 110.512674 69.181279 
L 109.796219 68.657867 
L 109.86965 67.991405 
" clip-path="url(#p85bf9ca9dd)" style="fill: none; stroke: #000000; stroke-linejoin: miter"/>
   </g>
   <g id="patch_43">
    <path d="M 140.602821 33.453444 
L 140.670258 33.715557 
L 141.494544 34.114483 
L 142.238615 34.045918 
L 142.857394 33.677576 
L 142.759601 33.619634 
L 141.527628 33.461596 
L 140.602821 33.453444 
" clip-path="url(#p85bf9ca9dd)" style="fill: none; stroke: #000000; stroke-linejoin: miter"/>
   </g>
   <g id="patch_44">
    <path d="M 110.085329 71.864624 
L 110.819318 72.064583 
L 112.813762 71.485898 
L 112.593047 70.541799 
L 112.008483 69.784494 
L 111.237765 69.747421 
L 110.337106 70.041274 
L 109.460687 70.602668 
L 108.129306 71.864662 
L 108.447403 72.357499 
L 110.085329 71.864624 
" clip-path="url(#p85bf9ca9dd)" style="fill: none; stroke: #000000; stroke-linejoin: miter"/>
   </g>
   <g id="patch_45">
    <path d="M 101.843841 61.430701 
L 102.681551 61.176716 
L 104.164218 61.313751 
L 105.776541 61.931348 
L 106.40751 62.290584 
L 107.139737 61.569398 
L 107.635061 60.994487 
L 107.568314 59.936548 
L 107.917737 59.255771 
L 107.513663 57.9763 
L 106.284469 58.65201 
L 104.941945 58.588571 
L 103.268351 58.623219 
L 102.613835 58.620063 
L 101.583366 59.967175 
L 100.724 60.460077 
L 101.843841 61.430701 
" clip-path="url(#p85bf9ca9dd)" style="fill: none; stroke: #000000; stroke-linejoin: miter"/>
   </g>
   <g id="patch_46">
    <path d="M 136.69954 35.507382 
L 138.095008 35.693887 
L 139.100639 35.81598 
L 139.204613 35.470001 
L 138.148592 35.093215 
L 137.24834 35.050786 
L 136.69954 35.507382 
" clip-path="url(#p85bf9ca9dd)" style="fill: none; stroke: #000000; stroke-linejoin: miter"/>
   </g>
   <g id="patch_47">
    <path d="M 113.734159 69.109443 
L 114.176858 68.628505 
L 114.547504 67.95556 
L 113.689275 67.789947 
L 112.747095 68.102302 
L 112.616979 68.800603 
L 112.904474 69.376057 
L 113.734159 69.109443 
" clip-path="url(#p85bf9ca9dd)" style="fill: none; stroke: #000000; stroke-linejoin: miter"/>
   </g>
   <g id="patch_48">
    <path d="M 139.775141 35.873271 
L 141.626061 36.463433 
L 142.954089 36.576936 
L 143.662356 36.424952 
L 144.111944 35.721912 
L 143.1748 34.964186 
L 142.218625 35.159119 
L 140.185627 35.087319 
L 139.775141 35.873271 
" clip-path="url(#p85bf9ca9dd)" style="fill: none; stroke: #000000; stroke-linejoin: miter"/>
   </g>
   <g id="patch_49">
    <path d="M 115.571202 65.685725 
L 115.314124 65.794856 
L 115.112978 65.304454 
L 114.164005 65.158523 
L 114.005825 64.7831 
L 112.564997 65.526119 
L 113.060623 66.005181 
L 111.975584 66.573331 
L 111.934161 67.108418 
L 112.528901 67.570068 
L 113.984632 66.939509 
L 114.904403 66.394681 
L 115.571202 65.685725 
" clip-path="url(#p85bf9ca9dd)" style="fill: none; stroke: #000000; stroke-linejoin: miter"/>
   </g>
   <g id="patch_50">
    <path d="M 112.759327 63.032256 
L 113.642403 62.546056 
L 113.726197 62.120499 
L 112.884206 62.086775 
L 111.204135 63.312299 
L 111.100935 62.628642 
L 112.052412 61.576865 
L 112.441747 60.38776 
L 111.79512 60.231138 
L 109.711684 60.312807 
L 109.467258 60.94815 
L 110.205178 62.557971 
L 109.070747 62.090893 
L 108.436842 62.367703 
L 108.673686 62.944073 
L 109.887524 63.57386 
L 110.757662 64.691766 
L 111.779336 64.49643 
L 112.689608 64.012893 
L 112.595367 63.620546 
L 112.125722 63.452462 
L 112.759327 63.032256 
" clip-path="url(#p85bf9ca9dd)" style="fill: none; stroke: #000000; stroke-linejoin: miter"/>
   </g>
   <g id="patch_51">
    <path d="M 180.125395 57.56846 
L 178.543612 58.138685 
L 176.879741 57.874495 
L 174.906557 56.811204 
L 172.877063 55.873883 
L 170.773335 54.433027 
L 169.560017 53.237514 
L 168.184143 51.962256 
L 167.482862 51.736245 
L 166.779964 51.971738 
L 167.250184 52.613906 
L 168.159213 53.21639 
L 168.788482 54.39692 
L 170.255784 55.732811 
L 171.38663 56.739449 
L 172.30708 56.793911 
L 174.102247 58.110605 
L 174.351987 57.778721 
L 176.059567 59.016009 
L 177.157661 59.269538 
L 177.562795 59.846363 
L 178.64894 60.067067 
L 179.220434 59.345704 
L 180.108578 59.440717 
L 180.322142 57.895673 
L 180.125395 57.56846 
" clip-path="url(#p85bf9ca9dd)" style="fill: none; stroke: #000000; stroke-linejoin: miter"/>
   </g>
   <g id="patch_52">
    <path d="M 117.139903 66.41171 
L 116.766721 65.753767 
L 115.941284 66.069173 
L 115.664008 66.744359 
L 115.976986 67.499768 
L 115.495083 68.297529 
L 114.679188 68.908606 
L 113.845085 69.662936 
L 114.150832 70.912071 
L 114.498243 71.582312 
L 115.255003 72.199977 
L 116.556794 72.851948 
L 116.871359 73.390417 
L 117.771445 73.508824 
L 118.396982 73.301494 
L 118.89765 72.656108 
L 119.039362 71.848857 
L 118.557642 71.323963 
L 117.719209 70.883775 
L 116.841387 70.717308 
L 116.493409 70.187242 
L 116.135349 69.735358 
L 116.331241 69.257163 
L 116.368023 68.648441 
L 117.064694 68.269735 
L 117.380448 67.640598 
L 116.855561 67.082928 
L 117.139903 66.41171 
" clip-path="url(#p85bf9ca9dd)" style="fill: none; stroke: #000000; stroke-linejoin: miter"/>
   </g>
   <g id="patch_53">
    <path d="M 114.739628 59.441921 
L 114.343401 59.088883 
L 114.280483 58.592463 
L 112.858518 58.227038 
L 111.270879 57.972571 
L 110.872332 58.557086 
L 111.258019 59.056232 
L 112.240596 59.481732 
L 112.405812 59.775414 
L 113.168934 59.836499 
L 114.739628 59.441921 
" clip-path="url(#p85bf9ca9dd)" style="fill: none; stroke: #000000; stroke-linejoin: miter"/>
   </g>
   <g id="patch_54">
    <path d="M 151.45573 19.81561 
L 148.331892 19.633823 
L 146.007386 19.633776 
L 145.214081 19.837237 
L 144.978328 20.06795 
L 143.865894 20.265819 
L 143.839351 20.498986 
L 145.527078 20.915391 
L 146.866664 21.016718 
L 147.741402 20.913951 
L 148.899819 21.079111 
L 149.36596 21.335384 
L 151.23826 21.572096 
L 146.228909 22.07551 
L 142.400319 22.826359 
L 135.529333 22.990464 
L 134.28119 23.323915 
L 132.599275 23.375967 
L 132.514402 23.008762 
L 130.866416 23.221583 
L 128.555853 23.637774 
L 129.62958 23.829772 
L 127.690132 25.083664 
L 125.324546 25.70964 
L 123.911602 25.212471 
L 122.040108 26.32203 
L 121.972311 26.902975 
L 120.910598 27.230552 
L 120.770493 26.297136 
L 123.264181 24.620222 
L 124.5656 23.696985 
L 126.166255 23.31616 
L 126.041975 23.109625 
L 126.765889 22.72386 
L 126.836606 22.127087 
L 125.400653 21.540002 
L 124.352724 21.271977 
L 123.632048 21.209087 
L 122.142936 21.702277 
L 122.186665 22.002434 
L 120.468775 22.409895 
L 120.589154 22.799634 
L 118.803011 23.390323 
L 119.5089 23.412989 
L 119.468424 23.794969 
L 118.453093 24.050465 
L 119.14299 24.609294 
L 120.487236 24.411069 
L 120.747383 24.567276 
L 120.052574 25.274455 
L 120.1206 25.650934 
L 118.700504 25.931581 
L 118.033855 26.383529 
L 117.334722 26.344537 
L 115.396613 27.45461 
L 113.49819 27.616839 
L 113.520647 27.923465 
L 112.702192 28.664428 
L 111.96788 29.487836 
L 111.30527 29.850238 
L 109.702195 31.187317 
L 107.965071 31.820955 
L 108.044697 32.025146 
L 108.584365 32.142722 
L 109.236649 32.074919 
L 110.577808 32.21078 
L 111.825668 32.137075 
L 110.772404 32.563882 
L 110.310422 33.24098 
L 114.840523 35.326471 
L 116.195023 35.164459 
L 118.480882 34.66336 
L 119.724147 34.081209 
L 122.023556 33.52259 
L 121.927273 33.094304 
L 120.82867 32.822209 
L 121.400464 32.304799 
L 123.319762 32.57099 
L 124.526104 32.106172 
L 125.964429 31.910688 
L 127.178281 31.591385 
L 127.999188 31.217929 
L 129.027567 31.27245 
L 129.33358 31.900635 
L 130.11156 32.147414 
L 131.522307 32.060712 
L 134.185773 31.524281 
L 136.148065 32.059051 
L 136.822833 32.578235 
L 142.560661 33.14723 
L 143.456589 32.772524 
L 143.137459 31.868059 
L 144.200473 32.067278 
L 144.752753 31.845844 
L 145.955791 32.250982 
L 147.169199 32.136779 
L 148.043751 32.692087 
L 149.131731 31.85101 
L 149.990981 32.387535 
L 150.389425 33.240761 
L 149.797489 33.548739 
L 149.734378 34.194115 
L 150.373519 34.881854 
L 151.283879 35.084349 
L 152.349857 35.547137 
L 152.934384 34.867296 
L 155.184236 35.706979 
L 154.913747 36.153105 
L 156.458494 36.902499 
L 157.442302 37.100805 
L 157.936106 36.986336 
L 157.528537 37.611281 
L 158.178959 37.654521 
L 159.06258 38.57474 
L 158.368524 38.634647 
L 155.707598 38.566958 
L 155.060535 38.974168 
L 155.024354 39.45079 
L 155.439076 40.293312 
L 156.591426 40.871067 
L 157.247788 40.859801 
L 156.740061 41.316103 
L 157.385109 41.907003 
L 156.57284 41.82417 
L 156.760475 42.431322 
L 158.129822 42.613711 
L 159.055082 42.518107 
L 159.760642 42.277675 
L 160.38737 42.736706 
L 161.956503 42.974486 
L 161.894676 43.328527 
L 162.90247 43.990121 
L 163.446787 43.935907 
L 164.499198 44.638671 
L 165.923753 45.012017 
L 166.314468 45.36609 
L 167.78755 45.500271 
L 168.436526 45.036129 
L 169.328088 45.755455 
L 169.941568 46.636807 
L 170.775001 47.233338 
L 172.675833 46.984603 
L 173.908592 46.47237 
L 173.418526 47.326695 
L 174.066527 48.17437 
L 175.213163 48.849765 
L 176.438244 48.612617 
L 176.366595 49.095073 
L 174.46941 48.968964 
L 173.548592 49.223393 
L 173.701586 49.426644 
L 174.989602 49.295532 
L 176.661863 50.071093 
L 177.896769 49.492505 
L 179.966519 49.906971 
L 180.942058 49.823062 
L 180.808595 49.281517 
L 182.150056 49.557285 
L 183.030515 49.296681 
L 184.144978 49.802038 
L 185.123804 50.005684 
L 185.89652 50.655088 
L 186.663479 50.941236 
L 186.687291 51.565566 
L 183.562353 50.25832 
L 182.216893 49.963959 
L 181.350874 50.469596 
L 178.725296 50.253011 
L 177.47444 50.367979 
L 176.99862 50.635875 
L 175.258433 50.195441 
L 174.238628 50.283838 
L 174.212663 51.383802 
L 174.717496 51.708854 
L 176.593034 52.079669 
L 178.643257 53.061434 
L 179.262149 53.106645 
L 180.689959 52.996673 
L 181.658705 53.261251 
L 181.640712 52.668027 
L 182.041961 52.694464 
L 182.856211 52.269061 
L 183.981636 52.729895 
L 182.393064 54.363999 
L 181.96382 54.98827 
L 181.666142 56.398383 
L 182.356374 56.787965 
L 183.405763 56.457135 
L 184.796021 57.330427 
L 183.696646 57.692635 
L 184.587333 58.680945 
L 184.697452 59.71767 
L 185.376176 60.294122 
L 185.170878 60.922418 
L 183.981175 60.049117 
L 183.883533 60.427415 
L 185.463587 62.852566 
L 186.245285 64.350934 
L 187.458379 64.955154 
L 187.717873 66.018906 
L 186.966717 66.20582 
L 185.894552 65.773465 
L 185.797295 64.969858 
L 184.650609 64.868177 
L 183.677464 66.129797 
L 184.97751 66.229847 
L 186.056808 66.988979 
L 187.317878 67.003844 
L 188.542647 67.918792 
L 187.731565 68.169232 
L 187.465574 68.656197 
L 188.844975 70.930904 
L 190.350955 71.224441 
L 190.615306 71.980942 
L 188.880735 72.827563 
L 189.368361 73.599022 
L 190.348029 73.683449 
L 191.192942 74.271724 
L 190.505096 74.482653 
L 189.579204 74.942036 
L 186.855215 73.420497 
L 185.049024 73.550985 
L 185.034157 73.01011 
L 187.599344 71.257794 
L 187.462186 70.053047 
L 186.692872 68.931807 
L 185.419506 68.374998 
L 184.373503 68.37335 
L 181.442378 69.308801 
L 180.328678 70.442464 
L 178.776453 70.615659 
L 179.123149 71.473105 
L 177.663407 71.311459 
L 177.541172 70.435417 
L 175.316018 71.041376 
L 175.114795 72.036734 
L 174.435582 72.759254 
L 175.318781 74.40747 
L 174.607049 75.043166 
L 174.446103 76.533185 
L 175.216742 79.403339 
L 175.550791 81.193654 
L 177.097171 85.116198 
L 177.957925 88.108155 
L 178.066009 90.672302 
L 177.297614 93.271384 
L 177.411741 94.776284 
L 180.446639 98.574056 
L 182.023797 100.251436 
L 183.773885 100.404474 
L 184.559363 99.284813 
L 184.593823 96.275394 
L 185.900492 96.915222 
L 188.337676 98.808089 
L 190.475105 100.176606 
L 191.9629 101.541828 
L 192.80679 100.723908 
L 192.172545 99.068346 
L 193.200159 98.441801 
L 192.306286 96.586047 
L 190.186973 93.721167 
L 190.529556 92.720577 
L 189.44197 90.455071 
L 188.032122 90.193775 
L 186.553602 89.545771 
L 184.878437 87.044388 
L 184.621289 84.745609 
L 184.164883 82.759583 
L 183.106669 82.003937 
L 182.434973 80.554785 
L 182.735924 79.287488 
L 184.121443 79.156022 
L 184.876547 79.63969 
L 184.936599 80.275813 
L 185.649642 82.985831 
L 186.19904 84.359916 
L 186.869368 85.447298 
L 188.543737 86.439301 
L 189.954303 87.97844 
L 191.00234 87.849911 
L 192.171631 88.260196 
L 192.712334 86.92034 
L 193.011266 85.282136 
L 193.738749 83.991217 
L 194.998386 83.912593 
L 195.384301 85.404445 
L 194.934927 86.140547 
L 194.127831 86.640426 
L 193.706551 87.672129 
L 193.458755 88.8934 
L 194.399511 89.655395 
L 195.305611 89.735972 
L 195.312871 89.308306 
L 197.240042 91.458527 
L 196.802369 92.046505 
L 195.197785 91.501592 
L 195.146186 92.640461 
L 195.775894 93.910352 
L 196.86284 95.067575 
L 198.228986 96.191253 
L 197.772489 97.668423 
L 198.240409 98.513161 
L 197.543525 99.17686 
L 197.148297 98.846048 
L 196.197382 99.271413 
L 195.153016 102.487434 
L 194.995382 103.432516 
L 194.201348 103.219562 
L 192.776443 103.299462 
L 192.663558 104.122737 
L 192.045542 105.092571 
L 191.611681 104.481362 
L 190.465744 104.714447 
L 189.973146 104.063979 
L 189.140708 103.396405 
L 188.833318 101.741845 
L 189.212891 101.746539 
L 188.928351 100.965564 
L 188.300295 101.03347 
L 187.847619 100.632675 
L 187.66597 99.913004 
L 187.029885 99.034319 
L 186.759481 99.968336 
L 186.827521 100.634751 
L 186.189098 101.241115 
L 186.514729 102.474586 
L 187.782314 104.221284 
L 188.80319 104.941827 
L 189.526448 105.897595 
L 190.177685 106.409054 
L 190.157551 107.68568 
L 189.730608 107.412812 
L 189.034878 108.013318 
L 189.099887 108.504397 
L 188.295989 108.949279 
L 187.464425 110.500778 
L 188.184763 113.684997 
L 187.949269 114.491 
L 186.61425 116.198192 
L 187.103293 117.89889 
L 185.272033 120.68505 
L 183.815933 120.381299 
L 185.191168 122.373002 
L 183.015384 122.784114 
L 181.666847 123.876541 
L 182.384562 125.243176 
L 184.541475 125.177728 
L 185.854548 125.746553 
L 187.997138 127.174255 
L 189.449697 131.12395 
L 189.288804 132.595733 
L 187.187686 133.485089 
L 186.14709 134.061395 
L 184.621822 134.316164 
L 182.843313 135.046573 
L 181.074777 135.315234 
L 179.620898 137.45483 
L 180.465447 138.123733 
L 181.126679 140.227198 
L 181.636206 140.844744 
L 181.934223 141.680584 
L 182.15368 143.835847 
L 181.792046 144.767124 
L 182.061543 146.119277 
L 182.636797 146.754289 
L 183.353005 146.703439 
L 183.855094 147.880672 
L 184.080695 149.523854 
L 184.791608 149.024377 
L 185.662383 149.012506 
L 186.104366 148.271587 
L 187.577716 148.043919 
L 188.352242 149.013765 
L 189.108966 149.45905 
L 189.883109 149.32614 
L 190.203621 148.350105 
L 190.88386 147.270025 
L 192.266331 146.70573 
L 194.057572 145.85046 
L 194.498578 143.889463 
L 195.390513 142.996902 
L 195.197079 141.596668 
L 195.631721 140.345873 
L 194.668718 139.509278 
L 194.535268 137.685701 
L 194.883882 136.21099 
L 194.72136 135.507152 
L 196.165143 134.234499 
L 196.759102 132.317913 
L 196.177491 131.257797 
L 195.773693 130.043556 
L 197.198795 128.428042 
L 199.733162 127.518923 
L 200.195428 125.815163 
L 200.581848 125.37366 
L 200.740995 124.099394 
L 201.097589 123.511339 
L 202.310589 123.492564 
L 202.959887 123.319911 
L 204.326277 124.852302 
L 205.64985 125.344263 
L 207.297554 125.762155 
L 208.590759 125.91424 
L 209.42848 125.403317 
L 210.298773 125.741196 
L 211.149331 125.503802 
L 211.906861 126.001251 
L 212.460423 125.852284 
L 214.304863 127.1169 
L 214.306602 127.687051 
L 214.649456 128.810252 
L 214.956864 129.349177 
L 215.308469 128.830674 
L 214.960867 126.846085 
L 215.3149 126.358861 
L 214.876726 125.348165 
L 213.766647 125.364978 
L 213.482594 123.866633 
L 214.501156 123.36203 
L 215.542287 123.650832 
L 215.324954 122.867105 
L 215.020594 122.644056 
L 213.630576 122.53353 
L 211.322898 122.836696 
L 211.376562 122.246785 
L 210.895181 122.077027 
L 210.133891 122.76469 
L 208.144193 122.300068 
L 206.732996 121.267212 
L 205.239196 121.139199 
L 204.349279 120.501574 
L 204.156241 119.902888 
L 203.547864 119.072467 
L 203.942262 117.816269 
L 204.8739 117.441745 
L 204.749466 117.832537 
L 205.123862 118.454299 
L 205.790252 118.800836 
L 205.591122 117.804593 
L 206.383226 117.557726 
L 206.790401 118.125148 
L 207.706273 118.475041 
L 207.600327 118.770928 
L 209.240264 119.334134 
L 210.43958 119.061006 
L 211.391912 119.171239 
L 213.302316 118.91846 
L 213.932979 119.215753 
L 214.210738 119.156012 
L 214.543784 119.267743 
L 214.778798 119.915211 
L 215.478765 121.144257 
L 216.09468 121.868969 
L 216.97763 121.916452 
L 217.241773 122.268537 
L 217.474799 122.225387 
L 217.853362 122.640972 
L 219.809309 123.501634 
L 220.692799 124.446428 
L 221.893427 125.415938 
L 223.095694 125.314959 
L 223.669498 124.615465 
L 222.381591 123.535285 
L 222.816482 122.718428 
L 221.998774 122.173397 
L 223.079312 121.674298 
L 222.432584 120.762432 
L 221.690254 120.784157 
L 220.696699 120.579522 
L 220.764973 119.845662 
L 219.805003 119.566241 
L 218.925605 118.800147 
L 218.827079 118.257534 
L 219.868644 118.587762 
L 220.325615 118.039347 
L 220.544663 117.273554 
L 219.320345 117.039606 
L 219.972259 115.436851 
L 220.490135 115.075545 
L 220.987711 114.518055 
L 221.22816 114.860358 
L 222.028065 115.28725 
L 221.916246 112.68071 
L 222.675521 111.397286 
L 222.49106 110.834324 
L 221.48674 111.211391 
L 220.918379 110.73225 
L 219.968526 110.165023 
L 219.296602 108.702528 
L 219.101854 107.563545 
L 217.677526 105.462227 
L 217.9971 105.313631 
L 218.00963 104.527145 
L 217.644241 104.163914 
L 217.094074 102.333507 
L 216.54075 101.177053 
L 216.890391 100.127449 
L 217.456332 100.600474 
L 218.652356 99.475648 
L 219.127737 99.521024 
L 219.088922 100.924114 
L 219.260583 101.372075 
L 220.25637 100.724571 
L 220.793345 101.616182 
L 221.369263 101.355612 
L 221.24499 99.182919 
L 221.514663 97.850213 
L 221.093208 97.164482 
L 220.708246 98.258755 
L 220.130036 98.404786 
L 219.210202 97.595656 
L 219.073653 96.246255 
L 219.412884 95.265222 
L 219.21841 94.183922 
L 219.423035 93.301417 
L 219.526676 92.215979 
L 219.863584 92.475043 
L 219.890028 94.456495 
L 220.698741 94.433841 
L 221.570096 96.383574 
L 221.481096 97.328944 
L 222.697263 97.264049 
L 223.708932 96.612461 
L 225.96793 96.452272 
L 226.329621 96.020506 
L 227.046484 95.895208 
L 228.077284 96.531699 
L 228.612723 97.263005 
L 228.892403 99.252479 
L 228.435683 100.065963 
L 228.154034 101.540931 
L 226.989671 102.536884 
L 225.193018 103.373403 
L 224.341054 105.123303 
L 224.048919 106.743098 
L 224.160003 108.954793 
L 222.76082 110.702554 
L 223.425639 112.305883 
L 222.385379 113.933492 
L 222.708186 116.575411 
L 223.754603 116.692199 
L 224.290353 118.438455 
L 225.490346 118.567689 
L 227.071867 119.532062 
L 227.861364 118.332917 
L 229.159762 118.124024 
L 229.505734 117.180936 
L 229.186133 116.281341 
L 229.938783 115.149691 
L 231.078661 115.076797 
L 231.870537 113.203188 
L 231.585853 111.564404 
L 232.322107 110.96423 
L 232.545051 110.146897 
L 232.791828 111.133613 
L 233.52329 111.387064 
L 233.87308 112.280397 
L 234.833758 113.38943 
L 235.353545 115.028618 
L 237.354798 119.714512 
L 237.518297 120.569825 
L 237.469779 121.548063 
L 236.911512 122.389127 
L 236.139131 122.967969 
L 236.311331 123.755132 
L 235.622827 123.294631 
L 234.997604 123.926511 
L 234.444611 125.081635 
L 234.426138 126.016209 
L 234.152978 127.415373 
L 232.557669 128.351059 
L 231.50647 129.005299 
L 230.386486 130.51581 
L 229.85311 130.238644 
L 228.856343 131.132352 
L 228.403086 131.193531 
L 228.059025 131.589096 
L 227.311937 131.206129 
L 225.842254 132.296642 
L 225.307783 133.250601 
L 225.038274 134.8026 
L 225.172529 135.963479 
L 226.104747 137.032502 
L 226.024058 138.327829 
L 225.744195 139.287953 
L 224.182655 139.537432 
L 222.28843 140.245097 
L 221.123375 140.803509 
L 219.826163 139.697998 
L 217.929654 140.18827 
L 216.818795 140.682717 
L 216.401051 141.231047 
L 214.123686 141.763396 
L 213.416442 141.129715 
L 212.776226 141.561682 
L 212.081778 140.739189 
L 212.436465 139.24302 
L 211.824146 137.558021 
L 211.193937 137.410944 
L 210.784271 136.565586 
L 210.915998 135.244099 
L 210.655882 134.958644 
L 210.007099 136.35688 
L 209.579147 135.411748 
L 208.648011 135.785793 
L 207.710086 137.434531 
L 206.931752 138.110506 
L 206.230262 138.012003 
L 204.913284 138.884644 
L 204.056818 140.363899 
L 203.289201 140.478825 
L 201.208105 141.892583 
L 199.09064 143.479368 
L 198.010266 144.751817 
L 197.440929 145.989856 
L 196.051034 147.075654 
L 195.05793 148.786294 
L 194.425288 149.056739 
L 192.777884 149.306435 
L 191.429687 150.047847 
L 190.273637 149.590292 
L 189.181318 150.028652 
L 189.085105 151.427246 
L 188.679255 153.866793 
L 187.770242 155.119613 
L 186.452589 156.600342 
L 185.785172 158.299988 
L 185.835646 159.416702 
L 185.643151 161.328827 
L 186.639133 163.637313 
L 185.637518 165.747639 
L 184.915421 166.548005 
L 183.871154 168.317069 
L 182.329118 169.023668 
L 181.586383 170.073122 
L 180.859196 172.394632 
L 179.816177 173.435955 
L 179.383837 174.818532 
L 179.514461 175.868225 
L 179.224576 177.128803 
L 178.668173 177.601733 
L 177.848637 179.09315 
L 177.420198 180.613635 
L 177.631266 181.235905 
L 177.16832 182.385712 
L 176.528164 183.080873 
L 176.580802 184.812394 
L 177.669829 185.394159 
L 178.268384 186.17392 
L 178.200839 187.160529 
L 178.543587 188.037783 
L 178.975544 189.830342 
L 178.94237 191.63329 
L 178.511277 192.673701 
L 178.783258 193.6208 
L 178.425345 194.670385 
L 177.618072 196.170251 
L 176.798893 196.713517 
L 177.825741 197.129077 
L 178.753651 198.332658 
L 178.576238 199.183906 
L 179.167894 200.811427 
L 179.792799 201.037552 
L 179.803607 201.307471 
L 180.290943 201.688534 
L 181.119139 201.594804 
L 183.116236 202.48884 
L 183.397019 203.190834 
L 183.906959 203.399265 
L 184.419405 203.482902 
L 185.221848 203.938853 
L 186.143322 204.699293 
L 186.468505 205.875835 
L 186.847279 206.387433 
L 187.908031 206.977588 
L 189.330588 207.215889 
L 189.853103 207.174822 
L 191.200317 207.817331 
L 192.866218 208.16533 
L 194.642521 208.795688 
L 196.606215 208.856291 
L 197.452971 208.566592 
L 200.493502 206.302375 
L 203.76932 204.614449 
L 205.03073 204.377949 
L 205.83459 203.996999 
L 207.427648 203.723372 
L 208.964064 202.507522 
L 209.883694 201.48518 
L 213.789373 198.110066 
L 215.137743 197.167632 
L 217.788078 195.617476 
L 219.011911 195.996181 
L 219.625789 196.830461 
L 220.539926 197.295005 
L 221.791079 196.533724 
L 222.361551 195.793575 
L 222.950509 195.492201 
L 224.485008 193.858187 
L 224.500784 194.306555 
L 224.901833 194.266736 
L 225.253991 194.758782 
L 225.950616 194.545308 
L 226.587631 195.161675 
L 226.427635 196.536766 
L 225.968352 198.617051 
L 226.25093 198.648359 
L 225.599286 201.325519 
L 225.266816 202.029599 
L 225.210624 202.555083 
L 226.074023 203.433926 
L 226.994529 203.929639 
L 228.393772 204.271915 
L 229.436142 204.87463 
L 229.847924 205.908272 
L 229.681812 206.281425 
L 230.265555 206.598674 
L 230.615461 208.247498 
L 229.972174 209.450719 
L 230.34524 210.466892 
L 230.644758 210.598139 
L 230.541037 211.269167 
L 230.159529 212.327876 
L 227.307628 216.88787 
L 227.066135 217.457443 
L 225.643099 220.068997 
L 225.204439 221.484813 
L 225.805983 221.709495 
L 225.786936 222.889972 
L 225.966194 223.210017 
L 226.208778 223.22521 
L 226.032206 223.6479 
L 224.659983 225.962032 
L 223.895526 227.310198 
L 224.158338 227.214061 
L 223.70356 227.822126 
L 224.193576 227.352527 
L 227.861446 223.66228 
L 231.367226 219.817712 
L 234.704431 215.825938 
L 237.866885 211.694342 
L 240.848737 207.43057 
L 243.64447 203.04251 
L 246.248912 198.538281 
L 248.657243 193.926217 
L 250.865008 189.21485 
L 252.868121 184.4129 
L 254.662877 179.529249 
L 255.289796 177.563565 
L 255.79733 175.708135 
L 255.691727 175.920722 
L 256.051718 173.588413 
L 256.406608 171.996154 
L 256.143988 172.383651 
L 256.235401 171.647996 
L 258.374013 160.65912 
L 258.977311 156.130129 
L 259.777018 149.937551 
L 260.002406 147.246501 
L 260.12088 140.514354 
L 259.956613 137.046075 
L 259.422173 131.84303 
L 258.515548 127.198048 
L 258.393044 126.821111 
L 258.34987 127.37595 
L 258.398111 129.492205 
L 258.332564 130.876658 
L 258.144261 133.365351 
L 258.043114 135.108662 
L 257.384342 139.321082 
L 257.056505 139.33299 
L 256.81705 138.984536 
L 256.327707 139.365415 
L 256.454341 138.185731 
L 256.284905 137.508207 
L 256.052726 137.373532 
L 255.71534 137.61343 
L 254.369307 137.322429 
L 253.210859 137.774782 
L 252.660541 137.782251 
L 251.987905 136.742102 
L 250.970852 135.743617 
L 250.058941 136.045546 
L 249.05275 134.679976 
L 248.246801 133.270459 
L 248.243098 132.69722 
L 247.330684 131.597919 
L 247.07276 131.510236 
L 245.675377 131.629143 
L 245.138395 130.654379 
L 245.119816 130.12593 
L 243.644338 129.543622 
L 239.010086 126.337102 
L 237.717318 125.174565 
L 237.698982 124.908723 
L 239.550659 126.300232 
L 240.780092 126.542996 
L 240.768897 125.981878 
L 240.454576 124.833533 
L 239.866563 123.395383 
L 239.64674 122.429497 
L 239.808593 122.612167 
L 240.851518 125.024361 
L 241.153338 124.39973 
L 243.190674 125.309 
L 244.076284 125.96125 
L 244.437362 125.932232 
L 245.041151 126.374727 
L 245.203249 126.793568 
L 245.867695 127.251527 
L 246.333308 126.866817 
L 246.902293 126.852527 
L 248.084428 127.796273 
L 248.520812 128.762017 
L 249.102379 129.67468 
L 250.125538 130.246883 
L 250.457828 129.894978 
L 251.259392 130.006052 
L 251.934583 130.863279 
L 252.710185 131.407973 
L 253.153322 131.238359 
L 253.429996 131.737879 
L 253.734539 131.7758 
L 254.306916 132.844879 
L 254.366953 133.308291 
L 254.660743 133.859682 
L 254.606204 134.215561 
L 254.942516 134.437085 
L 256.23764 136.896702 
L 256.516744 135.986264 
L 256.567347 135.323221 
L 256.744459 134.648142 
L 256.72638 133.556365 
L 256.717159 132.397173 
L 256.928325 131.116182 
L 256.996735 129.912637 
L 256.925282 128.453467 
L 257.020479 128.111002 
L 257.082254 127.396637 
L 256.875514 125.064783 
L 256.838044 122.086656 
L 256.690279 120.042951 
L 256.24858 118.591529 
L 255.767413 113.262888 
L 255.512162 112.695598 
L 255.332182 111.784363 
L 255.298244 110.916018 
L 255.142993 110.295654 
L 254.811661 109.474794 
L 254.351715 107.130219 
L 253.899026 106.377967 
L 253.312277 104.840185 
L 253.286841 104.281083 
L 251.441246 99.626663 
L 251.405363 99.947724 
L 250.777777 99.727551 
L 250.686573 101.111816 
L 250.429964 101.383506 
L 249.867437 101.076772 
L 249.164429 100.208094 
L 248.598143 99.122594 
L 248.526048 99.172888 
L 249.461324 101.677604 
L 250.65308 105.393575 
L 250.562725 107.25868 
L 250.646202 108.539359 
L 250.40653 108.207664 
L 250.433695 108.516443 
L 250.083335 108.241009 
L 249.580036 107.132174 
L 249.046851 106.347277 
L 248.729986 106.319208 
L 248.802343 106.831969 
L 249.25315 107.92002 
L 249.911551 108.845367 
L 249.677198 108.704342 
L 249.367448 108.42551 
L 249.077413 108.419927 
L 248.752928 108.12055 
L 248.457514 107.524318 
L 248.062049 107.032388 
L 247.564095 107.350479 
L 247.198579 107.088302 
L 246.894111 107.416908 
L 245.141902 106.102003 
L 244.923845 105.671474 
L 244.423357 105.33076 
L 244.58637 104.637271 
L 244.239162 103.626132 
L 244.688665 103.262358 
L 244.591781 102.352172 
L 246.061472 103.200785 
L 247.075645 103.614046 
L 247.42328 102.732687 
L 248.203686 102.432668 
L 248.520583 101.252997 
L 247.806285 98.020235 
L 247.936078 97.617828 
L 249.041209 98.65424 
L 248.918971 94.027519 
L 247.887508 89.793756 
L 247.033246 87.133666 
L 247.375503 87.047128 
L 247.853511 87.535211 
L 247.729178 86.876799 
L 247.841115 86.368725 
L 247.996906 86.461456 
L 248.522672 87.547528 
L 248.732934 87.318597 
L 247.776746 85.193181 
L 247.114907 83.866021 
L 247.661605 84.76387 
L 249.033846 87.353242 
L 246.598091 82.613297 
L 244.080428 78.193049 
L 241.379138 73.882567 
L 238.499 69.689475 
L 235.445108 65.621187 
L 232.222863 61.6849 
L 228.837964 57.887576 
L 225.296397 54.235929 
L 221.604425 50.73642 
L 217.76858 47.395236 
L 213.795645 44.218287 
L 209.692646 41.211193 
L 205.46684 38.379271 
L 201.125701 35.727529 
L 196.676906 33.260659 
L 192.128325 30.983023 
L 187.488001 28.898649 
L 182.764142 27.011223 
L 177.965103 25.324085 
L 173.09937 23.840216 
L 168.17555 22.562243 
L 163.202351 21.492426 
L 158.188568 20.632655 
L 153.14307 19.984453 
L 151.45573 19.81561 
M 230.798993 89.263916 
L 228.138967 88.970783 
L 227.187244 88.051399 
L 225.634019 87.873145 
L 224.281574 85.614478 
L 224.183519 84.422582 
L 223.346593 83.279584 
L 223.135463 82.093502 
L 222.563802 80.43726 
L 222.994346 79.836323 
L 222.960976 78.767514 
L 223.913205 79.234712 
L 225.383365 80.460474 
L 225.123655 81.211538 
L 225.313703 82.278468 
L 226.398706 83.133703 
L 226.171942 84.05542 
L 226.655874 84.391331 
L 227.079136 84.091532 
L 228.420997 84.629934 
L 228.981253 83.756819 
L 229.487236 83.942114 
L 230.067438 84.686483 
L 230.413953 84.903593 
L 231.332155 85.300047 
L 230.311244 84.347883 
L 229.969633 83.170268 
L 230.777512 83.494323 
L 231.608937 83.353774 
L 232.053334 84.705361 
L 231.694487 85.485805 
L 232.84015 86.716371 
L 232.940873 86.028481 
L 233.855773 87.123268 
L 234.321962 86.621012 
L 235.692921 88.024338 
L 236.604738 88.64875 
L 236.901504 89.042984 
L 237.184348 91.223607 
L 236.856775 92.701334 
L 236.143758 92.894642 
L 235.752538 93.747908 
L 234.751876 93.185882 
L 234.098808 92.594328 
L 233.843773 91.879628 
L 233.401787 91.247759 
L 232.379187 90.094977 
L 232.366933 89.064534 
L 231.964733 89.086842 
L 231.844639 89.555492 
L 230.798993 89.263916 
L 230.798993 89.263916 
" clip-path="url(#p85bf9ca9dd)" style="fill: none; stroke: #000000; stroke-linejoin: miter"/>
   </g>
   <g id="patch_55">
    <path d="M 118.085536 66.187174 
L 118.31403 66.094597 
L 118.473982 65.704751 
L 118.046406 65.14476 
L 117.603869 65.507674 
L 117.925712 66.093774 
L 118.085536 66.187174 
" clip-path="url(#p85bf9ca9dd)" style="fill: none; stroke: #000000; stroke-linejoin: miter"/>
   </g>
   <g id="patch_56">
    <path d="M 115.436011 61.270909 
L 116.070598 61.158103 
L 116.220867 60.631572 
L 115.864534 60.263781 
L 115.143567 60.219529 
L 114.646849 60.891981 
L 115.436011 61.270909 
" clip-path="url(#p85bf9ca9dd)" style="fill: none; stroke: #000000; stroke-linejoin: miter"/>
   </g>
   <g id="patch_57">
    <path d="M 162.418322 65.1406 
L 161.69651 65.29196 
L 160.944002 64.998123 
L 160.821726 65.740368 
L 161.518589 65.9375 
L 161.796505 66.405568 
L 162.631548 66.18558 
L 162.418322 65.1406 
" clip-path="url(#p85bf9ca9dd)" style="fill: none; stroke: #000000; stroke-linejoin: miter"/>
   </g>
   <g id="patch_58">
    <path d="M 117.296504 60.785371 
L 117.556367 60.281926 
L 117.592478 60.102362 
L 116.889277 60.00422 
L 116.600424 60.090057 
L 116.770244 60.572048 
L 117.296504 60.785371 
" clip-path="url(#p85bf9ca9dd)" style="fill: none; stroke: #000000; stroke-linejoin: miter"/>
   </g>
   <g id="patch_59">
    <path d="M 118.577442 65.078537 
L 119.281997 64.775057 
L 119.659782 64.115864 
L 119.664866 63.90253 
L 119.491106 63.53458 
L 118.744532 63.953141 
L 118.141439 64.434558 
L 117.88729 64.889067 
L 118.577442 65.078537 
" clip-path="url(#p85bf9ca9dd)" style="fill: none; stroke: #000000; stroke-linejoin: miter"/>
   </g>
   <g id="patch_60">
    <path d="M 118.211991 63.676436 
L 118.963975 63.034022 
L 119.218651 62.01209 
L 119.200547 61.393531 
L 118.46571 61.716047 
L 118.177847 62.238304 
L 117.458334 62.216552 
L 117.738645 62.868074 
L 117.411344 63.616295 
L 117.510985 64.178252 
L 118.211991 63.676436 
" clip-path="url(#p85bf9ca9dd)" style="fill: none; stroke: #000000; stroke-linejoin: miter"/>
   </g>
   <g id="patch_61">
    <path d="M 155.716016 42.783418 
L 155.090385 43.067452 
L 155.114366 44.002478 
L 155.244094 44.193283 
L 155.639231 44.256857 
L 158.071266 43.638217 
L 155.716016 42.783418 
" clip-path="url(#p85bf9ca9dd)" style="fill: none; stroke: #000000; stroke-linejoin: miter"/>
   </g>
   <g id="patch_62">
    <path d="M 157.767857 64.724055 
L 156.906413 64.592526 
L 156.633827 64.931017 
L 157.098409 65.41268 
L 156.775804 65.721548 
L 156.091353 65.40352 
L 155.956358 66.380217 
L 157.347659 67.227382 
L 159.196778 67.872163 
L 160.081633 67.877628 
L 160.3783 68.546585 
L 161.992263 68.757855 
L 162.284127 68.385918 
L 161.051629 67.265817 
L 160.969352 66.820137 
L 159.86925 65.835854 
L 159.770355 64.795429 
L 157.767857 64.724055 
" clip-path="url(#p85bf9ca9dd)" style="fill: none; stroke: #000000; stroke-linejoin: miter"/>
   </g>
   <g id="patch_63">
    <path d="M 157.932526 62.429168 
L 157.043275 62.72014 
L 157.387985 63.236193 
L 156.691932 63.284121 
L 156.542792 64.211396 
L 157.547631 64.50158 
L 157.883543 64.212833 
L 158.394809 64.474117 
L 159.298914 63.976982 
L 159.641473 63.174049 
L 158.905347 62.320119 
L 157.932526 62.429168 
" clip-path="url(#p85bf9ca9dd)" style="fill: none; stroke: #000000; stroke-linejoin: miter"/>
   </g>
   <g id="patch_64">
    <path d="M 160.093772 56.311284 
L 159.783322 56.169408 
L 159.297754 56.449576 
L 159.614881 56.730883 
L 160.09292 56.960496 
L 159.527537 56.904406 
L 159.493374 57.269071 
L 159.771761 57.817172 
L 159.944319 57.294576 
L 160.563024 57.571483 
L 161.100779 57.401394 
L 160.803304 57.036035 
L 160.467992 56.937053 
L 160.337497 56.685948 
L 160.093772 56.311284 
" clip-path="url(#p85bf9ca9dd)" style="fill: none; stroke: #000000; stroke-linejoin: miter"/>
   </g>
   <g id="patch_65">
    <path d="M 156.528387 44.241591 
L 155.16065 44.8884 
L 154.314847 46.053402 
L 153.979571 46.769172 
L 154.795318 46.980843 
L 156.461806 47.015827 
L 156.488849 46.61678 
L 157.471116 45.992332 
L 157.657537 45.387589 
L 157.340002 44.597354 
L 156.528387 44.241591 
" clip-path="url(#p85bf9ca9dd)" style="fill: none; stroke: #000000; stroke-linejoin: miter"/>
   </g>
   <g id="patch_66">
    <path d="M 123.33753 65.383467 
L 124.232545 64.451003 
L 124.197871 63.912465 
L 124.224056 63.345538 
L 124.910077 62.534645 
L 124.420897 62.140362 
L 124.086721 62.454525 
L 123.786117 62.318343 
L 123.11853 62.47351 
L 122.19269 62.755379 
L 121.487911 63.343292 
L 121.105113 63.936035 
L 121.493239 64.354367 
L 120.859826 64.451321 
L 120.218418 64.831507 
L 119.747732 65.539189 
L 120.02515 66.201411 
L 120.591472 66.551962 
L 122.291908 66.086924 
L 123.113876 66.024121 
L 123.33753 65.383467 
" clip-path="url(#p85bf9ca9dd)" style="fill: none; stroke: #000000; stroke-linejoin: miter"/>
   </g>
   <g id="patch_67">
    <path d="M 132.418317 63.634161 
L 132.038093 63.331031 
L 131.67777 63.020308 
L 130.887879 62.927672 
L 130.93129 62.725234 
L 130.300942 62.415879 
L 129.812597 62.327674 
L 129.333535 62.348008 
L 128.365935 62.889195 
L 128.600066 62.400995 
L 128.462583 62.161623 
L 127.602187 62.364109 
L 126.989404 62.231058 
L 126.734035 62.073795 
L 126.156617 62.022138 
L 125.605676 62.417789 
L 125.316325 62.943359 
L 124.795507 63.542778 
L 124.599791 64.265422 
L 125.48066 64.844468 
L 125.836591 65.392535 
L 124.903234 65.564756 
L 124.879887 65.281466 
L 124.315485 64.70334 
L 123.582405 65.39866 
L 123.309298 66.164499 
L 122.687307 66.533608 
L 121.84701 66.431637 
L 121.008536 66.7084 
L 121.133832 67.323947 
L 120.513039 68.453361 
L 120.437954 67.266733 
L 120.158304 67.201712 
L 119.120576 68.202453 
L 118.222195 67.985628 
L 117.463604 68.596174 
L 117.944661 69.184762 
L 118.21766 69.743278 
L 119.418633 70.315408 
L 119.917182 71.351585 
L 121.721307 71.149662 
L 122.04975 70.799521 
L 121.401738 70.464163 
L 121.676873 70.119718 
L 122.568747 70.017097 
L 123.269629 69.572751 
L 124.163215 69.489538 
L 124.929169 69.18709 
L 125.324964 68.337901 
L 125.774291 68.212663 
L 125.529793 67.790556 
L 126.579576 68.169022 
L 127.032045 67.982913 
L 127.862117 68.068109 
L 129.330459 67.118519 
L 130.114625 66.912087 
L 131.417242 66.282775 
L 130.828077 66.045985 
L 131.309228 65.817927 
L 132.149567 65.769509 
L 133.19113 65.340027 
L 133.447288 64.937967 
L 133.270969 64.374543 
L 132.914679 63.996526 
L 132.418317 63.634161 
" clip-path="url(#p85bf9ca9dd)" style="fill: none; stroke: #000000; stroke-linejoin: miter"/>
   </g>
   <g id="patch_68">
    <path d="M 142.327285 64.458402 
L 140.428775 64.362623 
L 139.59335 64.510108 
L 139.236487 65.104634 
L 138.373951 64.967903 
L 137.311437 65.848732 
L 137.102928 66.547939 
L 137.603669 67.528396 
L 137.10398 66.913074 
L 136.733775 66.725168 
L 136.253796 66.002886 
L 135.204342 66.747956 
L 135.099257 66.178244 
L 134.264344 65.981737 
L 133.315958 65.982758 
L 132.44295 66.172898 
L 132.138282 66.903598 
L 131.62138 66.918238 
L 129.894197 67.571779 
L 129.194396 68.054301 
L 129.666447 68.959213 
L 129.16407 69.468388 
L 127.403084 69.661866 
L 125.547092 69.73377 
L 125.012344 70.276445 
L 125.320435 71.301792 
L 126.66547 72.45319 
L 125.818212 72.188867 
L 124.436219 72.182022 
L 124.394814 73.485536 
L 124.524775 74.209156 
L 126.880924 74.941434 
L 127.775205 75.399139 
L 128.553913 76.78334 
L 128.217346 77.496178 
L 128.567587 78.34992 
L 128.423512 81.713455 
L 128.535702 82.466349 
L 127.230018 83.968784 
L 127.589525 84.547753 
L 128.312404 84.443465 
L 129.460277 86.600377 
L 128.246755 85.824572 
L 127.626473 85.710584 
L 127.026074 86.620328 
L 126.635544 87.878199 
L 127.297343 88.682115 
L 128.019428 88.556326 
L 129.481346 87.858601 
L 128.928486 89.290228 
L 128.420149 90.018596 
L 127.098891 90.485231 
L 125.654222 92.511984 
L 125.96866 93.296293 
L 125.24687 94.629742 
L 125.876345 96.645278 
L 125.510727 98.403389 
L 125.62046 99.76014 
L 126.621713 102.499334 
L 126.834422 104.544163 
L 127.57152 105.792757 
L 129.58432 106.090065 
L 130.846821 107.917042 
L 132.331785 107.943983 
L 133.71828 104.391979 
L 133.498453 102.793043 
L 135.209889 101.313515 
L 135.790108 100.036317 
L 135.915501 98.64718 
L 136.764573 97.466753 
L 139.804396 96.524735 
L 141.614151 95.136503 
L 142.66748 93.044942 
L 143.440121 92.262378 
L 144.304247 92.205217 
L 146.495178 91.354297 
L 148.28151 89.61101 
L 149.838671 87.68048 
L 146.984921 87.900761 
L 147.608808 86.811277 
L 147.13272 85.572798 
L 148.863881 87.174594 
L 149.995276 86.614311 
L 149.357238 85.166963 
L 148.23798 84.176973 
L 147.283145 83.840391 
L 147.49869 83.302103 
L 148.913007 83.868905 
L 148.695102 83.055064 
L 147.635035 81.940743 
L 148.457238 81.801793 
L 149.203966 81.373098 
L 149.204369 80.702555 
L 148.34176 80.094061 
L 149.529949 79.728649 
L 148.359559 78.339815 
L 148.863511 78.066521 
L 148.263224 76.599203 
L 147.093742 75.840815 
L 147.692427 75.145722 
L 148.381076 74.924778 
L 147.460363 73.915945 
L 146.808182 72.021567 
L 146.697161 69.560033 
L 145.868274 69.652065 
L 146.84976 69.1264 
L 146.878241 68.704977 
L 147.593597 67.21472 
L 147.079235 66.591789 
L 146.092746 66.518728 
L 144.931331 67.460944 
L 144.332584 68.212696 
L 144.390831 67.194541 
L 143.977567 66.645186 
L 143.548003 67.234388 
L 142.552124 66.764635 
L 141.553067 67.027232 
L 141.380353 66.73576 
L 143.919283 66.228425 
L 144.214836 65.51616 
L 142.327285 64.458402 
L 142.327285 64.458402 
" clip-path="url(#p85bf9ca9dd)" style="fill: none; stroke: #000000; stroke-linejoin: miter"/>
   </g>
   <g id="patch_69">
    <path d="M 19.296 140.256 
L 19.407558 145.449812 
L 19.742026 150.634043 
L 20.298788 155.799131 
L 21.076816 160.93555 
L 22.074676 166.033824 
L 23.290526 171.08455 
L 24.722124 176.078411 
L 26.36683 181.006197 
L 28.221609 185.858816 
L 30.283041 190.62732 
L 32.547322 195.302911 
L 35.010278 199.876965 
L 37.667363 204.341046 
L 40.513678 208.68692 
L 43.543972 212.906569 
L 46.752656 216.992212 
L 50.13381 220.936311 
L 53.681199 224.731591 
L 57.38828 228.371053 
L 61.248213 231.847982 
L 65.25388 235.155966 
L 69.397891 238.288903 
L 73.672604 241.241013 
L 78.070132 244.006853 
L 82.582365 246.581319 
L 87.20098 248.959663 
L 91.917457 251.137499 
L 96.723096 253.110809 
L 101.609034 254.875953 
L 106.566258 256.429676 
L 111.585625 257.769111 
L 116.657875 258.891788 
L 121.773652 259.795635 
L 126.923522 260.478987 
L 132.097983 260.940582 
L 137.287493 261.179569 
L 142.482478 261.195507 
L 147.673356 260.988367 
L 152.850553 260.55853 
L 158.004518 259.906791 
L 163.125746 259.03435 
L 168.204789 257.942817 
L 173.232279 256.634205 
L 178.198943 255.110929 
L 183.09562 253.375797 
L 187.913277 251.432011 
L 192.643028 249.283157 
L 197.276149 246.933196 
L 201.804094 244.386465 
L 206.218511 241.64766 
L 210.511256 238.721834 
L 214.674413 235.614384 
L 218.700302 232.331041 
L 222.581497 228.877861 
L 226.310838 225.261214 
L 229.881448 221.487771 
L 233.28674 217.564493 
L 236.520432 213.498616 
L 239.57656 209.297639 
L 242.449487 204.969312 
L 245.133914 200.521619 
L 247.624888 195.962762 
L 249.917816 191.301153 
L 252.008468 186.545388 
L 253.892988 181.70424 
L 255.567899 176.78664 
L 257.030112 171.801657 
L 258.27693 166.758486 
L 259.306053 161.66643 
L 260.115583 156.534882 
L 260.704026 151.373307 
L 261.070298 146.191226 
L 261.213723 140.998197 
L 261.134036 135.803798 
L 260.831383 130.617612 
L 260.306325 125.449205 
L 259.559827 120.308109 
L 258.593269 115.203808 
L 257.408433 110.145717 
L 256.007503 105.143165 
L 254.393065 100.205381 
L 252.568095 95.341472 
L 250.535962 90.56041 
L 248.300411 85.871014 
L 245.865569 81.281933 
L 243.235924 76.801632 
L 240.416329 72.438376 
L 237.411983 68.200212 
L 234.228429 64.094959 
L 230.871538 60.130188 
L 227.347503 56.313212 
L 223.662824 52.651073 
L 219.824298 49.150525 
L 215.839004 45.818025 
L 211.714294 42.65972 
L 207.457775 39.681436 
L 203.077301 36.888666 
L 198.580949 34.286561 
L 193.977015 31.879922 
L 189.273989 29.673188 
L 184.480548 27.670428 
L 179.605533 25.875338 
L 174.657936 24.291228 
L 169.646883 22.92102 
L 164.581617 21.767241 
L 159.471481 20.83202 
L 154.325902 20.117083 
L 149.15437 19.623746 
L 143.966424 19.352922 
L 138.771635 19.305108 
L 133.579583 19.480394 
L 128.399847 19.878455 
L 123.241979 20.498559 
L 118.115495 21.33956 
L 113.02985 22.399908 
L 107.994425 23.677647 
L 103.018508 25.17042 
L 98.111276 26.875473 
L 93.281783 28.789662 
L 88.538936 30.909455 
L 83.891483 33.230943 
L 79.347997 35.749843 
L 74.916859 38.46151 
L 70.606241 41.360941 
L 66.424096 44.442788 
L 62.378137 47.701368 
L 58.475827 51.130668 
L 54.724364 54.724364 
L 51.130668 58.475827 
L 47.701368 62.378137 
L 44.442788 66.424096 
L 41.360941 70.606241 
L 38.46151 74.916859 
L 35.749843 79.347997 
L 33.230943 83.891483 
L 30.909455 88.538936 
L 28.789662 93.281783 
L 26.875473 98.111276 
L 25.17042 103.018508 
L 23.677647 107.994425 
L 22.399908 113.02985 
L 21.33956 118.115495 
L 20.498559 123.241979 
L 19.878455 128.399847 
L 19.480394 133.579583 
L 19.305108 138.771635 
L 19.296 140.256 
L 19.296 140.256 
" clip-path="url(#p85bf9ca9dd)" style="fill: none; stroke: #000000; stroke-linejoin: miter"/>
   </g>
   <g id="patch_70">
    <path d="M 189.447975 119.673326 
L 187.879811 119.807259 
L 186.301887 119.945383 
L 184.714527 120.08767 
L 183.118055 120.234089 
L 181.5128 120.384612 
L 179.899089 120.539208 
L 178.277255 120.697844 
L 176.647628 120.860488 
L 175.010543 121.027107 
L 173.366336 121.197666 
L 171.715343 121.372132 
L 170.057904 121.550467 
L 168.394356 121.732636 
L 166.725042 121.918601 
L 165.050304 122.108324 
L 163.370484 122.301766 
L 161.685928 122.498887 
L 159.996979 122.699648 
L 158.303985 122.904006 
L 156.607292 123.111921 
L 154.907249 123.323349 
L 153.204202 123.538247 
L 151.498503 123.756571 
L 149.790499 123.978277 
L 148.080541 124.203318 
L 146.36898 124.43165 
L 142.94245 124.897994 
L 139.513717 125.376927 
L 136.085594 125.868056 
L 132.660889 126.370979 
L 129.242409 126.885284 
L 127.53638 127.146573 
L 125.832958 127.410549 
L 124.132491 127.677157 
L 122.435329 127.946344 
L 120.741819 128.218052 
L 119.052308 128.492228 
L 117.367142 128.768815 
L 115.686667 129.047756 
L 114.011227 129.328993 
L 112.341166 129.61247 
L 110.676826 129.898129 
L 109.018547 130.18591 
L 107.36667 130.475755 
L 105.721534 130.767604 
L 104.083474 131.061397 
L 102.452828 131.357075 
L 100.829929 131.654577 
L 99.21511 131.953841 
L 97.608702 132.254807 
L 96.011033 132.557413 
L 94.422432 132.861596 
L 92.843224 133.167295 
L 91.273733 133.474446 
L 89.714279 133.782987 
L 88.165184 134.092855 
L 86.626764 134.403986 
L 85.099335 134.716316 
L 83.583209 135.029781 
" clip-path="url(#p85bf9ca9dd)" style="fill: none; stroke: #1f77b4; stroke-width: 2; stroke-linejoin: miter"/>
   </g>
   <g id="patch_71">
    <path d="M 189.447975 119.673326 
L 186.416895 122.021912 
L 182.556774 124.703527 
L 178.46591 127.224683 
L 174.158512 129.573917 
L 169.649928 131.740393 
L 164.956589 133.713958 
L 160.095947 135.485194 
L 155.086407 137.045473 
L 149.947254 138.386999 
L 144.698574 139.502858 
L 139.361175 140.387052 
L 133.956497 141.034541 
L 128.506526 141.441273 
L 123.033697 141.604211 
L 117.560802 141.521362 
L 112.11089 141.191788 
L 106.707164 140.61563 
L 101.372883 139.794111 
L 96.131257 138.729543 
L 91.005342 137.425329 
L 86.017939 135.885956 
L 83.583209 135.029781 
L 83.583209 135.029781 
" clip-path="url(#p85bf9ca9dd)" style="fill: none; stroke: #2ca02c; stroke-width: 2; stroke-linejoin: miter"/>
   </g>
   <g id="line2d_1">
    <defs>
     <path id="mada249fd57" d="M 0 3 
C 0.795609 3 1.55874 2.683901 2.12132 2.12132 
C 2.683901 1.55874 3 0.795609 3 0 
C 3 -0.795609 2.683901 -1.55874 2.12132 -2.12132 
C 1.55874 -2.683901 0.795609 -3 0 -3 
C -0.795609 -3 -1.55874 -2.683901 -2.12132 -2.12132 
C -2.683901 -1.55874 -3 -0.795609 -3 0 
C -3 0.795609 -2.683901 1.55874 -2.12132 2.12132 
C -1.55874 2.683901 -0.795609 3 0 3 
z
" style="stroke: #2ca02c"/>
    </defs>
    <g clip-path="url(#p85bf9ca9dd)">
     <use xlink:href="#mada249fd57" x="189.447975" y="119.673326" style="fill: #2ca02c; stroke: #2ca02c"/>
    </g>
   </g>
   <g id="line2d_2">
    <g clip-path="url(#p85bf9ca9dd)">
     <use xlink:href="#mada249fd57" x="83.583209" y="135.029781" style="fill: #2ca02c; stroke: #2ca02c"/>
    </g>
   </g>
  </g>
 </g>
 <defs>
  <clipPath id="p85bf9ca9dd">
   <rect x="7.2" y="7.2" width="266.112" height="266.112"/>
  </clipPath>
 </defs>
</svg>
