<?xml version="1.0" encoding="utf-8" standalone="no"?>
<!DOCTYPE svg PUBLIC "-//W3C//DTD SVG 1.1//EN"
  "http://www.w3.org/Graphics/SVG/1.1/DTD/svg11.dtd">
<svg xmlns:xlink="http://www.w3.org/1999/xlink" width="283.617849pt" height="280.512pt" viewBox="0 0 283.617849 280.512" xmlns="http://www.w3.org/2000/svg" version="1.1">
 <metadata>
  <rdf:RDF xmlns:dc="http://purl.org/dc/elements/1.1/" xmlns:cc="http://creativecommons.org/ns#" xmlns:rdf="http://www.w3.org/1999/02/22-rdf-syntax-ns#">
   <cc:Work>
    <dc:type rdf:resource="http://purl.org/dc/dcmitype/StillImage"/>
    <dc:date>2025-02-25T03:37:58.562753</dc:date>
    <dc:format>image/svg+xml</dc:format>
    <dc:creator>
     <cc:Agent>
      <dc:title>Matplotlib v3.9.2, https://matplotlib.org/</dc:title>
     </cc:Agent>
    </dc:creator>
   </cc:Work>
  </rdf:RDF>
 </metadata>
 <defs>
  <style type="text/css">*{stroke-linejoin: round; stroke-linecap: butt}</style>
 </defs>
 <g id="figure_1">
  <g id="patch_1">
   <path d="M -0 280.512 
L 283.617849 280.512 
L 283.617849 0 
L -0 0 
z
" style="fill: #ffffff"/>
  </g>
  <g id="axes_1">
   <g id="patch_2">
    <path d="M 104.200559 129.872871 
L 101.964619 129.654771 
L 103.266838 130.921919 
L 104.762127 132.462718 
L 103.497094 133.867422 
L 102.512853 135.530384 
L 104.038699 135.703588 
L 104.21642 135.783677 
L 106.151891 135.559545 
L 106.690546 133.83178 
L 108.094025 132.69843 
L 106.266151 131.368737 
L 104.200559 129.872871 
" clip-path="url(#p2b6aedc294)" style="fill: none; stroke: #000000; stroke-linejoin: miter"/>
   </g>
   <g id="patch_3">
    <path d="M 128.647932 204.582396 
L 128.09974 206.767929 
L 128.197275 208.666453 
L 128.632553 210.462672 
L 130.209952 211.785381 
L 131.327141 210.194514 
L 131.10423 208.709299 
L 131.152773 208.419245 
L 131.136316 206.581206 
L 130.531613 204.537476 
L 128.647932 204.582396 
" clip-path="url(#p2b6aedc294)" style="fill: none; stroke: #000000; stroke-linejoin: miter"/>
   </g>
   <g id="patch_4">
    <path d="M 104.864529 112.946213 
L 102.991234 113.348637 
L 102.711848 115.226839 
L 102.357667 115.625102 
L 103.457807 117.463454 
L 104.396651 119.055979 
L 105.535868 120.573259 
L 106.823286 122.381007 
L 107.636589 124.018111 
L 107.605787 126.323366 
L 109.179493 127.646499 
L 111.146344 127.78257 
L 112.538629 126.494023 
L 112.882094 124.589719 
L 113.055559 122.667152 
L 113.097285 120.806507 
L 112.968087 118.75774 
L 111.20302 116.93927 
L 109.651532 115.460757 
L 107.264484 113.576464 
L 104.864529 112.946213 
" clip-path="url(#p2b6aedc294)" style="fill: none; stroke: #000000; stroke-linejoin: miter"/>
   </g>
   <g id="patch_5">
    <path d="M 77.051999 197.851092 
L 77.234452 199.76614 
L 78.762247 199.159307 
L 79.464763 197.058686 
L 78.79856 195.20651 
L 77.073087 194.681101 
L 75.185543 194.804178 
L 76.766994 195.874791 
L 77.051999 197.851092 
" clip-path="url(#p2b6aedc294)" style="fill: none; stroke: #000000; stroke-linejoin: miter"/>
   </g>
   <g id="patch_6">
    <path d="M 80.407993 203.115984 
L 80.338037 204.9547 
L 81.802756 205.166245 
L 81.704065 202.802933 
L 81.039063 201.038898 
L 80.730538 200.249593 
L 80.407993 203.115984 
" clip-path="url(#p2b6aedc294)" style="fill: none; stroke: #000000; stroke-linejoin: miter"/>
   </g>
   <g id="patch_7">
    <path d="M 58.685473 169.256143 
L 58.698551 171.563315 
L 58.438234 173.663313 
L 59.47248 174.454219 
L 61.236 173.237291 
L 61.856731 171.526721 
L 61.217254 169.551297 
L 61.115484 167.66559 
L 60.68445 165.857502 
L 60.922482 164.630197 
L 58.307864 165.839624 
L 59.086593 167.465271 
L 58.685473 169.256143 
" clip-path="url(#p2b6aedc294)" style="fill: none; stroke: #000000; stroke-linejoin: miter"/>
   </g>
   <g id="patch_8">
    <path d="M 59.505023 120.534037 
L 57.336786 120.175021 
L 55.218526 119.965721 
L 52.953113 119.910633 
L 51.156523 119.687766 
L 49.178489 119.983819 
L 49.324842 121.804718 
L 51.109252 123.474899 
L 54.740828 124.637844 
L 56.394119 125.287438 
L 58.557344 126.503281 
L 57.816386 128.246458 
L 58.040054 129.475728 
L 59.377747 131.676391 
L 61.310531 132.099294 
L 62.987517 131.33914 
L 62.837218 129.507004 
L 62.75529 127.57345 
L 64.320721 128.86862 
L 65.035249 127.003839 
L 64.71438 125.081338 
L 64.734671 123.153184 
L 63.224264 122.102535 
L 61.580039 121.149876 
L 59.505023 120.534037 
" clip-path="url(#p2b6aedc294)" style="fill: none; stroke: #000000; stroke-linejoin: miter"/>
   </g>
   <g id="patch_9">
    <path d="M 39.614002 89.490019 
L 39.672027 86.869263 
L 38.8495 85.354239 
L 37.16462 85.85767 
L 36.679119 87.647839 
L 37.232451 89.475722 
L 37.409233 91.454007 
L 36.970807 93.30082 
L 36.999605 95.090445 
L 37.610994 96.971841 
L 36.889304 98.940293 
L 37.323695 100.669849 
L 37.937784 102.273003 
L 39.366967 103.873251 
L 39.888782 105.956473 
L 40.630694 107.833898 
L 42.513882 111.264328 
L 44.083348 112.956859 
L 45.863023 113.441985 
L 47.870523 113.869968 
L 49.459481 114.844224 
L 50.982398 116.241432 
L 52.300944 117.679607 
L 53.963745 118.520809 
L 55.731918 119.107289 
L 63.261199 119.963761 
L 65.154513 120.559182 
L 66.928279 121.695386 
L 67.990664 123.08983 
L 68.424229 124.825591 
L 68.35132 130.822763 
L 69.115516 132.574757 
L 69.727797 134.26906 
L 69.723133 136.192997 
L 67.926271 136.757294 
L 66.589049 137.954137 
L 66.66521 139.98039 
L 64.541379 141.070096 
L 66.13131 141.912911 
L 67.742328 143.29302 
L 66.47313 144.822612 
L 65.704235 146.479034 
L 65.335814 148.335904 
L 63.352897 149.382722 
L 63.718376 151.244982 
L 62.802223 152.909829 
L 60.602422 154.066085 
L 64.286789 155.365611 
L 64.691743 157.287681 
L 63.604346 158.805521 
L 64.268002 160.572388 
L 65.364961 162.476212 
L 66.209586 164.251241 
L 66.162267 166.201311 
L 64.556119 167.053057 
L 63.376417 168.749118 
L 62.926764 170.604559 
L 63.572526 172.449005 
L 63.712502 174.427293 
L 63.33257 175.697539 
L 68.395888 173.637504 
L 69.982114 172.460861 
L 69.98709 170.636045 
L 71.544597 169.653436 
L 72.985349 168.511834 
L 75.1801 168.808994 
L 74.682894 170.712037 
L 74.4163 172.57723 
L 74.713056 174.540866 
L 75.987132 175.911033 
L 76.79141 177.57521 
L 75.987312 179.424251 
L 76.038757 181.298199 
L 74.907583 183.437834 
L 76.755033 184.202894 
L 75.591676 185.630618 
L 74.204711 186.750101 
L 73.173805 188.191255 
L 75.358275 188.856374 
L 76.844294 189.971943 
L 76.691104 191.990232 
L 78.154466 193.114294 
L 80.080899 193.630266 
L 81.182281 195.131059 
L 83.155762 198.578504 
L 84.382104 200.013859 
L 85.928953 203.670639 
L 87.568818 204.640429 
L 88.840087 205.994926 
L 89.400592 207.919069 
L 91.270683 208.946115 
L 91.645106 209.880429 
L 92.195868 210.840491 
L 94.109656 211.237515 
L 97.976385 211.789925 
L 99.630078 212.571821 
L 101.134975 213.670491 
L 103.075416 213.60008 
L 105.206195 213.981765 
L 104.874212 215.744424 
L 106.729731 215.971493 
L 107.994785 214.739415 
L 108.645813 212.980751 
L 109.626093 211.43661 
L 111.375974 212.004571 
L 113.35858 211.306508 
L 115.268649 210.867377 
L 117.080277 210.666222 
L 118.846491 211.05349 
L 118.710562 213.363387 
L 120.612897 213.521195 
L 122.486424 213.820753 
L 122.828684 215.636352 
L 123.167816 216.292447 
L 124.929847 210.958977 
L 124.844218 209.037429 
L 124.268474 207.09703 
L 124.455781 205.154861 
L 122.997451 203.916035 
L 121.802953 202.526018 
L 120.270535 201.32587 
L 119.870476 199.376236 
L 119.629408 197.603127 
L 120.502512 195.724624 
L 121.971491 194.701422 
L 124.075796 193.824327 
L 126.006681 193.251239 
L 126.19661 195.249895 
L 128.165318 195.366146 
L 129.76754 196.414443 
L 129.316969 194.500735 
L 129.5535 192.664475 
L 129.099708 190.909301 
L 129.924056 189.01603 
L 132.123545 185.725389 
L 133.2241 183.745506 
L 132.431506 182.105254 
L 133.021432 180.175373 
L 132.285709 178.335815 
L 130.854442 177.087414 
L 132.357666 175.256329 
L 134.121407 174.818185 
L 135.811791 174.146295 
L 135.849734 175.996591 
L 137.006055 177.689884 
L 138.662846 176.901314 
L 139.772991 178.565248 
L 140.265459 180.364882 
L 141.23138 181.9357 
L 142.001957 185.61114 
L 143.675563 184.967345 
L 143.827921 184.697867 
L 144.684633 182.685215 
L 145.351792 184.935787 
L 146.044823 183.195076 
L 146.898698 184.799682 
L 147.357687 181.876243 
L 147.384422 181.916515 
L 147.384422 155.236967 
L 147.384422 181.916515 
L 148.222955 183.115951 
L 149.447354 184.632837 
L 150.710144 183.227444 
L 151.420329 185.024141 
L 153.110533 185.848355 
L 153.856149 188.210536 
L 155.533896 189.455743 
L 159.41485 193.371722 
L 160.574034 194.954206 
L 161.592078 196.781451 
L 163.128449 198.000799 
L 163.634159 201.763589 
L 164.255656 204.024819 
L 164.420163 206.949243 
L 162.751167 207.672292 
L 161.620984 209.096975 
L 160.095313 210.27548 
L 160.965965 212.264421 
L 162.98887 212.447844 
L 163.930331 213.996183 
L 164.656173 215.701265 
L 165.803583 217.378784 
L 166.346183 219.129161 
L 166.863411 221.285532 
L 167.07849 223.125218 
L 167.137985 225.203958 
L 166.649165 226.928222 
L 166.240598 228.913905 
L 166.119793 230.913635 
L 164.63667 232.340071 
L 164.201991 234.188681 
L 162.530976 235.300562 
L 161.711525 241.410315 
L 161.178658 243.216618 
L 161.285825 245.105113 
L 162.623195 246.316884 
L 164.4423 246.94784 
L 166.32651 247.725406 
L 168.269032 247.977967 
L 170.28793 247.885597 
L 172.190337 247.297616 
L 173.994751 247.083962 
L 175.813692 246.439396 
L 177.821628 246.577541 
L 179.588589 247.749571 
L 181.804702 248.14104 
L 183.258093 249.580817 
L 185.361516 249.354152 
L 187.530267 248.954381 
L 189.420194 249.340392 
L 191.292452 250.114314 
L 193.30697 250.591377 
L 193.683013 248.661218 
L 195.56899 247.80734 
L 197.559318 247.584969 
L 202.576824 246.512767 
L 207.29328 246.252782 
L 209.084996 246.710796 
L 209.738405 248.364764 
L 211.706838 248.793078 
L 213.729259 247.818009 
L 215.941586 246.419859 
L 219.414724 243.584432 
L 220.619098 242.231824 
L 222.531841 240.463587 
L 224.021759 238.755689 
L 225.804327 238.215894 
L 227.46727 238.766139 
L 229.276434 239.665681 
L 230.987004 240.900237 
L 232.809452 240.873377 
L 231.530487 239.475901 
L 230.327007 237.480123 
L 231.348692 235.914898 
L 232.301979 234.246441 
L 233.851703 232.547367 
L 235.074651 230.879746 
L 235.92245 228.753879 
L 236.429599 226.839572 
L 239.363003 224.551323 
L 240.441583 223.096411 
L 240.948175 221.141647 
L 242.50271 219.690895 
L 244.036632 218.53573 
L 244.712816 216.813937 
L 244.183137 214.914699 
L 243.737932 212.837136 
L 244.448753 210.900274 
L 246.044118 208.982195 
L 248.196189 207.458675 
L 249.870623 206.780363 
L 250.674406 204.730555 
L 252.59401 204.067605 
L 254.344397 203.72938 
L 255.826443 202.624715 
L 255.516187 200.825567 
L 256.215212 198.642839 
L 255.457725 196.849075 
L 254.850684 194.853108 
L 255.138634 190.417759 
L 256.333687 186.851716 
L 261.652422 184.241632 
L 263.258931 183.010419 
L 264.180674 181.841889 
L 261.368675 178.590832 
L 260.392069 176.98531 
L 259.059522 175.701352 
L 257.761105 174.140086 
L 258.717221 172.233906 
L 258.34268 170.356659 
L 258.607314 168.268018 
L 258.161956 166.453202 
L 259.302831 165.063202 
L 259.708271 163.43703 
L 259.335689 162.17952 
L 259.525746 160.345945 
L 259.963822 158.362127 
L 259.452639 156.470053 
L 259.822796 154.590538 
L 260.712648 152.919277 
L 262.872207 151.927183 
L 264.117757 151.132602 
L 260.990603 150.231121 
L 259.64408 148.867119 
L 259.774567 146.69852 
L 258.435377 143.124531 
L 258.660485 141.132962 
L 257.749258 139.827937 
L 256.777263 138.856475 
L 255.077277 138.055411 
L 253.908544 136.632312 
L 252.401412 135.040303 
L 250.437554 134.136424 
L 248.609809 133.969082 
L 246.614961 133.501225 
L 245.491108 131.912603 
L 244.529689 130.344176 
L 243.837975 128.4728 
L 243.092892 127.548608 
L 240.603168 127.333833 
L 238.869889 127.409113 
L 237.222037 126.832994 
L 235.520716 126.440311 
L 233.658947 126.492592 
L 231.599677 126.280261 
L 230.201704 124.879818 
L 230.012115 123.044699 
L 230.972264 121.380235 
L 233.082738 121.341202 
L 235.043192 121.463578 
L 236.871937 121.004684 
L 236.100897 119.302915 
L 237.743345 118.385535 
L 239.886678 118.978838 
L 241.612915 120.111123 
L 244.837075 119.212497 
L 248.863799 116.058984 
L 248.165379 114.295826 
L 247.788692 112.435561 
L 247.295633 108.631468 
L 247.422369 106.558187 
L 244.962708 105.926318 
L 243.448738 104.989067 
L 242.835595 103.255362 
L 243.197868 101.26032 
L 243.6733 99.50846 
L 242.958804 97.228454 
L 243.424174 95.544429 
L 243.796451 93.236938 
L 245.368573 91.989027 
L 245.52763 89.919609 
L 244.815034 88.061478 
L 243.991123 86.413518 
L 242.581814 85.084731 
L 240.769274 83.875264 
L 239.023625 83.102008 
L 236.966671 82.563346 
L 235.449972 83.293364 
L 233.571098 82.74045 
L 232.438767 81.276111 
L 228.255349 80.985313 
L 227.424983 79.290071 
L 223.776209 78.570829 
L 222.017162 78.25933 
L 218.023739 76.672172 
L 215.56108 76.591054 
L 213.780982 76.165819 
L 211.991783 77.328253 
L 209.900943 77.062207 
L 209.621897 75.304089 
L 209.64194 73.215715 
L 207.927295 72.400401 
L 207.316065 70.593098 
L 207.687253 68.822208 
L 206.522629 67.131742 
L 204.785591 67.860014 
L 202.545134 69.493521 
L 200.709093 69.867165 
L 198.944144 69.331095 
L 197.109126 69.220846 
L 195.145042 69.604711 
L 193.292912 69.231271 
L 191.489092 69.02551 
L 188.027895 67.443088 
L 186.143761 66.799013 
L 184.121068 66.849819 
L 183.644672 65.141284 
L 183.483826 63.372373 
L 181.847519 62.448056 
L 180.217278 61.267639 
L 178.506129 60.589221 
L 176.504081 60.148766 
L 174.557843 60.15452 
L 172.728131 61.483384 
L 172.536758 59.600016 
L 170.404768 58.777947 
L 168.406533 59.657122 
L 167.267819 61.320631 
L 165.226546 61.862887 
L 163.763972 57.619359 
L 161.896678 57.983411 
L 160.795274 56.604416 
L 159.541111 58.130578 
L 157.967047 58.978745 
L 156.022457 59.5345 
L 154.239168 60.514788 
L 150.467965 61.628997 
L 148.790792 62.432412 
L 147.020475 64.01864 
L 146.311782 62.052704 
L 144.455741 61.811119 
L 142.442618 62.459933 
L 140.414748 63.436924 
L 138.475061 63.321816 
L 137.88698 61.590083 
L 136.072142 61.320304 
L 135.478426 63.283169 
L 135.646013 65.060792 
L 133.740081 65.139219 
L 132.71819 63.682855 
L 130.762015 63.731641 
L 129.857388 65.239282 
L 129.539314 67.604535 
L 128.744258 69.698834 
L 127.574886 71.515061 
L 125.024388 74.318151 
L 124.506773 76.0419 
L 124.585628 78.098005 
L 126.316737 78.791349 
L 126.441026 80.735949 
L 125.631685 82.461901 
L 125.004421 84.3559 
L 121.863366 89.523794 
L 120.821207 90.976403 
L 119.455624 92.293927 
L 117.849087 93.244697 
L 116.153203 95.27251 
L 115.146283 96.796221 
L 115.18949 98.984346 
L 114.380038 102.852041 
L 113.50181 104.808237 
L 112.926459 106.617937 
L 113.168586 107.755377 
L 115.219947 110.826501 
L 116.509737 112.17505 
L 117.999517 111.144992 
L 119.192546 109.45614 
L 120.661305 108.359363 
L 121.577356 109.966298 
L 122.775891 111.304087 
L 124.157749 112.547283 
L 123.650325 114.288724 
L 121.537347 117.469038 
L 120.386993 120.984499 
L 118.967231 122.282092 
L 119.161889 124.070336 
L 120.27771 125.972988 
L 118.434664 126.110534 
L 116.713159 126.908461 
L 115.587436 128.329595 
L 115.840579 130.185029 
L 115.980257 132.100567 
L 117.221165 135.654781 
L 118.317042 137.230227 
L 116.568215 136.509332 
L 114.218175 135.849498 
L 112.139266 136.141805 
L 110.273862 136.536578 
L 108.258931 137.574665 
L 106.801842 138.998191 
L 104.834901 139.761308 
L 102.978683 140.32979 
L 101.222474 141.339316 
L 99.985148 142.855127 
L 97.918597 143.482831 
L 96.072097 143.24768 
L 94.218592 143.959301 
L 90.343449 143.035409 
L 89.440269 141.321635 
L 90.352292 139.712282 
L 89.17812 138.167831 
L 87.318229 138.333777 
L 85.69102 139.166234 
L 84.438198 140.620187 
L 82.477718 140.538647 
L 82.937808 138.637124 
L 83.05154 136.752742 
L 83.834097 134.841509 
L 84.248894 133.004305 
L 82.669473 131.423552 
L 81.869871 127.687498 
L 81.827101 125.858191 
L 80.981315 123.354642 
L 79.863889 121.933225 
L 78.591534 120.630527 
L 78.82467 118.726904 
L 77.780342 117.249444 
L 76.402484 115.611038 
L 74.263093 114.186912 
L 72.383289 113.669491 
L 70.672451 112.858235 
L 68.883678 112.393949 
L 64.900291 110.475781 
L 63.105235 110.059551 
L 61.33235 110.01397 
L 57.705872 109.120749 
L 55.722542 108.929798 
L 53.783343 109.505978 
L 52.134295 110.382557 
L 50.384366 110.647562 
L 48.353368 110.450092 
L 46.891286 109.457398 
L 45.577295 107.507366 
L 43.848931 104.169253 
L 44.378049 102.311608 
L 44.056485 100.574042 
L 42.24608 100.715377 
L 40.667404 100.035619 
L 39.203703 98.949963 
L 38.500426 97.39618 
L 38.008897 93.636952 
L 38.518999 91.848557 
L 39.963787 90.807166 
L 39.614002 89.490019 
L 39.614002 89.490019 
" clip-path="url(#p2b6aedc294)" style="fill: none; stroke: #000000; stroke-linejoin: miter"/>
   </g>
   <g id="patch_10">
    <path d="M 199.52197 185.338594 
L 198.096163 179.98425 
L 196.651422 174.620667 
L 195.188287 169.249846 
L 193.707304 163.873794 
L 192.209026 158.494517 
L 190.694012 153.114024 
L 189.162829 147.734323 
L 187.616047 142.357424 
L 186.054244 136.985333 
L 184.478004 131.620057 
L 182.887915 126.263598 
L 181.28457 120.917957 
L 179.668568 115.585128 
L 178.040513 110.267105 
L 176.401012 104.965871 
L 174.750678 99.683406 
L 173.090126 94.421682 
L 171.419977 89.182664 
L 169.740854 83.968308 
L 168.053384 78.780561 
L 166.358197 73.621359 
L 164.655926 68.492629 
L 163.802332 65.94029 
L 162.947207 63.396286 
L 162.090628 60.860854 
L 161.232677 58.334232 
L 160.373433 55.816655 
L 159.512977 53.308357 
L 158.651388 50.809574 
L 157.788748 48.320538 
L 156.925137 45.841482 
L 156.060635 43.372637 
L 155.195323 40.914234 
L 154.329283 38.466502 
L 153.462594 36.029669 
L 152.595338 33.603964 
L 151.727595 31.189611 
L 150.859447 28.786838 
L 149.990974 26.395867 
L 149.122259 24.016923 
L 148.253381 21.650227 
L 147.384422 19.296 
L 146.289023 22.735784 
L 145.193837 26.201267 
L 144.099075 29.691777 
L 143.004951 33.206635 
L 141.911676 36.745161 
L 140.819463 40.306669 
L 139.728522 43.890467 
L 138.639067 47.49586 
L 137.551308 51.12215 
L 136.465456 54.768633 
L 135.381722 58.434601 
L 134.300315 62.119344 
L 133.221446 65.822148 
L 132.145325 69.542293 
L 131.072158 73.279058 
L 130.002156 77.031719 
L 128.935525 80.799548 
L 127.872471 84.581814 
L 126.813203 88.377783 
L 125.757924 92.18672 
L 124.706839 96.007885 
L 123.660153 99.840537 
L 122.618068 103.683934 
L 121.580786 107.537329 
L 120.548509 111.399976 
L 119.521437 115.271124 
L 118.499768 119.150024 
L 117.483702 123.035923 
L 115.469163 130.825702 
L 113.479383 138.634419 
L 111.515905 146.456014 
L 109.580252 154.284422 
L 107.673926 162.113569 
L 105.798406 169.937381 
L 104.872653 173.845389 
L 103.955146 177.749789 
L 103.046062 181.649822 
L 102.145577 185.544733 
L 101.253866 189.433765 
L 100.371102 193.316165 
L 99.497456 197.191179 
L 98.633098 201.058057 
L 97.778195 204.916047 
L 96.932913 208.764403 
L 96.097417 212.602377 
L 95.271867 216.429225 
L 94.456424 220.244204 
L 93.651247 224.046576 
L 92.856491 227.835602 
L 92.072311 231.610548 
L 91.298858 235.370681 
L 90.536284 239.115272 
L 89.784734 242.843595 
L 89.044357 246.554927 
L 88.315294 250.248549 
L 87.597687 253.923742 
L 86.891677 257.579796 
L 86.197398 261.216 
L 89.660329 259.12973 
L 93.136305 257.019981 
L 96.624541 254.887229 
L 100.124248 252.731957 
L 103.634636 250.554652 
L 107.154911 248.355805 
L 110.684278 246.135914 
L 114.221939 243.89548 
L 117.767094 241.63501 
L 121.318943 239.355014 
L 124.876682 237.056008 
L 128.439508 234.738511 
L 132.006616 232.403047 
L 135.577198 230.050145 
L 139.15045 227.680334 
L 142.725562 225.294152 
L 146.301726 222.892138 
L 149.878136 220.474833 
L 153.453982 218.042785 
L 157.028456 215.596544 
L 160.600751 213.136661 
L 164.170059 210.663694 
L 167.735574 208.1782 
L 171.296489 205.680742 
L 174.852 203.171884 
L 178.401304 200.652192 
L 181.943598 198.122237 
L 185.478082 195.582591 
L 189.003957 193.033826 
L 192.520426 190.476519 
L 196.026694 187.911249 
L 199.52197 185.338594 
" clip-path="url(#p2b6aedc294)" style="fill: #1f77b4; fill-opacity: 0.3; stroke: #1f77b4; stroke-linejoin: miter"/>
   </g>
   <g id="patch_11">
    <path d="M 84.477058 259.947677 
L 82.782334 258.651556 
L 81.113676 257.328145 
L 79.471518 255.977958 
L 77.856288 254.601518 
L 76.268402 253.199354 
L 74.708267 251.771999 
L 73.176278 250.319996 
L 71.672822 248.843892 
L 70.198274 247.344241 
L 68.752996 245.821602 
L 67.337345 244.276541 
L 65.951661 242.709626 
L 64.596278 241.121433 
L 63.271516 239.512544 
L 61.977685 237.883542 
L 60.715085 236.235018 
L 59.484002 234.567565 
L 58.284714 232.881781 
L 57.117485 231.178268 
L 55.982571 229.457632 
L 54.880212 227.720481 
L 53.810641 225.967428 
L 52.774077 224.199088 
L 51.770728 222.416079 
L 50.800791 220.619022 
L 49.864452 218.80854 
L 48.961883 216.985259 
L 48.093246 215.149805 
L 47.258693 213.302808 
L 46.458361 211.444899 
L 45.692379 209.576709 
L 44.96086 207.698871 
L 44.26391 205.812019 
L 43.60162 203.916789 
L 42.97407 202.013814 
L 42.381331 200.103731 
L 41.823459 198.187175 
L 41.300499 196.264781 
L 40.812487 194.337184 
L 40.359445 192.405019 
L 39.941384 190.468918 
L 39.558303 188.529515 
L 39.210192 186.587441 
L 38.897027 184.643326 
L 38.618773 182.697797 
L 38.375386 180.751482 
L 38.166807 178.805005 
L 37.992969 176.858989 
L 37.853793 174.914052 
L 37.749188 172.970813 
L 37.679053 171.029885 
L 37.643276 169.091881 
L 37.641734 167.157407 
L 37.674293 165.22707 
L 37.740808 163.30147 
L 37.841125 161.381204 
L 37.975078 159.466865 
L 38.14249 157.559045 
L 38.343177 155.658326 
L 38.57694 153.765289 
L 38.843573 151.880511 
L 39.14286 150.004562 
L 39.474574 148.138008 
L 39.838478 146.281409 
L 40.234327 144.43532 
L 40.661864 142.600292 
L 41.120825 140.776868 
L 41.610935 138.965587 
L 42.13191 137.166979 
L 42.683457 135.381572 
L 43.265276 133.609883 
L 43.877055 131.852427 
L 44.518475 130.10971 
L 45.189208 128.382231 
L 45.888918 126.670482 
L 46.61726 124.974949 
L 47.373883 123.296111 
L 48.158425 121.634437 
L 48.970518 119.990391 
L 49.809786 118.36443 
L 50.675845 116.757 
L 51.568305 115.168542 
L 52.486768 113.599489 
L 53.430827 112.050263 
L 54.400072 110.521281 
L 55.394084 109.012951 
L 56.412436 107.52567 
L 57.454698 106.059829 
L 58.520432 104.615811 
L 59.609193 103.193988 
L 60.720532 101.794724 
L 61.853993 100.418375 
L 63.009116 99.065286 
L 64.185433 97.735795 
L 65.382474 96.430229 
L 66.599762 95.148908 
L 67.836815 93.89214 
L 69.093147 92.660225 
L 70.368269 91.453453 
L 71.661684 90.272106 
L 72.972896 89.116455 
L 74.3014 87.98676 
L 75.646691 86.883275 
L 77.008258 85.80624 
L 78.385589 84.755889 
L 79.778167 83.732443 
L 81.185472 82.736116 
L 82.606983 81.767109 
L 84.042175 80.825615 
L 85.49052 79.911817 
L 86.95149 79.025888 
L 88.424553 78.167989 
L 89.909175 77.338275 
L 91.404823 76.536886 
L 92.910959 75.763955 
L 94.427047 75.019606 
L 95.952548 74.303948 
L 97.486921 73.617086 
L 99.029628 72.959111 
L 100.580127 72.330104 
L 102.137877 71.730138 
L 103.702337 71.159274 
L 105.272967 70.617564 
L 106.849224 70.10505 
L 108.430569 69.621764 
L 110.016462 69.167727 
L 111.606364 68.742951 
L 113.199737 68.347438 
L 114.796043 67.98118 
L 116.394748 67.64416 
L 117.995317 67.336349 
L 119.597217 67.057711 
L 121.199919 66.808198 
L 122.802893 66.587754 
L 124.405614 66.396313 
L 126.007558 66.233799 
L 127.608202 66.100126 
L 129.20703 65.995201 
L 130.803524 65.91892 
L 132.397172 65.871169 
L 133.987466 65.851826 
L 135.573899 65.86076 
L 137.155968 65.897831 
L 138.733175 65.962888 
L 140.305025 66.055776 
L 141.871028 66.176325 
L 143.430696 66.324361 
L 144.983548 66.499701 
L 146.529105 66.70215 
L 148.066895 66.931509 
L 149.596449 67.187569 
L 151.117303 67.470111 
L 152.629 67.778912 
L 154.131087 68.113737 
L 155.623115 68.474345 
L 157.104642 68.860489 
L 158.575231 69.271911 
L 160.034452 69.708348 
L 161.48188 70.169528 
L 162.917095 70.655173 
L 164.339685 71.164999 
L 165.749242 71.698712 
L 167.145367 72.256013 
L 168.527665 72.836596 
L 169.89575 73.44015 
L 171.24924 74.066354 
L 172.587762 74.714884 
L 173.910949 75.385409 
L 175.218441 76.07759 
L 176.509885 76.791086 
L 177.784936 77.525547 
L 179.043255 78.280618 
L 180.284511 79.05594 
L 181.508381 79.851148 
L 182.714549 80.66587 
L 183.902706 81.499733 
L 185.072552 82.352356 
L 186.223794 83.223353 
L 187.356148 84.112337 
L 188.469335 85.018913 
L 189.563087 85.942684 
L 190.637143 86.883247 
L 191.691249 87.840198 
L 192.725162 88.813126 
L 193.738644 89.801619 
L 194.731467 90.80526 
L 195.703412 91.82363 
L 196.654265 92.856306 
L 197.583825 93.902863 
L 198.491895 94.962873 
L 199.378291 96.035904 
L 200.242833 97.121523 
L 201.085352 98.219295 
L 201.905688 99.328783 
L 202.703689 100.449546 
L 203.479209 101.581144 
L 204.232115 102.723134 
L 204.962279 103.875071 
L 205.669585 105.036511 
L 206.353921 106.207006 
L 207.015188 107.386109 
L 207.653294 108.573372 
L 208.268155 109.768345 
L 208.859697 110.970581 
L 209.427852 112.179629 
L 209.972563 113.395039 
L 210.493782 114.616363 
L 210.991467 115.84315 
L 211.465587 117.074952 
L 211.916117 118.311321 
L 212.343044 119.551808 
L 212.746359 120.795967 
L 213.126065 122.043352 
L 213.482173 123.293518 
L 213.814699 124.546022 
L 214.123672 125.800423 
L 214.409125 127.05628 
L 214.671103 128.313155 
L 214.909655 129.570611 
L 215.124843 130.828214 
L 215.316732 132.085532 
L 215.485398 133.342135 
L 215.630925 134.597597 
L 215.753403 135.851492 
L 215.852932 137.103399 
L 215.929617 138.352899 
L 215.983572 139.599578 
L 216.01492 140.843021 
L 216.023789 142.082822 
L 216.010316 143.318573 
L 215.974644 144.549875 
L 215.916925 145.776327 
L 215.837317 146.997537 
L 215.735984 148.213114 
L 215.613099 149.422673 
L 215.46884 150.625832 
L 215.303394 151.822213 
L 215.116952 153.011445 
L 214.909714 154.193159 
L 214.681884 155.366992 
L 214.433674 156.532586 
L 214.165303 157.689586 
L 213.876993 158.837646 
L 213.568975 159.976422 
L 213.241486 161.105575 
L 212.894765 162.224774 
L 212.529062 163.333693 
L 212.144628 164.432008 
L 211.741722 165.519406 
L 211.320607 166.595575 
L 210.881553 167.660213 
L 210.424833 168.71302 
L 209.950725 169.753706 
L 209.459514 170.781985 
L 208.951487 171.797576 
L 208.426937 172.800206 
L 207.886162 173.789609 
L 207.329463 174.765523 
L 206.757145 175.727695 
L 206.169519 176.675877 
L 205.566896 177.609828 
L 204.949596 178.529315 
L 204.317939 179.434108 
L 203.672248 180.323988 
L 203.012852 181.198741 
L 202.340081 182.05816 
L 201.654269 182.902044 
L 200.955753 183.730201 
L 200.244873 184.542444 
L 199.52197 185.338594 
L 200.597818 184.753541 
L 201.668497 184.140179 
L 202.733345 183.498521 
L 203.791697 182.828592 
L 204.842892 182.130432 
L 205.886264 181.404097 
L 206.92115 180.649656 
L 207.946885 179.867193 
L 208.962806 179.056809 
L 209.968251 178.218616 
L 210.962557 177.352742 
L 211.945064 176.459332 
L 212.915115 175.538543 
L 213.872053 174.590547 
L 214.815223 173.615531 
L 215.743974 172.613698 
L 216.657659 171.585262 
L 217.555632 170.530455 
L 218.437253 169.449523 
L 219.301882 168.342724 
L 220.148888 167.210332 
L 220.977642 166.052636 
L 221.787519 164.869937 
L 222.577902 163.662553 
L 223.348177 162.430813 
L 224.097737 161.175062 
L 224.82598 159.895658 
L 225.532311 158.592973 
L 226.216143 157.267392 
L 226.876893 155.919314 
L 227.513988 154.549151 
L 228.126861 153.157328 
L 228.714953 151.744284 
L 229.277713 150.31047 
L 229.8146 148.85635 
L 230.32508 147.3824 
L 230.808627 145.88911 
L 231.264727 144.376982 
L 231.692873 142.846528 
L 232.092569 141.298273 
L 232.463328 139.732756 
L 232.804676 138.150523 
L 233.116146 136.552136 
L 233.397283 134.938166 
L 233.647644 133.309193 
L 233.866796 131.665811 
L 234.054319 130.008623 
L 234.209803 128.338242 
L 234.33285 126.655291 
L 234.423076 124.960404 
L 234.480108 123.254224 
L 234.503586 121.537402 
L 234.493163 119.8106 
L 234.448504 118.074487 
L 234.369288 116.329742 
L 234.255208 114.577052 
L 234.10597 112.817112 
L 233.921294 111.050623 
L 233.700913 109.278297 
L 233.444576 107.50085 
L 233.152046 105.719006 
L 232.823098 103.933496 
L 232.457525 102.145058 
L 232.055133 100.354435 
L 231.615743 98.562375 
L 231.139192 96.769632 
L 230.625331 94.976968 
L 230.074027 93.185145 
L 229.784297 92.289789 
L 229.485164 91.394933 
L 229.176614 90.500673 
L 228.858638 89.607105 
L 228.531224 88.714328 
L 228.194364 87.822439 
L 227.848049 86.931535 
L 227.492271 86.041714 
L 227.127026 85.153075 
L 226.752306 84.265715 
L 226.368108 83.379734 
L 225.974429 82.495229 
L 225.571266 81.6123 
L 225.158618 80.731046 
L 224.736485 79.851565 
L 224.304867 78.973957 
L 223.863767 78.098321 
L 223.413186 77.224756 
L 222.95313 76.353363 
L 222.483602 75.484239 
L 222.004609 74.617487 
L 221.516157 73.753203 
L 221.018255 72.89149 
L 220.51091 72.032446 
L 219.994134 71.176172 
L 219.467938 70.322766 
L 218.932332 69.47233 
L 218.387331 68.624962 
L 217.832948 67.780763 
L 217.269199 66.939833 
L 216.6961 66.102271 
L 216.113668 65.268178 
L 215.52192 64.437652 
L 214.920878 63.610793 
L 214.31056 62.787702 
L 213.690988 61.968477 
L 213.062185 61.153218 
L 212.424174 60.342025 
L 211.776979 59.534995 
L 211.120626 58.73223 
L 210.455142 57.933826 
L 209.780554 57.139884 
L 209.09689 56.350501 
L 208.404181 55.565776 
L 207.702457 54.785807 
L 206.991749 54.010693 
L 206.272091 53.240531 
L 205.543516 52.475419 
L 204.80606 51.715454 
L 204.059757 50.960734 
L 203.304645 50.211354 
L 202.540761 49.467413 
L 201.768145 48.729006 
L 200.986836 47.99623 
L 200.196876 47.26918 
L 199.398306 46.547953 
L 198.59117 45.832642 
L 197.775511 45.123343 
L 196.951374 44.420152 
L 196.118805 43.723161 
L 195.277851 43.032465 
L 194.428561 42.348157 
L 193.570984 41.670331 
L 192.705168 40.99908 
L 191.831166 40.334495 
L 190.949029 39.676669 
L 190.058811 39.025694 
L 189.160565 38.38166 
L 188.254346 37.744658 
L 187.34021 37.114779 
L 186.418214 36.492112 
L 185.488416 35.876748 
L 184.550874 35.268774 
L 183.60565 34.668279 
L 182.652802 34.075351 
L 181.692394 33.490078 
L 180.724487 32.912546 
L 179.749145 32.342842 
L 178.766433 31.781051 
L 177.776416 31.227259 
L 176.77916 30.681552 
L 175.774734 30.144012 
L 174.763205 29.614723 
L 173.744642 29.09377 
L 172.719116 28.581233 
L 171.686697 28.077195 
L 170.647457 27.581737 
L 169.601469 27.09494 
L 168.548807 26.616884 
L 167.489546 26.147647 
L 166.42376 25.68731 
L 165.351526 25.235949 
L 164.272922 24.793642 
L 163.188024 24.360466 
L 162.096913 23.936497 
L 160.999668 23.521811 
L 159.896369 23.11648 
L 158.787098 22.720581 
L 157.671937 22.334185 
L 156.55097 21.957366 
L 155.42428 21.590194 
L 154.291951 21.232742 
L 153.15407 20.885078 
L 152.010722 20.547273 
L 150.861995 20.219396 
L 149.707977 19.901513 
L 148.548756 19.593692 
L 147.384422 19.296 
L 146.206368 19.345435 
L 145.029172 19.40508 
L 143.852921 19.474923 
L 142.677705 19.554952 
L 141.50361 19.645155 
L 140.330726 19.745519 
L 139.15914 19.856028 
L 137.98894 19.976669 
L 136.820214 20.107425 
L 135.653048 20.24828 
L 134.487531 20.399216 
L 133.323749 20.560217 
L 132.16179 20.731262 
L 131.001739 20.912332 
L 129.843684 21.103408 
L 128.687711 21.304468 
L 127.533905 21.515491 
L 126.382353 21.736453 
L 125.233141 21.967332 
L 124.086353 22.208104 
L 122.942076 22.458744 
L 121.800393 22.719227 
L 120.661389 22.989526 
L 119.52515 23.269615 
L 118.391758 23.559466 
L 117.261298 23.859051 
L 116.133854 24.16834 
L 115.009509 24.487304 
L 113.888345 24.815912 
L 112.770446 25.154134 
L 111.655894 25.501937 
L 110.544771 25.859289 
L 109.437159 26.226156 
L 108.333139 26.602504 
L 107.232793 26.988299 
L 106.136201 27.383505 
L 105.043443 27.788087 
L 103.954601 28.202006 
L 102.869753 28.625227 
L 101.78898 29.05771 
L 100.71236 29.499417 
L 99.639971 29.950308 
L 98.571893 30.410344 
L 97.508204 30.879482 
L 96.44898 31.357683 
L 95.394298 31.844903 
L 94.344237 32.3411 
L 93.298872 32.84623 
L 92.258279 33.36025 
L 91.222533 33.883113 
L 90.191711 34.414776 
L 89.165886 34.955192 
L 88.145132 35.504314 
L 87.129525 36.062095 
L 86.119136 36.628486 
L 85.11404 37.20344 
L 84.114308 37.786908 
L 83.120013 38.378838 
L 82.131226 38.979182 
L 81.148019 39.587887 
L 80.170462 40.204903 
L 79.198625 40.830177 
L 78.232578 41.463656 
L 77.27239 42.105287 
L 76.31813 42.755016 
L 75.369867 43.412788 
L 74.427667 44.078548 
L 73.491599 44.752241 
L 72.561728 45.43381 
L 71.638122 46.123198 
L 70.720845 46.820348 
L 69.809964 47.525203 
L 68.905542 48.237703 
L 68.007644 48.957789 
L 67.116333 49.685402 
L 66.231673 50.420483 
L 65.353725 51.162969 
L 64.482553 51.912801 
L 63.618216 52.669915 
L 62.760776 53.434252 
L 61.910294 54.205746 
L 61.066828 54.984336 
L 60.230438 55.769958 
L 59.401183 56.562547 
L 57.764307 58.168369 
L 56.156658 59.801279 
L 54.57868 61.460746 
L 53.030814 63.146232 
L 51.513485 64.857193 
L 50.027112 66.593075 
L 48.572102 68.353321 
L 47.148855 70.137365 
L 45.757756 71.944634 
L 44.399184 73.774551 
L 43.073506 75.626531 
L 41.781078 77.499983 
L 40.522245 79.394311 
L 39.297344 81.308914 
L 38.106699 83.243185 
L 36.950623 85.196512 
L 35.829419 87.168278 
L 34.743379 89.15786 
L 33.692784 91.164633 
L 32.677902 93.187965 
L 31.698992 95.227222 
L 30.756302 97.281765 
L 29.850066 99.35095 
L 28.98051 101.434133 
L 28.147845 103.530663 
L 27.352274 105.639887 
L 26.593986 107.761149 
L 25.873159 109.893791 
L 25.18996 112.037152 
L 24.544543 114.190569 
L 23.937052 116.353375 
L 23.367619 118.524903 
L 22.836362 120.704484 
L 22.343391 122.891447 
L 21.888801 125.085121 
L 21.472677 127.28483 
L 21.095091 129.489903 
L 20.756104 131.699663 
L 20.455765 133.913435 
L 20.194111 136.130544 
L 19.971168 138.350314 
L 19.786949 140.572069 
L 19.641457 142.795134 
L 19.53468 145.018834 
L 19.466597 147.242496 
L 19.437175 149.465446 
L 19.446369 151.687012 
L 19.494121 153.906524 
L 19.580363 156.123313 
L 19.705016 158.336711 
L 19.867987 160.546054 
L 20.069174 162.750677 
L 20.308461 164.949921 
L 20.585723 167.143128 
L 20.900822 169.329641 
L 21.253609 171.508808 
L 21.643925 173.679981 
L 22.071598 175.842512 
L 22.536447 177.995759 
L 23.038276 180.139085 
L 23.576884 182.271853 
L 24.152053 184.393433 
L 24.763559 186.503199 
L 25.411164 188.600528 
L 26.094621 190.684804 
L 26.813673 192.755413 
L 27.56805 194.811749 
L 28.357474 196.853209 
L 29.181657 198.879197 
L 30.040298 200.88912 
L 30.933089 202.882393 
L 31.859711 204.858437 
L 32.819834 206.816677 
L 33.81312 208.756547 
L 34.83922 210.677486 
L 35.897778 212.578938 
L 36.988425 214.460356 
L 38.110785 216.321199 
L 39.264473 218.160934 
L 40.449094 219.979033 
L 41.664245 221.774977 
L 42.909515 223.548254 
L 44.184481 225.29836 
L 45.488716 227.024799 
L 46.821782 228.727082 
L 48.183234 230.404728 
L 49.572618 232.057265 
L 50.989473 233.684229 
L 52.43333 235.285164 
L 53.903713 236.859623 
L 55.400137 238.407169 
L 56.922111 239.92737 
L 58.469138 241.419808 
L 60.040713 242.88407 
L 61.636322 244.319754 
L 63.255449 245.726467 
L 64.897568 247.103824 
L 66.562149 248.451453 
L 68.248654 249.768988 
L 69.95654 251.056074 
L 71.685258 252.312367 
L 73.434256 253.53753 
L 75.202972 254.731238 
L 76.990842 255.893177 
L 78.797296 257.023041 
L 80.621761 258.120534 
L 82.463656 259.185373 
L 84.322397 260.217283 
L 86.197398 261.216 
L 84.477058 259.947677 
" clip-path="url(#p2b6aedc294)" style="fill: #2ca02c; fill-opacity: 0.3; stroke: #2ca02c; stroke-linejoin: miter"/>
   </g>
  </g>
 </g>
 <defs>
  <clipPath id="p2b6aedc294">
   <rect x="7.2" y="7.2" width="269.217849" height="266.112"/>
  </clipPath>
 </defs>
</svg>
