<svg width="64" height="64" viewBox="0 0 64 64" fill="none" xmlns="http://www.w3.org/2000/svg">
<path d="M1.68715 18.9494L0.856256 17.4865L0 17.9692V18.9494H1.68715ZM1.68382 56.5285L13.8467 63.5427L15.5371 60.6334L3.37429 53.6192L1.68382 56.5285ZM32.7648 34.9294L18.0695 26.4548L16.3791 29.3641L31.0743 37.8387L32.7648 34.9294ZM18.0695 26.4548L2.53239 17.4947L0.841909 20.404L16.3791 29.3641L18.0695 26.4548ZM18.9114 60.6334V27.9094H15.5371V60.6334L18.9114 60.6334ZM60.6257 18.966L48.3968 25.9724L50.079 28.8865L62.3079 21.88L60.6257 18.966ZM31.1024 0.435924L16.3934 8.72779L18.0552 11.6534L32.7641 3.36157L31.1024 0.435924ZM16.3934 8.72779L0.856256 17.4865L2.51804 20.4122L18.0552 11.6534L16.3934 8.72779ZM48.3968 25.9724L18.0603 8.7307L16.3883 11.6505L46.7247 28.8923L48.3968 25.9724ZM62.2793 16.0357L49.2269 8.72548L47.5733 11.6557L60.6257 18.966L62.2793 16.0357ZM49.2269 8.72548L34.4177 0.431323L32.7641 3.36157L47.5733 11.6557L49.2269 8.72548ZM18.0603 29.3694L49.2362 11.6505L47.5641 8.7307L16.3883 26.4495L18.0603 29.3694ZM34.4486 51.774V37.8386L31.0743 37.8387V51.774H34.4486ZM0 18.9494V36.7689H3.37429V18.9494H0ZM0 36.7689V53.6192H3.37429V36.7689H0ZM31.0743 51.774L2.53239 35.3142L0.841909 38.2235L29.3838 54.6833L31.0743 51.774ZM31.0743 51.774L29.3838 54.6833C31.6333 55.9806 34.4486 54.3634 34.4486 51.774H31.0743ZM48.3968 25.9724L46.7247 28.8923C47.7646 29.4833 49.0411 29.4811 50.079 28.8865L48.3968 25.9724ZM13.8467 63.5427C16.0962 64.84 18.9114 63.2228 18.9114 60.6334L15.5371 60.6334L13.8467 63.5427ZM31.0743 37.8387L34.4486 37.8386C34.4486 36.639 33.8069 35.5303 32.7648 34.9294L31.0743 37.8387ZM32.7641 3.36157L34.4177 0.431323C33.388 -0.145404 32.1305 -0.143669 31.1024 0.435924L32.7641 3.36157ZM62.3079 21.88C64.5767 20.5801 64.5607 17.3135 62.2793 16.0357L60.6257 18.966L62.3079 21.88ZM3.37429 53.6192H0C0 54.8188 0.641684 55.9275 1.68382 56.5285L3.37429 53.6192Z" fill="#E5FF44"/>
</svg>
