<svg width="244" height="72" viewBox="0 0 244 72" fill="none" xmlns="http://www.w3.org/2000/svg">
<path fill-rule="evenodd" clip-rule="evenodd" d="M32.2492 4.0059C33.2715 3.42741 34.5219 3.42567 35.5459 4.00131L33.9016 6.92606L21.8454 13.7482L33.9494 20.6536L46.0451 13.753L33.9016 6.92606L35.5459 4.00131L63.2503 19.5764C65.5189 20.8518 65.5348 24.1123 63.2788 25.4097L51.1188 32.4031C50.0868 32.9966 48.8175 32.9988 47.7834 32.4088L33.9494 24.5165L21.8164 31.4385L33.9022 38.4346C34.9385 39.0345 35.5765 40.1411 35.5765 41.3384V55.2476C35.5765 57.8322 32.7772 59.4463 30.5403 58.1515L20.127 52.1235V64.0904C20.127 66.675 17.3277 68.2891 15.0908 66.9942L2.99659 59.9932C1.96033 59.3934 1.32227 58.2868 1.32227 57.0894V21.5063L32.2492 4.0059ZM20.127 48.2466L32.2213 55.2476V41.3384L20.127 34.3374V48.2466ZM16.7718 32.3952V46.3044L4.67753 39.3033V25.3942L16.7718 32.3952ZM6.37713 22.5011L18.4555 29.4929L30.5639 22.5851L18.446 15.6718L6.37713 22.5011ZM4.67753 43.1802L16.7718 50.1812V64.0904L4.67753 57.0894V43.1802ZM37.3349 22.5851L49.446 29.4945L61.606 22.5012L49.4555 15.6703L37.3349 22.5851Z" fill="black"/>
<path d="M78 57.3803V14H106.386V19.8873H84.657V57.3803H78ZM83.0242 39.2845V33.3972H104.816V39.2845H83.0242Z" fill="black"/>
<path d="M122.303 58C119.958 58 117.844 57.4836 115.96 56.4507C114.118 55.3765 112.673 53.8479 111.627 51.8648C110.58 49.8404 110.056 47.5061 110.056 44.862V24.969H116.085V44.4901C116.085 46.184 116.379 47.63 116.965 48.8282C117.593 50.0263 118.472 50.9559 119.602 51.6169C120.733 52.2366 122.052 52.5465 123.559 52.5465C125.066 52.5465 126.406 52.1953 127.578 51.493C128.792 50.7493 129.734 49.7577 130.404 48.5183C131.116 47.2789 131.472 45.9362 131.472 44.4901V24.969H137.564V57.3803H132.54L131.786 53.2282H131.472C130.425 54.8808 129.085 56.0995 127.453 56.8845C125.862 57.6282 124.145 58 122.303 58Z" fill="black"/>
<path d="M156.925 58C154.538 58 152.403 57.6075 150.519 56.8225C148.677 56.0376 147.17 54.9221 145.997 53.4761C144.825 52.03 144.03 50.3362 143.611 48.3944H150.079C150.456 49.7164 151.252 50.77 152.466 51.5549C153.722 52.2986 155.208 52.6704 156.925 52.6704C159.269 52.6704 161.028 52.2779 162.2 51.493C163.414 50.708 164.021 49.6751 164.021 48.3944C164.021 47.4441 163.687 46.6798 163.017 46.1014C162.389 45.523 161.572 45.0892 160.567 44.8C159.604 44.4695 158.286 44.1183 156.611 43.7465C154.099 43.2094 152.047 42.6516 150.456 42.0732C148.865 41.4535 147.505 40.4826 146.374 39.1606C145.244 37.7972 144.678 35.9587 144.678 33.6451C144.678 31.9512 145.16 30.4019 146.123 28.9972C147.086 27.5512 148.488 26.415 150.331 25.5887C152.215 24.7624 154.413 24.3493 156.925 24.3493C159.102 24.3493 161.07 24.6798 162.828 25.3408C164.629 26.0019 166.115 26.9934 167.287 28.3155C168.459 29.6376 169.255 31.2282 169.674 33.0873H163.205C162.786 32.0545 162.054 31.2282 161.007 30.6085C160.002 29.9887 158.641 29.6789 156.925 29.6789C154.915 29.6789 153.387 30.03 152.34 30.7324C151.336 31.4347 150.833 32.4056 150.833 33.6451C150.833 34.6366 151.168 35.4423 151.838 36.062C152.508 36.6404 153.324 37.1155 154.287 37.4873C155.292 37.8178 156.674 38.1897 158.432 38.6028C160.902 39.1399 162.912 39.6977 164.461 40.2761C166.052 40.8545 167.392 41.8047 168.48 43.1268C169.611 44.4075 170.176 46.1634 170.176 48.3944C170.176 50.2122 169.632 51.8648 168.543 53.3521C167.497 54.7981 165.968 55.9343 163.959 56.7606C161.949 57.5869 159.604 58 156.925 58Z" fill="black"/>
<path d="M190.233 58C187.135 58 184.414 57.339 182.069 56.0169C179.766 54.6948 177.966 52.7944 176.668 50.3155C175.412 47.7953 174.784 44.738 174.784 41.1437C174.784 37.6319 175.412 34.616 176.668 32.0958C177.966 29.5343 179.766 27.6131 182.069 26.3324C184.372 25.0103 187.031 24.3493 190.045 24.3493C193.227 24.3493 195.948 25.093 198.209 26.5803C200.512 28.0263 202.25 29.9474 203.422 32.3437C204.594 34.7399 205.18 37.2601 205.18 39.9042C205.18 40.5239 205.138 41.123 205.055 41.7014C205.013 42.2798 204.95 42.7549 204.866 43.1268H178.866V38.169H199.214C199.005 36.6817 198.544 35.2977 197.832 34.0169C197.121 32.6948 196.095 31.6413 194.755 30.8563C193.457 30.0714 191.887 29.6789 190.045 29.6789C187.994 29.6789 186.277 30.1746 184.895 31.1662C183.514 32.1164 182.488 33.4178 181.818 35.0704C181.148 36.723 180.813 38.6441 180.813 40.8338C180.813 43.354 181.169 45.5023 181.881 47.2789C182.634 49.0554 183.723 50.3981 185.146 51.307C186.57 52.216 188.266 52.6704 190.233 52.6704C192.034 52.6704 193.541 52.3192 194.755 51.6169C195.969 50.8732 197.016 49.7991 197.895 48.3944H204.364C203.694 50.3775 202.71 52.092 201.412 53.538C200.114 54.9427 198.523 56.0376 196.639 56.8225C194.755 57.6075 192.62 58 190.233 58Z" fill="black"/>
<path d="M224.671 58C221.908 58 219.459 57.3596 217.324 56.0789C215.188 54.7568 213.514 52.8357 212.3 50.3155C211.085 47.754 210.478 44.6967 210.478 41.1437C210.478 37.5906 211.085 34.554 212.3 32.0338C213.514 29.5136 215.188 27.6131 217.324 26.3324C219.459 25.0103 221.908 24.3493 224.671 24.3493C226.932 24.3493 228.9 24.7624 230.575 25.5887C232.25 26.3737 233.61 27.4272 234.657 28.7493H234.971V14H241V57.3803H235.976L235.285 53.2282H234.971C233.841 54.7155 232.417 55.893 230.7 56.7606C228.984 57.5869 226.974 58 224.671 58ZM225.739 52.5465C227.539 52.5465 229.13 52.1333 230.512 51.307C231.894 50.4394 232.982 49.1587 233.778 47.4648C234.573 45.7296 234.971 43.6225 234.971 41.1437C234.971 38.7061 234.573 36.6404 233.778 34.9465C232.982 33.2113 231.894 31.9305 230.512 31.1042C229.13 30.2366 227.539 29.8028 225.739 29.8028C223.897 29.8028 222.285 30.2366 220.903 31.1042C219.522 31.9305 218.433 33.2113 217.638 34.9465C216.884 36.6404 216.507 38.7061 216.507 41.1437C216.507 44.8207 217.345 47.6507 219.019 49.6338C220.736 51.5756 222.976 52.5465 225.739 52.5465Z" fill="black"/>
</svg>
