<svg version="1.1" viewBox="0.0 0.0 960.0 540.0" fill="none" stroke="none" stroke-linecap="square" stroke-miterlimit="10" xmlns:xlink="http://www.w3.org/1999/xlink" xmlns="http://www.w3.org/2000/svg"><clipPath id="g13121eec92c_0_43.0"><path d="m0 0l960.0 0l0 540.0l-960.0 0l0 -540.0z" clip-rule="nonzero"/></clipPath><g clip-path="url(#g13121eec92c_0_43.0)"><path fill="#000000" d="m0 0l960.0 0l0 540.0l-960.0 0z" fill-rule="evenodd"/><path shape-rendering="crispEdges" fill="#073763" d="m296.02625 92.64567l133.28348 0l0 30.46457l-133.28348 0l0 -30.46457z" fill-rule="nonzero"/><path shape-rendering="crispEdges" fill="#274e13" d="m296.02625 123.11024l133.28348 0l0 26.908134l-133.28348 0l0 -26.908134z" fill-rule="nonzero"/><path shape-rendering="crispEdges" fill="#660000" d="m296.02625 150.01837l133.28348 0l0 26.908142l-133.28348 0l0 -26.908142z" fill-rule="nonzero"/><path shape-rendering="crispEdges" fill="#073763" d="m296.02625 176.92651l133.28348 0l0 30.46457l-133.28348 0l0 -30.46457z" fill-rule="nonzero"/><path shape-rendering="crispEdges" fill="#274e13" d="m296.02625 207.39108l133.28348 0l0 30.464554l-133.28348 0l0 -30.464554z" fill-rule="nonzero"/><path shape-rendering="crispEdges" fill="#660000" d="m296.02625 237.85564l133.28348 0l0 26.908157l-133.28348 0l0 -26.908157z" fill-rule="nonzero"/><path shape-rendering="crispEdges" fill="#073763" d="m296.02625 264.7638l133.28348 0l0 30.464539l-133.28348 0l0 -30.464539z" fill-rule="nonzero"/><path shape-rendering="crispEdges" fill="#274e13" d="m296.02625 295.22833l133.28348 0l0 26.908142l-133.28348 0l0 -26.908142z" fill-rule="nonzero"/><path shape-rendering="crispEdges" fill="#660000" d="m296.02625 322.13647l133.28348 0l0 26.908142l-133.28348 0l0 -26.908142z" fill-rule="nonzero"/><path shape-rendering="crispEdges" fill="#073763" d="m296.02625 349.04462l133.28348 0l0 26.908142l-133.28348 0l0 -26.908142z" fill-rule="nonzero"/><path shape-rendering="crispEdges" fill="#274e13" d="m296.02625 375.95276l133.28348 0l0 26.908142l-133.28348 0l0 -26.908142z" fill-rule="nonzero"/><path shape-rendering="crispEdges" fill="#660000" d="m296.02625 402.8609l133.28348 0l0 26.908142l-133.28348 0l0 -26.908142z" fill-rule="nonzero"/><path stroke="#9e9e9e" stroke-width="1.0" stroke-linecap="butt" d="m224.51443 92.14698l0 338.12076" fill-rule="nonzero"/><path stroke="#9e9e9e" stroke-width="1.0" stroke-linecap="butt" d="m296.02625 92.14698l0 338.12076" fill-rule="nonzero"/><path stroke="#9e9e9e" stroke-width="1.0" stroke-linecap="butt" d="m429.30972 92.14698l0 338.12076" fill-rule="nonzero"/><path stroke="#9e9e9e" stroke-width="1.0" stroke-linecap="butt" d="m224.01575 92.64567l205.79266 0" fill-rule="nonzero"/><path stroke="#9e9e9e" stroke-width="1.0" stroke-linecap="butt" d="m295.52756 123.11024l134.28085 0" fill-rule="nonzero"/><path stroke="#9e9e9e" stroke-width="1.0" stroke-linecap="butt" d="m295.52756 150.01837l134.28085 0" fill-rule="nonzero"/><path stroke="#9e9e9e" stroke-width="1.0" stroke-linecap="butt" d="m224.01575 176.92651l205.79266 0" fill-rule="nonzero"/><path stroke="#9e9e9e" stroke-width="1.0" stroke-linecap="butt" d="m295.52756 207.39108l134.28085 0" fill-rule="nonzero"/><path stroke="#9e9e9e" stroke-width="1.0" stroke-linecap="butt" d="m295.52756 237.85564l134.28085 0" fill-rule="nonzero"/><path stroke="#9e9e9e" stroke-width="1.0" stroke-linecap="butt" d="m224.01575 264.7638l205.79266 0" fill-rule="nonzero"/><path stroke="#9e9e9e" stroke-width="1.0" stroke-linecap="butt" d="m295.52756 295.22833l134.28085 0" fill-rule="nonzero"/><path stroke="#9e9e9e" stroke-width="1.0" stroke-linecap="butt" d="m295.52756 322.13647l134.28085 0" fill-rule="nonzero"/><path stroke="#9e9e9e" stroke-width="1.0" stroke-linecap="butt" d="m224.01575 349.04462l205.79266 0" fill-rule="nonzero"/><path stroke="#9e9e9e" stroke-width="1.0" stroke-linecap="butt" d="m295.52756 375.95276l134.28085 0" fill-rule="nonzero"/><path stroke="#9e9e9e" stroke-width="1.0" stroke-linecap="butt" d="m295.52756 402.8609l134.28085 0" fill-rule="nonzero"/><path stroke="#9e9e9e" stroke-width="1.0" stroke-linecap="butt" d="m224.01575 429.76904l205.79266 0" fill-rule="nonzero"/><path fill="#ffffff" d="m231.99881 135.86047l-1.25 0l0 2.765625l-1.5625 0l0 -7.578125l2.8125 0q1.34375 0 2.078125 0.609375q0.734375 0.59375 0.734375 1.6875q0 0.765625 -0.34375 1.296875q-0.328125 0.515625 -1.015625 0.8125l1.640625 3.09375l0 0.078125l-1.671875 0l-1.421875 -2.765625zm-1.25 -1.265625l1.265625 0q0.578125 0 0.90625 -0.296875q0.328125 -0.3125 0.328125 -0.828125q0 -0.546875 -0.3125 -0.84375q-0.296875 -0.3125 -0.9375 -0.3125l-1.25 0l0 2.28125zm4.910019 1.171875q0 -0.84375 0.3125 -1.5q0.328125 -0.65625 0.9375 -1.015625q0.609375 -0.359375 1.40625 -0.359375q1.140625 0 1.859375 0.703125q0.71875 0.6875 0.8125 1.890625l0 0.390625q0 1.28125 -0.71875 2.078125q-0.71875 0.78125 -1.9375 0.78125q-1.21875 0 -1.953125 -0.78125q-0.71875 -0.78125 -0.71875 -2.125l0 -0.0625zm1.5 0.109375q0 0.796875 0.296875 1.21875q0.3125 0.421875 0.875 0.421875q0.546875 0 0.84375 -0.421875q0.3125 -0.421875 0.3125 -1.328125q0 -0.796875 -0.3125 -1.21875q-0.296875 -0.4375 -0.859375 -0.4375q-0.546875 0 -0.859375 0.4375q-0.296875 0.421875 -0.296875 1.328125zm9.65036 0.703125l0.75 -3.578125l1.453125 0l-1.4375 5.625l-1.265625 0l-1.0625 -3.546875l-1.078125 3.546875l-1.25 0l-1.4375 -5.625l1.453125 0l0.734375 3.578125l1.03125 -3.578125l1.09375 0l1.015625 3.578125zm9.187668 2.046875l-1.5 0l0 -5.796875l-1.796875 0.5625l0 -1.234375l3.125 -1.125l0.171875 0l0 7.59375z" fill-rule="nonzero"/><path fill="#ffffff" d="m303.13562 108.34296q-1.28125 -0.375 -1.875 -0.90625q-0.578125 -0.546875 -0.578125 -1.328125q0 -0.90625 0.71875 -1.484375q0.71875 -0.59375 1.859375 -0.59375q0.78125 0 1.390625 0.3125q0.609375 0.296875 0.9375 0.828125q0.34375 0.53125 0.34375 1.15625l-1.0 0q0 -0.6875 -0.4375 -1.078125q-0.4375 -0.390625 -1.234375 -0.390625q-0.734375 0 -1.15625 0.328125q-0.40625 0.328125 -0.40625 0.90625q0 0.453125 0.390625 0.78125q0.390625 0.3125 1.328125 0.578125q0.953125 0.265625 1.484375 0.59375q0.53125 0.3125 0.78125 0.75q0.265625 0.421875 0.265625 1.0q0 0.921875 -0.71875 1.484375q-0.71875 0.546875 -1.921875 0.546875q-0.78125 0 -1.453125 -0.296875q-0.671875 -0.3125 -1.046875 -0.828125q-0.359375 -0.515625 -0.359375 -1.1875l1.0 0q0 0.6875 0.5 1.09375q0.515625 0.390625 1.359375 0.390625q0.796875 0 1.21875 -0.3125q0.421875 -0.328125 0.421875 -0.875q0 -0.5625 -0.390625 -0.859375q-0.390625 -0.3125 -1.421875 -0.609375zm5.2438354 -3.625l0 1.375l1.046875 0l0 0.734375l-1.046875 0l0 3.5q0 0.328125 0.140625 0.5q0.140625 0.171875 0.484375 0.171875q0.15625 0 0.453125 -0.0625l0 0.78125q-0.375 0.109375 -0.734375 0.109375q-0.640625 0 -0.96875 -0.390625q-0.328125 -0.390625 -0.328125 -1.109375l0 -3.5l-1.03125 0l0 -0.734375l1.03125 0l0 -1.375l0.953125 0zm1.8143005 4.140625q0 -0.828125 0.328125 -1.484375q0.328125 -0.671875 0.90625 -1.03125q0.578125 -0.359375 1.328125 -0.359375q1.140625 0 1.84375 0.796875q0.71875 0.796875 0.71875 2.125l0 0.0625q0 0.8125 -0.3125 1.46875q-0.3125 0.65625 -0.90625 1.03125q-0.578125 0.359375 -1.34375 0.359375q-1.140625 0 -1.859375 -0.796875q-0.703125 -0.796875 -0.703125 -2.109375l0 -0.0625zm0.96875 0.109375q0 0.9375 0.4375 1.5q0.4375 0.5625 1.15625 0.5625q0.734375 0 1.171875 -0.5625q0.4375 -0.578125 0.4375 -1.609375q0 -0.9375 -0.453125 -1.5q-0.4375 -0.578125 -1.15625 -0.578125q-0.71875 0 -1.15625 0.5625q-0.4375 0.5625 -0.4375 1.625zm6.2805176 -2.875l0.03125 0.703125q0.640625 -0.8125 1.6875 -0.8125q1.78125 0 1.796875 2.015625l0 3.71875l-0.96875 0l0 -3.71875q0 -0.609375 -0.28125 -0.90625q-0.265625 -0.296875 -0.84375 -0.296875q-0.46875 0 -0.828125 0.25q-0.34375 0.25 -0.546875 0.65625l0 4.015625l-0.953125 0l0 -5.625l0.90625 0zm7.301544 5.734375q-1.140625 0 -1.859375 -0.75q-0.71875 -0.765625 -0.71875 -2.015625l0 -0.171875q0 -0.84375 0.3125 -1.5q0.328125 -0.65625 0.90625 -1.03125q0.578125 -0.375 1.234375 -0.375q1.109375 0 1.71875 0.734375q0.609375 0.71875 0.609375 2.0625l0 0.390625l-3.8125 0q0.015625 0.84375 0.484375 1.359375q0.46875 0.5 1.171875 0.5q0.515625 0 0.859375 -0.203125q0.359375 -0.203125 0.625 -0.546875l0.59375 0.453125q-0.703125 1.09375 -2.125 1.09375zm-0.125 -5.046875q-0.578125 0 -0.96875 0.421875q-0.390625 0.421875 -0.484375 1.1875l2.8125 0l0 -0.078125q-0.046875 -0.734375 -0.40625 -1.125q-0.34375 -0.40625 -0.953125 -0.40625zm8.426758 3.609375l1.078125 -4.296875l0.96875 0l-1.640625 5.625l-0.78125 0l-1.375 -4.265625l-1.328125 4.265625l-0.78125 0l-1.640625 -5.625l0.96875 0l1.109375 4.203125l1.296875 -4.203125l0.78125 0l1.34375 4.296875zm6.4921875 1.328125q-0.078125 -0.171875 -0.140625 -0.59375q-0.671875 0.703125 -1.59375 0.703125q-0.828125 0 -1.375 -0.46875q-0.53125 -0.484375 -0.53125 -1.203125q0 -0.875 0.671875 -1.359375q0.671875 -0.484375 1.875 -0.484375l0.9375 0l0 -0.453125q0 -0.5 -0.296875 -0.796875q-0.296875 -0.296875 -0.890625 -0.296875q-0.515625 0 -0.859375 0.265625q-0.34375 0.25 -0.34375 0.625l-0.96875 0q0 -0.421875 0.296875 -0.8125q0.296875 -0.40625 0.8125 -0.625q0.515625 -0.234375 1.125 -0.234375q0.96875 0 1.515625 0.484375q0.5625 0.484375 0.578125 1.34375l0 2.59375q0 0.765625 0.203125 1.234375l0 0.078125l-1.015625 0zm-1.59375 -0.734375q0.453125 0 0.859375 -0.234375q0.40625 -0.234375 0.578125 -0.609375l0 -1.15625l-0.75 0q-1.765625 0 -1.765625 1.03125q0 0.453125 0.296875 0.71875q0.3125 0.25 0.78125 0.25zm4.968292 0.734375l-0.96875 0l0 -8.0l0.96875 0l0 8.0zm2.5859985 0l-0.96875 0l0 -8.0l0.96875 0l0 8.0zm5.395935 0l-1.0 0l0 -7.578125l1.0 0l0 7.578125zm2.5857239 -5.625l0.03125 0.703125q0.640625 -0.8125 1.6875 -0.8125q1.78125 0 1.796875 2.015625l0 3.71875l-0.96875 0l0 -3.71875q0 -0.609375 -0.28125 -0.90625q-0.265625 -0.296875 -0.84375 -0.296875q-0.46875 0 -0.828125 0.25q-0.34375 0.25 -0.546875 0.65625l0 4.015625l-0.953125 0l0 -5.625l0.90625 0zm5.879669 0l0.03125 0.703125q0.640625 -0.8125 1.6875 -0.8125q1.78125 0 1.796875 2.015625l0 3.71875l-0.96875 0l0 -3.71875q0 -0.609375 -0.28125 -0.90625q-0.265625 -0.296875 -0.84375 -0.296875q-0.46875 0 -0.828125 0.25q-0.34375 0.25 -0.546875 0.65625l0 4.015625l-0.953125 0l0 -5.625l0.90625 0z" fill-rule="nonzero"/><path fill="#ffffff" d="m303.82312 140.4043l-0.96875 0l0 -6.421875l-1.9375 0.71875l0 -0.875l2.75 -1.03125l0.15625 0l0 7.609375zm6.499359 -3.328125q-0.296875 0.359375 -0.71875 0.578125q-0.421875 0.21875 -0.921875 0.21875q-0.640625 0 -1.140625 -0.3125q-0.484375 -0.328125 -0.75 -0.90625q-0.265625 -0.59375 -0.265625 -1.3125q0 -0.75 0.28125 -1.359375q0.296875 -0.609375 0.828125 -0.9375q0.53125 -0.328125 1.234375 -0.328125q1.125 0 1.765625 0.84375q0.65625 0.84375 0.65625 2.296875l0 0.28125q0 2.203125 -0.875 3.234375q-0.875 1.015625 -2.625 1.03125l-0.1875 0l0 -0.8125l0.203125 0q1.1875 -0.015625 1.828125 -0.609375q0.640625 -0.609375 0.6875 -1.90625zm-1.484375 0q0.484375 0 0.890625 -0.296875q0.421875 -0.296875 0.609375 -0.734375l0 -0.390625q0 -0.9375 -0.421875 -1.53125q-0.40625 -0.59375 -1.03125 -0.59375q-0.640625 0 -1.03125 0.484375q-0.375 0.484375 -0.375 1.28125q0 0.78125 0.375 1.28125q0.375 0.5 0.984375 0.5zm7.561859 -4.25l0 0.8125l-0.171875 0q-1.125 0.015625 -1.796875 0.671875q-0.65625 0.640625 -0.765625 1.8125q0.59375 -0.6875 1.625 -0.6875q1.0 0 1.578125 0.703125q0.59375 0.6875 0.59375 1.796875q0 1.171875 -0.640625 1.875q-0.625 0.703125 -1.703125 0.703125q-1.078125 0 -1.765625 -0.828125q-0.671875 -0.84375 -0.671875 -2.15625l0 -0.375q0 -2.09375 0.890625 -3.203125q0.890625 -1.109375 2.65625 -1.125l0.171875 0zm-1.265625 3.40625q-0.484375 0 -0.90625 0.296875q-0.421875 0.296875 -0.578125 0.75l0 0.359375q0 0.921875 0.421875 1.5q0.421875 0.578125 1.046875 0.578125q0.65625 0 1.015625 -0.484375q0.375 -0.484375 0.375 -1.25q0 -0.78125 -0.375 -1.265625q-0.375 -0.484375 -1.0 -0.484375zm7.155609 0.84375q-0.296875 0.359375 -0.71875 0.578125q-0.421875 0.21875 -0.921875 0.21875q-0.640625 0 -1.140625 -0.3125q-0.484375 -0.328125 -0.75 -0.90625q-0.265625 -0.59375 -0.265625 -1.3125q0 -0.75 0.28125 -1.359375q0.296875 -0.609375 0.828125 -0.9375q0.53125 -0.328125 1.234375 -0.328125q1.125 0 1.765625 0.84375q0.65625 0.84375 0.65625 2.296875l0 0.28125q0 2.203125 -0.875 3.234375q-0.875 1.015625 -2.625 1.03125l-0.1875 0l0 -0.8125l0.203125 0q1.1875 -0.015625 1.828125 -0.609375q0.640625 -0.609375 0.6875 -1.90625zm-1.484375 0q0.484375 0 0.890625 -0.296875q0.421875 -0.296875 0.609375 -0.734375l0 -0.390625q0 -0.9375 -0.421875 -1.53125q-0.40625 -0.59375 -1.03125 -0.59375q-0.640625 0 -1.03125 0.484375q-0.375 0.484375 -0.375 1.28125q0 0.78125 0.375 1.28125q0.375 0.5 0.984375 0.5z" fill-rule="nonzero"/><path fill="#ffffff" d="m306.72937 167.31244l-1.0 0l-3.8125 -5.84375l0 5.84375l-1.015625 0l0 -7.578125l1.015625 0l3.8125 5.859375l0 -5.859375l1.0 0l0 7.578125zm3.9561157 0.109375q-1.140625 0 -1.859375 -0.75q-0.71875 -0.765625 -0.71875 -2.015625l0 -0.171875q0 -0.84375 0.3125 -1.5q0.328125 -0.65625 0.90625 -1.03125q0.578125 -0.375 1.234375 -0.375q1.109375 0 1.71875 0.734375q0.609375 0.71875 0.609375 2.0625l0 0.390625l-3.8125 0q0.015625 0.84375 0.484375 1.359375q0.46875 0.5 1.171875 0.5q0.515625 0 0.859375 -0.203125q0.359375 -0.203125 0.625 -0.546875l0.59375 0.453125q-0.703125 1.09375 -2.125 1.09375zm-0.125 -5.046875q-0.578125 0 -0.96875 0.421875q-0.390625 0.421875 -0.484375 1.1875l2.8125 0l0 -0.078125q-0.046875 -0.734375 -0.40625 -1.125q-0.34375 -0.40625 -0.953125 -0.40625zm8.426788 3.609375l1.078125 -4.296875l0.96875 0l-1.640625 5.625l-0.78125 0l-1.375 -4.265625l-1.328125 4.265625l-0.78125 0l-1.640625 -5.625l0.96875 0l1.109375 4.203125l1.296875 -4.203125l0.78125 0l1.34375 4.296875zm8.1145935 -2.4375l1.984375 -3.8125l1.125 0l-2.609375 4.75l0 2.828125l-1.0 0l0 -2.828125l-2.609375 -4.75l1.140625 0l1.96875 3.8125zm3.342682 0.90625q0 -0.828125 0.328125 -1.484375q0.328125 -0.671875 0.90625 -1.03125q0.578125 -0.359375 1.328125 -0.359375q1.140625 0 1.84375 0.796875q0.71875 0.796875 0.71875 2.125l0 0.0625q0 0.8125 -0.3125 1.46875q-0.3125 0.65625 -0.90625 1.03125q-0.578125 0.359375 -1.34375 0.359375q-1.140625 0 -1.859375 -0.796875q-0.703125 -0.796875 -0.703125 -2.109375l0 -0.0625zm0.96875 0.109375q0 0.9375 0.4375 1.5q0.4375 0.5625 1.15625 0.5625q0.734375 0 1.171875 -0.5625q0.4375 -0.578125 0.4375 -1.609375q0 -0.9375 -0.453125 -1.5q-0.4375 -0.578125 -1.15625 -0.578125q-0.71875 0 -1.15625 0.5625q-0.4375 0.5625 -0.4375 1.625zm8.093018 -2.015625q-0.21875 -0.03125 -0.484375 -0.03125q-0.9375 0 -1.28125 0.796875l0 4.0l-0.953125 0l0 -5.625l0.9375 0l0.015625 0.640625q0.46875 -0.75 1.328125 -0.75q0.28125 0 0.4375 0.078125l0 0.890625zm2.4496155 2.15625l-0.59375 0.625l0 1.984375l-0.96875 0l0 -8.0l0.96875 0l0 4.84375l0.515625 -0.625l1.75 -1.84375l1.171875 0l-2.203125 2.34375l2.453125 3.28125l-1.125 0l-1.96875 -2.609375z" fill-rule="nonzero"/><path fill="#ffffff" d="m231.99881 221.91953l-1.25 0l0 2.765625l-1.5625 0l0 -7.578125l2.8125 0q1.34375 0 2.078125 0.609375q0.734375 0.59375 0.734375 1.6875q0 0.765625 -0.34375 1.296875q-0.328125 0.515625 -1.015625 0.8125l1.640625 3.09375l0 0.078125l-1.671875 0l-1.421875 -2.765625zm-1.25 -1.265625l1.265625 0q0.578125 0 0.90625 -0.296875q0.328125 -0.3125 0.328125 -0.828125q0 -0.546875 -0.3125 -0.84375q-0.296875 -0.3125 -0.9375 -0.3125l-1.25 0l0 2.28125zm4.910019 1.171875q0 -0.84375 0.3125 -1.5q0.328125 -0.65625 0.9375 -1.015625q0.609375 -0.359375 1.40625 -0.359375q1.140625 0 1.859375 0.703125q0.71875 0.6875 0.8125 1.890625l0 0.390625q0 1.28125 -0.71875 2.078125q-0.71875 0.78125 -1.9375 0.78125q-1.21875 0 -1.953125 -0.78125q-0.71875 -0.78125 -0.71875 -2.125l0 -0.0625zm1.5 0.109375q0 0.796875 0.296875 1.21875q0.3125 0.421875 0.875 0.421875q0.546875 0 0.84375 -0.421875q0.3125 -0.421875 0.3125 -1.328125q0 -0.796875 -0.3125 -1.21875q-0.296875 -0.4375 -0.859375 -0.4375q-0.546875 0 -0.859375 0.4375q-0.296875 0.421875 -0.296875 1.328125zm9.65036 0.703125l0.75 -3.578125l1.453125 0l-1.4375 5.625l-1.265625 0l-1.0625 -3.546875l-1.078125 3.546875l-1.25 0l-1.4375 -5.625l1.453125 0l0.734375 3.578125l1.03125 -3.578125l1.09375 0l1.015625 3.578125zm10.718918 2.046875l-5.1875 0l0 -1.03125l2.453125 -2.609375q0.5 -0.546875 0.734375 -0.953125q0.25 -0.421875 0.25 -0.796875q0 -0.5 -0.265625 -0.78125q-0.25 -0.296875 -0.71875 -0.296875q-0.5 0 -0.796875 0.359375q-0.296875 0.34375 -0.296875 0.921875l-1.515625 0q0 -0.703125 0.328125 -1.265625q0.34375 -0.578125 0.9375 -0.90625q0.609375 -0.328125 1.375 -0.328125q1.171875 0 1.8125 0.5625q0.65625 0.5625 0.65625 1.59375q0 0.5625 -0.296875 1.15625q-0.296875 0.578125 -1.0 1.34375l-1.71875 1.8125l3.25 0l0 1.21875z" fill-rule="nonzero"/><path fill="#ffffff" d="m306.47937 193.59254q-0.140625 1.203125 -0.890625 1.859375q-0.75 0.65625 -1.984375 0.65625q-1.34375 0 -2.15625 -0.96875q-0.796875 -0.96875 -0.796875 -2.578125l0 -0.71875q0 -1.0625 0.375 -1.859375q0.375 -0.8125 1.0625 -1.234375q0.6875 -0.4375 1.609375 -0.4375q1.203125 0 1.921875 0.6875q0.734375 0.671875 0.859375 1.859375l-1.0 0q-0.140625 -0.90625 -0.578125 -1.3125q-0.421875 -0.40625 -1.203125 -0.40625q-0.96875 0 -1.515625 0.71875q-0.53125 0.703125 -0.53125 2.0l0 0.734375q0 1.234375 0.515625 1.96875q0.515625 0.71875 1.4375 0.71875q0.828125 0 1.265625 -0.375q0.453125 -0.375 0.609375 -1.3125l1.0 0zm0.9515686 -0.453125q0 -0.828125 0.328125 -1.484375q0.328125 -0.671875 0.90625 -1.03125q0.578125 -0.359375 1.328125 -0.359375q1.140625 0 1.84375 0.796875q0.71875 0.796875 0.71875 2.125l0 0.0625q0 0.8125 -0.3125 1.46875q-0.3125 0.65625 -0.90625 1.03125q-0.578125 0.359375 -1.34375 0.359375q-1.140625 0 -1.859375 -0.796875q-0.703125 -0.796875 -0.703125 -2.109375l0 -0.0625zm0.96875 0.109375q0 0.9375 0.4375 1.5q0.4375 0.5625 1.15625 0.5625q0.734375 0 1.171875 -0.5625q0.4375 -0.578125 0.4375 -1.609375q0 -0.9375 -0.453125 -1.5q-0.4375 -0.578125 -1.15625 -0.578125q-0.71875 0 -1.15625 0.5625q-0.4375 0.5625 -0.4375 1.625zm6.2805176 -2.875l0.015625 0.625q0.625 -0.734375 1.671875 -0.734375q1.1875 0 1.609375 0.90625q0.28125 -0.40625 0.734375 -0.65625q0.453125 -0.25 1.0625 -0.25q1.84375 0 1.875 1.96875l0 3.765625l-0.953125 0l0 -3.71875q0 -0.59375 -0.28125 -0.890625q-0.265625 -0.3125 -0.921875 -0.3125q-0.53125 0 -0.890625 0.328125q-0.359375 0.3125 -0.40625 0.859375l0 3.734375l-0.96875 0l0 -3.6875q0 -1.234375 -1.203125 -1.234375q-0.953125 0 -1.296875 0.8125l0 4.109375l-0.96875 0l0 -5.625l0.921875 0zm13.183563 2.875q0 1.28125 -0.59375 2.078125q-0.578125 0.78125 -1.59375 0.78125q-1.015625 0 -1.609375 -0.65625l0 2.71875l-0.953125 0l0 -7.796875l0.875 0l0.046875 0.625q0.59375 -0.734375 1.625 -0.734375q1.015625 0 1.609375 0.765625q0.59375 0.765625 0.59375 2.125l0 0.09375zm-0.96875 -0.109375q0 -0.953125 -0.40625 -1.5q-0.40625 -0.5625 -1.109375 -0.5625q-0.875 0 -1.3125 0.78125l0 2.6875q0.4375 0.765625 1.328125 0.765625q0.6875 0 1.09375 -0.546875q0.40625 -0.546875 0.40625 -1.625zm3.4941711 -4.140625l0 1.375l1.046875 0l0 0.734375l-1.046875 0l0 3.5q0 0.328125 0.140625 0.5q0.140625 0.171875 0.484375 0.171875q0.15625 0 0.453125 -0.0625l0 0.78125q-0.375 0.109375 -0.734375 0.109375q-0.640625 0 -0.96875 -0.390625q-0.328125 -0.390625 -0.328125 -1.109375l0 -3.5l-1.03125 0l0 -0.734375l1.03125 0l0 -1.375l0.953125 0zm1.8143005 4.140625q0 -0.828125 0.328125 -1.484375q0.328125 -0.671875 0.90625 -1.03125q0.578125 -0.359375 1.328125 -0.359375q1.140625 0 1.84375 0.796875q0.71875 0.796875 0.71875 2.125l0 0.0625q0 0.8125 -0.3125 1.46875q-0.3125 0.65625 -0.90625 1.03125q-0.578125 0.359375 -1.34375 0.359375q-1.140625 0 -1.859375 -0.796875q-0.703125 -0.796875 -0.703125 -2.109375l0 -0.0625zm0.96875 0.109375q0 0.9375 0.4375 1.5q0.4375 0.5625 1.15625 0.5625q0.734375 0 1.171875 -0.5625q0.4375 -0.578125 0.4375 -1.609375q0 -0.9375 -0.453125 -1.5q-0.4375 -0.578125 -1.15625 -0.578125q-0.71875 0 -1.15625 0.5625q-0.4375 0.5625 -0.4375 1.625zm6.2805176 -2.875l0.03125 0.703125q0.640625 -0.8125 1.6875 -0.8125q1.78125 0 1.796875 2.015625l0 3.71875l-0.96875 0l0 -3.71875q0 -0.609375 -0.28125 -0.90625q-0.265625 -0.296875 -0.84375 -0.296875q-0.46875 0 -0.828125 0.25q-0.34375 0.25 -0.546875 0.65625l0 4.015625l-0.953125 0l0 -5.625l0.90625 0zm4.619232 0.1875l-0.546875 -0.375q0.484375 -0.6875 0.5 -1.4375l0 -0.75l0.953125 0l0 0.6875q0 0.515625 -0.265625 1.03125q-0.25 0.515625 -0.640625 0.84375zm4.747925 3.9375q0 -0.390625 -0.296875 -0.59375q-0.28125 -0.21875 -1.015625 -0.375q-0.734375 -0.15625 -1.171875 -0.375q-0.421875 -0.21875 -0.625 -0.515625q-0.203125 -0.3125 -0.203125 -0.71875q0 -0.703125 0.578125 -1.171875q0.59375 -0.484375 1.5 -0.484375q0.953125 0 1.546875 0.5q0.609375 0.484375 0.609375 1.265625l-0.96875 0q0 -0.40625 -0.34375 -0.6875q-0.328125 -0.28125 -0.84375 -0.28125q-0.515625 0 -0.8125 0.234375q-0.296875 0.21875 -0.296875 0.59375q0 0.34375 0.265625 0.53125q0.28125 0.171875 1.0 0.328125q0.71875 0.15625 1.15625 0.390625q0.453125 0.21875 0.671875 0.53125q0.21875 0.3125 0.21875 0.765625q0 0.75 -0.609375 1.21875q-0.59375 0.453125 -1.5625 0.453125q-0.671875 0 -1.203125 -0.234375q-0.515625 -0.25 -0.8125 -0.671875q-0.28125 -0.4375 -0.28125 -0.9375l0.953125 0q0.03125 0.484375 0.390625 0.765625q0.359375 0.28125 0.953125 0.28125q0.546875 0 0.875 -0.21875q0.328125 -0.21875 0.328125 -0.59375zm10.585815 -0.90625q-0.140625 1.203125 -0.890625 1.859375q-0.75 0.65625 -1.984375 0.65625q-1.34375 0 -2.15625 -0.96875q-0.796875 -0.96875 -0.796875 -2.578125l0 -0.71875q0 -1.0625 0.375 -1.859375q0.375 -0.8125 1.0625 -1.234375q0.6875 -0.4375 1.609375 -0.4375q1.203125 0 1.921875 0.6875q0.734375 0.671875 0.859375 1.859375l-1.0 0q-0.140625 -0.90625 -0.578125 -1.3125q-0.421875 -0.40625 -1.203125 -0.40625q-0.96875 0 -1.515625 0.71875q-0.53125 0.703125 -0.53125 2.0l0 0.734375q0 1.234375 0.515625 1.96875q0.515625 0.71875 1.4375 0.71875q0.828125 0 1.265625 -0.375q0.453125 -0.375 0.609375 -1.3125l1.0 0zm4.685913 2.40625q-0.078125 -0.171875 -0.140625 -0.59375q-0.671875 0.703125 -1.59375 0.703125q-0.828125 0 -1.375 -0.46875q-0.53125 -0.484375 -0.53125 -1.203125q0 -0.875 0.671875 -1.359375q0.671875 -0.484375 1.875 -0.484375l0.9375 0l0 -0.453125q0 -0.5 -0.296875 -0.796875q-0.296875 -0.296875 -0.890625 -0.296875q-0.515625 0 -0.859375 0.265625q-0.34375 0.25 -0.34375 0.625l-0.96875 0q0 -0.421875 0.296875 -0.8125q0.296875 -0.40625 0.8125 -0.625q0.515625 -0.234375 1.125 -0.234375q0.96875 0 1.515625 0.484375q0.5625 0.484375 0.578125 1.34375l0 2.59375q0 0.765625 0.203125 1.234375l0 0.078125l-1.015625 0zm-1.59375 -0.734375q0.453125 0 0.859375 -0.234375q0.40625 -0.234375 0.578125 -0.609375l0 -1.15625l-0.75 0q-1.765625 0 -1.765625 1.03125q0 0.453125 0.296875 0.71875q0.3125 0.25 0.78125 0.25zm4.390167 0.734375l0 -4.890625l-0.890625 0l0 -0.734375l0.890625 0l0 -0.578125q0 -0.90625 0.484375 -1.390625q0.484375 -0.5 1.359375 -0.5q0.34375 0 0.671875 0.078125l-0.0625 0.78125q-0.234375 -0.046875 -0.515625 -0.046875q-0.46875 0 -0.71875 0.28125q-0.25 0.265625 -0.25 0.78125l0 0.59375l1.1875 0l0 0.734375l-1.1875 0l0 4.890625l-0.96875 0zm5.433899 0.109375q-1.140625 0 -1.859375 -0.75q-0.71875 -0.765625 -0.71875 -2.015625l0 -0.171875q0 -0.84375 0.3125 -1.5q0.328125 -0.65625 0.90625 -1.03125q0.578125 -0.375 1.234375 -0.375q1.109375 0 1.71875 0.734375q0.609375 0.71875 0.609375 2.0625l0 0.390625l-3.8125 0q0.015625 0.84375 0.484375 1.359375q0.46875 0.5 1.171875 0.5q0.515625 0 0.859375 -0.203125q0.359375 -0.203125 0.625 -0.546875l0.59375 0.453125q-0.703125 1.09375 -2.125 1.09375zm-0.125 -5.046875q-0.578125 0 -0.96875 0.421875q-0.390625 0.421875 -0.484375 1.1875l2.8125 0l0 -0.078125q-0.046875 -0.734375 -0.40625 -1.125q-0.34375 -0.40625 -0.953125 -0.40625zm4.739258 -2.0625l0 1.375l1.046875 0l0 0.734375l-1.046875 0l0 3.5q0 0.328125 0.140625 0.5q0.140625 0.171875 0.484375 0.171875q0.15625 0 0.453125 -0.0625l0 0.78125q-0.375 0.109375 -0.734375 0.109375q-0.640625 0 -0.96875 -0.390625q-0.328125 -0.390625 -0.328125 -1.109375l0 -3.5l-1.03125 0l0 -0.734375l1.03125 0l0 -1.375l0.953125 0zm4.5122375 7.109375q-1.140625 0 -1.859375 -0.75q-0.71875 -0.765625 -0.71875 -2.015625l0 -0.171875q0 -0.84375 0.3125 -1.5q0.328125 -0.65625 0.90625 -1.03125q0.578125 -0.375 1.234375 -0.375q1.109375 0 1.71875 0.734375q0.609375 0.71875 0.609375 2.0625l0 0.390625l-3.8125 0q0.015625 0.84375 0.484375 1.359375q0.46875 0.5 1.171875 0.5q0.515625 0 0.859375 -0.203125q0.359375 -0.203125 0.625 -0.546875l0.59375 0.453125q-0.703125 1.09375 -2.125 1.09375zm-0.125 -5.046875q-0.578125 0 -0.96875 0.421875q-0.390625 0.421875 -0.484375 1.1875l2.8125 0l0 -0.078125q-0.046875 -0.734375 -0.40625 -1.125q-0.34375 -0.40625 -0.953125 -0.40625zm6.161133 0.171875q-0.21875 -0.03125 -0.484375 -0.03125q-0.9375 0 -1.28125 0.796875l0 4.0l-0.953125 0l0 -5.625l0.9375 0l0.015625 0.640625q0.46875 -0.75 1.328125 -0.75q0.28125 0 0.4375 0.078125l0 0.890625zm1.9339905 4.765625l-0.96875 0l0 -5.625l0.96875 0l0 5.625zm-1.046875 -7.125q0 -0.234375 0.140625 -0.390625q0.140625 -0.171875 0.421875 -0.171875q0.28125 0 0.421875 0.171875q0.15625 0.15625 0.15625 0.390625q0 0.234375 -0.15625 0.390625q-0.140625 0.15625 -0.421875 0.15625q-0.28125 0 -0.421875 -0.15625q-0.140625 -0.15625 -0.140625 -0.390625zm6.0547485 7.125q-0.078125 -0.171875 -0.140625 -0.59375q-0.671875 0.703125 -1.59375 0.703125q-0.828125 0 -1.375 -0.46875q-0.53125 -0.484375 -0.53125 -1.203125q0 -0.875 0.671875 -1.359375q0.671875 -0.484375 1.875 -0.484375l0.9375 0l0 -0.453125q0 -0.5 -0.296875 -0.796875q-0.296875 -0.296875 -0.890625 -0.296875q-0.515625 0 -0.859375 0.265625q-0.34375 0.25 -0.34375 0.625l-0.96875 0q0 -0.421875 0.296875 -0.8125q0.296875 -0.40625 0.8125 -0.625q0.515625 -0.234375 1.125 -0.234375q0.96875 0 1.515625 0.484375q0.5625 0.484375 0.578125 1.34375l0 2.59375q0 0.765625 0.203125 1.234375l0 0.078125l-1.015625 0zm-1.59375 -0.734375q0.453125 0 0.859375 -0.234375q0.40625 -0.234375 0.578125 -0.609375l0 -1.15625l-0.75 0q-1.765625 0 -1.765625 1.03125q0 0.453125 0.296875 0.71875q0.3125 0.25 0.78125 0.25z" fill-rule="nonzero"/><path fill="#ffffff" d="m303.82312 226.46336l-0.96875 0l0 -6.421875l-1.9375 0.71875l0 -0.875l2.75 -1.03125l0.15625 0l0 7.609375zm6.499359 -3.328125q-0.296875 0.359375 -0.71875 0.578125q-0.421875 0.21875 -0.921875 0.21875q-0.640625 0 -1.140625 -0.3125q-0.484375 -0.328125 -0.75 -0.90625q-0.265625 -0.59375 -0.265625 -1.3125q0 -0.75 0.28125 -1.359375q0.296875 -0.609375 0.828125 -0.9375q0.53125 -0.328125 1.234375 -0.328125q1.125 0 1.765625 0.84375q0.65625 0.84375 0.65625 2.296875l0 0.28125q0 2.203125 -0.875 3.234375q-0.875 1.015625 -2.625 1.03125l-0.1875 0l0 -0.8125l0.203125 0q1.1875 -0.015625 1.828125 -0.609375q0.640625 -0.609375 0.6875 -1.90625zm-1.484375 0q0.484375 0 0.890625 -0.296875q0.421875 -0.296875 0.609375 -0.734375l0 -0.390625q0 -0.9375 -0.421875 -1.53125q-0.40625 -0.59375 -1.03125 -0.59375q-0.640625 0 -1.03125 0.484375q-0.375 0.484375 -0.375 1.28125q0 0.78125 0.375 1.28125q0.375 0.5 0.984375 0.5zm7.561859 -4.25l0 0.8125l-0.171875 0q-1.125 0.015625 -1.796875 0.671875q-0.65625 0.640625 -0.765625 1.8125q0.59375 -0.6875 1.625 -0.6875q1.0 0 1.578125 0.703125q0.59375 0.6875 0.59375 1.796875q0 1.171875 -0.640625 1.875q-0.625 0.703125 -1.703125 0.703125q-1.078125 0 -1.765625 -0.828125q-0.671875 -0.84375 -0.671875 -2.15625l0 -0.375q0 -2.09375 0.890625 -3.203125q0.890625 -1.109375 2.65625 -1.125l0.171875 0zm-1.265625 3.40625q-0.484375 0 -0.90625 0.296875q-0.421875 0.296875 -0.578125 0.75l0 0.359375q0 0.921875 0.421875 1.5q0.421875 0.578125 1.046875 0.578125q0.65625 0 1.015625 -0.484375q0.375 -0.484375 0.375 -1.25q0 -0.78125 -0.375 -1.265625q-0.375 -0.484375 -1.0 -0.484375zm7.249359 -3.40625l0 0.8125l-0.171875 0q-1.125 0.015625 -1.796875 0.671875q-0.65625 0.640625 -0.765625 1.8125q0.59375 -0.6875 1.625 -0.6875q1.0 0 1.578125 0.703125q0.59375 0.6875 0.59375 1.796875q0 1.171875 -0.640625 1.875q-0.625 0.703125 -1.703125 0.703125q-1.078125 0 -1.765625 -0.828125q-0.671875 -0.84375 -0.671875 -2.15625l0 -0.375q0 -2.09375 0.890625 -3.203125q0.890625 -1.109375 2.65625 -1.125l0.171875 0zm-1.265625 3.40625q-0.484375 0 -0.90625 0.296875q-0.421875 0.296875 -0.578125 0.75l0 0.359375q0 0.921875 0.421875 1.5q0.421875 0.578125 1.046875 0.578125q0.65625 0 1.015625 -0.484375q0.375 -0.484375 0.375 -1.25q0 -0.78125 -0.375 -1.265625q-0.375 -0.484375 -1.0 -0.484375z" fill-rule="nonzero"/><path fill="#ffffff" d="m303.13562 251.7747q-1.28125 -0.375 -1.875 -0.90625q-0.578125 -0.546875 -0.578125 -1.328125q0 -0.90625 0.71875 -1.484375q0.71875 -0.59375 1.859375 -0.59375q0.78125 0 1.390625 0.3125q0.609375 0.296875 0.9375 0.828125q0.34375 0.53125 0.34375 1.15625l-1.0 0q0 -0.6875 -0.4375 -1.078125q-0.4375 -0.390625 -1.234375 -0.390625q-0.734375 0 -1.15625 0.328125q-0.40625 0.328125 -0.40625 0.90625q0 0.453125 0.390625 0.78125q0.390625 0.3125 1.328125 0.578125q0.953125 0.265625 1.484375 0.59375q0.53125 0.3125 0.78125 0.75q0.265625 0.421875 0.265625 1.0q0 0.921875 -0.71875 1.484375q-0.71875 0.546875 -1.921875 0.546875q-0.78125 0 -1.453125 -0.296875q-0.671875 -0.3125 -1.046875 -0.828125q-0.359375 -0.515625 -0.359375 -1.1875l1.0 0q0 0.6875 0.5 1.09375q0.515625 0.390625 1.359375 0.390625q0.796875 0 1.21875 -0.3125q0.421875 -0.328125 0.421875 -0.875q0 -0.5625 -0.390625 -0.859375q-0.390625 -0.3125 -1.421875 -0.609375zm7.4157104 3.375q-0.078125 -0.171875 -0.140625 -0.59375q-0.671875 0.703125 -1.59375 0.703125q-0.828125 0 -1.375 -0.46875q-0.53125 -0.484375 -0.53125 -1.203125q0 -0.875 0.671875 -1.359375q0.671875 -0.484375 1.875 -0.484375l0.9375 0l0 -0.453125q0 -0.5 -0.296875 -0.796875q-0.296875 -0.296875 -0.890625 -0.296875q-0.515625 0 -0.859375 0.265625q-0.34375 0.25 -0.34375 0.625l-0.96875 0q0 -0.421875 0.296875 -0.8125q0.296875 -0.40625 0.8125 -0.625q0.515625 -0.234375 1.125 -0.234375q0.96875 0 1.515625 0.484375q0.5625 0.484375 0.578125 1.34375l0 2.59375q0 0.765625 0.203125 1.234375l0 0.078125l-1.015625 0zm-1.59375 -0.734375q0.453125 0 0.859375 -0.234375q0.40625 -0.234375 0.578125 -0.609375l0 -1.15625l-0.75 0q-1.765625 0 -1.765625 1.03125q0 0.453125 0.296875 0.71875q0.3125 0.25 0.78125 0.25zm4.827667 -4.890625l0.03125 0.703125q0.640625 -0.8125 1.6875 -0.8125q1.78125 0 1.796875 2.015625l0 3.71875l-0.96875 0l0 -3.71875q0 -0.609375 -0.28125 -0.90625q-0.265625 -0.296875 -0.84375 -0.296875q-0.46875 0 -0.828125 0.25q-0.34375 0.25 -0.546875 0.65625l0 4.015625l-0.953125 0l0 -5.625l0.90625 0zm11.939575 2.28125l-3.1875 0l0 3.34375l-1.0 0l0 -7.578125l4.703125 0l0 0.828125l-3.703125 0l0 2.59375l3.1875 0l0 0.8125zm4.145294 -1.421875q-0.21875 -0.03125 -0.484375 -0.03125q-0.9375 0 -1.28125 0.796875l0 4.0l-0.953125 0l0 -5.625l0.9375 0l0.015625 0.640625q0.46875 -0.75 1.328125 -0.75q0.28125 0 0.4375 0.078125l0 0.890625zm4.147522 4.765625q-0.078125 -0.171875 -0.140625 -0.59375q-0.671875 0.703125 -1.59375 0.703125q-0.828125 0 -1.375 -0.46875q-0.53125 -0.484375 -0.53125 -1.203125q0 -0.875 0.671875 -1.359375q0.671875 -0.484375 1.875 -0.484375l0.9375 0l0 -0.453125q0 -0.5 -0.296875 -0.796875q-0.296875 -0.296875 -0.890625 -0.296875q-0.515625 0 -0.859375 0.265625q-0.34375 0.25 -0.34375 0.625l-0.96875 0q0 -0.421875 0.296875 -0.8125q0.296875 -0.40625 0.8125 -0.625q0.515625 -0.234375 1.125 -0.234375q0.96875 0 1.515625 0.484375q0.5625 0.484375 0.578125 1.34375l0 2.59375q0 0.765625 0.203125 1.234375l0 0.078125l-1.015625 0zm-1.59375 -0.734375q0.453125 0 0.859375 -0.234375q0.40625 -0.234375 0.578125 -0.609375l0 -1.15625l-0.75 0q-1.765625 0 -1.765625 1.03125q0 0.453125 0.296875 0.71875q0.3125 0.25 0.78125 0.25zm4.827667 -4.890625l0.03125 0.703125q0.640625 -0.8125 1.6875 -0.8125q1.78125 0 1.796875 2.015625l0 3.71875l-0.96875 0l0 -3.71875q0 -0.609375 -0.28125 -0.90625q-0.265625 -0.296875 -0.84375 -0.296875q-0.46875 0 -0.828125 0.25q-0.34375 0.25 -0.546875 0.65625l0 4.015625l-0.953125 0l0 -5.625l0.90625 0zm7.223419 4.9375q0.515625 0 0.890625 -0.3125q0.390625 -0.3125 0.4375 -0.78125l0.90625 0q-0.015625 0.484375 -0.328125 0.921875q-0.3125 0.4375 -0.828125 0.703125q-0.5 0.265625 -1.078125 0.265625q-1.140625 0 -1.828125 -0.765625q-0.671875 -0.78125 -0.671875 -2.109375l0 -0.15625q0 -0.828125 0.296875 -1.46875q0.296875 -0.640625 0.859375 -0.984375q0.578125 -0.359375 1.34375 -0.359375q0.9375 0 1.5625 0.578125q0.640625 0.5625 0.671875 1.46875l-0.90625 0q-0.046875 -0.546875 -0.421875 -0.890625q-0.359375 -0.359375 -0.90625 -0.359375q-0.734375 0 -1.140625 0.53125q-0.40625 0.515625 -0.40625 1.515625l0 0.1875q0 0.96875 0.40625 1.5q0.40625 0.515625 1.140625 0.515625zm4.374756 0.6875l-0.96875 0l0 -5.625l0.96875 0l0 5.625zm-1.046875 -7.125q0 -0.234375 0.140625 -0.390625q0.140625 -0.171875 0.421875 -0.171875q0.28125 0 0.421875 0.171875q0.15625 0.15625 0.15625 0.390625q0 0.234375 -0.15625 0.390625q-0.140625 0.15625 -0.421875 0.15625q-0.28125 0 -0.421875 -0.15625q-0.140625 -0.15625 -0.140625 -0.390625zm5.8516235 5.625q0 -0.390625 -0.296875 -0.59375q-0.28125 -0.21875 -1.015625 -0.375q-0.734375 -0.15625 -1.171875 -0.375q-0.421875 -0.21875 -0.625 -0.515625q-0.203125 -0.3125 -0.203125 -0.71875q0 -0.703125 0.578125 -1.171875q0.59375 -0.484375 1.5 -0.484375q0.953125 0 1.546875 0.5q0.609375 0.484375 0.609375 1.265625l-0.96875 0q0 -0.40625 -0.34375 -0.6875q-0.328125 -0.28125 -0.84375 -0.28125q-0.515625 0 -0.8125 0.234375q-0.296875 0.21875 -0.296875 0.59375q0 0.34375 0.265625 0.53125q0.28125 0.171875 1.0 0.328125q0.71875 0.15625 1.15625 0.390625q0.453125 0.21875 0.671875 0.53125q0.21875 0.3125 0.21875 0.765625q0 0.75 -0.609375 1.21875q-0.59375 0.453125 -1.5625 0.453125q-0.671875 0 -1.203125 -0.234375q-0.515625 -0.25 -0.8125 -0.671875q-0.28125 -0.4375 -0.28125 -0.9375l0.953125 0q0.03125 0.484375 0.390625 0.765625q0.359375 0.28125 0.953125 0.28125q0.546875 0 0.875 -0.21875q0.328125 -0.21875 0.328125 -0.59375zm4.479004 0.8125q0.515625 0 0.890625 -0.3125q0.390625 -0.3125 0.4375 -0.78125l0.90625 0q-0.015625 0.484375 -0.328125 0.921875q-0.3125 0.4375 -0.828125 0.703125q-0.5 0.265625 -1.078125 0.265625q-1.140625 0 -1.828125 -0.765625q-0.671875 -0.78125 -0.671875 -2.109375l0 -0.15625q0 -0.828125 0.296875 -1.46875q0.296875 -0.640625 0.859375 -0.984375q0.578125 -0.359375 1.34375 -0.359375q0.9375 0 1.5625 0.578125q0.640625 0.5625 0.671875 1.46875l-0.90625 0q-0.046875 -0.546875 -0.421875 -0.890625q-0.359375 -0.359375 -0.90625 -0.359375q-0.734375 0 -1.140625 0.53125q-0.40625 0.515625 -0.40625 1.515625l0 0.1875q0 0.96875 0.40625 1.5q0.40625 0.515625 1.140625 0.515625zm3.0622559 -2.171875q0 -0.828125 0.328125 -1.484375q0.328125 -0.671875 0.90625 -1.03125q0.578125 -0.359375 1.328125 -0.359375q1.140625 0 1.84375 0.796875q0.71875 0.796875 0.71875 2.125l0 0.0625q0 0.8125 -0.3125 1.46875q-0.3125 0.65625 -0.90625 1.03125q-0.578125 0.359375 -1.34375 0.359375q-1.140625 0 -1.859375 -0.796875q-0.703125 -0.796875 -0.703125 -2.109375l0 -0.0625zm0.96875 0.109375q0 0.9375 0.4375 1.5q0.4375 0.5625 1.15625 0.5625q0.734375 0 1.171875 -0.5625q0.4375 -0.578125 0.4375 -1.609375q0 -0.9375 -0.453125 -1.5q-0.4375 -0.578125 -1.15625 -0.578125q-0.71875 0 -1.15625 0.5625q-0.4375 0.5625 -0.4375 1.625z" fill-rule="nonzero"/><path fill="#ffffff" d="m231.99881 307.97858l-1.25 0l0 2.765625l-1.5625 0l0 -7.578125l2.8125 0q1.34375 0 2.078125 0.609375q0.734375 0.59375 0.734375 1.6875q0 0.765625 -0.34375 1.296875q-0.328125 0.515625 -1.015625 0.8125l1.640625 3.09375l0 0.078125l-1.671875 0l-1.421875 -2.765625zm-1.25 -1.265625l1.265625 0q0.578125 0 0.90625 -0.296875q0.328125 -0.3125 0.328125 -0.828125q0 -0.546875 -0.3125 -0.84375q-0.296875 -0.3125 -0.9375 -0.3125l-1.25 0l0 2.28125zm4.910019 1.171875q0 -0.84375 0.3125 -1.5q0.328125 -0.65625 0.9375 -1.015625q0.609375 -0.359375 1.40625 -0.359375q1.140625 0 1.859375 0.703125q0.71875 0.6875 0.8125 1.890625l0 0.390625q0 1.28125 -0.71875 2.078125q-0.71875 0.78125 -1.9375 0.78125q-1.21875 0 -1.953125 -0.78125q-0.71875 -0.78125 -0.71875 -2.125l0 -0.0625zm1.5 0.109375q0 0.796875 0.296875 1.21875q0.3125 0.421875 0.875 0.421875q0.546875 0 0.84375 -0.421875q0.3125 -0.421875 0.3125 -1.328125q0 -0.796875 -0.3125 -1.21875q-0.296875 -0.4375 -0.859375 -0.4375q-0.546875 0 -0.859375 0.4375q-0.296875 0.421875 -0.296875 1.328125zm9.65036 0.703125l0.75 -3.578125l1.453125 0l-1.4375 5.625l-1.265625 0l-1.0625 -3.546875l-1.078125 3.546875l-1.25 0l-1.4375 -5.625l1.453125 0l0.734375 3.578125l1.03125 -3.578125l1.09375 0l1.015625 3.578125zm7.062668 -2.40625l0.796875 0q0.578125 0 0.84375 -0.28125q0.28125 -0.296875 0.28125 -0.765625q0 -0.453125 -0.28125 -0.703125q-0.265625 -0.265625 -0.75 -0.265625q-0.421875 0 -0.71875 0.234375q-0.28125 0.234375 -0.28125 0.625l-1.515625 0q0 -0.59375 0.3125 -1.0625q0.328125 -0.484375 0.90625 -0.75q0.578125 -0.265625 1.265625 -0.265625q1.203125 0 1.875 0.578125q0.6875 0.578125 0.6875 1.59375q0 0.515625 -0.3125 0.953125q-0.3125 0.4375 -0.828125 0.671875q0.640625 0.234375 0.953125 0.6875q0.3125 0.453125 0.3125 1.078125q0 1.015625 -0.734375 1.625q-0.734375 0.609375 -1.953125 0.609375q-1.125 0 -1.859375 -0.59375q-0.71875 -0.609375 -0.71875 -1.59375l1.515625 0q0 0.421875 0.3125 0.703125q0.328125 0.265625 0.78125 0.265625q0.546875 0 0.84375 -0.28125q0.3125 -0.28125 0.3125 -0.75q0 -1.140625 -1.25 -1.140625l-0.796875 0l0 -1.171875z" fill-rule="nonzero"/><path fill="#ffffff" d="m306.47937 281.4298q-0.140625 1.203125 -0.890625 1.859375q-0.75 0.65625 -1.984375 0.65625q-1.34375 0 -2.15625 -0.96875q-0.796875 -0.96875 -0.796875 -2.578125l0 -0.71875q0 -1.0625 0.375 -1.859375q0.375 -0.8125 1.0625 -1.234375q0.6875 -0.4375 1.609375 -0.4375q1.203125 0 1.921875 0.6875q0.734375 0.671875 0.859375 1.859375l-1.0 0q-0.140625 -0.90625 -0.578125 -1.3125q-0.421875 -0.40625 -1.203125 -0.40625q-0.96875 0 -1.515625 0.71875q-0.53125 0.703125 -0.53125 2.0l0 0.734375q0 1.234375 0.515625 1.96875q0.515625 0.71875 1.4375 0.71875q0.828125 0 1.265625 -0.375q0.453125 -0.375 0.609375 -1.3125l1.0 0zm0.9515686 -0.453125q0 -0.828125 0.328125 -1.484375q0.328125 -0.671875 0.90625 -1.03125q0.578125 -0.359375 1.328125 -0.359375q1.140625 0 1.84375 0.796875q0.71875 0.796875 0.71875 2.125l0 0.0625q0 0.8125 -0.3125 1.46875q-0.3125 0.65625 -0.90625 1.03125q-0.578125 0.359375 -1.34375 0.359375q-1.140625 0 -1.859375 -0.796875q-0.703125 -0.796875 -0.703125 -2.109375l0 -0.0625zm0.96875 0.109375q0 0.9375 0.4375 1.5q0.4375 0.5625 1.15625 0.5625q0.734375 0 1.171875 -0.5625q0.4375 -0.578125 0.4375 -1.609375q0 -0.9375 -0.453125 -1.5q-0.4375 -0.578125 -1.15625 -0.578125q-0.71875 0 -1.15625 0.5625q-0.4375 0.5625 -0.4375 1.625zm5.1086426 -0.109375q0 -0.828125 0.328125 -1.484375q0.328125 -0.671875 0.90625 -1.03125q0.578125 -0.359375 1.328125 -0.359375q1.140625 0 1.84375 0.796875q0.71875 0.796875 0.71875 2.125l0 0.0625q0 0.8125 -0.3125 1.46875q-0.3125 0.65625 -0.90625 1.03125q-0.578125 0.359375 -1.34375 0.359375q-1.140625 0 -1.859375 -0.796875q-0.703125 -0.796875 -0.703125 -2.109375l0 -0.0625zm0.96875 0.109375q0 0.9375 0.4375 1.5q0.4375 0.5625 1.15625 0.5625q0.734375 0 1.171875 -0.5625q0.4375 -0.578125 0.4375 -1.609375q0 -0.9375 -0.453125 -1.5q-0.4375 -0.578125 -1.15625 -0.578125q-0.71875 0 -1.15625 0.5625q-0.4375 0.5625 -0.4375 1.625zm10.124268 0q0 1.28125 -0.59375 2.078125q-0.578125 0.78125 -1.59375 0.78125q-1.015625 0 -1.609375 -0.65625l0 2.71875l-0.953125 0l0 -7.796875l0.875 0l0.046875 0.625q0.59375 -0.734375 1.625 -0.734375q1.015625 0 1.609375 0.765625q0.59375 0.765625 0.59375 2.125l0 0.09375zm-0.96875 -0.109375q0 -0.953125 -0.40625 -1.5q-0.40625 -0.5625 -1.109375 -0.5625q-0.875 0 -1.3125 0.78125l0 2.6875q0.4375 0.765625 1.328125 0.765625q0.6875 0 1.09375 -0.546875q0.40625 -0.546875 0.40625 -1.625zm4.5253906 2.96875q-1.140625 0 -1.859375 -0.75q-0.71875 -0.765625 -0.71875 -2.015625l0 -0.171875q0 -0.84375 0.3125 -1.5q0.328125 -0.65625 0.90625 -1.03125q0.578125 -0.375 1.234375 -0.375q1.109375 0 1.71875 0.734375q0.609375 0.71875 0.609375 2.0625l0 0.390625l-3.8125 0q0.015625 0.84375 0.484375 1.359375q0.46875 0.5 1.171875 0.5q0.515625 0 0.859375 -0.203125q0.359375 -0.203125 0.625 -0.546875l0.59375 0.453125q-0.703125 1.09375 -2.125 1.09375zm-0.125 -5.046875q-0.578125 0 -0.96875 0.421875q-0.390625 0.421875 -0.484375 1.1875l2.8125 0l0 -0.078125q-0.046875 -0.734375 -0.40625 -1.125q-0.34375 -0.40625 -0.953125 -0.40625zm6.1611633 0.171875q-0.21875 -0.03125 -0.484375 -0.03125q-0.9375 0 -1.28125 0.796875l0 4.0l-0.953125 0l0 -5.625l0.9375 0l0.015625 0.640625q0.46875 -0.75 1.328125 -0.75q0.28125 0 0.4375 0.078125l0 0.890625zm3.6657715 4.765625l0 -7.578125l2.140625 0q0.984375 0 1.75 0.4375q0.765625 0.4375 1.171875 1.25q0.421875 0.796875 0.421875 1.84375l0 0.484375q0 1.078125 -0.421875 1.890625q-0.40625 0.796875 -1.171875 1.234375q-0.765625 0.421875 -1.796875 0.4375l-2.09375 0zm1.0 -6.75l0 5.9375l1.046875 0q1.15625 0 1.796875 -0.71875q0.65625 -0.71875 0.65625 -2.046875l0 -0.4375q0 -1.296875 -0.609375 -2.015625q-0.609375 -0.71875 -1.71875 -0.71875l-1.171875 0zm5.5816956 3.890625q0 -0.828125 0.328125 -1.484375q0.328125 -0.671875 0.90625 -1.03125q0.578125 -0.359375 1.328125 -0.359375q1.140625 0 1.84375 0.796875q0.71875 0.796875 0.71875 2.125l0 0.0625q0 0.8125 -0.3125 1.46875q-0.3125 0.65625 -0.90625 1.03125q-0.578125 0.359375 -1.34375 0.359375q-1.140625 0 -1.859375 -0.796875q-0.703125 -0.796875 -0.703125 -2.109375l0 -0.0625zm0.96875 0.109375q0 0.9375 0.4375 1.5q0.4375 0.5625 1.15625 0.5625q0.734375 0 1.171875 -0.5625q0.4375 -0.578125 0.4375 -1.609375q0 -0.9375 -0.453125 -1.5q-0.4375 -0.578125 -1.15625 -0.578125q-0.71875 0 -1.15625 0.5625q-0.4375 0.5625 -0.4375 1.625zm7.3742676 -0.078125l-2.546875 0l0 -0.78125l2.546875 0l0 0.78125zm1.8460999 -2.796875l0.03125 0.703125q0.640625 -0.8125 1.6875 -0.8125q1.78125 0 1.796875 2.015625l0 3.71875l-0.96875 0l0 -3.71875q0 -0.609375 -0.28125 -0.90625q-0.265625 -0.296875 -0.84375 -0.296875q-0.46875 0 -0.828125 0.25q-0.34375 0.25 -0.546875 0.65625l0 4.015625l-0.953125 0l0 -5.625l0.90625 0zm8.442169 5.0625q-0.5625 0.671875 -1.640625 0.671875q-0.90625 0 -1.375 -0.515625q-0.46875 -0.53125 -0.484375 -1.5625l0 -3.65625l0.96875 0l0 3.625q0 1.28125 1.03125 1.28125q1.109375 0 1.46875 -0.8125l0 -4.09375l0.96875 0l0 5.625l-0.921875 0l-0.015625 -0.5625zm3.7025757 -6.4375l0 1.375l1.046875 0l0 0.734375l-1.046875 0l0 3.5q0 0.328125 0.140625 0.5q0.140625 0.171875 0.484375 0.171875q0.15625 0 0.453125 -0.0625l0 0.78125q-0.375 0.109375 -0.734375 0.109375q-0.640625 0 -0.96875 -0.390625q-0.328125 -0.390625 -0.328125 -1.109375l0 -3.5l-1.03125 0l0 -0.734375l1.03125 0l0 -1.375l0.953125 0zm5.4497375 5.5q0 -0.390625 -0.296875 -0.59375q-0.28125 -0.21875 -1.015625 -0.375q-0.734375 -0.15625 -1.171875 -0.375q-0.421875 -0.21875 -0.625 -0.515625q-0.203125 -0.3125 -0.203125 -0.71875q0 -0.703125 0.578125 -1.171875q0.59375 -0.484375 1.5 -0.484375q0.953125 0 1.546875 0.5q0.609375 0.484375 0.609375 1.265625l-0.96875 0q0 -0.40625 -0.34375 -0.6875q-0.328125 -0.28125 -0.84375 -0.28125q-0.515625 0 -0.8125 0.234375q-0.296875 0.21875 -0.296875 0.59375q0 0.34375 0.265625 0.53125q0.28125 0.171875 1.0 0.328125q0.71875 0.15625 1.15625 0.390625q0.453125 0.21875 0.671875 0.53125q0.21875 0.3125 0.21875 0.765625q0 0.75 -0.609375 1.21875q-0.59375 0.453125 -1.5625 0.453125q-0.671875 0 -1.203125 -0.234375q-0.515625 -0.25 -0.8125 -0.671875q-0.28125 -0.4375 -0.28125 -0.9375l0.953125 0q0.03125 0.484375 0.390625 0.765625q0.359375 0.28125 0.953125 0.28125q0.546875 0 0.875 -0.21875q0.328125 -0.21875 0.328125 -0.59375z" fill-rule="nonzero"/><path fill="#ffffff" d="m303.82312 312.5224l-0.96875 0l0 -6.421875l-1.9375 0.71875l0 -0.875l2.75 -1.03125l0.15625 0l0 7.609375zm6.499359 -3.328125q-0.296875 0.359375 -0.71875 0.578125q-0.421875 0.21875 -0.921875 0.21875q-0.640625 0 -1.140625 -0.3125q-0.484375 -0.328125 -0.75 -0.90625q-0.265625 -0.59375 -0.265625 -1.3125q0 -0.75 0.28125 -1.359375q0.296875 -0.609375 0.828125 -0.9375q0.53125 -0.328125 1.234375 -0.328125q1.125 0 1.765625 0.84375q0.65625 0.84375 0.65625 2.296875l0 0.28125q0 2.203125 -0.875 3.234375q-0.875 1.015625 -2.625 1.03125l-0.1875 0l0 -0.8125l0.203125 0q1.1875 -0.015625 1.828125 -0.609375q0.640625 -0.609375 0.6875 -1.90625zm-1.484375 0q0.484375 0 0.890625 -0.296875q0.421875 -0.296875 0.609375 -0.734375l0 -0.390625q0 -0.9375 -0.421875 -1.53125q-0.40625 -0.59375 -1.03125 -0.59375q-0.640625 0 -1.03125 0.484375q-0.375 0.484375 -0.375 1.28125q0 0.78125 0.375 1.28125q0.375 0.5 0.984375 0.5zm4.233734 -0.46875l0.375 -3.78125l3.890625 0l0 0.890625l-3.0625 0l-0.234375 2.0625q0.5625 -0.328125 1.265625 -0.328125q1.03125 0 1.640625 0.6875q0.609375 0.6875 0.609375 1.84375q0 1.171875 -0.640625 1.859375q-0.625 0.671875 -1.765625 0.671875q-1.0 0 -1.640625 -0.5625q-0.625 -0.5625 -0.71875 -1.546875l0.921875 0q0.078125 0.65625 0.453125 0.984375q0.375 0.328125 0.984375 0.328125q0.671875 0 1.046875 -0.453125q0.390625 -0.453125 0.390625 -1.265625q0 -0.75 -0.421875 -1.203125q-0.40625 -0.46875 -1.09375 -0.46875q-0.625 0 -0.984375 0.265625l-0.25 0.21875l-0.765625 -0.203125zm9.218109 0.46875q-0.296875 0.359375 -0.71875 0.578125q-0.421875 0.21875 -0.921875 0.21875q-0.640625 0 -1.140625 -0.3125q-0.484375 -0.328125 -0.75 -0.90625q-0.265625 -0.59375 -0.265625 -1.3125q0 -0.75 0.28125 -1.359375q0.296875 -0.609375 0.828125 -0.9375q0.53125 -0.328125 1.234375 -0.328125q1.125 0 1.765625 0.84375q0.65625 0.84375 0.65625 2.296875l0 0.28125q0 2.203125 -0.875 3.234375q-0.875 1.015625 -2.625 1.03125l-0.1875 0l0 -0.8125l0.203125 0q1.1875 -0.015625 1.828125 -0.609375q0.640625 -0.609375 0.6875 -1.90625zm-1.484375 0q0.484375 0 0.890625 -0.296875q0.421875 -0.296875 0.609375 -0.734375l0 -0.390625q0 -0.9375 -0.421875 -1.53125q-0.40625 -0.59375 -1.03125 -0.59375q-0.640625 0 -1.03125 0.484375q-0.375 0.484375 -0.375 1.28125q0 0.78125 0.375 1.28125q0.375 0.5 0.984375 0.5z" fill-rule="nonzero"/><path fill="#ffffff" d="m301.91687 338.61804l3.578125 0l0 0.8125l-4.59375 0l0 -7.578125l1.015625 0l0 6.765625zm4.3121033 -2.046875q0 -0.828125 0.328125 -1.484375q0.328125 -0.671875 0.90625 -1.03125q0.578125 -0.359375 1.328125 -0.359375q1.140625 0 1.84375 0.796875q0.71875 0.796875 0.71875 2.125l0 0.0625q0 0.8125 -0.3125 1.46875q-0.3125 0.65625 -0.90625 1.03125q-0.578125 0.359375 -1.34375 0.359375q-1.140625 0 -1.859375 -0.796875q-0.703125 -0.796875 -0.703125 -2.109375l0 -0.0625zm0.96875 0.109375q0 0.9375 0.4375 1.5q0.4375 0.5625 1.15625 0.5625q0.734375 0 1.171875 -0.5625q0.4375 -0.578125 0.4375 -1.609375q0 -0.9375 -0.453125 -1.5q-0.4375 -0.578125 -1.15625 -0.578125q-0.71875 0 -1.15625 0.5625q-0.4375 0.5625 -0.4375 1.625zm8.639893 1.25q0 -0.390625 -0.296875 -0.59375q-0.28125 -0.21875 -1.015625 -0.375q-0.734375 -0.15625 -1.171875 -0.375q-0.421875 -0.21875 -0.625 -0.515625q-0.203125 -0.3125 -0.203125 -0.71875q0 -0.703125 0.578125 -1.171875q0.59375 -0.484375 1.5 -0.484375q0.953125 0 1.546875 0.5q0.609375 0.484375 0.609375 1.265625l-0.96875 0q0 -0.40625 -0.34375 -0.6875q-0.328125 -0.28125 -0.84375 -0.28125q-0.515625 0 -0.8125 0.234375q-0.296875 0.21875 -0.296875 0.59375q0 0.34375 0.265625 0.53125q0.28125 0.171875 1.0 0.328125q0.71875 0.15625 1.15625 0.390625q0.453125 0.21875 0.671875 0.53125q0.21875 0.3125 0.21875 0.765625q0 0.75 -0.609375 1.21875q-0.59375 0.453125 -1.5625 0.453125q-0.671875 0 -1.203125 -0.234375q-0.515625 -0.25 -0.8125 -0.671875q-0.28125 -0.4375 -0.28125 -0.9375l0.953125 0q0.03125 0.484375 0.390625 0.765625q0.359375 0.28125 0.953125 0.28125q0.546875 0 0.875 -0.21875q0.328125 -0.21875 0.328125 -0.59375zm9.19519 -0.484375l-3.171875 0l-0.71875 1.984375l-1.03125 0l2.890625 -7.578125l0.875 0l2.90625 7.578125l-1.03125 0l-0.71875 -1.984375zm-2.875 -0.8125l2.578125 0l-1.296875 -3.546875l-1.28125 3.546875zm6.404663 -2.828125l0.03125 0.703125q0.640625 -0.8125 1.6875 -0.8125q1.78125 0 1.796875 2.015625l0 3.71875l-0.96875 0l0 -3.71875q0 -0.609375 -0.28125 -0.90625q-0.265625 -0.296875 -0.84375 -0.296875q-0.46875 0 -0.828125 0.25q-0.34375 0.25 -0.546875 0.65625l0 4.015625l-0.953125 0l0 -5.625l0.90625 0zm4.739044 2.765625q0 -1.3125 0.609375 -2.09375q0.609375 -0.78125 1.609375 -0.78125q1.03125 0 1.609375 0.734375l0.046875 -0.625l0.875 0l0 5.484375q0 1.09375 -0.65625 1.71875q-0.640625 0.640625 -1.734375 0.640625q-0.59375 0 -1.1875 -0.265625q-0.578125 -0.25 -0.890625 -0.703125l0.5 -0.578125q0.625 0.765625 1.515625 0.765625q0.703125 0 1.09375 -0.40625q0.390625 -0.390625 0.390625 -1.109375l0 -0.484375q-0.578125 0.671875 -1.578125 0.671875q-0.984375 0 -1.59375 -0.796875q-0.609375 -0.796875 -0.609375 -2.171875zm0.96875 0.109375q0 0.953125 0.390625 1.5q0.390625 0.53125 1.09375 0.53125q0.90625 0 1.328125 -0.828125l0 -2.5625q-0.4375 -0.8125 -1.328125 -0.8125q-0.6875 0 -1.09375 0.546875q-0.390625 0.546875 -0.390625 1.625zm7.5722656 2.859375q-1.140625 0 -1.859375 -0.75q-0.71875 -0.765625 -0.71875 -2.015625l0 -0.171875q0 -0.84375 0.3125 -1.5q0.328125 -0.65625 0.90625 -1.03125q0.578125 -0.375 1.234375 -0.375q1.109375 0 1.71875 0.734375q0.609375 0.71875 0.609375 2.0625l0 0.390625l-3.8125 0q0.015625 0.84375 0.484375 1.359375q0.46875 0.5 1.171875 0.5q0.515625 0 0.859375 -0.203125q0.359375 -0.203125 0.625 -0.546875l0.59375 0.453125q-0.703125 1.09375 -2.125 1.09375zm-0.125 -5.046875q-0.578125 0 -0.96875 0.421875q-0.390625 0.421875 -0.484375 1.1875l2.8125 0l0 -0.078125q-0.046875 -0.734375 -0.40625 -1.125q-0.34375 -0.40625 -0.953125 -0.40625zm4.4892883 4.9375l-0.96875 0l0 -8.0l0.96875 0l0 8.0zm3.8672485 0.109375q-1.140625 0 -1.859375 -0.75q-0.71875 -0.765625 -0.71875 -2.015625l0 -0.171875q0 -0.84375 0.3125 -1.5q0.328125 -0.65625 0.90625 -1.03125q0.578125 -0.375 1.234375 -0.375q1.109375 0 1.71875 0.734375q0.609375 0.71875 0.609375 2.0625l0 0.390625l-3.8125 0q0.015625 0.84375 0.484375 1.359375q0.46875 0.5 1.171875 0.5q0.515625 0 0.859375 -0.203125q0.359375 -0.203125 0.625 -0.546875l0.59375 0.453125q-0.703125 1.09375 -2.125 1.09375zm-0.125 -5.046875q-0.578125 0 -0.96875 0.421875q-0.390625 0.421875 -0.484375 1.1875l2.8125 0l0 -0.078125q-0.046875 -0.734375 -0.40625 -1.125q-0.34375 -0.40625 -0.953125 -0.40625zm6.7080383 3.4375q0 -0.390625 -0.296875 -0.59375q-0.28125 -0.21875 -1.015625 -0.375q-0.734375 -0.15625 -1.171875 -0.375q-0.421875 -0.21875 -0.625 -0.515625q-0.203125 -0.3125 -0.203125 -0.71875q0 -0.703125 0.578125 -1.171875q0.59375 -0.484375 1.5 -0.484375q0.953125 0 1.546875 0.5q0.609375 0.484375 0.609375 1.265625l-0.96875 0q0 -0.40625 -0.34375 -0.6875q-0.328125 -0.28125 -0.84375 -0.28125q-0.515625 0 -0.8125 0.234375q-0.296875 0.21875 -0.296875 0.59375q0 0.34375 0.265625 0.53125q0.28125 0.171875 1.0 0.328125q0.71875 0.15625 1.15625 0.390625q0.453125 0.21875 0.671875 0.53125q0.21875 0.3125 0.21875 0.765625q0 0.75 -0.609375 1.21875q-0.59375 0.453125 -1.5625 0.453125q-0.671875 0 -1.203125 -0.234375q-0.515625 -0.25 -0.8125 -0.671875q-0.28125 -0.4375 -0.28125 -0.9375l0.953125 0q0.03125 0.484375 0.390625 0.765625q0.359375 0.28125 0.953125 0.28125q0.546875 0 0.875 -0.21875q0.328125 -0.21875 0.328125 -0.59375z" fill-rule="nonzero"/><path fill="#ffffff" d="m231.99881 390.4812l-1.25 0l0 2.765625l-1.5625 0l0 -7.578125l2.8125 0q1.34375 0 2.078125 0.609375q0.734375 0.59375 0.734375 1.6875q0 0.765625 -0.34375 1.296875q-0.328125 0.515625 -1.015625 0.8125l1.640625 3.09375l0 0.078125l-1.671875 0l-1.421875 -2.765625zm-1.25 -1.265625l1.265625 0q0.578125 0 0.90625 -0.296875q0.328125 -0.3125 0.328125 -0.828125q0 -0.546875 -0.3125 -0.84375q-0.296875 -0.3125 -0.9375 -0.3125l-1.25 0l0 2.28125zm4.910019 1.171875q0 -0.84375 0.3125 -1.5q0.328125 -0.65625 0.9375 -1.015625q0.609375 -0.359375 1.40625 -0.359375q1.140625 0 1.859375 0.703125q0.71875 0.6875 0.8125 1.890625l0 0.390625q0 1.28125 -0.71875 2.078125q-0.71875 0.78125 -1.9375 0.78125q-1.21875 0 -1.953125 -0.78125q-0.71875 -0.78125 -0.71875 -2.125l0 -0.0625zm1.5 0.109375q0 0.796875 0.296875 1.21875q0.3125 0.421875 0.875 0.421875q0.546875 0 0.84375 -0.421875q0.3125 -0.421875 0.3125 -1.328125q0 -0.796875 -0.3125 -1.21875q-0.296875 -0.4375 -0.859375 -0.4375q-0.546875 0 -0.859375 0.4375q-0.296875 0.421875 -0.296875 1.328125zm9.65036 0.703125l0.75 -3.578125l1.453125 0l-1.4375 5.625l-1.265625 0l-1.0625 -3.546875l-1.078125 3.546875l-1.25 0l-1.4375 -5.625l1.453125 0l0.734375 3.578125l1.03125 -3.578125l1.09375 0l1.015625 3.578125zm9.984543 -0.796875l0.859375 0l0 1.203125l-0.859375 0l0 1.640625l-1.515625 0l0 -1.640625l-3.09375 0l-0.078125 -0.953125l3.15625 -4.984375l1.53125 0l0 4.734375zm-3.1875 0l1.671875 0l0 -2.6875l-0.09375 0.171875l-1.578125 2.515625z" fill-rule="nonzero"/><path fill="#ffffff" d="m300.90125 366.33868l0 -7.578125l2.140625 0q0.984375 0 1.75 0.4375q0.765625 0.4375 1.171875 1.25q0.421875 0.796875 0.421875 1.84375l0 0.484375q0 1.078125 -0.421875 1.890625q-0.40625 0.796875 -1.171875 1.234375q-0.765625 0.421875 -1.796875 0.4375l-2.09375 0zm1.0 -6.75l0 5.9375l1.046875 0q1.15625 0 1.796875 -0.71875q0.65625 -0.71875 0.65625 -2.046875l0 -0.4375q0 -1.296875 -0.609375 -2.015625q-0.609375 -0.71875 -1.71875 -0.71875l-1.171875 0zm8.175476 6.859375q-1.140625 0 -1.859375 -0.75q-0.71875 -0.765625 -0.71875 -2.015625l0 -0.171875q0 -0.84375 0.3125 -1.5q0.328125 -0.65625 0.90625 -1.03125q0.578125 -0.375 1.234375 -0.375q1.109375 0 1.71875 0.734375q0.609375 0.71875 0.609375 2.0625l0 0.390625l-3.8125 0q0.015625 0.84375 0.484375 1.359375q0.46875 0.5 1.171875 0.5q0.515625 0 0.859375 -0.203125q0.359375 -0.203125 0.625 -0.546875l0.59375 0.453125q-0.703125 1.09375 -2.125 1.09375zm-0.125 -5.046875q-0.578125 0 -0.96875 0.421875q-0.390625 0.421875 -0.484375 1.1875l2.8125 0l0 -0.078125q-0.046875 -0.734375 -0.40625 -1.125q-0.34375 -0.40625 -0.953125 -0.40625zm8.426758 3.609375l1.078125 -4.296875l0.96875 0l-1.640625 5.625l-0.78125 0l-1.375 -4.265625l-1.328125 4.265625l-0.78125 0l-1.640625 -5.625l0.96875 0l1.109375 4.203125l1.296875 -4.203125l0.78125 0l1.34375 4.296875zm5.3515625 1.4375q-1.140625 0 -1.859375 -0.75q-0.71875 -0.765625 -0.71875 -2.015625l0 -0.171875q0 -0.84375 0.3125 -1.5q0.328125 -0.65625 0.90625 -1.03125q0.578125 -0.375 1.234375 -0.375q1.109375 0 1.71875 0.734375q0.609375 0.71875 0.609375 2.0625l0 0.390625l-3.8125 0q0.015625 0.84375 0.484375 1.359375q0.46875 0.5 1.171875 0.5q0.515625 0 0.859375 -0.203125q0.359375 -0.203125 0.625 -0.546875l0.59375 0.453125q-0.703125 1.09375 -2.125 1.09375zm-0.125 -5.046875q-0.578125 0 -0.96875 0.421875q-0.390625 0.421875 -0.484375 1.1875l2.8125 0l0 -0.078125q-0.046875 -0.734375 -0.40625 -1.125q-0.34375 -0.40625 -0.953125 -0.40625zm5.218445 3.53125l1.296875 -4.21875l1.03125 0l-2.25 6.5q-0.53125 1.40625 -1.671875 1.40625l-0.1875 -0.015625l-0.359375 -0.078125l0 -0.78125l0.265625 0.03125q0.484375 0 0.75 -0.203125q0.28125 -0.203125 0.453125 -0.71875l0.21875 -0.578125l-2.015625 -5.5625l1.0625 0l1.40625 4.21875zm3.3388062 -4.03125l-0.546875 -0.375q0.484375 -0.6875 0.5 -1.4375l0 -0.75l0.953125 0l0 0.6875q0 0.515625 -0.265625 1.03125q-0.25 0.515625 -0.640625 0.84375zm4.747925 3.9375q0 -0.390625 -0.296875 -0.59375q-0.28125 -0.21875 -1.015625 -0.375q-0.734375 -0.15625 -1.171875 -0.375q-0.421875 -0.21875 -0.625 -0.515625q-0.203125 -0.3125 -0.203125 -0.71875q0 -0.703125 0.578125 -1.171875q0.59375 -0.484375 1.5 -0.484375q0.953125 0 1.546875 0.5q0.609375 0.484375 0.609375 1.265625l-0.96875 0q0 -0.40625 -0.34375 -0.6875q-0.328125 -0.28125 -0.84375 -0.28125q-0.515625 0 -0.8125 0.234375q-0.296875 0.21875 -0.296875 0.59375q0 0.34375 0.265625 0.53125q0.28125 0.171875 1.0 0.328125q0.71875 0.15625 1.15625 0.390625q0.453125 0.21875 0.671875 0.53125q0.21875 0.3125 0.21875 0.765625q0 0.75 -0.609375 1.21875q-0.59375 0.453125 -1.5625 0.453125q-0.671875 0 -1.203125 -0.234375q-0.515625 -0.25 -0.8125 -0.671875q-0.28125 -0.4375 -0.28125 -0.9375l0.953125 0q0.03125 0.484375 0.390625 0.765625q0.359375 0.28125 0.953125 0.28125q0.546875 0 0.875 -0.21875q0.328125 -0.21875 0.328125 -0.59375z" fill-rule="nonzero"/><path fill="#ffffff" d="m303.82312 393.24683l-0.96875 0l0 -6.421875l-1.9375 0.71875l0 -0.875l2.75 -1.03125l0.15625 0l0 7.609375zm6.499359 -3.328125q-0.296875 0.359375 -0.71875 0.578125q-0.421875 0.21875 -0.921875 0.21875q-0.640625 0 -1.140625 -0.3125q-0.484375 -0.328125 -0.75 -0.90625q-0.265625 -0.59375 -0.265625 -1.3125q0 -0.75 0.28125 -1.359375q0.296875 -0.609375 0.828125 -0.9375q0.53125 -0.328125 1.234375 -0.328125q1.125 0 1.765625 0.84375q0.65625 0.84375 0.65625 2.296875l0 0.28125q0 2.203125 -0.875 3.234375q-0.875 1.015625 -2.625 1.03125l-0.1875 0l0 -0.8125l0.203125 0q1.1875 -0.015625 1.828125 -0.609375q0.640625 -0.609375 0.6875 -1.90625zm-1.484375 0q0.484375 0 0.890625 -0.296875q0.421875 -0.296875 0.609375 -0.734375l0 -0.390625q0 -0.9375 -0.421875 -1.53125q-0.40625 -0.59375 -1.03125 -0.59375q-0.640625 0 -1.03125 0.484375q-0.375 0.484375 -0.375 1.28125q0 0.78125 0.375 1.28125q0.375 0.5 0.984375 0.5zm7.561859 -4.25l0 0.8125l-0.171875 0q-1.125 0.015625 -1.796875 0.671875q-0.65625 0.640625 -0.765625 1.8125q0.59375 -0.6875 1.625 -0.6875q1.0 0 1.578125 0.703125q0.59375 0.6875 0.59375 1.796875q0 1.171875 -0.640625 1.875q-0.625 0.703125 -1.703125 0.703125q-1.078125 0 -1.765625 -0.828125q-0.671875 -0.84375 -0.671875 -2.15625l0 -0.375q0 -2.09375 0.890625 -3.203125q0.890625 -1.109375 2.65625 -1.125l0.171875 0zm-1.265625 3.40625q-0.484375 0 -0.90625 0.296875q-0.421875 0.296875 -0.578125 0.75l0 0.359375q0 0.921875 0.421875 1.5q0.421875 0.578125 1.046875 0.578125q0.65625 0 1.015625 -0.484375q0.375 -0.484375 0.375 -1.25q0 -0.78125 -0.375 -1.265625q-0.375 -0.484375 -1.0 -0.484375zm3.9212341 0.375l0.375 -3.78125l3.890625 0l0 0.890625l-3.0625 0l-0.234375 2.0625q0.5625 -0.328125 1.265625 -0.328125q1.03125 0 1.640625 0.6875q0.609375 0.6875 0.609375 1.84375q0 1.171875 -0.640625 1.859375q-0.625 0.671875 -1.765625 0.671875q-1.0 0 -1.640625 -0.5625q-0.625 -0.5625 -0.71875 -1.546875l0.921875 0q0.078125 0.65625 0.453125 0.984375q0.375 0.328125 0.984375 0.328125q0.671875 0 1.046875 -0.453125q0.390625 -0.453125 0.390625 -1.265625q0 -0.75 -0.421875 -1.203125q-0.40625 -0.46875 -1.09375 -0.46875q-0.625 0 -0.984375 0.265625l-0.25 0.21875l-0.765625 -0.203125z" fill-rule="nonzero"/><path fill="#ffffff" d="m301.90125 417.18622l0 2.96875l-1.0 0l0 -7.578125l2.796875 0q1.25 0 1.953125 0.640625q0.703125 0.625 0.703125 1.671875q0 1.109375 -0.6875 1.703125q-0.6875 0.59375 -1.984375 0.59375l-1.78125 0zm0 -0.8125l1.796875 0q0.796875 0 1.21875 -0.375q0.4375 -0.375 0.4375 -1.09375q0 -0.671875 -0.4375 -1.078125q-0.421875 -0.40625 -1.15625 -0.421875l-1.859375 0l0 2.96875zm6.535095 -1.171875q0.640625 -0.78125 1.671875 -0.78125q1.78125 0 1.796875 2.015625l0 3.71875l-0.96875 0l0 -3.71875q0 -0.609375 -0.28125 -0.90625q-0.265625 -0.296875 -0.84375 -0.296875q-0.46875 0 -0.828125 0.25q-0.34375 0.25 -0.546875 0.65625l0 4.015625l-0.953125 0l0 -8.0l0.953125 0l0 3.046875zm5.9630127 4.953125l-0.96875 0l0 -5.625l0.96875 0l0 5.625zm-1.046875 -7.125q0 -0.234375 0.140625 -0.390625q0.140625 -0.171875 0.421875 -0.171875q0.28125 0 0.421875 0.171875q0.15625 0.15625 0.15625 0.390625q0 0.234375 -0.15625 0.390625q-0.140625 0.15625 -0.421875 0.15625q-0.28125 0 -0.421875 -0.15625q-0.140625 -0.15625 -0.140625 -0.390625zm3.632904 7.125l-0.96875 0l0 -8.0l0.96875 0l0 8.0zm5.0078735 0q-0.078125 -0.171875 -0.140625 -0.59375q-0.671875 0.703125 -1.59375 0.703125q-0.828125 0 -1.375 -0.46875q-0.53125 -0.484375 -0.53125 -1.203125q0 -0.875 0.671875 -1.359375q0.671875 -0.484375 1.875 -0.484375l0.9375 0l0 -0.453125q0 -0.5 -0.296875 -0.796875q-0.296875 -0.296875 -0.890625 -0.296875q-0.515625 0 -0.859375 0.265625q-0.34375 0.25 -0.34375 0.625l-0.96875 0q0 -0.421875 0.296875 -0.8125q0.296875 -0.40625 0.8125 -0.625q0.515625 -0.234375 1.125 -0.234375q0.96875 0 1.515625 0.484375q0.5625 0.484375 0.578125 1.34375l0 2.59375q0 0.765625 0.203125 1.234375l0 0.078125l-1.015625 0zm-1.59375 -0.734375q0.453125 0 0.859375 -0.234375q0.40625 -0.234375 0.578125 -0.609375l0 -1.15625l-0.75 0q-1.765625 0 -1.765625 1.03125q0 0.453125 0.296875 0.71875q0.3125 0.25 0.78125 0.25zm3.6870422 -2.125q0 -1.296875 0.609375 -2.078125q0.609375 -0.796875 1.609375 -0.796875q0.984375 0 1.5625 0.671875l0 -2.9375l0.96875 0l0 8.0l-0.890625 0l-0.046875 -0.609375q-0.578125 0.71875 -1.609375 0.71875q-0.96875 0 -1.59375 -0.796875q-0.609375 -0.8125 -0.609375 -2.09375l0 -0.078125zm0.953125 0.109375q0 0.953125 0.390625 1.5q0.40625 0.53125 1.09375 0.53125q0.921875 0 1.34375 -0.8125l0 -2.59375q-0.4375 -0.796875 -1.328125 -0.796875q-0.703125 0 -1.109375 0.546875q-0.390625 0.546875 -0.390625 1.625zm7.6191406 2.859375q-1.140625 0 -1.859375 -0.75q-0.71875 -0.765625 -0.71875 -2.015625l0 -0.171875q0 -0.84375 0.3125 -1.5q0.328125 -0.65625 0.90625 -1.03125q0.578125 -0.375 1.234375 -0.375q1.109375 0 1.71875 0.734375q0.609375 0.71875 0.609375 2.0625l0 0.390625l-3.8125 0q0.015625 0.84375 0.484375 1.359375q0.46875 0.5 1.171875 0.5q0.515625 0 0.859375 -0.203125q0.359375 -0.203125 0.625 -0.546875l0.59375 0.453125q-0.703125 1.09375 -2.125 1.09375zm-0.125 -5.046875q-0.578125 0 -0.96875 0.421875q-0.390625 0.421875 -0.484375 1.1875l2.8125 0l0 -0.078125q-0.046875 -0.734375 -0.40625 -1.125q-0.34375 -0.40625 -0.953125 -0.40625zm4.489258 4.9375l-0.96875 0l0 -8.0l0.96875 0l0 8.0zm6.289154 -2.75q0 1.28125 -0.59375 2.078125q-0.578125 0.78125 -1.59375 0.78125q-1.015625 0 -1.609375 -0.65625l0 2.71875l-0.953125 0l0 -7.796875l0.875 0l0.046875 0.625q0.59375 -0.734375 1.625 -0.734375q1.015625 0 1.609375 0.765625q0.59375 0.765625 0.59375 2.125l0 0.09375zm-0.96875 -0.109375q0 -0.953125 -0.40625 -1.5q-0.40625 -0.5625 -1.109375 -0.5625q-0.875 0 -1.3125 0.78125l0 2.6875q0.4375 0.765625 1.328125 0.765625q0.6875 0 1.09375 -0.546875q0.40625 -0.546875 0.40625 -1.625zm3.1503906 -2.09375q0.640625 -0.78125 1.671875 -0.78125q1.78125 0 1.796875 2.015625l0 3.71875l-0.96875 0l0 -3.71875q0 -0.609375 -0.28125 -0.90625q-0.265625 -0.296875 -0.84375 -0.296875q-0.46875 0 -0.828125 0.25q-0.34375 0.25 -0.546875 0.65625l0 4.015625l-0.953125 0l0 -8.0l0.953125 0l0 3.046875zm5.9630127 4.953125l-0.96875 0l0 -5.625l0.96875 0l0 5.625zm-1.046875 -7.125q0 -0.234375 0.140625 -0.390625q0.140625 -0.171875 0.421875 -0.171875q0.28125 0 0.421875 0.171875q0.15625 0.15625 0.15625 0.390625q0 0.234375 -0.15625 0.390625q-0.140625 0.15625 -0.421875 0.15625q-0.28125 0 -0.421875 -0.15625q-0.140625 -0.15625 -0.140625 -0.390625zm6.054779 7.125q-0.078125 -0.171875 -0.140625 -0.59375q-0.671875 0.703125 -1.59375 0.703125q-0.828125 0 -1.375 -0.46875q-0.53125 -0.484375 -0.53125 -1.203125q0 -0.875 0.671875 -1.359375q0.671875 -0.484375 1.875 -0.484375l0.9375 0l0 -0.453125q0 -0.5 -0.296875 -0.796875q-0.296875 -0.296875 -0.890625 -0.296875q-0.515625 0 -0.859375 0.265625q-0.34375 0.25 -0.34375 0.625l-0.96875 0q0 -0.421875 0.296875 -0.8125q0.296875 -0.40625 0.8125 -0.625q0.515625 -0.234375 1.125 -0.234375q0.96875 0 1.515625 0.484375q0.5625 0.484375 0.578125 1.34375l0 2.59375q0 0.765625 0.203125 1.234375l0 0.078125l-1.015625 0zm-1.59375 -0.734375q0.453125 0 0.859375 -0.234375q0.40625 -0.234375 0.578125 -0.609375l0 -1.15625l-0.75 0q-1.765625 0 -1.765625 1.03125q0 0.453125 0.296875 0.71875q0.3125 0.25 0.78125 0.25z" fill-rule="nonzero"/><path fill="#000000" fill-opacity="0.0" d="m37.71391 210.24934l178.29921 0l0 116.34645l-178.29921 0z" fill-rule="evenodd"/><path fill="#ffffff" d="m62.667034 229.06808l-5.796875 0l0 15.78125l-3.90625 0l0 -15.78125l-5.734375 0l0 -3.171875l15.4375 0l0 3.171875zm9.050846 5.21875q-0.765625 -0.09375 -1.359375 -0.09375q-2.125 0 -2.796875 1.4375l0 9.21875l-3.7656288 0l0 -14.078125l3.5625038 0l0.109375 1.671875q1.125 -1.9375 3.125 -1.9375q0.625 0 1.171875 0.171875l-0.046875 3.609375zm9.582138 10.5625q-0.265625 -0.5 -0.375 -1.265625q-1.375 1.53125 -3.5625 1.53125q-2.0625 0 -3.421875 -1.203125q-1.359375 -1.203125 -1.359375 -3.015625q0 -2.25 1.65625 -3.4375q1.65625 -1.203125 4.796875 -1.21875l1.734375 0l0 -0.796875q0 -0.984375 -0.515625 -1.5625q-0.5 -0.59375 -1.578125 -0.59375q-0.9375 0 -1.484375 0.46875q-0.546875 0.453125 -0.546875 1.234375l-3.75 0q0 -1.21875 0.75 -2.25q0.75 -1.046875 2.125 -1.640625q1.390625 -0.59375 3.109375 -0.59375q2.59375 0 4.125 1.3125q1.53125 1.296875 1.53125 3.671875l0 6.109375q0.015625 2.0 0.5625 3.03125l0 0.21875l-3.796875 0zm-3.109375 -2.609375q0.828125 0 1.53125 -0.375q0.703125 -0.375 1.046875 -1.0l0 -2.421875l-1.40625 0q-2.828125 0 -3.015625 1.953125l-0.015625 0.21875q0 0.703125 0.5 1.171875q0.5 0.453125 1.359375 0.453125zm8.650665 -4.53125q0 -3.296875 1.46875 -5.25q1.484375 -1.953125 4.046875 -1.953125q2.0625 0 3.40625 1.53125l0 -7.1875l3.765625 0l0 20.0l-3.390625 0l-0.1875 -1.5q-1.40625 1.765625 -3.609375 1.765625q-2.5 0 -4.0 -1.953125q-1.5 -1.96875 -1.5 -5.453125zm3.765625 0.265625q0 1.984375 0.6875 3.046875q0.6875 1.046875 2.0 1.046875q1.75 0 2.46875 -1.46875l0 -5.5625q-0.703125 -1.46875 -2.4375 -1.46875q-2.71875 0 -2.71875 4.40625zm15.817047 6.875l-3.78125 0l0 -14.078125l3.78125 0l0 14.078125zm-4.0 -17.734375q0 -0.84375 0.5625 -1.390625q0.5625 -0.546875 1.546875 -0.546875q0.953125 0 1.53125 0.546875q0.578125 0.546875 0.578125 1.390625q0 0.859375 -0.578125 1.40625q-0.578125 0.546875 -1.53125 0.546875q-0.953125 0 -1.53125 -0.546875q-0.578125 -0.546875 -0.578125 -1.40625zm11.598801 0.1875l0 3.46875l2.40625 0l0 2.75l-2.40625 0l0 7.03125q0 0.78125 0.296875 1.125q0.296875 0.328125 1.140625 0.328125q0.625 0 1.109375 -0.078125l0 2.84375q-1.109375 0.34375 -2.28125 0.34375q-3.953125 0 -4.03125 -4.0l0 -7.59375l-2.0625 0l0 -2.75l2.0625 0l0 -3.46875l3.765625 0zm8.475647 17.546875l-3.78125 0l0 -14.078125l3.78125 0l0 14.078125zm-4.0 -17.734375q0 -0.84375 0.5625 -1.390625q0.5625 -0.546875 1.546875 -0.546875q0.953125 0 1.53125 0.546875q0.578125 0.546875 0.578125 1.390625q0 0.859375 -0.578125 1.40625q-0.578125 0.546875 -1.53125 0.546875q-0.953125 0 -1.53125 -0.546875q-0.578125 -0.546875 -0.578125 -1.40625zm6.5050507 10.5625q0 -2.09375 0.796875 -3.734375q0.8125 -1.640625 2.328125 -2.53125q1.515625 -0.90625 3.53125 -0.90625q2.84375 0 4.640625 1.75q1.8125 1.734375 2.015625 4.734375l0.03125 0.96875q0 3.234375 -1.8125 5.203125q-1.8125 1.953125 -4.859375 1.953125q-3.046875 0 -4.859375 -1.953125q-1.8125 -1.953125 -1.8125 -5.3125l0 -0.171875zm3.765625 0.28125q0 2.0 0.75 3.0625q0.75 1.0625 2.15625 1.0625q1.375 0 2.140625 -1.046875q0.765625 -1.0625 0.765625 -3.359375q0 -1.96875 -0.765625 -3.046875q-0.765625 -1.078125 -2.15625 -1.078125q-1.390625 0 -2.140625 1.078125q-0.75 1.0625 -0.75 3.328125zm15.353485 -7.1875l0.125 1.625q1.5 -1.890625 4.046875 -1.890625q2.234375 0 3.328125 1.3125q1.09375 1.3125 1.109375 3.9375l0 9.09375l-3.75 0l0 -9.0q0 -1.203125 -0.53125 -1.734375q-0.515625 -0.546875 -1.71875 -0.546875q-1.59375 0 -2.390625 1.34375l0 9.9375l-3.765625 0l0 -14.078125l3.546875 0zm19.632187 14.078125q-0.265625 -0.5 -0.375 -1.265625q-1.375 1.53125 -3.5625 1.53125q-2.0625 0 -3.421875 -1.203125q-1.359375 -1.203125 -1.359375 -3.015625q0 -2.25 1.65625 -3.4375q1.65625 -1.203125 4.796875 -1.21875l1.734375 0l0 -0.796875q0 -0.984375 -0.515625 -1.5625q-0.5 -0.59375 -1.578125 -0.59375q-0.9375 0 -1.484375 0.46875q-0.546875 0.453125 -0.546875 1.234375l-3.75 0q0 -1.21875 0.75 -2.25q0.75 -1.046875 2.125 -1.640625q1.390625 -0.59375 3.109375 -0.59375q2.59375 0 4.125 1.3125q1.53125 1.296875 1.53125 3.671875l0 6.109375q0.015625 2.0 0.5625 3.03125l0 0.21875l-3.796875 0zm-3.109375 -2.609375q0.828125 0 1.53125 -0.375q0.703125 -0.375 1.046875 -1.0l0 -2.421875l-1.40625 0q-2.828125 0 -3.015625 1.953125l-0.015625 0.21875q0 0.703125 0.5 1.171875q0.5 0.453125 1.359375 0.453125zm13.213165 2.609375l-3.78125 0l0 -20.0l3.78125 0l0 20.0z" fill-rule="nonzero"/><path fill="#ffffff" d="m51.68266 262.7712l0.125 1.5625q1.5 -1.828125 4.046875 -1.828125q2.71875 0 3.734375 2.140625q1.484375 -2.140625 4.234375 -2.140625q2.2812538 0 3.3906288 1.34375q1.125 1.328125 1.125 4.0l0 9.0l-3.765625 0l0 -8.984375q0 -1.1875 -0.46875 -1.734375q-0.4687538 -0.5625 -1.6562538 -0.5625q-1.6875 0 -2.34375 1.609375l0.015625 9.671875l-3.765625 0l0 -8.96875q0 -1.21875 -0.484375 -1.765625q-0.46875 -0.546875 -1.640625 -0.546875q-1.59375 0 -2.3125 1.328125l0 9.953125l-3.765625 0l0 -14.078125l3.53125 0zm26.030048 14.34375q-3.09375 0 -5.046875 -1.90625q-1.9375 -1.90625 -1.9375 -5.0625l0 -0.359375q0 -2.125 0.8125 -3.796875q0.828125 -1.671875 2.328125 -2.578125q1.5 -0.90625 3.4375 -0.90625q2.890625 0 4.546875 1.828125q1.65625 1.8125 1.65625 5.15625l0 1.546875l-8.96875 0q0.1875 1.375 1.09375 2.21875q0.921875 0.828125 2.328125 0.828125q2.171875 0 3.40625 -1.578125l1.84375 2.0625q-0.84375 1.203125 -2.296875 1.875q-1.4375 0.671875 -3.203125 0.671875zm-0.421875 -11.5625q-1.125 0 -1.828125 0.765625q-0.6875 0.75 -0.875 2.15625l5.21875 0l0 -0.3125q-0.015625 -1.25 -0.671875 -1.921875q-0.65625 -0.6875 -1.84375 -0.6875zm11.877182 -2.78125l0.125 1.5625q1.5 -1.828125 4.046875 -1.828125q2.71875 0 3.734375 2.140625q1.484375 -2.140625 4.234375 -2.140625q2.28125 0 3.390625 1.34375q1.125 1.328125 1.125 4.0l0 9.0l-3.765625 0l0 -8.984375q0 -1.1875 -0.46875 -1.734375q-0.46875 -0.5625 -1.65625 -0.5625q-1.6875 0 -2.34375 1.609375l0.015625 9.671875l-3.765625 0l0 -8.96875q0 -1.21875 -0.484375 -1.765625q-0.46875 -0.546875 -1.640625 -0.546875q-1.59375 0 -2.3125 1.328125l0 9.953125l-3.765625 0l0 -14.078125l3.53125 0zm18.967545 6.90625q0 -2.09375 0.796875 -3.734375q0.8125 -1.640625 2.328125 -2.53125q1.515625 -0.90625 3.53125 -0.90625q2.84375 0 4.640625 1.75q1.8125 1.734375 2.015625 4.734375l0.03125 0.96875q0 3.234375 -1.8125 5.203125q-1.8125 1.953125 -4.859375 1.953125q-3.046875 0 -4.859375 -1.953125q-1.8125 -1.953125 -1.8125 -5.3125l0 -0.171875zm3.765625 0.28125q0 2.0 0.75 3.0625q0.75 1.0625 2.15625 1.0625q1.375 0 2.140625 -1.046875q0.765625 -1.0625 0.765625 -3.359375q0 -1.96875 -0.765625 -3.046875q-0.765625 -1.078125 -2.15625 -1.078125q-1.390625 0 -2.140625 1.078125q-0.75 1.0625 -0.75 3.328125zm19.80661 -3.671875q-0.765625 -0.09375 -1.359375 -0.09375q-2.125 0 -2.796875 1.4375l0 9.21875l-3.765625 0l0 -14.078125l3.5625 0l0.109375 1.671875q1.125 -1.9375 3.125 -1.9375q0.625 0 1.171875 0.171875l-0.046875 3.609375zm7.300888 5.234375l2.609375 -8.75l4.03125 0l-5.671875 16.265625l-0.3125 0.734375q-1.25 2.765625 -4.15625 2.765625q-0.828125 0 -1.671875 -0.25l0 -2.84375l0.578125 0.015625q1.0625 0 1.59375 -0.328125q0.53125 -0.328125 0.828125 -1.078125l0.4375 -1.171875l-4.9375 -14.109375l4.0625 0l2.609375 8.75z" fill-rule="nonzero"/><path fill="#ffffff" d="m60.854534 301.94308q0 3.375 -1.453125 5.28125q-1.4375 1.890625 -4.03125 1.890625q-2.296875 0 -3.65625 -1.765625l-0.171875 1.5l-3.390625 0l0 -20.0l3.765625 0l0 7.171875q1.3125 -1.515625 3.421875 -1.515625q2.578125 0 4.046875 1.890625q1.46875 1.890625 1.46875 5.328125l0 0.21875zm-3.765625 -0.28125q0 -2.125 -0.6875 -3.109375q-0.671875 -0.984375 -2.015625 -0.984375q-1.78125 0 -2.46875 1.46875l0 5.5625q0.6875 1.484375 2.5 1.484375q1.828125 0 2.390625 -1.796875q0.28125 -0.859375 0.28125 -2.625zm14.50716 5.75q-1.390625 1.703125 -3.84375 1.703125q-2.265625 0 -3.46875 -1.296875q-1.1875038 -1.3125 -1.2031288 -3.828125l0 -9.21875l3.7500038 0l0 9.09375q0 2.203125 2.015625 2.203125q1.90625 0 2.625 -1.328125l0 -9.96875l3.765625 0l0 14.078125l-3.53125 0l-0.109375 -1.4375zm7.509796 1.4375l0 -11.328125l-2.09375 0l0 -2.75l2.09375 0l0 -1.203125q0 -2.375 1.359375 -3.671875q1.359375 -1.3125 3.8125 -1.3125q0.78125 0 1.90625 0.265625l-0.03125 2.90625q-0.46875 -0.109375 -1.140625 -0.109375q-2.125 0 -2.125 1.984375l0 1.140625l2.796875 0l0 2.75l-2.796875 0l0 11.328125l-3.78125 0zm9.553558 0l0 -11.328125l-2.09375 0l0 -2.75l2.09375 0l0 -1.203125q0 -2.375 1.359375 -3.671875q1.359375 -1.3125 3.8125 -1.3125q0.78125 0 1.90625 0.265625l-0.03125 2.90625q-0.46875 -0.109375 -1.140625 -0.109375q-2.125 0 -2.125 1.984375l0 1.140625l2.796875 0l0 2.75l-2.796875 0l0 11.328125l-3.78125 0zm14.694183 0.265625q-3.09375 0 -5.046875 -1.90625q-1.9375 -1.90625 -1.9375 -5.0625l0 -0.359375q0 -2.125 0.8125 -3.796875q0.828125 -1.671875 2.328125 -2.578125q1.5 -0.90625 3.4375 -0.90625q2.890625 0 4.546875 1.828125q1.65625 1.8125 1.65625 5.15625l0 1.546875l-8.96875 0q0.1875 1.375 1.09375 2.21875q0.921875 0.828125 2.328125 0.828125q2.171875 0 3.40625 -1.578125l1.84375 2.0625q-0.84375 1.203125 -2.296875 1.875q-1.4375 0.671875 -3.203125 0.671875zm-0.421875 -11.5625q-1.125 0 -1.828125 0.765625q-0.6875 0.75 -0.875 2.15625l5.21875 0l0 -0.3125q-0.015625 -1.25 -0.671875 -1.921875q-0.65625 -0.6875 -1.84375 -0.6875zm16.267807 0.734375q-0.765625 -0.09375 -1.359375 -0.09375q-2.125 0 -2.796875 1.4375l0 9.21875l-3.765625 0l0 -14.078125l3.5625 0l0.109375 1.671875q1.125 -1.9375 3.125 -1.9375q0.625 0 1.171875 0.171875l-0.046875 3.609375z" fill-rule="nonzero"/><path fill="#000000" fill-opacity="0.0" d="m524.5853 224.44357l298.2677 0l0 84.031494l-298.2677 0z" fill-rule="evenodd"/><path fill="#ffffff" d="m546.2572 254.09044l-7.953125 0l-1.78125 4.9531403l-2.578125 0l7.234375 -18.95314l2.1875 0l7.25 18.95314l-2.5625 0l-1.796875 -4.9531403zm-7.1875 -2.046875l6.4375 0l-3.234375 -8.859375l-3.203125 8.859375zm13.139038 -0.15625q0 -3.25 1.53125 -5.21875q1.546875 -1.96875 4.03125 -1.96875q2.46875 0 3.921875 1.6875l0 -7.34375l2.40625 0l0 20.000015l-2.21875 0l-0.109375 -1.515625q-1.453125 1.78125 -4.03125 1.78125q-2.4375 0 -3.984375 -2.0q-1.546875 -2.0156403 -1.546875 -5.2343903l0 -0.1875zm2.40625 0.265625q0 2.40625 0.984375 3.765625q1.0 1.3437653 2.734375 1.3437653q2.296875 0 3.359375 -2.0625153l0 -6.46875q-1.09375 -1.984375 -3.328125 -1.984375q-1.765625 0 -2.765625 1.375q-0.984375 1.359375 -0.984375 4.03125zm15.705017 -7.1875l0 15.70314q0 4.0625 -3.6875 4.0625q-0.796875 0 -1.46875 -0.234375l0 -1.921875q0.421875 0.09375 1.09375 0.09375q0.796875 0 1.21875 -0.4375q0.4375 -0.421875 0.4375 -1.515625l0 -15.750015l2.40625 0zm-2.65625 -3.734375q0 -0.578125 0.359375 -0.984375q0.359375 -0.421875 1.046875 -0.421875q0.703125 0 1.0625 0.40625q0.359375 0.40625 0.359375 1.0q0 0.578125 -0.359375 0.96875q-0.359375 0.390625 -1.0625 0.390625q-0.703125 0 -1.0625 -0.390625q-0.34375 -0.390625 -0.34375 -0.96875zm15.224121 17.812515q-0.203125 -0.421875 -0.34375 -1.484375q-1.671875 1.75 -4.0 1.75q-2.078125 0 -3.421875 -1.171875q-1.328125 -1.1875 -1.328125 -3.0000153q0 -2.203125 1.671875 -3.40625q1.671875 -1.21875 4.703125 -1.21875l2.34375 0l0 -1.109375q0 -1.265625 -0.765625 -2.015625q-0.75 -0.75 -2.21875 -0.75q-1.28125 0 -2.15625 0.65625q-0.875 0.640625 -0.875 1.578125l-2.421875 0q0 -1.0625 0.75 -2.046875q0.75 -0.984375 2.03125 -1.546875q1.28125 -0.578125 2.8125 -0.578125q2.4375 0 3.8125 1.21875q1.390625 1.21875 1.4375 3.34375l0 6.484375q0 1.9375153 0.5 3.0937653l0 0.203125l-2.53125 0zm-4.0 -1.828125q1.140625 0 2.15625 -0.578125q1.015625 -0.59375 1.46875 -1.5312653l0 -2.890625l-1.890625 0q-4.421875 0 -4.421875 2.578125q0 1.140625 0.75 1.7812653q0.765625 0.640625 1.9375 0.640625zm15.452637 0.125q1.296875 0 2.25 -0.78125q0.96875 -0.78126526 1.078125 -1.9531403l2.265625 0q-0.0625 1.203125 -0.828125 2.2968903q-0.765625 1.09375 -2.046875 1.75q-1.28125 0.65625 -2.71875 0.65625q-2.875 0 -4.578125 -1.921875q-1.6875 -1.9218903 -1.6875 -5.2500153l0 -0.40625q0 -2.0625 0.75 -3.65625q0.75 -1.609375 2.15625 -2.484375q1.421875 -0.890625 3.34375 -0.890625q2.375 0 3.9375 1.421875q1.578125 1.421875 1.671875 3.6875l-2.265625 0q-0.109375 -1.375 -1.046875 -2.25q-0.921875 -0.875 -2.296875 -0.875q-1.828125 0 -2.84375 1.328125q-1.0 1.3125 -1.0 3.8125l0 0.453125q0 2.4375 1.0 3.7500153q1.0 1.3125 2.859375 1.3125zm14.156006 1.96875q-2.875 0 -4.671875 -1.875q-1.796875 -1.8906403 -1.796875 -5.0468903l0 -0.4375q0 -2.09375 0.796875 -3.734375q0.8125 -1.65625 2.25 -2.578125q1.4375 -0.9375 3.109375 -0.9375q2.75 0 4.265625 1.8125q1.53125 1.8125 1.53125 5.171875l0 1.0l-9.53125 0q0.046875 2.09375 1.203125 3.3750153q1.171875 1.28125 2.96875 1.28125q1.28125 0 2.15625 -0.515625q0.890625 -0.53125 1.546875 -1.3906403l1.484375 1.1562653q-1.78125 2.71875 -5.3125 2.71875zm-0.3125 -12.625015q-1.453125 0 -2.4375 1.0625q-0.984375 1.046875 -1.21875 2.96875l7.046875 0l0 -0.1875q-0.109375 -1.828125 -1.0 -2.828125q-0.875 -1.015625 -2.390625 -1.015625zm10.856445 -1.71875l0.078125 1.765625q1.625 -2.03125 4.21875 -2.03125q4.46875 0 4.515625 5.03125l0 9.312515l-2.421875 0l0 -9.312515q0 -1.53125 -0.6875 -2.25q-0.6875 -0.734375 -2.125 -0.734375q-1.171875 0 -2.0625 0.625q-0.890625 0.625 -1.375 1.640625l0 10.031265l-2.40625 0l0 -14.07814l2.265625 0zm15.707825 -3.421875l0 3.421875l2.625 0l0 1.859375l-2.625 0l0 8.734375q0 0.84376526 0.34375 1.2656403q0.359375 0.421875 1.203125 0.421875q0.40625 0 1.140625 -0.15625l0 1.953125q-0.953125 0.265625 -1.84375 0.265625q-1.609375 0 -2.4375 -0.96875q-0.8125 -0.984375 -0.8125 -2.7812653l0 -8.734375l-2.578125 0l0 -1.859375l2.578125 0l0 -3.421875l2.40625 0zm11.447144 10.34375q0 -3.25 1.53125 -5.21875q1.546875 -1.96875 4.03125 -1.96875q2.46875 0 3.921875 1.6875l0 -7.34375l2.40625 0l0 20.000015l-2.21875 0l-0.109375 -1.515625q-1.453125 1.78125 -4.03125 1.78125q-2.4375 0 -3.984375 -2.0q-1.546875 -2.0156403 -1.546875 -5.2343903l0 -0.1875zm2.40625 0.265625q0 2.40625 0.984375 3.765625q1.0 1.3437653 2.734375 1.3437653q2.296875 0 3.359375 -2.0625153l0 -6.46875q-1.09375 -1.984375 -3.328125 -1.984375q-1.765625 0 -2.765625 1.375q-0.984375 1.359375 -0.984375 4.03125zm21.908203 6.8906403q-0.203125 -0.421875 -0.34375 -1.484375q-1.671875 1.75 -4.0 1.75q-2.078125 0 -3.421875 -1.171875q-1.328125 -1.1875 -1.328125 -3.0000153q0 -2.203125 1.671875 -3.40625q1.671875 -1.21875 4.703125 -1.21875l2.34375 0l0 -1.109375q0 -1.265625 -0.765625 -2.015625q-0.75 -0.75 -2.21875 -0.75q-1.28125 0 -2.15625 0.65625q-0.875 0.640625 -0.875 1.578125l-2.421875 0q0 -1.0625 0.75 -2.046875q0.75 -0.984375 2.03125 -1.546875q1.28125 -0.578125 2.8125 -0.578125q2.4375 0 3.8125 1.21875q1.390625 1.21875 1.4375 3.34375l0 6.484375q0 1.9375153 0.5 3.0937653l0 0.203125l-2.53125 0zm-4.0 -1.828125q1.140625 0 2.15625 -0.578125q1.015625 -0.59375 1.46875 -1.5312653l0 -2.890625l-1.890625 0q-4.421875 0 -4.421875 2.578125q0 1.140625 0.75 1.7812653q0.765625 0.640625 1.9375 0.640625zm13.077637 -15.67189l0 3.421875l2.625 0l0 1.859375l-2.625 0l0 8.734375q0 0.84376526 0.34375 1.2656403q0.359375 0.421875 1.203125 0.421875q0.40625 0 1.140625 -0.15625l0 1.953125q-0.953125 0.265625 -1.84375 0.265625q-1.609375 0 -2.4375 -0.96875q-0.8125 -0.984375 -0.8125 -2.7812653l0 -8.734375l-2.578125 0l0 -1.859375l2.578125 0l0 -3.421875l2.40625 0zm14.129395 17.500015q-0.203125 -0.421875 -0.34375 -1.484375q-1.671875 1.75 -4.0 1.75q-2.078125 0 -3.421875 -1.171875q-1.328125 -1.1875 -1.328125 -3.0000153q0 -2.203125 1.671875 -3.40625q1.671875 -1.21875 4.703125 -1.21875l2.34375 0l0 -1.109375q0 -1.265625 -0.765625 -2.015625q-0.75 -0.75 -2.21875 -0.75q-1.28125 0 -2.15625 0.65625q-0.875 0.640625 -0.875 1.578125l-2.421875 0q0 -1.0625 0.75 -2.046875q0.75 -0.984375 2.03125 -1.546875q1.28125 -0.578125 2.8125 -0.578125q2.4375 0 3.8125 1.21875q1.390625 1.21875 1.4375 3.34375l0 6.484375q0 1.9375153 0.5 3.0937653l0 0.203125l-2.53125 0zm-4.0 -1.828125q1.140625 0 2.15625 -0.578125q1.015625 -0.59375 1.46875 -1.5312653l0 -2.890625l-1.890625 0q-4.421875 0 -4.421875 2.578125q0 1.140625 0.75 1.7812653q0.765625 0.640625 1.9375 0.640625zm19.020447 1.828125l-2.40625 0l0 -14.07814l2.40625 0l0 14.07814zm-2.609375 -17.812515q0 -0.59375 0.359375 -1.0q0.359375 -0.40625 1.0625 -0.40625q0.703125 0 1.0625 0.40625q0.375 0.40625 0.375 1.0q0 0.578125 -0.375 0.96875q-0.359375 0.390625 -1.0625 0.390625q-0.703125 0 -1.0625 -0.390625q-0.359375 -0.390625 -0.359375 -0.96875zm8.734436 3.734375l0.078125 1.765625q1.625 -2.03125 4.21875 -2.03125q4.46875 0 4.515625 5.03125l0 9.312515l-2.421875 0l0 -9.312515q0 -1.53125 -0.6875 -2.25q-0.6875 -0.734375 -2.125 -0.734375q-1.171875 0 -2.0625 0.625q-0.890625 0.625 -1.375 1.640625l0 10.031265l-2.40625 0l0 -14.07814l2.265625 0z" fill-rule="nonzero"/><path fill="#ffffff" d="m537.6791 276.96545l0.0625 1.5625q1.546875 -1.828125 4.171875 -1.828125q2.953125 0 4.03125 2.265625q0.703125 -1.015625 1.828125 -1.640625q1.125 -0.625 2.65625 -0.625q4.625 0 4.703125 4.90625l0 9.4375l-2.40625 0l0 -9.296875q0 -1.5 -0.6875 -2.25q-0.6875 -0.75 -2.3125 -0.75q-1.34375 0 -2.234375 0.796875q-0.875 0.796875 -1.015625 2.15625l0 9.34375l-2.421875 0l0 -9.234375q0 -3.0625 -3.015625 -3.0625q-2.359375 0 -3.234375 2.015625l0 10.28125l-2.40625 0l0 -14.078125l2.28125 0zm26.941345 14.34375q-2.875 0 -4.671875 -1.875q-1.796875 -1.890625 -1.796875 -5.046875l0 -0.4375q0 -2.09375 0.796875 -3.734375q0.8125 -1.65625 2.25 -2.578125q1.4375 -0.9375 3.109375 -0.9375q2.75 0 4.265625 1.8125q1.53125 1.8125 1.53125 5.171875l0 1.0l-9.53125 0q0.046875 2.09375 1.203125 3.375q1.171875 1.28125 2.96875 1.28125q1.28125 0 2.15625 -0.515625q0.890625 -0.53125 1.546875 -1.390625l1.484375 1.15625q-1.78125 2.71875 -5.3125 2.71875zm-0.3125 -12.625q-1.453125 0 -2.4375 1.0625q-0.984375 1.046875 -1.21875 2.96875l7.046875 0l0 -0.1875q-0.109375 -1.828125 -1.0 -2.828125q-0.875 -1.015625 -2.390625 -1.015625zm10.856506 -1.71875l0.0625 1.5625q1.546875 -1.828125 4.171875 -1.828125q2.953125 0 4.03125 2.265625q0.703125 -1.015625 1.828125 -1.640625q1.125 -0.625 2.65625 -0.625q4.625 0 4.703125 4.90625l0 9.4375l-2.40625 0l0 -9.296875q0 -1.5 -0.6875 -2.25q-0.6875 -0.75 -2.3125 -0.75q-1.34375 0 -2.234375 0.796875q-0.875 0.796875 -1.015625 2.15625l0 9.34375l-2.421875 0l0 -9.234375q0 -3.0625 -3.015625 -3.0625q-2.359375 0 -3.234375 2.015625l0 10.28125l-2.40625 0l0 -14.078125l2.28125 0zm20.45697 6.90625q0 -2.0625 0.8125 -3.71875q0.8125 -1.65625 2.265625 -2.546875q1.453125 -0.90625 3.3125 -0.90625q2.875 0 4.640625 2.0q1.78125 1.984375 1.78125 5.296875l0 0.15625q0 2.0625 -0.78125 3.703125q-0.78125 1.625 -2.25 2.546875q-1.46875 0.90625 -3.375 0.90625q-2.859375 0 -4.640625 -1.984375q-1.765625 -2.0 -1.765625 -5.28125l0 -0.171875zm2.421875 0.28125q0 2.34375 1.078125 3.765625q1.09375 1.421875 2.90625 1.421875q1.84375 0 2.921875 -1.4375q1.078125 -1.4375 1.078125 -4.03125q0 -2.3125 -1.109375 -3.75q-1.09375 -1.4375 -2.90625 -1.4375q-1.78125 0 -2.875 1.421875q-1.09375 1.40625 -1.09375 4.046875zm20.218018 -5.03125q-0.546875 -0.09375 -1.1875 -0.09375q-2.359375 0 -3.203125 2.015625l0 10.0l-2.40625 0l0 -14.078125l2.34375 0l0.03125 1.625q1.1875 -1.890625 3.359375 -1.890625q0.703125 0 1.0625 0.1875l0 2.234375zm7.0668335 8.390625l3.265625 -10.546875l2.578125 0l-5.65625 16.25q-1.3125 3.515625 -4.171875 3.515625l-0.46875 -0.03125l-0.890625 -0.171875l0 -1.953125l0.65625 0.046875q1.21875 0 1.890625 -0.5q0.6875 -0.484375 1.140625 -1.796875l0.53125 -1.4375l-5.03125 -13.921875l2.640625 0l3.515625 10.546875zm23.289368 3.53125q-0.203125 -0.421875 -0.34375 -1.484375q-1.671875 1.75 -4.0 1.75q-2.078125 0 -3.421875 -1.171875q-1.328125 -1.1875 -1.328125 -3.0q0 -2.203125 1.671875 -3.40625q1.671875 -1.21875 4.703125 -1.21875l2.34375 0l0 -1.109375q0 -1.265625 -0.765625 -2.015625q-0.75 -0.75 -2.21875 -0.75q-1.28125 0 -2.15625 0.65625q-0.875 0.640625 -0.875 1.578125l-2.421875 0q0 -1.0625 0.75 -2.046875q0.75 -0.984375 2.03125 -1.546875q1.28125 -0.578125 2.8125 -0.578125q2.4375 0 3.8125 1.21875q1.390625 1.21875 1.4375 3.34375l0 6.484375q0 1.9375 0.5 3.09375l0 0.203125l-2.53125 0zm-4.0 -1.828125q1.140625 0 2.15625 -0.578125q1.015625 -0.59375 1.46875 -1.53125l0 -2.890625l-1.890625 0q-4.421875 0 -4.421875 2.578125q0 1.140625 0.75 1.78125q0.765625 0.640625 1.9375 0.640625zm16.608887 -10.09375q-0.546875 -0.09375 -1.1875 -0.09375q-2.359375 0 -3.203125 2.015625l0 10.0l-2.40625 0l0 -14.078125l2.34375 0l0.03125 1.625q1.1875 -1.890625 3.359375 -1.890625q0.703125 0 1.0625 0.1875l0 2.234375zm7.819397 12.1875q-2.875 0 -4.671875 -1.875q-1.796875 -1.890625 -1.796875 -5.046875l0 -0.4375q0 -2.09375 0.796875 -3.734375q0.8125 -1.65625 2.25 -2.578125q1.4375 -0.9375 3.109375 -0.9375q2.75 0 4.265625 1.8125q1.53125 1.8125 1.53125 5.171875l0 1.0l-9.53125 0q0.046875 2.09375 1.203125 3.375q1.171875 1.28125 2.96875 1.28125q1.28125 0 2.15625 -0.515625q0.890625 -0.53125 1.546875 -1.390625l1.484375 1.15625q-1.78125 2.71875 -5.3125 2.71875zm-0.3125 -12.625q-1.453125 0 -2.4375 1.0625q-0.984375 1.046875 -1.21875 2.96875l7.046875 0l0 -0.1875q-0.109375 -1.828125 -1.0 -2.828125q-0.875 -1.015625 -2.390625 -1.015625z" fill-rule="nonzero"/><path fill="#010000" fill-opacity="0.0" d="m682.095 266.31366l115.28052 0l0 31.237793l-115.28052 0l0 -31.237793z" fill-rule="nonzero"/><path fill="#ffffff" d="m683.32935 283.88733q0 -3.25 1.53125 -5.21875q1.546875 -1.96875 4.03125 -1.96875q2.46875 0 3.921875 1.6875l0 -7.34375l2.40625 0l0 20.0l-2.21875 0l-0.109375 -1.515625q-1.453125 1.78125 -4.03125 1.78125q-2.4375 0 -3.984375 -2.0q-1.546875 -2.015625 -1.546875 -5.234375l0 -0.1875zm2.40625 0.265625q0 2.40625 0.984375 3.765625q1.0 1.34375 2.734375 1.34375q2.296875 0 3.359375 -2.0625l0 -6.46875q-1.09375 -1.984375 -3.328125 -1.984375q-1.765625 0 -2.765625 1.375q-0.984375 1.359375 -0.984375 4.03125zm15.830078 6.890625l-2.40625 0l0 -14.078125l2.40625 0l0 14.078125zm-2.609375 -17.8125q0 -0.59375 0.359375 -1.0q0.359375 -0.40625 1.0625 -0.40625q0.703125 0 1.0625 0.40625q0.375 0.40625 0.375 1.0q0 0.578125 -0.375 0.96875q-0.359375 0.390625 -1.0625 0.390625q-0.703125 0 -1.0625 -0.390625q-0.359375 -0.390625 -0.359375 -0.96875zm14.656311 14.078125q0 -0.984375 -0.734375 -1.515625q-0.734375 -0.546875 -2.5625 -0.9375q-1.828125 -0.390625 -2.90625 -0.9375q-1.0625 -0.546875 -1.578125 -1.296875q-0.515625 -0.75 -0.515625 -1.796875q0 -1.734375 1.453125 -2.921875q1.46875 -1.203125 3.75 -1.203125q2.390625 0 3.875 1.234375q1.5 1.234375 1.5 3.171875l-2.421875 0q0 -1.0 -0.84375 -1.703125q-0.828125 -0.71875 -2.109375 -0.71875q-1.3125 0 -2.0625 0.578125q-0.734375 0.5625 -0.734375 1.484375q0 0.875 0.6875 1.328125q0.6875 0.4375 2.484375 0.84375q1.8125 0.390625 2.921875 0.953125q1.125 0.5625 1.671875 1.359375q0.546875 0.78125 0.546875 1.90625q0 1.890625 -1.515625 3.03125q-1.515625 1.140625 -3.921875 1.140625q-1.6875 0 -3.0 -0.59375q-1.296875 -0.609375 -2.03125 -1.671875q-0.734375 -1.078125 -0.734375 -2.328125l2.40625 0q0.0625 1.203125 0.96875 1.921875q0.90625 0.703125 2.390625 0.703125q1.375 0 2.1875 -0.546875q0.828125 -0.5625 0.828125 -1.484375zm13.744629 0q0 -0.984375 -0.734375 -1.515625q-0.734375 -0.546875 -2.5625 -0.9375q-1.828125 -0.390625 -2.90625 -0.9375q-1.0625 -0.546875 -1.578125 -1.296875q-0.515625 -0.75 -0.515625 -1.796875q0 -1.734375 1.453125 -2.921875q1.46875 -1.203125 3.75 -1.203125q2.390625 0 3.875 1.234375q1.5 1.234375 1.5 3.171875l-2.421875 0q0 -1.0 -0.84375 -1.703125q-0.828125 -0.71875 -2.109375 -0.71875q-1.3125 0 -2.0625 0.578125q-0.734375 0.5625 -0.734375 1.484375q0 0.875 0.6875 1.328125q0.6875 0.4375 2.484375 0.84375q1.8125 0.390625 2.921875 0.953125q1.125 0.5625 1.671875 1.359375q0.546875 0.78125 0.546875 1.90625q0 1.890625 -1.515625 3.03125q-1.515625 1.140625 -3.921875 1.140625q-1.6875 0 -3.0 -0.59375q-1.296875 -0.609375 -2.03125 -1.671875q-0.734375 -1.078125 -0.734375 -2.328125l2.40625 0q0.0625 1.203125 0.96875 1.921875q0.90625 0.703125 2.390625 0.703125q1.375 0 2.1875 -0.546875q0.828125 -0.5625 0.828125 -1.484375zm8.166504 3.734375l-2.40625 0l0 -14.078125l2.40625 0l0 14.078125zm-2.609375 -17.8125q0 -0.59375 0.359375 -1.0q0.359375 -0.40625 1.0625 -0.40625q0.703125 0 1.0625 0.40625q0.375 0.40625 0.375 1.0q0 0.578125 -0.375 0.96875q-0.359375 0.390625 -1.0625 0.390625q-0.703125 0 -1.0625 -0.390625q-0.359375 -0.390625 -0.359375 -0.96875zm8.734436 3.734375l0.0625 1.5625q1.546875 -1.828125 4.171875 -1.828125q2.953125 0 4.03125 2.265625q0.703125 -1.015625 1.828125 -1.640625q1.125 -0.625 2.65625 -0.625q4.625 0 4.703125 4.90625l0 9.4375l-2.40625 0l0 -9.296875q0 -1.5 -0.6875 -2.25q-0.6875 -0.75 -2.3125 -0.75q-1.34375 0 -2.234375 0.796875q-0.875 0.796875 -1.015625 2.15625l0 9.34375l-2.421875 0l0 -9.234375q0 -3.0625 -3.015625 -3.0625q-2.359375 0 -3.234375 2.015625l0 10.28125l-2.40625 0l0 -14.078125l2.28125 0zm23.707031 14.078125l-2.40625 0l0 -14.078125l2.40625 0l0 14.078125zm-2.609375 -17.8125q0 -0.59375 0.359375 -1.0q0.359375 -0.40625 1.0625 -0.40625q0.703125 0 1.0625 0.40625q0.375 0.40625 0.375 1.0q0 0.578125 -0.375 0.96875q-0.359375 0.390625 -1.0625 0.390625q-0.703125 0 -1.0625 -0.390625q-0.359375 -0.390625 -0.359375 -0.96875zm9.078186 17.8125l-2.40625 0l0 -20.0l2.40625 0l0 20.0zm12.546997 0q-0.203125 -0.421875 -0.34375 -1.484375q-1.671875 1.75 -4.0 1.75q-2.078125 0 -3.421875 -1.171875q-1.328125 -1.1875 -1.328125 -3.0q0 -2.203125 1.671875 -3.40625q1.671875 -1.21875 4.703125 -1.21875l2.34375 0l0 -1.109375q0 -1.265625 -0.765625 -2.015625q-0.75 -0.75 -2.21875 -0.75q-1.28125 0 -2.15625 0.65625q-0.875 0.640625 -0.875 1.578125l-2.421875 0q0 -1.0625 0.75 -2.046875q0.75 -0.984375 2.03125 -1.546875q1.28125 -0.578125 2.8125 -0.578125q2.4375 0 3.8125 1.21875q1.390625 1.21875 1.4375 3.34375l0 6.484375q0 1.9375 0.5 3.09375l0 0.203125l-2.53125 0zm-4.0 -1.828125q1.140625 0 2.15625 -0.578125q1.015625 -0.59375 1.46875 -1.53125l0 -2.890625l-1.890625 0q-4.421875 0 -4.421875 2.578125q0 1.140625 0.75 1.78125q0.765625 0.640625 1.9375 0.640625zm16.608887 -10.09375q-0.546875 -0.09375 -1.1875 -0.09375q-2.359375 0 -3.203125 2.015625l0 10.0l-2.40625 0l0 -14.078125l2.34375 0l0.03125 1.625q1.1875 -1.890625 3.359375 -1.890625q0.703125 0 1.0625 0.1875l0 2.234375z" fill-rule="nonzero"/><path fill="#010000" fill-opacity="0.0" d="m797.3755 266.31366l0 0l0 31.237793l0 0l0 -31.237793z" fill-rule="nonzero"/><path fill="#ffffff" d="m682.095 292.77692l115.28052 0l0 2.399994l-115.28052 0l0 -2.399994z" fill-rule="nonzero"/><path fill="#000000" fill-opacity="0.0" d="m524.5853 266.45932l-90.55121 -1.0078735" fill-rule="evenodd"/><path stroke="#595959" stroke-width="1.0" stroke-linejoin="round" stroke-linecap="butt" d="m524.5853 266.45932l-84.551575 -0.9411011" fill-rule="evenodd"/><path fill="#595959" stroke="#595959" stroke-width="1.0" stroke-linecap="butt" d="m440.05212 263.86658l-4.556183 1.6011353l4.519409 1.7021484z" fill-rule="evenodd"/><path fill="#000000" fill-opacity="0.0" d="m524.5853 266.45932l-80.72443 32.283447" fill-rule="evenodd"/><path stroke="#595959" stroke-width="1.0" stroke-linejoin="round" stroke-linecap="butt" d="m524.5853 266.45932l-75.15341 30.055481" fill-rule="evenodd"/><path fill="#595959" stroke="#595959" stroke-width="1.0" stroke-linecap="butt" d="m448.81857 294.98117l-3.6003113 3.2187805l4.8269653 -0.15148926z" fill-rule="evenodd"/><path fill="#000000" fill-opacity="0.0" d="m524.5853 266.45932l-85.13388 -35.55905" fill-rule="evenodd"/><path stroke="#595959" stroke-width="1.0" stroke-linejoin="round" stroke-linecap="butt" d="m524.5853 266.45932l-79.59741 -33.24655" fill-rule="evenodd"/><path fill="#595959" stroke="#595959" stroke-width="1.0" stroke-linecap="butt" d="m445.6245 231.68863l-4.8240967 -0.22492981l3.5508728 3.273178z" fill-rule="evenodd"/></g></svg>