<?xml version="1.0" encoding="utf-8" standalone="no"?>
<!DOCTYPE svg PUBLIC "-//W3C//DTD SVG 1.1//EN"
  "http://www.w3.org/Graphics/SVG/1.1/DTD/svg11.dtd">
<!-- Created with matplotlib (http://matplotlib.org/) -->
<svg height="252pt" version="1.1" viewBox="0 0 372 252" width="372pt" xmlns="http://www.w3.org/2000/svg" xmlns:xlink="http://www.w3.org/1999/xlink">
 <defs>
  <style type="text/css">
*{stroke-linecap:butt;stroke-linejoin:round;}
  </style>
 </defs>
 <g id="figure_1">
  <g id="patch_1">
   <path d="M -0 252.018125 
L 372.425 252.018125 
L 372.425 0 
L -0 0 
z
" style="fill:#ffffff;"/>
  </g>
  <g id="axes_1">
   <g id="PatchCollection_1">
    <defs>
     <path d="M 308.923454 -38.58207 
L 341.66587 -101.25944 
L 243.438623 -122.151897 
L 145.211377 -80.366983 
L 177.953792 -38.58207 
L 308.923454 -38.58207 
" id="m0944d1b806" style="stroke:#1f77b4;stroke-width:2;"/>
    </defs>
    <g clip-path="url(#p04fa558f06)">
     <use style="fill:#1f77b4;fill-opacity:0.5;stroke:#1f77b4;stroke-width:2;" x="0" xlink:href="#m0944d1b806" y="252.018125"/>
    </g>
   </g>
   <g id="PathCollection_1">
    <defs>
     <path d="M 0 3 
C 0.795609 3 1.55874 2.683901 2.12132 2.12132 
C 2.683901 1.55874 3 0.795609 3 0 
C 3 -0.795609 2.683901 -1.55874 2.12132 -2.12132 
C 1.55874 -2.683901 0.795609 -3 0 -3 
C -0.795609 -3 -1.55874 -2.683901 -2.12132 -2.12132 
C -2.683901 -1.55874 -3 -0.795609 -3 0 
C -3 0.795609 -2.683901 1.55874 -2.12132 2.12132 
C -1.55874 2.683901 -0.795609 3 0 3 
z
" id="m0de51010c7" style="stroke:#1f77b4;stroke-width:2;"/>
    </defs>
    <g clip-path="url(#p04fa558f06)">
     <use style="fill:#1f77b4;stroke:#1f77b4;stroke-width:2;" x="79.726546" xlink:href="#m0de51010c7" y="25.403945"/>
    </g>
   </g>
   <g id="PathCollection_2">
    <defs>
     <path d="M 0 5 
C 1.326016 5 2.597899 4.473168 3.535534 3.535534 
C 4.473168 2.597899 5 1.326016 5 0 
C 5 -1.326016 4.473168 -2.597899 3.535534 -3.535534 
C 2.597899 -4.473168 1.326016 -5 0 -5 
C -1.326016 -5 -2.597899 -4.473168 -3.535534 -3.535534 
C -4.473168 -2.597899 -5 -1.326016 -5 0 
C -5 1.326016 -4.473168 2.597899 -3.535534 3.535534 
C -2.597899 4.473168 -1.326016 5 0 5 
z
" id="mf42f2f5e88" style="stroke:#1f77b4;"/>
    </defs>
    <g clip-path="url(#p04fa558f06)">
     <use style="fill:#1f77b4;stroke:#1f77b4;" x="79.726546" xlink:href="#mf42f2f5e88" y="25.403945"/>
     <use style="fill:#1f77b4;stroke:#1f77b4;" x="46.98413" xlink:href="#mf42f2f5e88" y="192.543598"/>
     <use style="fill:#1f77b4;stroke:#1f77b4;" x="46.98413" xlink:href="#mf42f2f5e88" y="129.866228"/>
     <use style="fill:#1f77b4;stroke:#1f77b4;" x="145.211377" xlink:href="#mf42f2f5e88" y="67.188858"/>
     <use style="fill:#1f77b4;stroke:#1f77b4;" x="243.438623" xlink:href="#mf42f2f5e88" y="88.081315"/>
     <use style="fill:#1f77b4;stroke:#1f77b4;" x="308.923454" xlink:href="#mf42f2f5e88" y="46.296402"/>
     <use style="fill:#1f77b4;stroke:#1f77b4;" x="308.923454" xlink:href="#mf42f2f5e88" y="213.436055"/>
     <use style="fill:#1f77b4;stroke:#1f77b4;" x="341.66587" xlink:href="#mf42f2f5e88" y="150.758685"/>
     <use style="fill:#1f77b4;stroke:#1f77b4;" x="243.438623" xlink:href="#mf42f2f5e88" y="129.866228"/>
     <use style="fill:#1f77b4;stroke:#1f77b4;" x="145.211377" xlink:href="#mf42f2f5e88" y="171.651142"/>
     <use style="fill:#1f77b4;stroke:#1f77b4;" x="177.953792" xlink:href="#mf42f2f5e88" y="213.436055"/>
     <use style="fill:#1f77b4;stroke:#1f77b4;" x="308.923454" xlink:href="#mf42f2f5e88" y="213.436055"/>
    </g>
   </g>
   <g id="LineCollection_1">
    <path clip-path="url(#p04fa558f06)" d="M 46.98413 192.543598 
L 46.98413 129.866228 
L 145.211377 67.188858 
L 243.438623 88.081315 
L 308.923454 46.296402 
" style="fill:none;stroke:#1f77b4;stroke-width:2;"/>
   </g>
  </g>
 </g>
 <defs>
  <clipPath id="p04fa558f06">
   <rect height="217.44" width="334.8" x="26.925" y="10.7"/>
  </clipPath>
 </defs>
</svg>
